M48
; DRILL file {KiCad (5.1.8)-1} date 06/30/21 11:31:23
; FORMAT={-:-/ absolute / inch / decimal}
; #@! TF.CreationDate,2021-06-30T11:31:23+03:00
; #@! TF.GenerationSoftware,Kicad,Pcbnew,(5.1.8)-1
FMAT,2
INCH
T1C0.0118
T2C0.0433
%
G90
G05
T1
X4.0551Y-2.1161
X4.0551Y-2.1949
X4.0551Y-2.2736
X4.0551Y-2.3524
X4.0551Y-2.4311
X4.0551Y-2.5098
X4.0551Y-2.5886
X4.0551Y-2.6673
X4.0551Y-2.7461
X4.0551Y-2.8248
X4.0551Y-2.9035
X4.0551Y-2.9823
X4.0551Y-3.061
X4.0551Y-3.1024
X4.0551Y-3.1398
X4.0551Y-3.1772
X4.0551Y-3.2185
X4.0551Y-3.2972
X4.0551Y-3.376
X4.0551Y-3.4547
X4.0551Y-3.5335
X4.0551Y-3.6122
X4.0551Y-3.6909
X4.0551Y-3.7697
X4.0551Y-3.8484
X4.0551Y-3.9272
X4.0551Y-4.0059
X4.0551Y-4.0846
X4.0866Y-3.4921
X4.0945Y-3.1181
X4.1102Y-3.4921
X4.1142Y-2.0571
X4.1181Y-3.1181
X4.1339Y-3.4921
X4.1339Y-4.0846
X4.1417Y-3.1181
X4.185Y-2.0551
X4.185Y-3.4567
X4.2126Y-4.0846
X4.2165Y-2.9528
X4.2598Y-2.0551
X4.2913Y-4.0846
X4.3071Y-2.0551
X4.3228Y-3.4173
X4.3268Y-3.2402
X4.3268Y-3.2638
X4.3268Y-3.2874
X4.3268Y-3.311
X4.3543Y-2.0551
X4.3543Y-3.0197
X4.3661Y-3.6535
X4.3701Y-2.3937
X4.3701Y-4.0846
X4.3937Y-2.0551
X4.4488Y-4.0846
X4.4783Y-3.75
X4.4783Y-3.8386
X4.4783Y-3.9272
X4.4783Y-4.0157
X4.5118Y-2.9134
X4.5276Y-4.0846
X4.5315Y-2.0748
X4.5787Y-2.7008
X4.6063Y-4.0846
X4.622Y-2.9803
X4.626Y-3.1417
X4.6378Y-2.3701
X4.6555Y-2.6772
X4.685Y-4.0846
X4.7539Y-3.3366
X4.7539Y-3.3661
X4.7539Y-3.3957
X4.7539Y-3.4252
X4.7539Y-3.4547
X4.7638Y-2.2441
X4.7638Y-2.5
X4.7638Y-4.0846
X4.7874Y-3.1024
X4.8425Y-4.0846
X4.8898Y-2.374
X4.9213Y-4.0846
X5.0Y-4.0846
X5.0295Y-3.3465
X5.0295Y-3.376
X5.0295Y-3.4055
X5.0295Y-3.435
X5.0295Y-3.4646
X5.0591Y-2.2244
X5.0748Y-2.0748
X5.0787Y-4.0846
X5.1181Y-3.7303
X5.1181Y-3.8189
X5.1181Y-3.9173
X5.1181Y-4.0157
X5.1496Y-2.7913
X5.1575Y-4.0846
X5.185Y-2.7756
X5.1969Y-2.4331
X5.2008Y-2.4803
X5.2028Y-2.5787
X5.2047Y-2.0748
X5.2047Y-2.5315
X5.2244Y-2.7913
X5.2362Y-3.1614
X5.2362Y-4.0846
X5.2402Y-2.3819
X5.25Y-2.7598
X5.2559Y-2.2244
X5.2638Y-2.7244
X5.2657Y-2.0571
X5.2835Y-3.3268
X5.311Y-2.3819
X5.315Y-4.0846
X5.3268Y-2.5945
X5.3307Y-2.1575
X5.3346Y-3.1614
X5.3445Y-2.0571
X5.3583Y-2.1339
X5.3937Y-4.0846
X5.4173Y-2.5
X5.4232Y-2.0571
X5.4724Y-4.0846
X5.502Y-2.0571
X5.5512Y-2.1161
X5.5512Y-2.1949
X5.5512Y-2.2736
X5.5512Y-2.3524
X5.5512Y-2.4311
X5.5512Y-2.5098
X5.5512Y-2.5886
X5.5512Y-2.6673
X5.5512Y-2.7461
X5.5512Y-2.8248
X5.5512Y-2.9035
X5.5512Y-3.061
X5.5512Y-3.1398
X5.5512Y-3.2185
X5.5512Y-3.2972
X5.5512Y-3.376
X5.5512Y-3.4547
X5.5512Y-3.5335
X5.5512Y-3.6122
X5.5512Y-3.6909
X5.5512Y-3.7697
X5.5512Y-3.8484
X5.5512Y-3.9272
X5.5512Y-4.0059
X5.5512Y-4.0846
T2
X4.6004Y-3.9193
X4.8004Y-3.9193
X5.0004Y-3.9193
X5.2421Y-3.9193
X5.4421Y-3.9193
X4.1575Y-3.9193
X4.3575Y-3.9193
T0
M30
