G04 #@! TF.GenerationSoftware,KiCad,Pcbnew,(5.1.9)-1*
G04 #@! TF.CreationDate,2021-10-18T17:35:56+03:00*
G04 #@! TF.ProjectId,CanLite,43616e4c-6974-4652-9e6b-696361645f70,rev?*
G04 #@! TF.SameCoordinates,Original*
G04 #@! TF.FileFunction,Legend,Top*
G04 #@! TF.FilePolarity,Positive*
%FSLAX46Y46*%
G04 Gerber Fmt 4.6, Leading zero omitted, Abs format (unit mm)*
G04 Created by KiCad (PCBNEW (5.1.9)-1) date 2021-10-18 17:35:56*
%MOMM*%
%LPD*%
G01*
G04 APERTURE LIST*
%ADD10C,0.150000*%
%ADD11C,0.200000*%
%ADD12C,0.120000*%
G04 APERTURE END LIST*
D10*
X106069047Y-67111904D02*
X106069047Y-66311904D01*
X106602380Y-66311904D02*
X106754761Y-66311904D01*
X106830952Y-66350000D01*
X106907142Y-66426190D01*
X106945238Y-66578571D01*
X106945238Y-66845238D01*
X106907142Y-66997619D01*
X106830952Y-67073809D01*
X106754761Y-67111904D01*
X106602380Y-67111904D01*
X106526190Y-67073809D01*
X106450000Y-66997619D01*
X106411904Y-66845238D01*
X106411904Y-66578571D01*
X106450000Y-66426190D01*
X106526190Y-66350000D01*
X106602380Y-66311904D01*
X107250000Y-66388095D02*
X107288095Y-66350000D01*
X107364285Y-66311904D01*
X107554761Y-66311904D01*
X107630952Y-66350000D01*
X107669047Y-66388095D01*
X107707142Y-66464285D01*
X107707142Y-66540476D01*
X107669047Y-66654761D01*
X107211904Y-67111904D01*
X107707142Y-67111904D01*
X107973809Y-66311904D02*
X108507142Y-66311904D01*
X108164285Y-67111904D01*
X106069047Y-65861904D02*
X106069047Y-65061904D01*
X106602380Y-65061904D02*
X106754761Y-65061904D01*
X106830952Y-65100000D01*
X106907142Y-65176190D01*
X106945238Y-65328571D01*
X106945238Y-65595238D01*
X106907142Y-65747619D01*
X106830952Y-65823809D01*
X106754761Y-65861904D01*
X106602380Y-65861904D01*
X106526190Y-65823809D01*
X106450000Y-65747619D01*
X106411904Y-65595238D01*
X106411904Y-65328571D01*
X106450000Y-65176190D01*
X106526190Y-65100000D01*
X106602380Y-65061904D01*
X107250000Y-65138095D02*
X107288095Y-65100000D01*
X107364285Y-65061904D01*
X107554761Y-65061904D01*
X107630952Y-65100000D01*
X107669047Y-65138095D01*
X107707142Y-65214285D01*
X107707142Y-65290476D01*
X107669047Y-65404761D01*
X107211904Y-65861904D01*
X107707142Y-65861904D01*
X108392857Y-65061904D02*
X108240476Y-65061904D01*
X108164285Y-65100000D01*
X108126190Y-65138095D01*
X108050000Y-65252380D01*
X108011904Y-65404761D01*
X108011904Y-65709523D01*
X108050000Y-65785714D01*
X108088095Y-65823809D01*
X108164285Y-65861904D01*
X108316666Y-65861904D01*
X108392857Y-65823809D01*
X108430952Y-65785714D01*
X108469047Y-65709523D01*
X108469047Y-65519047D01*
X108430952Y-65442857D01*
X108392857Y-65404761D01*
X108316666Y-65366666D01*
X108164285Y-65366666D01*
X108088095Y-65404761D01*
X108050000Y-65442857D01*
X108011904Y-65519047D01*
X106069047Y-64611904D02*
X106069047Y-63811904D01*
X106602380Y-63811904D02*
X106754761Y-63811904D01*
X106830952Y-63850000D01*
X106907142Y-63926190D01*
X106945238Y-64078571D01*
X106945238Y-64345238D01*
X106907142Y-64497619D01*
X106830952Y-64573809D01*
X106754761Y-64611904D01*
X106602380Y-64611904D01*
X106526190Y-64573809D01*
X106450000Y-64497619D01*
X106411904Y-64345238D01*
X106411904Y-64078571D01*
X106450000Y-63926190D01*
X106526190Y-63850000D01*
X106602380Y-63811904D01*
X107250000Y-63888095D02*
X107288095Y-63850000D01*
X107364285Y-63811904D01*
X107554761Y-63811904D01*
X107630952Y-63850000D01*
X107669047Y-63888095D01*
X107707142Y-63964285D01*
X107707142Y-64040476D01*
X107669047Y-64154761D01*
X107211904Y-64611904D01*
X107707142Y-64611904D01*
X108430952Y-63811904D02*
X108050000Y-63811904D01*
X108011904Y-64192857D01*
X108050000Y-64154761D01*
X108126190Y-64116666D01*
X108316666Y-64116666D01*
X108392857Y-64154761D01*
X108430952Y-64192857D01*
X108469047Y-64269047D01*
X108469047Y-64459523D01*
X108430952Y-64535714D01*
X108392857Y-64573809D01*
X108316666Y-64611904D01*
X108126190Y-64611904D01*
X108050000Y-64573809D01*
X108011904Y-64535714D01*
X106069047Y-62111904D02*
X106069047Y-61311904D01*
X106602380Y-61311904D02*
X106754761Y-61311904D01*
X106830952Y-61350000D01*
X106907142Y-61426190D01*
X106945238Y-61578571D01*
X106945238Y-61845238D01*
X106907142Y-61997619D01*
X106830952Y-62073809D01*
X106754761Y-62111904D01*
X106602380Y-62111904D01*
X106526190Y-62073809D01*
X106450000Y-61997619D01*
X106411904Y-61845238D01*
X106411904Y-61578571D01*
X106450000Y-61426190D01*
X106526190Y-61350000D01*
X106602380Y-61311904D01*
X107211904Y-61311904D02*
X107707142Y-61311904D01*
X107440476Y-61616666D01*
X107554761Y-61616666D01*
X107630952Y-61654761D01*
X107669047Y-61692857D01*
X107707142Y-61769047D01*
X107707142Y-61959523D01*
X107669047Y-62035714D01*
X107630952Y-62073809D01*
X107554761Y-62111904D01*
X107326190Y-62111904D01*
X107250000Y-62073809D01*
X107211904Y-62035714D01*
X108011904Y-61388095D02*
X108050000Y-61350000D01*
X108126190Y-61311904D01*
X108316666Y-61311904D01*
X108392857Y-61350000D01*
X108430952Y-61388095D01*
X108469047Y-61464285D01*
X108469047Y-61540476D01*
X108430952Y-61654761D01*
X107973809Y-62111904D01*
X108469047Y-62111904D01*
X119909523Y-93871428D02*
X120671428Y-93871428D01*
X120290476Y-94252380D02*
X120290476Y-93490476D01*
X121480952Y-93728571D02*
X121623809Y-93776190D01*
X121671428Y-93823809D01*
X121719047Y-93919047D01*
X121719047Y-94061904D01*
X121671428Y-94157142D01*
X121623809Y-94204761D01*
X121528571Y-94252380D01*
X121147619Y-94252380D01*
X121147619Y-93252380D01*
X121480952Y-93252380D01*
X121576190Y-93300000D01*
X121623809Y-93347619D01*
X121671428Y-93442857D01*
X121671428Y-93538095D01*
X121623809Y-93633333D01*
X121576190Y-93680952D01*
X121480952Y-93728571D01*
X121147619Y-93728571D01*
X122100000Y-93966666D02*
X122576190Y-93966666D01*
X122004761Y-94252380D02*
X122338095Y-93252380D01*
X122671428Y-94252380D01*
X122861904Y-93252380D02*
X123433333Y-93252380D01*
X123147619Y-94252380D02*
X123147619Y-93252380D01*
X125523809Y-93252380D02*
X125714285Y-93252380D01*
X125809523Y-93300000D01*
X125904761Y-93395238D01*
X125952380Y-93585714D01*
X125952380Y-93919047D01*
X125904761Y-94109523D01*
X125809523Y-94204761D01*
X125714285Y-94252380D01*
X125523809Y-94252380D01*
X125428571Y-94204761D01*
X125333333Y-94109523D01*
X125285714Y-93919047D01*
X125285714Y-93585714D01*
X125333333Y-93395238D01*
X125428571Y-93300000D01*
X125523809Y-93252380D01*
X126380952Y-93252380D02*
X126380952Y-94061904D01*
X126428571Y-94157142D01*
X126476190Y-94204761D01*
X126571428Y-94252380D01*
X126761904Y-94252380D01*
X126857142Y-94204761D01*
X126904761Y-94157142D01*
X126952380Y-94061904D01*
X126952380Y-93252380D01*
X127285714Y-93252380D02*
X127857142Y-93252380D01*
X127571428Y-94252380D02*
X127571428Y-93252380D01*
X128142857Y-93347619D02*
X128190476Y-93300000D01*
X128285714Y-93252380D01*
X128523809Y-93252380D01*
X128619047Y-93300000D01*
X128666666Y-93347619D01*
X128714285Y-93442857D01*
X128714285Y-93538095D01*
X128666666Y-93680952D01*
X128095238Y-94252380D01*
X128714285Y-94252380D01*
X115023809Y-93252380D02*
X115214285Y-93252380D01*
X115309523Y-93300000D01*
X115404761Y-93395238D01*
X115452380Y-93585714D01*
X115452380Y-93919047D01*
X115404761Y-94109523D01*
X115309523Y-94204761D01*
X115214285Y-94252380D01*
X115023809Y-94252380D01*
X114928571Y-94204761D01*
X114833333Y-94109523D01*
X114785714Y-93919047D01*
X114785714Y-93585714D01*
X114833333Y-93395238D01*
X114928571Y-93300000D01*
X115023809Y-93252380D01*
X115880952Y-93252380D02*
X115880952Y-94061904D01*
X115928571Y-94157142D01*
X115976190Y-94204761D01*
X116071428Y-94252380D01*
X116261904Y-94252380D01*
X116357142Y-94204761D01*
X116404761Y-94157142D01*
X116452380Y-94061904D01*
X116452380Y-93252380D01*
X116785714Y-93252380D02*
X117357142Y-93252380D01*
X117071428Y-94252380D02*
X117071428Y-93252380D01*
X118214285Y-94252380D02*
X117642857Y-94252380D01*
X117928571Y-94252380D02*
X117928571Y-93252380D01*
X117833333Y-93395238D01*
X117738095Y-93490476D01*
X117642857Y-93538095D01*
X109638095Y-93871428D02*
X110400000Y-93871428D01*
X110019047Y-94252380D02*
X110019047Y-93490476D01*
X111400000Y-94252380D02*
X110828571Y-94252380D01*
X111114285Y-94252380D02*
X111114285Y-93252380D01*
X111019047Y-93395238D01*
X110923809Y-93490476D01*
X110828571Y-93538095D01*
X111780952Y-93347619D02*
X111828571Y-93300000D01*
X111923809Y-93252380D01*
X112161904Y-93252380D01*
X112257142Y-93300000D01*
X112304761Y-93347619D01*
X112352380Y-93442857D01*
X112352380Y-93538095D01*
X112304761Y-93680952D01*
X111733333Y-94252380D01*
X112352380Y-94252380D01*
X112638095Y-93252380D02*
X112971428Y-94252380D01*
X113304761Y-93252380D01*
X105638095Y-93300000D02*
X105542857Y-93252380D01*
X105400000Y-93252380D01*
X105257142Y-93300000D01*
X105161904Y-93395238D01*
X105114285Y-93490476D01*
X105066666Y-93680952D01*
X105066666Y-93823809D01*
X105114285Y-94014285D01*
X105161904Y-94109523D01*
X105257142Y-94204761D01*
X105400000Y-94252380D01*
X105495238Y-94252380D01*
X105638095Y-94204761D01*
X105685714Y-94157142D01*
X105685714Y-93823809D01*
X105495238Y-93823809D01*
X106114285Y-94252380D02*
X106114285Y-93252380D01*
X106685714Y-94252380D01*
X106685714Y-93252380D01*
X107161904Y-94252380D02*
X107161904Y-93252380D01*
X107400000Y-93252380D01*
X107542857Y-93300000D01*
X107638095Y-93395238D01*
X107685714Y-93490476D01*
X107733333Y-93680952D01*
X107733333Y-93823809D01*
X107685714Y-94014285D01*
X107638095Y-94109523D01*
X107542857Y-94204761D01*
X107400000Y-94252380D01*
X107161904Y-94252380D01*
X130752380Y-94157142D02*
X130704761Y-94204761D01*
X130561904Y-94252380D01*
X130466666Y-94252380D01*
X130323809Y-94204761D01*
X130228571Y-94109523D01*
X130180952Y-94014285D01*
X130133333Y-93823809D01*
X130133333Y-93680952D01*
X130180952Y-93490476D01*
X130228571Y-93395238D01*
X130323809Y-93300000D01*
X130466666Y-93252380D01*
X130561904Y-93252380D01*
X130704761Y-93300000D01*
X130752380Y-93347619D01*
X131133333Y-93966666D02*
X131609523Y-93966666D01*
X131038095Y-94252380D02*
X131371428Y-93252380D01*
X131704761Y-94252380D01*
X132038095Y-94252380D02*
X132038095Y-93252380D01*
X132609523Y-94252380D01*
X132609523Y-93252380D01*
X133561904Y-94252380D02*
X133085714Y-94252380D01*
X133085714Y-93252380D01*
X136233333Y-94157142D02*
X136185714Y-94204761D01*
X136042857Y-94252380D01*
X135947619Y-94252380D01*
X135804761Y-94204761D01*
X135709523Y-94109523D01*
X135661904Y-94014285D01*
X135614285Y-93823809D01*
X135614285Y-93680952D01*
X135661904Y-93490476D01*
X135709523Y-93395238D01*
X135804761Y-93300000D01*
X135947619Y-93252380D01*
X136042857Y-93252380D01*
X136185714Y-93300000D01*
X136233333Y-93347619D01*
X136614285Y-93966666D02*
X137090476Y-93966666D01*
X136519047Y-94252380D02*
X136852380Y-93252380D01*
X137185714Y-94252380D01*
X137519047Y-94252380D02*
X137519047Y-93252380D01*
X138090476Y-94252380D01*
X138090476Y-93252380D01*
X138566666Y-94252380D02*
X138566666Y-93252380D01*
X138566666Y-93728571D02*
X139138095Y-93728571D01*
X139138095Y-94252380D02*
X139138095Y-93252380D01*
X133757142Y-59457142D02*
X133957142Y-59457142D01*
X134042857Y-59771428D02*
X133757142Y-59771428D01*
X133757142Y-59171428D01*
X134042857Y-59171428D01*
X134300000Y-59771428D02*
X134300000Y-59171428D01*
X134642857Y-59771428D01*
X134642857Y-59171428D01*
X133500000Y-60771428D02*
X133500000Y-60171428D01*
X133900000Y-60171428D02*
X134014285Y-60171428D01*
X134071428Y-60200000D01*
X134128571Y-60257142D01*
X134157142Y-60371428D01*
X134157142Y-60571428D01*
X134128571Y-60685714D01*
X134071428Y-60742857D01*
X134014285Y-60771428D01*
X133900000Y-60771428D01*
X133842857Y-60742857D01*
X133785714Y-60685714D01*
X133757142Y-60571428D01*
X133757142Y-60371428D01*
X133785714Y-60257142D01*
X133842857Y-60200000D01*
X133900000Y-60171428D01*
X134528571Y-60171428D02*
X134585714Y-60171428D01*
X134642857Y-60200000D01*
X134671428Y-60228571D01*
X134700000Y-60285714D01*
X134728571Y-60400000D01*
X134728571Y-60542857D01*
X134700000Y-60657142D01*
X134671428Y-60714285D01*
X134642857Y-60742857D01*
X134585714Y-60771428D01*
X134528571Y-60771428D01*
X134471428Y-60742857D01*
X134442857Y-60714285D01*
X134414285Y-60657142D01*
X134385714Y-60542857D01*
X134385714Y-60400000D01*
X134414285Y-60285714D01*
X134442857Y-60228571D01*
X134471428Y-60200000D01*
X134528571Y-60171428D01*
X133600000Y-61771428D02*
X133400000Y-61485714D01*
X133257142Y-61771428D02*
X133257142Y-61171428D01*
X133485714Y-61171428D01*
X133542857Y-61200000D01*
X133571428Y-61228571D01*
X133600000Y-61285714D01*
X133600000Y-61371428D01*
X133571428Y-61428571D01*
X133542857Y-61457142D01*
X133485714Y-61485714D01*
X133257142Y-61485714D01*
X133800000Y-61171428D02*
X134200000Y-61771428D01*
X134200000Y-61171428D02*
X133800000Y-61771428D01*
X134428571Y-61771428D02*
X134428571Y-61171428D01*
X134571428Y-61171428D01*
X134657142Y-61200000D01*
X134714285Y-61257142D01*
X134742857Y-61314285D01*
X134771428Y-61428571D01*
X134771428Y-61514285D01*
X134742857Y-61628571D01*
X134714285Y-61685714D01*
X134657142Y-61742857D01*
X134571428Y-61771428D01*
X134428571Y-61771428D01*
X133342857Y-62171428D02*
X133685714Y-62171428D01*
X133514285Y-62771428D02*
X133514285Y-62171428D01*
X133828571Y-62171428D02*
X134228571Y-62771428D01*
X134228571Y-62171428D02*
X133828571Y-62771428D01*
X134457142Y-62771428D02*
X134457142Y-62171428D01*
X134600000Y-62171428D01*
X134685714Y-62200000D01*
X134742857Y-62257142D01*
X134771428Y-62314285D01*
X134800000Y-62428571D01*
X134800000Y-62514285D01*
X134771428Y-62628571D01*
X134742857Y-62685714D01*
X134685714Y-62742857D01*
X134600000Y-62771428D01*
X134457142Y-62771428D01*
X133542857Y-63200000D02*
X133485714Y-63171428D01*
X133400000Y-63171428D01*
X133314285Y-63200000D01*
X133257142Y-63257142D01*
X133228571Y-63314285D01*
X133200000Y-63428571D01*
X133200000Y-63514285D01*
X133228571Y-63628571D01*
X133257142Y-63685714D01*
X133314285Y-63742857D01*
X133400000Y-63771428D01*
X133457142Y-63771428D01*
X133542857Y-63742857D01*
X133571428Y-63714285D01*
X133571428Y-63514285D01*
X133457142Y-63514285D01*
X133828571Y-63771428D02*
X133828571Y-63171428D01*
X134171428Y-63771428D01*
X134171428Y-63171428D01*
X134457142Y-63771428D02*
X134457142Y-63171428D01*
X134600000Y-63171428D01*
X134685714Y-63200000D01*
X134742857Y-63257142D01*
X134771428Y-63314285D01*
X134800000Y-63428571D01*
X134800000Y-63514285D01*
X134771428Y-63628571D01*
X134742857Y-63685714D01*
X134685714Y-63742857D01*
X134600000Y-63771428D01*
X134457142Y-63771428D01*
X133257142Y-64271428D02*
X133628571Y-64271428D01*
X133428571Y-64500000D01*
X133514285Y-64500000D01*
X133571428Y-64528571D01*
X133600000Y-64557142D01*
X133628571Y-64614285D01*
X133628571Y-64757142D01*
X133600000Y-64814285D01*
X133571428Y-64842857D01*
X133514285Y-64871428D01*
X133342857Y-64871428D01*
X133285714Y-64842857D01*
X133257142Y-64814285D01*
X133800000Y-64271428D02*
X134000000Y-64871428D01*
X134200000Y-64271428D01*
X134342857Y-64271428D02*
X134714285Y-64271428D01*
X134514285Y-64500000D01*
X134600000Y-64500000D01*
X134657142Y-64528571D01*
X134685714Y-64557142D01*
X134714285Y-64614285D01*
X134714285Y-64757142D01*
X134685714Y-64814285D01*
X134657142Y-64842857D01*
X134600000Y-64871428D01*
X134428571Y-64871428D01*
X134371428Y-64842857D01*
X134342857Y-64814285D01*
X103661904Y-82795238D02*
X103661904Y-83252380D01*
X103661904Y-83023809D02*
X102861904Y-83023809D01*
X102976190Y-83100000D01*
X103052380Y-83176190D01*
X103090476Y-83252380D01*
X102938095Y-82490476D02*
X102900000Y-82452380D01*
X102861904Y-82376190D01*
X102861904Y-82185714D01*
X102900000Y-82109523D01*
X102938095Y-82071428D01*
X103014285Y-82033333D01*
X103090476Y-82033333D01*
X103204761Y-82071428D01*
X103661904Y-82528571D01*
X103661904Y-82033333D01*
X102861904Y-81804761D02*
X103661904Y-81538095D01*
X102861904Y-81271428D01*
X106509523Y-63133333D02*
X106890476Y-63133333D01*
X106433333Y-63361904D02*
X106700000Y-62561904D01*
X106966666Y-63361904D01*
X107233333Y-63361904D02*
X107233333Y-62561904D01*
X107423809Y-62561904D01*
X107538095Y-62600000D01*
X107614285Y-62676190D01*
X107652380Y-62752380D01*
X107690476Y-62904761D01*
X107690476Y-63019047D01*
X107652380Y-63171428D01*
X107614285Y-63247619D01*
X107538095Y-63323809D01*
X107423809Y-63361904D01*
X107233333Y-63361904D01*
X108490476Y-63285714D02*
X108452380Y-63323809D01*
X108338095Y-63361904D01*
X108261904Y-63361904D01*
X108147619Y-63323809D01*
X108071428Y-63247619D01*
X108033333Y-63171428D01*
X107995238Y-63019047D01*
X107995238Y-62904761D01*
X108033333Y-62752380D01*
X108071428Y-62676190D01*
X108147619Y-62600000D01*
X108261904Y-62561904D01*
X108338095Y-62561904D01*
X108452380Y-62600000D01*
X108490476Y-62638095D01*
X104561904Y-55990476D02*
X104561904Y-55495238D01*
X104866666Y-55761904D01*
X104866666Y-55647619D01*
X104904761Y-55571428D01*
X104942857Y-55533333D01*
X105019047Y-55495238D01*
X105209523Y-55495238D01*
X105285714Y-55533333D01*
X105323809Y-55571428D01*
X105361904Y-55647619D01*
X105361904Y-55876190D01*
X105323809Y-55952380D01*
X105285714Y-55990476D01*
X104561904Y-55266666D02*
X105361904Y-55000000D01*
X104561904Y-54733333D01*
X104561904Y-54542857D02*
X104561904Y-54047619D01*
X104866666Y-54314285D01*
X104866666Y-54200000D01*
X104904761Y-54123809D01*
X104942857Y-54085714D01*
X105019047Y-54047619D01*
X105209523Y-54047619D01*
X105285714Y-54085714D01*
X105323809Y-54123809D01*
X105361904Y-54200000D01*
X105361904Y-54428571D01*
X105323809Y-54504761D01*
X105285714Y-54542857D01*
D11*
X107100000Y-80700000D02*
X107100000Y-73300000D01*
X107300000Y-73100000D02*
X113700000Y-73100000D01*
X113900000Y-73300000D02*
X113900000Y-80700000D01*
X113700000Y-80900000D02*
X107300000Y-80900000D01*
X113900000Y-80700000D02*
G75*
G02*
X113700000Y-80900000I-200000J0D01*
G01*
X113700000Y-73100000D02*
G75*
G02*
X113900000Y-73300000I0J-200000D01*
G01*
X107100000Y-73300000D02*
G75*
G02*
X107300000Y-73100000I200000J0D01*
G01*
X107300000Y-80900000D02*
G75*
G02*
X107100000Y-80700000I0J200000D01*
G01*
D12*
X123510000Y-78162779D02*
X123510000Y-77837221D01*
X122490000Y-78162779D02*
X122490000Y-77837221D01*
X123550000Y-88220000D02*
X123550000Y-89720000D01*
X123550000Y-89720000D02*
X124020000Y-89720000D01*
X124020000Y-89720000D02*
X124020000Y-92550000D01*
X130450000Y-88220000D02*
X130450000Y-89720000D01*
X130450000Y-89720000D02*
X129980000Y-89720000D01*
X129980000Y-89720000D02*
X129980000Y-90820000D01*
X114300000Y-88220000D02*
X114300000Y-89720000D01*
X114300000Y-89720000D02*
X114770000Y-89720000D01*
X114770000Y-89720000D02*
X114770000Y-92550000D01*
X121200000Y-88220000D02*
X121200000Y-89720000D01*
X121200000Y-89720000D02*
X120730000Y-89720000D01*
X120730000Y-89720000D02*
X120730000Y-90820000D01*
X124227500Y-78237258D02*
X124227500Y-77762742D01*
X125272500Y-78237258D02*
X125272500Y-77762742D01*
X109950000Y-61750000D02*
G75*
G03*
X109950000Y-61750000I-700000J0D01*
G01*
X109950000Y-66750000D02*
G75*
G03*
X109950000Y-66750000I-700000J0D01*
G01*
X111700000Y-65500000D02*
G75*
G03*
X111700000Y-65500000I-700000J0D01*
G01*
X109950000Y-64250000D02*
G75*
G03*
X109950000Y-64250000I-700000J0D01*
G01*
X137540000Y-57890000D02*
X136390000Y-57890000D01*
X136390000Y-57890000D02*
X136390000Y-58940000D01*
X136390000Y-58940000D02*
X135400000Y-58940000D01*
X137540000Y-66110000D02*
X136390000Y-66110000D01*
X136390000Y-66110000D02*
X136390000Y-65060000D01*
X139510000Y-59060000D02*
X139510000Y-64940000D01*
X106610000Y-80150000D02*
X106610000Y-77700000D01*
X103390000Y-78350000D02*
X103390000Y-80150000D01*
X112880000Y-51555000D02*
X112500000Y-51555000D01*
X112880000Y-45135000D02*
X112880000Y-51555000D01*
X131120000Y-45135000D02*
X131120000Y-51555000D01*
X112880000Y-45135000D02*
X131120000Y-45135000D01*
X131120000Y-70880000D02*
X130120000Y-70880000D01*
X131120000Y-70100000D02*
X131120000Y-70880000D01*
X112880000Y-70880000D02*
X113880000Y-70880000D01*
X112880000Y-70100000D02*
X112880000Y-70880000D01*
X105012742Y-75522500D02*
X105487258Y-75522500D01*
X105012742Y-74477500D02*
X105487258Y-74477500D01*
X106200000Y-81350000D02*
X111600000Y-81350000D01*
X106200000Y-84650000D02*
X111600000Y-84650000D01*
X106200000Y-81350000D02*
X106200000Y-84650000D01*
X103690000Y-85288748D02*
X103690000Y-86711252D01*
X105510000Y-85288748D02*
X105510000Y-86711252D01*
X105109420Y-77010000D02*
X105390580Y-77010000D01*
X105109420Y-75990000D02*
X105390580Y-75990000D01*
X103840000Y-103918000D02*
X104340000Y-103918000D01*
X103840000Y-103178000D02*
X103840000Y-103918000D01*
X113010000Y-95168000D02*
X113010000Y-96168000D01*
X110510000Y-95168000D02*
X110510000Y-96168000D01*
X110510000Y-96168000D02*
X113010000Y-96168000D01*
X110510000Y-95168000D02*
X113010000Y-95168000D01*
X110736000Y-100418000D02*
X110676000Y-100478000D01*
X112671000Y-98483000D02*
X112631000Y-98523000D01*
X110890000Y-100613000D02*
X110850000Y-100653000D01*
X112845000Y-98658000D02*
X112785000Y-98717000D01*
X107930000Y-95168000D02*
X107930000Y-96168000D01*
X105430000Y-95168000D02*
X105430000Y-96168000D01*
X105430000Y-96168000D02*
X107930000Y-96168000D01*
X105430000Y-95168000D02*
X107930000Y-95168000D01*
X114360000Y-95108000D02*
X114360000Y-103678000D01*
X104080000Y-95108000D02*
X104080000Y-103678000D01*
X104080000Y-103678000D02*
X114360000Y-103678000D01*
X104080000Y-95108000D02*
X114360000Y-95108000D01*
X104080000Y-97018000D02*
X114360000Y-97018000D01*
X104080000Y-102018000D02*
X114360000Y-102018000D01*
X104080000Y-103118000D02*
X114360000Y-103118000D01*
X113190000Y-99568000D02*
G75*
G03*
X113190000Y-99568000I-1430000J0D01*
G01*
X106704280Y-100998940D02*
G75*
G02*
X106052000Y-100854000I-24280J1430940D01*
G01*
X105393389Y-100194746D02*
G75*
G02*
X105394000Y-98940000I1286611J626746D01*
G01*
X106052638Y-98282176D02*
G75*
G02*
X107307000Y-98282000I627362J-1285824D01*
G01*
X107965824Y-98940638D02*
G75*
G02*
X107966000Y-100195000I-1285824J-627362D01*
G01*
X107306871Y-100853275D02*
G75*
G02*
X106680000Y-100998000I-626871J1285275D01*
G01*
X129110000Y-103918000D02*
X129610000Y-103918000D01*
X129110000Y-103178000D02*
X129110000Y-103918000D01*
X138280000Y-95168000D02*
X138280000Y-96168000D01*
X135780000Y-95168000D02*
X135780000Y-96168000D01*
X135780000Y-96168000D02*
X138280000Y-96168000D01*
X135780000Y-95168000D02*
X138280000Y-95168000D01*
X136006000Y-100418000D02*
X135946000Y-100478000D01*
X137941000Y-98483000D02*
X137901000Y-98523000D01*
X136160000Y-100613000D02*
X136120000Y-100653000D01*
X138115000Y-98658000D02*
X138055000Y-98717000D01*
X133200000Y-95168000D02*
X133200000Y-96168000D01*
X130700000Y-95168000D02*
X130700000Y-96168000D01*
X130700000Y-96168000D02*
X133200000Y-96168000D01*
X130700000Y-95168000D02*
X133200000Y-95168000D01*
X139630000Y-95108000D02*
X139630000Y-103678000D01*
X129350000Y-95108000D02*
X129350000Y-103678000D01*
X129350000Y-103678000D02*
X139630000Y-103678000D01*
X129350000Y-95108000D02*
X139630000Y-95108000D01*
X129350000Y-97018000D02*
X139630000Y-97018000D01*
X129350000Y-102018000D02*
X139630000Y-102018000D01*
X129350000Y-103118000D02*
X139630000Y-103118000D01*
X138460000Y-99568000D02*
G75*
G03*
X138460000Y-99568000I-1430000J0D01*
G01*
X131974280Y-100998940D02*
G75*
G02*
X131322000Y-100854000I-24280J1430940D01*
G01*
X130663389Y-100194746D02*
G75*
G02*
X130664000Y-98940000I1286611J626746D01*
G01*
X131322638Y-98282176D02*
G75*
G02*
X132577000Y-98282000I627362J-1285824D01*
G01*
X133235824Y-98940638D02*
G75*
G02*
X133236000Y-100195000I-1285824J-627362D01*
G01*
X132576871Y-100853275D02*
G75*
G02*
X131950000Y-100998000I-626871J1285275D01*
G01*
X114000000Y-103918000D02*
X114500000Y-103918000D01*
X114000000Y-103178000D02*
X114000000Y-103918000D01*
X128250000Y-95168000D02*
X128250000Y-96168000D01*
X125750000Y-95168000D02*
X125750000Y-96168000D01*
X125750000Y-96168000D02*
X128250000Y-96168000D01*
X125750000Y-95168000D02*
X128250000Y-95168000D01*
X125976000Y-100418000D02*
X125916000Y-100478000D01*
X127911000Y-98483000D02*
X127871000Y-98523000D01*
X126130000Y-100613000D02*
X126090000Y-100653000D01*
X128085000Y-98658000D02*
X128025000Y-98717000D01*
X123170000Y-95168000D02*
X123170000Y-96168000D01*
X120670000Y-95168000D02*
X120670000Y-96168000D01*
X120670000Y-96168000D02*
X123170000Y-96168000D01*
X120670000Y-95168000D02*
X123170000Y-95168000D01*
X120896000Y-100418000D02*
X120836000Y-100478000D01*
X122831000Y-98483000D02*
X122791000Y-98523000D01*
X121050000Y-100613000D02*
X121010000Y-100653000D01*
X123005000Y-98658000D02*
X122945000Y-98717000D01*
X118090000Y-95168000D02*
X118090000Y-96168000D01*
X115590000Y-95168000D02*
X115590000Y-96168000D01*
X115590000Y-96168000D02*
X118090000Y-96168000D01*
X115590000Y-95168000D02*
X118090000Y-95168000D01*
X129600000Y-95108000D02*
X129600000Y-103678000D01*
X114240000Y-95108000D02*
X114240000Y-103678000D01*
X114240000Y-103678000D02*
X129600000Y-103678000D01*
X114240000Y-95108000D02*
X129600000Y-95108000D01*
X114240000Y-97018000D02*
X129600000Y-97018000D01*
X114240000Y-102018000D02*
X129600000Y-102018000D01*
X114240000Y-103118000D02*
X129600000Y-103118000D01*
X128430000Y-99568000D02*
G75*
G03*
X128430000Y-99568000I-1430000J0D01*
G01*
X123350000Y-99568000D02*
G75*
G03*
X123350000Y-99568000I-1430000J0D01*
G01*
X116864280Y-100998940D02*
G75*
G02*
X116212000Y-100854000I-24280J1430940D01*
G01*
X115553389Y-100194746D02*
G75*
G02*
X115554000Y-98940000I1286611J626746D01*
G01*
X116212638Y-98282176D02*
G75*
G02*
X117467000Y-98282000I627362J-1285824D01*
G01*
X118125824Y-98940638D02*
G75*
G02*
X118126000Y-100195000I-1285824J-627362D01*
G01*
X117466871Y-100853275D02*
G75*
G02*
X116840000Y-100998000I-626871J1285275D01*
G01*
X105412779Y-72990000D02*
X105087221Y-72990000D01*
X105412779Y-74010000D02*
X105087221Y-74010000D01*
X109602064Y-70590000D02*
X108397936Y-70590000D01*
X109602064Y-72410000D02*
X108397936Y-72410000D01*
X109910000Y-55352064D02*
X109910000Y-54147936D01*
X108090000Y-55352064D02*
X108090000Y-54147936D01*
X107100000Y-56200000D02*
G75*
G03*
X107100000Y-56200000I-700000J0D01*
G01*
X105400000Y-82400000D02*
G75*
G03*
X105400000Y-82400000I-700000J0D01*
G01*
X111700000Y-63000000D02*
G75*
G03*
X111700000Y-63000000I-700000J0D01*
G01*
X116260000Y-74912779D02*
X116260000Y-74587221D01*
X115240000Y-74912779D02*
X115240000Y-74587221D01*
X116260000Y-78162779D02*
X116260000Y-77837221D01*
X115240000Y-78162779D02*
X115240000Y-77837221D01*
X116920000Y-75510000D02*
X116920000Y-74050000D01*
X120080000Y-75510000D02*
X120080000Y-73350000D01*
X120080000Y-75510000D02*
X119150000Y-75510000D01*
X116920000Y-75510000D02*
X117850000Y-75510000D01*
X116990000Y-77837221D02*
X116990000Y-78162779D01*
X118010000Y-77837221D02*
X118010000Y-78162779D01*
X136160000Y-88600000D02*
X136160000Y-85150000D01*
X136160000Y-88600000D02*
X136160000Y-90550000D01*
X131040000Y-88600000D02*
X131040000Y-86650000D01*
X131040000Y-88600000D02*
X131040000Y-90550000D01*
X139760000Y-90602064D02*
X139760000Y-89397936D01*
X137040000Y-90602064D02*
X137040000Y-89397936D01*
X136010000Y-82362779D02*
X136010000Y-82037221D01*
X134990000Y-82362779D02*
X134990000Y-82037221D01*
X124240000Y-74587221D02*
X124240000Y-74912779D01*
X125260000Y-74587221D02*
X125260000Y-74912779D01*
X109760000Y-59162779D02*
X109760000Y-58837221D01*
X108740000Y-59162779D02*
X108740000Y-58837221D01*
X137400000Y-87300000D02*
X137400000Y-84500000D01*
X137400000Y-84500000D02*
X139400000Y-84500000D01*
X139400000Y-84500000D02*
X139400000Y-87300000D01*
X139400000Y-87300000D02*
X137400000Y-87300000D01*
X108413748Y-88510000D02*
X111186252Y-88510000D01*
X108413748Y-85090000D02*
X111186252Y-85090000D01*
X113000000Y-92150000D02*
X107600000Y-92150000D01*
X113000000Y-88850000D02*
X107600000Y-88850000D01*
X113000000Y-92150000D02*
X113000000Y-88850000D01*
X123735000Y-76235000D02*
X123735000Y-73950000D01*
X122265000Y-76235000D02*
X123735000Y-76235000D01*
X122265000Y-73950000D02*
X122265000Y-76235000D01*
X133510000Y-82362779D02*
X133510000Y-82037221D01*
X132490000Y-82362779D02*
X132490000Y-82037221D01*
X110490000Y-58837221D02*
X110490000Y-59162779D01*
X111510000Y-58837221D02*
X111510000Y-59162779D01*
X111510000Y-54162779D02*
X111510000Y-53837221D01*
X110490000Y-54162779D02*
X110490000Y-53837221D01*
D10*
X115252380Y-76866666D02*
X115252380Y-77342857D01*
X114252380Y-77342857D01*
X115252380Y-76009523D02*
X115252380Y-76580952D01*
X115252380Y-76295238D02*
X114252380Y-76295238D01*
X114395238Y-76390476D01*
X114490476Y-76485714D01*
X114538095Y-76580952D01*
X122061904Y-78983333D02*
X121680952Y-79250000D01*
X122061904Y-79440476D02*
X121261904Y-79440476D01*
X121261904Y-79135714D01*
X121300000Y-79059523D01*
X121338095Y-79021428D01*
X121414285Y-78983333D01*
X121528571Y-78983333D01*
X121604761Y-79021428D01*
X121642857Y-79059523D01*
X121680952Y-79135714D01*
X121680952Y-79440476D01*
X121261904Y-78716666D02*
X121261904Y-78183333D01*
X122061904Y-78526190D01*
X126390476Y-80761904D02*
X126390476Y-81409523D01*
X126428571Y-81485714D01*
X126466666Y-81523809D01*
X126542857Y-81561904D01*
X126695238Y-81561904D01*
X126771428Y-81523809D01*
X126809523Y-81485714D01*
X126847619Y-81409523D01*
X126847619Y-80761904D01*
X127609523Y-80761904D02*
X127228571Y-80761904D01*
X127190476Y-81142857D01*
X127228571Y-81104761D01*
X127304761Y-81066666D01*
X127495238Y-81066666D01*
X127571428Y-81104761D01*
X127609523Y-81142857D01*
X127647619Y-81219047D01*
X127647619Y-81409523D01*
X127609523Y-81485714D01*
X127571428Y-81523809D01*
X127495238Y-81561904D01*
X127304761Y-81561904D01*
X127228571Y-81523809D01*
X127190476Y-81485714D01*
X116890476Y-80761904D02*
X116890476Y-81409523D01*
X116928571Y-81485714D01*
X116966666Y-81523809D01*
X117042857Y-81561904D01*
X117195238Y-81561904D01*
X117271428Y-81523809D01*
X117309523Y-81485714D01*
X117347619Y-81409523D01*
X117347619Y-80761904D01*
X118071428Y-81028571D02*
X118071428Y-81561904D01*
X117880952Y-80723809D02*
X117690476Y-81295238D01*
X118185714Y-81295238D01*
X126561904Y-78983333D02*
X126180952Y-79250000D01*
X126561904Y-79440476D02*
X125761904Y-79440476D01*
X125761904Y-79135714D01*
X125800000Y-79059523D01*
X125838095Y-79021428D01*
X125914285Y-78983333D01*
X126028571Y-78983333D01*
X126104761Y-79021428D01*
X126142857Y-79059523D01*
X126180952Y-79135714D01*
X126180952Y-79440476D01*
X126104761Y-78526190D02*
X126066666Y-78602380D01*
X126028571Y-78640476D01*
X125952380Y-78678571D01*
X125914285Y-78678571D01*
X125838095Y-78640476D01*
X125800000Y-78602380D01*
X125761904Y-78526190D01*
X125761904Y-78373809D01*
X125800000Y-78297619D01*
X125838095Y-78259523D01*
X125914285Y-78221428D01*
X125952380Y-78221428D01*
X126028571Y-78259523D01*
X126066666Y-78297619D01*
X126104761Y-78373809D01*
X126104761Y-78526190D01*
X126142857Y-78602380D01*
X126180952Y-78640476D01*
X126257142Y-78678571D01*
X126409523Y-78678571D01*
X126485714Y-78640476D01*
X126523809Y-78602380D01*
X126561904Y-78526190D01*
X126561904Y-78373809D01*
X126523809Y-78297619D01*
X126485714Y-78259523D01*
X126409523Y-78221428D01*
X126257142Y-78221428D01*
X126180952Y-78259523D01*
X126142857Y-78297619D01*
X126104761Y-78373809D01*
X140361904Y-62266666D02*
X140933333Y-62266666D01*
X141047619Y-62304761D01*
X141123809Y-62380952D01*
X141161904Y-62495238D01*
X141161904Y-62571428D01*
X140361904Y-61961904D02*
X140361904Y-61466666D01*
X140666666Y-61733333D01*
X140666666Y-61619047D01*
X140704761Y-61542857D01*
X140742857Y-61504761D01*
X140819047Y-61466666D01*
X141009523Y-61466666D01*
X141085714Y-61504761D01*
X141123809Y-61542857D01*
X141161904Y-61619047D01*
X141161904Y-61847619D01*
X141123809Y-61923809D01*
X141085714Y-61961904D01*
X102361904Y-79709523D02*
X103009523Y-79709523D01*
X103085714Y-79671428D01*
X103123809Y-79633333D01*
X103161904Y-79557142D01*
X103161904Y-79404761D01*
X103123809Y-79328571D01*
X103085714Y-79290476D01*
X103009523Y-79252380D01*
X102361904Y-79252380D01*
X103161904Y-78452380D02*
X103161904Y-78909523D01*
X103161904Y-78680952D02*
X102361904Y-78680952D01*
X102476190Y-78757142D01*
X102552380Y-78833333D01*
X102590476Y-78909523D01*
X132490476Y-52961904D02*
X132490476Y-53609523D01*
X132528571Y-53685714D01*
X132566666Y-53723809D01*
X132642857Y-53761904D01*
X132795238Y-53761904D01*
X132871428Y-53723809D01*
X132909523Y-53685714D01*
X132947619Y-53609523D01*
X132947619Y-52961904D01*
X133290476Y-53038095D02*
X133328571Y-53000000D01*
X133404761Y-52961904D01*
X133595238Y-52961904D01*
X133671428Y-53000000D01*
X133709523Y-53038095D01*
X133747619Y-53114285D01*
X133747619Y-53190476D01*
X133709523Y-53304761D01*
X133252380Y-53761904D01*
X133747619Y-53761904D01*
X103361904Y-74533333D02*
X102980952Y-74800000D01*
X103361904Y-74990476D02*
X102561904Y-74990476D01*
X102561904Y-74685714D01*
X102600000Y-74609523D01*
X102638095Y-74571428D01*
X102714285Y-74533333D01*
X102828571Y-74533333D01*
X102904761Y-74571428D01*
X102942857Y-74609523D01*
X102980952Y-74685714D01*
X102980952Y-74990476D01*
X102561904Y-74266666D02*
X102561904Y-73771428D01*
X102866666Y-74038095D01*
X102866666Y-73923809D01*
X102904761Y-73847619D01*
X102942857Y-73809523D01*
X103019047Y-73771428D01*
X103209523Y-73771428D01*
X103285714Y-73809523D01*
X103323809Y-73847619D01*
X103361904Y-73923809D01*
X103361904Y-74152380D01*
X103323809Y-74228571D01*
X103285714Y-74266666D01*
X114061904Y-84590476D02*
X113261904Y-84590476D01*
X113261904Y-84400000D01*
X113300000Y-84285714D01*
X113376190Y-84209523D01*
X113452380Y-84171428D01*
X113604761Y-84133333D01*
X113719047Y-84133333D01*
X113871428Y-84171428D01*
X113947619Y-84209523D01*
X114023809Y-84285714D01*
X114061904Y-84400000D01*
X114061904Y-84590476D01*
X113338095Y-83828571D02*
X113300000Y-83790476D01*
X113261904Y-83714285D01*
X113261904Y-83523809D01*
X113300000Y-83447619D01*
X113338095Y-83409523D01*
X113414285Y-83371428D01*
X113490476Y-83371428D01*
X113604761Y-83409523D01*
X114061904Y-83866666D01*
X114061904Y-83371428D01*
X103285714Y-86833333D02*
X103323809Y-86871428D01*
X103361904Y-86985714D01*
X103361904Y-87061904D01*
X103323809Y-87176190D01*
X103247619Y-87252380D01*
X103171428Y-87290476D01*
X103019047Y-87328571D01*
X102904761Y-87328571D01*
X102752380Y-87290476D01*
X102676190Y-87252380D01*
X102600000Y-87176190D01*
X102561904Y-87061904D01*
X102561904Y-86985714D01*
X102600000Y-86871428D01*
X102638095Y-86833333D01*
X102638095Y-86528571D02*
X102600000Y-86490476D01*
X102561904Y-86414285D01*
X102561904Y-86223809D01*
X102600000Y-86147619D01*
X102638095Y-86109523D01*
X102714285Y-86071428D01*
X102790476Y-86071428D01*
X102904761Y-86109523D01*
X103361904Y-86566666D01*
X103361904Y-86071428D01*
X103285714Y-76933333D02*
X103323809Y-76971428D01*
X103361904Y-77085714D01*
X103361904Y-77161904D01*
X103323809Y-77276190D01*
X103247619Y-77352380D01*
X103171428Y-77390476D01*
X103019047Y-77428571D01*
X102904761Y-77428571D01*
X102752380Y-77390476D01*
X102676190Y-77352380D01*
X102600000Y-77276190D01*
X102561904Y-77161904D01*
X102561904Y-77085714D01*
X102600000Y-76971428D01*
X102638095Y-76933333D01*
X103361904Y-76171428D02*
X103361904Y-76628571D01*
X103361904Y-76400000D02*
X102561904Y-76400000D01*
X102676190Y-76476190D01*
X102752380Y-76552380D01*
X102790476Y-76628571D01*
X108813333Y-103829904D02*
X108813333Y-104401333D01*
X108775238Y-104515619D01*
X108699047Y-104591809D01*
X108584761Y-104629904D01*
X108508571Y-104629904D01*
X109613333Y-104629904D02*
X109156190Y-104629904D01*
X109384761Y-104629904D02*
X109384761Y-103829904D01*
X109308571Y-103944190D01*
X109232380Y-104020380D01*
X109156190Y-104058476D01*
X134533333Y-103829904D02*
X134533333Y-104401333D01*
X134495238Y-104515619D01*
X134419047Y-104591809D01*
X134304761Y-104629904D01*
X134228571Y-104629904D01*
X134876190Y-103906095D02*
X134914285Y-103868000D01*
X134990476Y-103829904D01*
X135180952Y-103829904D01*
X135257142Y-103868000D01*
X135295238Y-103906095D01*
X135333333Y-103982285D01*
X135333333Y-104058476D01*
X135295238Y-104172761D01*
X134838095Y-104629904D01*
X135333333Y-104629904D01*
X121473333Y-103829904D02*
X121473333Y-104401333D01*
X121435238Y-104515619D01*
X121359047Y-104591809D01*
X121244761Y-104629904D01*
X121168571Y-104629904D01*
X122197142Y-104096571D02*
X122197142Y-104629904D01*
X122006666Y-103791809D02*
X121816190Y-104363238D01*
X122311428Y-104363238D01*
X104966666Y-72561904D02*
X104700000Y-72180952D01*
X104509523Y-72561904D02*
X104509523Y-71761904D01*
X104814285Y-71761904D01*
X104890476Y-71800000D01*
X104928571Y-71838095D01*
X104966666Y-71914285D01*
X104966666Y-72028571D01*
X104928571Y-72104761D01*
X104890476Y-72142857D01*
X104814285Y-72180952D01*
X104509523Y-72180952D01*
X105271428Y-71838095D02*
X105309523Y-71800000D01*
X105385714Y-71761904D01*
X105576190Y-71761904D01*
X105652380Y-71800000D01*
X105690476Y-71838095D01*
X105728571Y-71914285D01*
X105728571Y-71990476D01*
X105690476Y-72104761D01*
X105233333Y-72561904D01*
X105728571Y-72561904D01*
X110885714Y-69733333D02*
X110923809Y-69771428D01*
X110961904Y-69885714D01*
X110961904Y-69961904D01*
X110923809Y-70076190D01*
X110847619Y-70152380D01*
X110771428Y-70190476D01*
X110619047Y-70228571D01*
X110504761Y-70228571D01*
X110352380Y-70190476D01*
X110276190Y-70152380D01*
X110200000Y-70076190D01*
X110161904Y-69961904D01*
X110161904Y-69885714D01*
X110200000Y-69771428D01*
X110238095Y-69733333D01*
X110161904Y-69466666D02*
X110161904Y-68971428D01*
X110466666Y-69238095D01*
X110466666Y-69123809D01*
X110504761Y-69047619D01*
X110542857Y-69009523D01*
X110619047Y-68971428D01*
X110809523Y-68971428D01*
X110885714Y-69009523D01*
X110923809Y-69047619D01*
X110961904Y-69123809D01*
X110961904Y-69352380D01*
X110923809Y-69428571D01*
X110885714Y-69466666D01*
X107585714Y-53333333D02*
X107623809Y-53371428D01*
X107661904Y-53485714D01*
X107661904Y-53561904D01*
X107623809Y-53676190D01*
X107547619Y-53752380D01*
X107471428Y-53790476D01*
X107319047Y-53828571D01*
X107204761Y-53828571D01*
X107052380Y-53790476D01*
X106976190Y-53752380D01*
X106900000Y-53676190D01*
X106861904Y-53561904D01*
X106861904Y-53485714D01*
X106900000Y-53371428D01*
X106938095Y-53333333D01*
X106861904Y-52609523D02*
X106861904Y-52990476D01*
X107242857Y-53028571D01*
X107204761Y-52990476D01*
X107166666Y-52914285D01*
X107166666Y-52723809D01*
X107204761Y-52647619D01*
X107242857Y-52609523D01*
X107319047Y-52571428D01*
X107509523Y-52571428D01*
X107585714Y-52609523D01*
X107623809Y-52647619D01*
X107661904Y-52723809D01*
X107661904Y-52914285D01*
X107623809Y-52990476D01*
X107585714Y-53028571D01*
X114861904Y-76014285D02*
X114480952Y-76280952D01*
X114861904Y-76471428D02*
X114061904Y-76471428D01*
X114061904Y-76166666D01*
X114100000Y-76090476D01*
X114138095Y-76052380D01*
X114214285Y-76014285D01*
X114328571Y-76014285D01*
X114404761Y-76052380D01*
X114442857Y-76090476D01*
X114480952Y-76166666D01*
X114480952Y-76471428D01*
X114861904Y-75252380D02*
X114861904Y-75709523D01*
X114861904Y-75480952D02*
X114061904Y-75480952D01*
X114176190Y-75557142D01*
X114252380Y-75633333D01*
X114290476Y-75709523D01*
X114061904Y-74757142D02*
X114061904Y-74680952D01*
X114100000Y-74604761D01*
X114138095Y-74566666D01*
X114214285Y-74528571D01*
X114366666Y-74490476D01*
X114557142Y-74490476D01*
X114709523Y-74528571D01*
X114785714Y-74566666D01*
X114823809Y-74604761D01*
X114861904Y-74680952D01*
X114861904Y-74757142D01*
X114823809Y-74833333D01*
X114785714Y-74871428D01*
X114709523Y-74909523D01*
X114557142Y-74947619D01*
X114366666Y-74947619D01*
X114214285Y-74909523D01*
X114138095Y-74871428D01*
X114100000Y-74833333D01*
X114061904Y-74757142D01*
X114761904Y-78933333D02*
X114380952Y-79200000D01*
X114761904Y-79390476D02*
X113961904Y-79390476D01*
X113961904Y-79085714D01*
X114000000Y-79009523D01*
X114038095Y-78971428D01*
X114114285Y-78933333D01*
X114228571Y-78933333D01*
X114304761Y-78971428D01*
X114342857Y-79009523D01*
X114380952Y-79085714D01*
X114380952Y-79390476D01*
X114761904Y-78552380D02*
X114761904Y-78400000D01*
X114723809Y-78323809D01*
X114685714Y-78285714D01*
X114571428Y-78209523D01*
X114419047Y-78171428D01*
X114114285Y-78171428D01*
X114038095Y-78209523D01*
X114000000Y-78247619D01*
X113961904Y-78323809D01*
X113961904Y-78476190D01*
X114000000Y-78552380D01*
X114038095Y-78590476D01*
X114114285Y-78628571D01*
X114304761Y-78628571D01*
X114380952Y-78590476D01*
X114419047Y-78552380D01*
X114457142Y-78476190D01*
X114457142Y-78323809D01*
X114419047Y-78247619D01*
X114380952Y-78209523D01*
X114304761Y-78171428D01*
X121161904Y-74990476D02*
X120361904Y-74990476D01*
X120361904Y-74800000D01*
X120400000Y-74685714D01*
X120476190Y-74609523D01*
X120552380Y-74571428D01*
X120704761Y-74533333D01*
X120819047Y-74533333D01*
X120971428Y-74571428D01*
X121047619Y-74609523D01*
X121123809Y-74685714D01*
X121161904Y-74800000D01*
X121161904Y-74990476D01*
X120628571Y-73847619D02*
X121161904Y-73847619D01*
X120323809Y-74038095D02*
X120895238Y-74228571D01*
X120895238Y-73733333D01*
X119215714Y-78933333D02*
X119253809Y-78971428D01*
X119291904Y-79085714D01*
X119291904Y-79161904D01*
X119253809Y-79276190D01*
X119177619Y-79352380D01*
X119101428Y-79390476D01*
X118949047Y-79428571D01*
X118834761Y-79428571D01*
X118682380Y-79390476D01*
X118606190Y-79352380D01*
X118530000Y-79276190D01*
X118491904Y-79161904D01*
X118491904Y-79085714D01*
X118530000Y-78971428D01*
X118568095Y-78933333D01*
X118834761Y-78476190D02*
X118796666Y-78552380D01*
X118758571Y-78590476D01*
X118682380Y-78628571D01*
X118644285Y-78628571D01*
X118568095Y-78590476D01*
X118530000Y-78552380D01*
X118491904Y-78476190D01*
X118491904Y-78323809D01*
X118530000Y-78247619D01*
X118568095Y-78209523D01*
X118644285Y-78171428D01*
X118682380Y-78171428D01*
X118758571Y-78209523D01*
X118796666Y-78247619D01*
X118834761Y-78323809D01*
X118834761Y-78476190D01*
X118872857Y-78552380D01*
X118910952Y-78590476D01*
X118987142Y-78628571D01*
X119139523Y-78628571D01*
X119215714Y-78590476D01*
X119253809Y-78552380D01*
X119291904Y-78476190D01*
X119291904Y-78323809D01*
X119253809Y-78247619D01*
X119215714Y-78209523D01*
X119139523Y-78171428D01*
X118987142Y-78171428D01*
X118910952Y-78209523D01*
X118872857Y-78247619D01*
X118834761Y-78323809D01*
X131161904Y-84709523D02*
X131809523Y-84709523D01*
X131885714Y-84671428D01*
X131923809Y-84633333D01*
X131961904Y-84557142D01*
X131961904Y-84404761D01*
X131923809Y-84328571D01*
X131885714Y-84290476D01*
X131809523Y-84252380D01*
X131161904Y-84252380D01*
X131161904Y-83947619D02*
X131161904Y-83452380D01*
X131466666Y-83719047D01*
X131466666Y-83604761D01*
X131504761Y-83528571D01*
X131542857Y-83490476D01*
X131619047Y-83452380D01*
X131809523Y-83452380D01*
X131885714Y-83490476D01*
X131923809Y-83528571D01*
X131961904Y-83604761D01*
X131961904Y-83833333D01*
X131923809Y-83909523D01*
X131885714Y-83947619D01*
X141361904Y-90883333D02*
X140980952Y-91150000D01*
X141361904Y-91340476D02*
X140561904Y-91340476D01*
X140561904Y-91035714D01*
X140600000Y-90959523D01*
X140638095Y-90921428D01*
X140714285Y-90883333D01*
X140828571Y-90883333D01*
X140904761Y-90921428D01*
X140942857Y-90959523D01*
X140980952Y-91035714D01*
X140980952Y-91340476D01*
X140561904Y-90159523D02*
X140561904Y-90540476D01*
X140942857Y-90578571D01*
X140904761Y-90540476D01*
X140866666Y-90464285D01*
X140866666Y-90273809D01*
X140904761Y-90197619D01*
X140942857Y-90159523D01*
X141019047Y-90121428D01*
X141209523Y-90121428D01*
X141285714Y-90159523D01*
X141323809Y-90197619D01*
X141361904Y-90273809D01*
X141361904Y-90464285D01*
X141323809Y-90540476D01*
X141285714Y-90578571D01*
X136011904Y-79633333D02*
X135630952Y-79900000D01*
X136011904Y-80090476D02*
X135211904Y-80090476D01*
X135211904Y-79785714D01*
X135250000Y-79709523D01*
X135288095Y-79671428D01*
X135364285Y-79633333D01*
X135478571Y-79633333D01*
X135554761Y-79671428D01*
X135592857Y-79709523D01*
X135630952Y-79785714D01*
X135630952Y-80090476D01*
X135211904Y-78947619D02*
X135211904Y-79100000D01*
X135250000Y-79176190D01*
X135288095Y-79214285D01*
X135402380Y-79290476D01*
X135554761Y-79328571D01*
X135859523Y-79328571D01*
X135935714Y-79290476D01*
X135973809Y-79252380D01*
X136011904Y-79176190D01*
X136011904Y-79023809D01*
X135973809Y-78947619D01*
X135935714Y-78909523D01*
X135859523Y-78871428D01*
X135669047Y-78871428D01*
X135592857Y-78909523D01*
X135554761Y-78947619D01*
X135516666Y-79023809D01*
X135516666Y-79176190D01*
X135554761Y-79252380D01*
X135592857Y-79290476D01*
X135669047Y-79328571D01*
X125111904Y-72633333D02*
X124730952Y-72900000D01*
X125111904Y-73090476D02*
X124311904Y-73090476D01*
X124311904Y-72785714D01*
X124350000Y-72709523D01*
X124388095Y-72671428D01*
X124464285Y-72633333D01*
X124578571Y-72633333D01*
X124654761Y-72671428D01*
X124692857Y-72709523D01*
X124730952Y-72785714D01*
X124730952Y-73090476D01*
X124578571Y-71947619D02*
X125111904Y-71947619D01*
X124273809Y-72138095D02*
X124845238Y-72328571D01*
X124845238Y-71833333D01*
X107111904Y-58383333D02*
X106730952Y-58650000D01*
X107111904Y-58840476D02*
X106311904Y-58840476D01*
X106311904Y-58535714D01*
X106350000Y-58459523D01*
X106388095Y-58421428D01*
X106464285Y-58383333D01*
X106578571Y-58383333D01*
X106654761Y-58421428D01*
X106692857Y-58459523D01*
X106730952Y-58535714D01*
X106730952Y-58840476D01*
X107111904Y-57621428D02*
X107111904Y-58078571D01*
X107111904Y-57850000D02*
X106311904Y-57850000D01*
X106426190Y-57926190D01*
X106502380Y-58002380D01*
X106540476Y-58078571D01*
X137733333Y-83161904D02*
X137733333Y-83733333D01*
X137695238Y-83847619D01*
X137619047Y-83923809D01*
X137504761Y-83961904D01*
X137428571Y-83961904D01*
X138114285Y-83961904D02*
X138114285Y-83161904D01*
X138419047Y-83161904D01*
X138495238Y-83200000D01*
X138533333Y-83238095D01*
X138571428Y-83314285D01*
X138571428Y-83428571D01*
X138533333Y-83504761D01*
X138495238Y-83542857D01*
X138419047Y-83580952D01*
X138114285Y-83580952D01*
X139333333Y-83961904D02*
X138876190Y-83961904D01*
X139104761Y-83961904D02*
X139104761Y-83161904D01*
X139028571Y-83276190D01*
X138952380Y-83352380D01*
X138876190Y-83390476D01*
X113542857Y-87466666D02*
X113542857Y-87733333D01*
X113961904Y-87733333D02*
X113161904Y-87733333D01*
X113161904Y-87352380D01*
X113961904Y-86628571D02*
X113961904Y-87085714D01*
X113961904Y-86857142D02*
X113161904Y-86857142D01*
X113276190Y-86933333D01*
X113352380Y-87009523D01*
X113390476Y-87085714D01*
X114261904Y-91390476D02*
X113461904Y-91390476D01*
X113461904Y-91200000D01*
X113500000Y-91085714D01*
X113576190Y-91009523D01*
X113652380Y-90971428D01*
X113804761Y-90933333D01*
X113919047Y-90933333D01*
X114071428Y-90971428D01*
X114147619Y-91009523D01*
X114223809Y-91085714D01*
X114261904Y-91200000D01*
X114261904Y-91390476D01*
X114261904Y-90171428D02*
X114261904Y-90628571D01*
X114261904Y-90400000D02*
X113461904Y-90400000D01*
X113576190Y-90476190D01*
X113652380Y-90552380D01*
X113690476Y-90628571D01*
X123361904Y-73090476D02*
X122561904Y-73090476D01*
X122561904Y-72900000D01*
X122600000Y-72785714D01*
X122676190Y-72709523D01*
X122752380Y-72671428D01*
X122904761Y-72633333D01*
X123019047Y-72633333D01*
X123171428Y-72671428D01*
X123247619Y-72709523D01*
X123323809Y-72785714D01*
X123361904Y-72900000D01*
X123361904Y-73090476D01*
X122561904Y-72366666D02*
X122561904Y-71871428D01*
X122866666Y-72138095D01*
X122866666Y-72023809D01*
X122904761Y-71947619D01*
X122942857Y-71909523D01*
X123019047Y-71871428D01*
X123209523Y-71871428D01*
X123285714Y-71909523D01*
X123323809Y-71947619D01*
X123361904Y-72023809D01*
X123361904Y-72252380D01*
X123323809Y-72328571D01*
X123285714Y-72366666D01*
X133285714Y-79633333D02*
X133323809Y-79671428D01*
X133361904Y-79785714D01*
X133361904Y-79861904D01*
X133323809Y-79976190D01*
X133247619Y-80052380D01*
X133171428Y-80090476D01*
X133019047Y-80128571D01*
X132904761Y-80128571D01*
X132752380Y-80090476D01*
X132676190Y-80052380D01*
X132600000Y-79976190D01*
X132561904Y-79861904D01*
X132561904Y-79785714D01*
X132600000Y-79671428D01*
X132638095Y-79633333D01*
X132561904Y-79366666D02*
X132561904Y-78833333D01*
X133361904Y-79176190D01*
X108285714Y-58383333D02*
X108323809Y-58421428D01*
X108361904Y-58535714D01*
X108361904Y-58611904D01*
X108323809Y-58726190D01*
X108247619Y-58802380D01*
X108171428Y-58840476D01*
X108019047Y-58878571D01*
X107904761Y-58878571D01*
X107752380Y-58840476D01*
X107676190Y-58802380D01*
X107600000Y-58726190D01*
X107561904Y-58611904D01*
X107561904Y-58535714D01*
X107600000Y-58421428D01*
X107638095Y-58383333D01*
X107828571Y-57697619D02*
X108361904Y-57697619D01*
X107523809Y-57888095D02*
X108095238Y-58078571D01*
X108095238Y-57583333D01*
X111285714Y-56433333D02*
X111323809Y-56471428D01*
X111361904Y-56585714D01*
X111361904Y-56661904D01*
X111323809Y-56776190D01*
X111247619Y-56852380D01*
X111171428Y-56890476D01*
X111019047Y-56928571D01*
X110904761Y-56928571D01*
X110752380Y-56890476D01*
X110676190Y-56852380D01*
X110600000Y-56776190D01*
X110561904Y-56661904D01*
X110561904Y-56585714D01*
X110600000Y-56471428D01*
X110638095Y-56433333D01*
X110561904Y-55747619D02*
X110561904Y-55900000D01*
X110600000Y-55976190D01*
X110638095Y-56014285D01*
X110752380Y-56090476D01*
X110904761Y-56128571D01*
X111209523Y-56128571D01*
X111285714Y-56090476D01*
X111323809Y-56052380D01*
X111361904Y-55976190D01*
X111361904Y-55823809D01*
X111323809Y-55747619D01*
X111285714Y-55709523D01*
X111209523Y-55671428D01*
X111019047Y-55671428D01*
X110942857Y-55709523D01*
X110904761Y-55747619D01*
X110866666Y-55823809D01*
X110866666Y-55976190D01*
X110904761Y-56052380D01*
X110942857Y-56090476D01*
X111019047Y-56128571D01*
M02*
