M48
; DRILL file {KiCad (5.1.9)-1} date 10/18/21 17:36:07
; FORMAT={-:-/ absolute / metric / decimal}
; #@! TF.CreationDate,2021-10-18T17:36:07+03:00
; #@! TF.GenerationSoftware,Kicad,Pcbnew,(5.1.9)-1
; #@! TF.FileFunction,Plated,1,2,PTH
FMAT,2
METRIC
T1C0.300
T2C0.400
T3C1.100
%
G90
G05
T1
X103.0Y-53.75
X103.0Y-55.75
X103.0Y-57.75
X103.0Y-59.75
X103.0Y-61.75
X103.0Y-63.75
X103.0Y-65.75
X103.0Y-67.75
X103.0Y-69.75
X103.0Y-71.75
X103.0Y-73.75
X103.0Y-75.75
X103.0Y-77.75
X103.0Y-79.75
X103.0Y-81.75
X103.0Y-83.75
X103.0Y-85.75
X103.0Y-87.75
X103.0Y-89.75
X103.0Y-91.75
X103.0Y-93.75
X103.0Y-95.75
X103.0Y-97.75
X103.0Y-99.75
X103.0Y-101.75
X103.3Y-103.4
X103.8Y-88.7
X104.0Y-79.2
X104.4Y-88.7
X104.5Y-52.25
X104.6Y-79.2
X105.0Y-88.7
X105.0Y-103.75
X105.2Y-79.2
X106.3Y-52.2
X106.3Y-87.8
X107.0Y-103.75
X107.1Y-75.0
X108.0Y-60.75
X108.2Y-52.2
X109.0Y-103.75
X109.4Y-52.2
X109.8Y-86.8
X109.9Y-82.3
X109.9Y-82.9
X109.9Y-83.5
X109.9Y-84.1
X110.5Y-77.0
X110.6Y-52.2
X110.9Y-92.8
X111.0Y-60.8
X111.0Y-103.75
X111.25Y-67.75
X111.6Y-52.2
X111.75Y-60.8
X113.0Y-103.75
X113.75Y-70.75
X114.25Y-95.25
X114.25Y-97.5
X114.25Y-99.75
X114.25Y-102.0
X114.6Y-74.0
X115.0Y-103.75
X115.1Y-52.7
X115.4Y-93.3
X116.3Y-68.6
X117.0Y-103.75
X117.4Y-75.7
X117.5Y-79.8
X117.8Y-60.2
X118.25Y-68.0
X119.0Y-103.75
X119.5Y-72.5
X121.0Y-57.0
X121.0Y-63.5
X121.0Y-103.75
X123.0Y-103.75
X124.2Y-60.3
X124.7Y-93.4
X124.7Y-95.8
X124.7Y-98.3
X124.7Y-101.1
X125.0Y-103.75
X127.0Y-103.75
X128.5Y-56.5
X128.9Y-52.7
X129.0Y-103.75
X129.5Y-76.6
X129.6Y-97.3
X129.6Y-99.5
X129.6Y-102.0
X130.8Y-70.9
X131.0Y-103.75
X131.7Y-70.5
X132.0Y-61.8
X132.15Y-65.5
X132.2Y-52.7
X132.2Y-64.3
X132.5Y-70.5
X133.0Y-80.3
X133.0Y-103.75
X133.1Y-60.5
X133.3Y-69.0
X133.5Y-56.5
X133.75Y-52.25
X134.2Y-88.6
X134.9Y-60.5
X135.0Y-103.75
X135.3Y-65.9
X135.4Y-54.8
X135.5Y-80.3
X135.75Y-52.25
X136.1Y-54.2
X137.0Y-103.75
X137.6Y-63.5
X137.75Y-52.25
X139.0Y-103.75
X139.75Y-52.25
X140.8Y-103.5
X141.0Y-53.75
X141.0Y-55.75
X141.0Y-57.75
X141.0Y-59.75
X141.0Y-61.75
X141.0Y-63.75
X141.0Y-65.75
X141.0Y-67.75
X141.0Y-69.75
X141.0Y-71.75
X141.0Y-73.75
X141.0Y-75.7
X141.0Y-77.75
X141.0Y-79.75
X141.0Y-81.75
X141.0Y-83.75
X141.0Y-85.75
X141.0Y-87.75
X141.0Y-89.75
X141.0Y-91.75
X141.0Y-93.75
X141.0Y-95.75
X141.0Y-97.75
X141.0Y-99.75
X141.0Y-101.75
T2
X116.6Y-93.2
X122.0Y-75.5
X123.0Y-79.85
X124.7Y-79.85
X125.9Y-93.3
X130.9Y-80.6
X132.0Y-83.0
T3
X106.68Y-99.568
X111.76Y-99.568
X116.84Y-99.568
X121.92Y-99.568
X127.0Y-99.568
X131.95Y-99.568
X137.03Y-99.568
T0
M30
