G04 #@! TF.GenerationSoftware,KiCad,Pcbnew,(5.1.9)-1*
G04 #@! TF.CreationDate,2021-10-18T17:35:56+03:00*
G04 #@! TF.ProjectId,CanLite,43616e4c-6974-4652-9e6b-696361645f70,rev?*
G04 #@! TF.SameCoordinates,Original*
G04 #@! TF.FileFunction,Soldermask,Top*
G04 #@! TF.FilePolarity,Negative*
%FSLAX46Y46*%
G04 Gerber Fmt 4.6, Leading zero omitted, Abs format (unit mm)*
G04 Created by KiCad (PCBNEW (5.1.9)-1) date 2021-10-18 17:35:56*
%MOMM*%
%LPD*%
G01*
G04 APERTURE LIST*
%ADD10C,0.200000*%
%ADD11C,0.150000*%
%ADD12C,0.300000*%
%ADD13C,0.010000*%
%ADD14R,5.800000X6.400000*%
%ADD15R,0.800000X2.200000*%
%ADD16C,1.000000*%
%ADD17R,0.650000X1.060000*%
%ADD18R,2.000000X0.900000*%
%ADD19R,0.900000X2.000000*%
%ADD20R,5.000000X5.000000*%
%ADD21R,2.500000X1.800000*%
%ADD22C,2.100000*%
%ADD23R,2.100000X2.100000*%
%ADD24R,0.800000X0.900000*%
%ADD25C,0.100000*%
G04 APERTURE END LIST*
D10*
X104202380Y-66821428D02*
X105202380Y-66488095D01*
X104202380Y-66154761D01*
X104202380Y-65630952D02*
X104202380Y-65440476D01*
X104250000Y-65345238D01*
X104345238Y-65250000D01*
X104535714Y-65202380D01*
X104869047Y-65202380D01*
X105059523Y-65250000D01*
X105154761Y-65345238D01*
X105202380Y-65440476D01*
X105202380Y-65630952D01*
X105154761Y-65726190D01*
X105059523Y-65821428D01*
X104869047Y-65869047D01*
X104535714Y-65869047D01*
X104345238Y-65821428D01*
X104250000Y-65726190D01*
X104202380Y-65630952D01*
X105202380Y-64297619D02*
X105202380Y-64773809D01*
X104202380Y-64773809D01*
X104202380Y-64107142D02*
X104202380Y-63535714D01*
X105202380Y-63821428D02*
X104202380Y-63821428D01*
X105202380Y-62726190D02*
X105202380Y-63202380D01*
X104202380Y-63202380D01*
X104202380Y-62202380D02*
X104202380Y-62011904D01*
X104250000Y-61916666D01*
X104345238Y-61821428D01*
X104535714Y-61773809D01*
X104869047Y-61773809D01*
X105059523Y-61821428D01*
X105154761Y-61916666D01*
X105202380Y-62011904D01*
X105202380Y-62202380D01*
X105154761Y-62297619D01*
X105059523Y-62392857D01*
X104869047Y-62440476D01*
X104535714Y-62440476D01*
X104345238Y-62392857D01*
X104250000Y-62297619D01*
X104202380Y-62202380D01*
X104250000Y-60821428D02*
X104202380Y-60916666D01*
X104202380Y-61059523D01*
X104250000Y-61202380D01*
X104345238Y-61297619D01*
X104440476Y-61345238D01*
X104630952Y-61392857D01*
X104773809Y-61392857D01*
X104964285Y-61345238D01*
X105059523Y-61297619D01*
X105154761Y-61202380D01*
X105202380Y-61059523D01*
X105202380Y-60964285D01*
X105154761Y-60821428D01*
X105107142Y-60773809D01*
X104773809Y-60773809D01*
X104773809Y-60964285D01*
D11*
X130478571Y-76890476D02*
X131011904Y-76890476D01*
X130173809Y-77080952D02*
X130745238Y-77271428D01*
X130745238Y-76776190D01*
X130211904Y-76319047D02*
X130211904Y-76242857D01*
X130250000Y-76166666D01*
X130288095Y-76128571D01*
X130364285Y-76090476D01*
X130516666Y-76052380D01*
X130707142Y-76052380D01*
X130859523Y-76090476D01*
X130935714Y-76128571D01*
X130973809Y-76166666D01*
X131011904Y-76242857D01*
X131011904Y-76319047D01*
X130973809Y-76395238D01*
X130935714Y-76433333D01*
X130859523Y-76471428D01*
X130707142Y-76509523D01*
X130516666Y-76509523D01*
X130364285Y-76471428D01*
X130288095Y-76433333D01*
X130250000Y-76395238D01*
X130211904Y-76319047D01*
X130288095Y-75747619D02*
X130250000Y-75709523D01*
X130211904Y-75633333D01*
X130211904Y-75442857D01*
X130250000Y-75366666D01*
X130288095Y-75328571D01*
X130364285Y-75290476D01*
X130440476Y-75290476D01*
X130554761Y-75328571D01*
X131011904Y-75785714D01*
X131011904Y-75290476D01*
X131011904Y-74528571D02*
X131011904Y-74985714D01*
X131011904Y-74757142D02*
X130211904Y-74757142D01*
X130326190Y-74833333D01*
X130402380Y-74909523D01*
X130440476Y-74985714D01*
D10*
X132502380Y-77280952D02*
X131835714Y-77280952D01*
X132026190Y-77280952D02*
X131930952Y-77233333D01*
X131883333Y-77185714D01*
X131835714Y-77090476D01*
X131835714Y-76995238D01*
X132454761Y-76280952D02*
X132502380Y-76376190D01*
X132502380Y-76566666D01*
X132454761Y-76661904D01*
X132359523Y-76709523D01*
X131978571Y-76709523D01*
X131883333Y-76661904D01*
X131835714Y-76566666D01*
X131835714Y-76376190D01*
X131883333Y-76280952D01*
X131978571Y-76233333D01*
X132073809Y-76233333D01*
X132169047Y-76709523D01*
X131835714Y-75900000D02*
X132502380Y-75661904D01*
X131835714Y-75423809D01*
X132502380Y-75042857D02*
X131502380Y-75042857D01*
X131502380Y-74804761D01*
X131550000Y-74661904D01*
X131645238Y-74566666D01*
X131740476Y-74519047D01*
X131930952Y-74471428D01*
X132073809Y-74471428D01*
X132264285Y-74519047D01*
X132359523Y-74566666D01*
X132454761Y-74661904D01*
X132502380Y-74804761D01*
X132502380Y-75042857D01*
D12*
X136567857Y-74972142D02*
X136567857Y-74472142D01*
X137353571Y-74356071D02*
X137353571Y-75070357D01*
X135853571Y-74882857D01*
X135853571Y-74168571D01*
X137282142Y-73775714D02*
X137353571Y-73570357D01*
X137353571Y-73213214D01*
X137282142Y-73061428D01*
X137210714Y-72981071D01*
X137067857Y-72891785D01*
X136925000Y-72873928D01*
X136782142Y-72927500D01*
X136710714Y-72990000D01*
X136639285Y-73123928D01*
X136567857Y-73400714D01*
X136496428Y-73534642D01*
X136425000Y-73597142D01*
X136282142Y-73650714D01*
X136139285Y-73632857D01*
X135996428Y-73543571D01*
X135925000Y-73463214D01*
X135853571Y-73311428D01*
X135853571Y-72954285D01*
X135925000Y-72748928D01*
X137353571Y-72284642D02*
X135853571Y-72097142D01*
X135853571Y-71525714D01*
X135925000Y-71391785D01*
X135996428Y-71329285D01*
X136139285Y-71275714D01*
X136353571Y-71302500D01*
X136496428Y-71391785D01*
X136567857Y-71472142D01*
X136639285Y-71623928D01*
X136639285Y-72195357D01*
X135853571Y-70740000D02*
X135853571Y-69811428D01*
X136425000Y-70382857D01*
X136425000Y-70168571D01*
X136496428Y-70034642D01*
X136567857Y-69972142D01*
X136710714Y-69918571D01*
X137067857Y-69963214D01*
X137210714Y-70052500D01*
X137282142Y-70132857D01*
X137353571Y-70284642D01*
X137353571Y-70713214D01*
X137282142Y-70847142D01*
X137210714Y-70909642D01*
X135996428Y-69257857D02*
X135925000Y-69177500D01*
X135853571Y-69025714D01*
X135853571Y-68668571D01*
X135925000Y-68534642D01*
X135996428Y-68472142D01*
X136139285Y-68418571D01*
X136282142Y-68436428D01*
X136496428Y-68534642D01*
X137353571Y-69498928D01*
X137353571Y-68570357D01*
X139760714Y-74766785D02*
X139832142Y-74847142D01*
X139903571Y-75070357D01*
X139903571Y-75213214D01*
X139832142Y-75418571D01*
X139689285Y-75543571D01*
X139546428Y-75597142D01*
X139260714Y-75632857D01*
X139046428Y-75606071D01*
X138760714Y-75498928D01*
X138617857Y-75409642D01*
X138475000Y-75248928D01*
X138403571Y-75025714D01*
X138403571Y-74882857D01*
X138475000Y-74677500D01*
X138546428Y-74615000D01*
X139903571Y-73498928D02*
X139117857Y-73400714D01*
X138975000Y-73454285D01*
X138903571Y-73588214D01*
X138903571Y-73873928D01*
X138975000Y-74025714D01*
X139832142Y-73490000D02*
X139903571Y-73641785D01*
X139903571Y-73998928D01*
X139832142Y-74132857D01*
X139689285Y-74186428D01*
X139546428Y-74168571D01*
X139403571Y-74079285D01*
X139332142Y-73927500D01*
X139332142Y-73570357D01*
X139260714Y-73418571D01*
X138903571Y-72659642D02*
X139903571Y-72784642D01*
X139046428Y-72677500D02*
X138975000Y-72597142D01*
X138903571Y-72445357D01*
X138903571Y-72231071D01*
X138975000Y-72097142D01*
X139117857Y-72043571D01*
X139903571Y-72141785D01*
X139903571Y-70713214D02*
X139903571Y-71427500D01*
X138403571Y-71240000D01*
X139903571Y-70213214D02*
X138903571Y-70088214D01*
X138403571Y-70025714D02*
X138475000Y-70106071D01*
X138546428Y-70043571D01*
X138475000Y-69963214D01*
X138403571Y-70025714D01*
X138546428Y-70043571D01*
X138903571Y-69588214D02*
X138903571Y-69016785D01*
X138403571Y-69311428D02*
X139689285Y-69472142D01*
X139832142Y-69418571D01*
X139903571Y-69284642D01*
X139903571Y-69141785D01*
X139832142Y-68061428D02*
X139903571Y-68213214D01*
X139903571Y-68498928D01*
X139832142Y-68632857D01*
X139689285Y-68686428D01*
X139117857Y-68615000D01*
X138975000Y-68525714D01*
X138903571Y-68373928D01*
X138903571Y-68088214D01*
X138975000Y-67954285D01*
X139117857Y-67900714D01*
X139260714Y-67918571D01*
X139403571Y-68650714D01*
D13*
G36*
X103436747Y-68849388D02*
G01*
X103438269Y-68734942D01*
X103440669Y-68622670D01*
X103443968Y-68513563D01*
X103448183Y-68408613D01*
X103453335Y-68308808D01*
X103459373Y-68216111D01*
X103466354Y-68129241D01*
X103474053Y-68053690D01*
X103482929Y-67988078D01*
X103493440Y-67931028D01*
X103506046Y-67881160D01*
X103521204Y-67837097D01*
X103539373Y-67797458D01*
X103561013Y-67760867D01*
X103586582Y-67725943D01*
X103616539Y-67691308D01*
X103643192Y-67663661D01*
X103684695Y-67624735D01*
X103725608Y-67592298D01*
X103767910Y-67565492D01*
X103813577Y-67543458D01*
X103864589Y-67525337D01*
X103922923Y-67510272D01*
X103990556Y-67497402D01*
X104045187Y-67489143D01*
X104096968Y-67482242D01*
X104145506Y-67476504D01*
X104192683Y-67471832D01*
X104240386Y-67468126D01*
X104290498Y-67465288D01*
X104344905Y-67463222D01*
X104405491Y-67461827D01*
X104474141Y-67461007D01*
X104552740Y-67460663D01*
X104592517Y-67460638D01*
X104700542Y-67461202D01*
X104797345Y-67462906D01*
X104884361Y-67465859D01*
X104963027Y-67470170D01*
X105034776Y-67475947D01*
X105101046Y-67483299D01*
X105163272Y-67492335D01*
X105222889Y-67503164D01*
X105261080Y-67511250D01*
X105341825Y-67535237D01*
X105416414Y-67569335D01*
X105484019Y-67612713D01*
X105543813Y-67664541D01*
X105594969Y-67723990D01*
X105636658Y-67790227D01*
X105668053Y-67862424D01*
X105688326Y-67939750D01*
X105688351Y-67939886D01*
X105690676Y-67956651D01*
X105692598Y-67979604D01*
X105694146Y-68009737D01*
X105695345Y-68048047D01*
X105696223Y-68095527D01*
X105696808Y-68153171D01*
X105697125Y-68221973D01*
X105697195Y-68264796D01*
X105697417Y-68542081D01*
X105737104Y-68579961D01*
X105748416Y-68590388D01*
X105768421Y-68608412D01*
X105796251Y-68633265D01*
X105831040Y-68664183D01*
X105871924Y-68700397D01*
X105918035Y-68741142D01*
X105968507Y-68785652D01*
X106022475Y-68833160D01*
X106079072Y-68882900D01*
X106126042Y-68924118D01*
X106183818Y-68974823D01*
X106239435Y-69023703D01*
X106292053Y-69070020D01*
X106340837Y-69113032D01*
X106384950Y-69151999D01*
X106423554Y-69186183D01*
X106455813Y-69214842D01*
X106480890Y-69237237D01*
X106497948Y-69252627D01*
X106505454Y-69259589D01*
X106525892Y-69282677D01*
X106534854Y-69301572D01*
X106532589Y-69316969D01*
X106527997Y-69322916D01*
X106515150Y-69329728D01*
X106509466Y-69330536D01*
X106501637Y-69328487D01*
X106482915Y-69322586D01*
X106454386Y-69313200D01*
X106417135Y-69300699D01*
X106372247Y-69285451D01*
X106320808Y-69267824D01*
X106263903Y-69248187D01*
X106202617Y-69226909D01*
X106144023Y-69206454D01*
X106075436Y-69182455D01*
X106006890Y-69158483D01*
X105939960Y-69135087D01*
X105876219Y-69112816D01*
X105817239Y-69092220D01*
X105764595Y-69073849D01*
X105719858Y-69058251D01*
X105684604Y-69045976D01*
X105668842Y-69040499D01*
X105628386Y-69026074D01*
X105588817Y-69011271D01*
X105552938Y-68997190D01*
X105523554Y-68984931D01*
X105503742Y-68975735D01*
X105458549Y-68946785D01*
X105415550Y-68908765D01*
X105378309Y-68865231D01*
X105353405Y-68825711D01*
X105343046Y-68805417D01*
X105334482Y-68786913D01*
X105327542Y-68768755D01*
X105322055Y-68749502D01*
X105317848Y-68727711D01*
X105314751Y-68701939D01*
X105312591Y-68670744D01*
X105311198Y-68632682D01*
X105310400Y-68586311D01*
X105310026Y-68530188D01*
X105309903Y-68462871D01*
X105309901Y-68459670D01*
X105309524Y-68362170D01*
X105308520Y-68276939D01*
X105306870Y-68203562D01*
X105304552Y-68141622D01*
X105301547Y-68090705D01*
X105297835Y-68050393D01*
X105293394Y-68020271D01*
X105288205Y-67999923D01*
X105287365Y-67997698D01*
X105270133Y-67969451D01*
X105243735Y-67944057D01*
X105211707Y-67924520D01*
X105192869Y-67917330D01*
X105145757Y-67905798D01*
X105087561Y-67895755D01*
X105019812Y-67887222D01*
X104944039Y-67880219D01*
X104861773Y-67874769D01*
X104774546Y-67870891D01*
X104683887Y-67868607D01*
X104591327Y-67867938D01*
X104498397Y-67868904D01*
X104406627Y-67871527D01*
X104317548Y-67875828D01*
X104232691Y-67881828D01*
X104153585Y-67889547D01*
X104081762Y-67899007D01*
X104063897Y-67901850D01*
X104013106Y-67911874D01*
X103973389Y-67924117D01*
X103943139Y-67940103D01*
X103920747Y-67961353D01*
X103904608Y-67989391D01*
X103893114Y-68025741D01*
X103884696Y-68071660D01*
X103877984Y-68126208D01*
X103871903Y-68192228D01*
X103866466Y-68268507D01*
X103861682Y-68353831D01*
X103857563Y-68446989D01*
X103854119Y-68546766D01*
X103851362Y-68651950D01*
X103849303Y-68761327D01*
X103847951Y-68873686D01*
X103847319Y-68987812D01*
X103847417Y-69102494D01*
X103848256Y-69216517D01*
X103849847Y-69328669D01*
X103852200Y-69437736D01*
X103855328Y-69542507D01*
X103859240Y-69641767D01*
X103863947Y-69734305D01*
X103869039Y-69813136D01*
X103874569Y-69882666D01*
X103880660Y-69940677D01*
X103888022Y-69988350D01*
X103897367Y-70026864D01*
X103909404Y-70057401D01*
X103924844Y-70081141D01*
X103944397Y-70099264D01*
X103968774Y-70112950D01*
X103998684Y-70123381D01*
X104034839Y-70131735D01*
X104063897Y-70136923D01*
X104133483Y-70146852D01*
X104210763Y-70155036D01*
X104294208Y-70161495D01*
X104382286Y-70166250D01*
X104473468Y-70169323D01*
X104566223Y-70170735D01*
X104659021Y-70170505D01*
X104750331Y-70168657D01*
X104838623Y-70165209D01*
X104922366Y-70160184D01*
X105000030Y-70153602D01*
X105070085Y-70145485D01*
X105131000Y-70135853D01*
X105181244Y-70124726D01*
X105192809Y-70121461D01*
X105228648Y-70104372D01*
X105258533Y-70077294D01*
X105279337Y-70043911D01*
X105285811Y-70022132D01*
X105291354Y-69988325D01*
X105295923Y-69943130D01*
X105299473Y-69887189D01*
X105301960Y-69821142D01*
X105303340Y-69745631D01*
X105303622Y-69691941D01*
X105303717Y-69548520D01*
X105260854Y-69507598D01*
X105247789Y-69495497D01*
X105226241Y-69475996D01*
X105197289Y-69450052D01*
X105162011Y-69418623D01*
X105121487Y-69382669D01*
X105076794Y-69343146D01*
X105029011Y-69301013D01*
X104979218Y-69257228D01*
X104961233Y-69241444D01*
X104907902Y-69194660D01*
X104853667Y-69147081D01*
X104800000Y-69100000D01*
X104748378Y-69054711D01*
X104700276Y-69012507D01*
X104657167Y-68974684D01*
X104620528Y-68942534D01*
X104591833Y-68917352D01*
X104589758Y-68915531D01*
X104557245Y-68886599D01*
X104527810Y-68859648D01*
X104502868Y-68836036D01*
X104483832Y-68817119D01*
X104472117Y-68804253D01*
X104469121Y-68799836D01*
X104466959Y-68785163D01*
X104474867Y-68771929D01*
X104485224Y-68762388D01*
X104491767Y-68759036D01*
X104498607Y-68761078D01*
X104516280Y-68766940D01*
X104543640Y-68776226D01*
X104579540Y-68788542D01*
X104622832Y-68803492D01*
X104672372Y-68820681D01*
X104727011Y-68839714D01*
X104785603Y-68860196D01*
X104803521Y-68866473D01*
X104871111Y-68890152D01*
X104941681Y-68914854D01*
X105013009Y-68939804D01*
X105082876Y-68964224D01*
X105149061Y-68987340D01*
X105209343Y-69008374D01*
X105261500Y-69026552D01*
X105293485Y-69037682D01*
X105341216Y-69054558D01*
X105386716Y-69071174D01*
X105428126Y-69086812D01*
X105463589Y-69100752D01*
X105491246Y-69112276D01*
X105509239Y-69120665D01*
X105512257Y-69122333D01*
X105561783Y-69158497D01*
X105606071Y-69204445D01*
X105643285Y-69257723D01*
X105671587Y-69315880D01*
X105683056Y-69350376D01*
X105685482Y-69360128D01*
X105687534Y-69371117D01*
X105689243Y-69384434D01*
X105690638Y-69401169D01*
X105691751Y-69422414D01*
X105692614Y-69449259D01*
X105693255Y-69482795D01*
X105693708Y-69524114D01*
X105694001Y-69574305D01*
X105694166Y-69634460D01*
X105694234Y-69705669D01*
X105694242Y-69746461D01*
X105694242Y-70102061D01*
X105672816Y-70163933D01*
X105639349Y-70242480D01*
X105596274Y-70312751D01*
X105543728Y-70374590D01*
X105481849Y-70427840D01*
X105410777Y-70472347D01*
X105389442Y-70483127D01*
X105349990Y-70500056D01*
X105305587Y-70515010D01*
X105254965Y-70528243D01*
X105196857Y-70540007D01*
X105129997Y-70550554D01*
X105053117Y-70560139D01*
X104964952Y-70569014D01*
X104954467Y-70569962D01*
X104919927Y-70572317D01*
X104874644Y-70574281D01*
X104820565Y-70575852D01*
X104759640Y-70577032D01*
X104693819Y-70577821D01*
X104625050Y-70578217D01*
X104555284Y-70578222D01*
X104486469Y-70577835D01*
X104420555Y-70577056D01*
X104359492Y-70575885D01*
X104305228Y-70574322D01*
X104259713Y-70572368D01*
X104224897Y-70570022D01*
X104224217Y-70569962D01*
X104131943Y-70560869D01*
X104051071Y-70550939D01*
X103980313Y-70539786D01*
X103918378Y-70527022D01*
X103863977Y-70512262D01*
X103815820Y-70495117D01*
X103772618Y-70475202D01*
X103733081Y-70452130D01*
X103695920Y-70425513D01*
X103669497Y-70403575D01*
X103610687Y-70344867D01*
X103563274Y-70281366D01*
X103526443Y-70211754D01*
X103499374Y-70134714D01*
X103496805Y-70125144D01*
X103488067Y-70084282D01*
X103479937Y-70031724D01*
X103472432Y-69968461D01*
X103465572Y-69895484D01*
X103459378Y-69813784D01*
X103453867Y-69724350D01*
X103449061Y-69628175D01*
X103444977Y-69526248D01*
X103441636Y-69419560D01*
X103439057Y-69309103D01*
X103437259Y-69195866D01*
X103436262Y-69080841D01*
X103436085Y-68965018D01*
X103436747Y-68849388D01*
G37*
X103436747Y-68849388D02*
X103438269Y-68734942D01*
X103440669Y-68622670D01*
X103443968Y-68513563D01*
X103448183Y-68408613D01*
X103453335Y-68308808D01*
X103459373Y-68216111D01*
X103466354Y-68129241D01*
X103474053Y-68053690D01*
X103482929Y-67988078D01*
X103493440Y-67931028D01*
X103506046Y-67881160D01*
X103521204Y-67837097D01*
X103539373Y-67797458D01*
X103561013Y-67760867D01*
X103586582Y-67725943D01*
X103616539Y-67691308D01*
X103643192Y-67663661D01*
X103684695Y-67624735D01*
X103725608Y-67592298D01*
X103767910Y-67565492D01*
X103813577Y-67543458D01*
X103864589Y-67525337D01*
X103922923Y-67510272D01*
X103990556Y-67497402D01*
X104045187Y-67489143D01*
X104096968Y-67482242D01*
X104145506Y-67476504D01*
X104192683Y-67471832D01*
X104240386Y-67468126D01*
X104290498Y-67465288D01*
X104344905Y-67463222D01*
X104405491Y-67461827D01*
X104474141Y-67461007D01*
X104552740Y-67460663D01*
X104592517Y-67460638D01*
X104700542Y-67461202D01*
X104797345Y-67462906D01*
X104884361Y-67465859D01*
X104963027Y-67470170D01*
X105034776Y-67475947D01*
X105101046Y-67483299D01*
X105163272Y-67492335D01*
X105222889Y-67503164D01*
X105261080Y-67511250D01*
X105341825Y-67535237D01*
X105416414Y-67569335D01*
X105484019Y-67612713D01*
X105543813Y-67664541D01*
X105594969Y-67723990D01*
X105636658Y-67790227D01*
X105668053Y-67862424D01*
X105688326Y-67939750D01*
X105688351Y-67939886D01*
X105690676Y-67956651D01*
X105692598Y-67979604D01*
X105694146Y-68009737D01*
X105695345Y-68048047D01*
X105696223Y-68095527D01*
X105696808Y-68153171D01*
X105697125Y-68221973D01*
X105697195Y-68264796D01*
X105697417Y-68542081D01*
X105737104Y-68579961D01*
X105748416Y-68590388D01*
X105768421Y-68608412D01*
X105796251Y-68633265D01*
X105831040Y-68664183D01*
X105871924Y-68700397D01*
X105918035Y-68741142D01*
X105968507Y-68785652D01*
X106022475Y-68833160D01*
X106079072Y-68882900D01*
X106126042Y-68924118D01*
X106183818Y-68974823D01*
X106239435Y-69023703D01*
X106292053Y-69070020D01*
X106340837Y-69113032D01*
X106384950Y-69151999D01*
X106423554Y-69186183D01*
X106455813Y-69214842D01*
X106480890Y-69237237D01*
X106497948Y-69252627D01*
X106505454Y-69259589D01*
X106525892Y-69282677D01*
X106534854Y-69301572D01*
X106532589Y-69316969D01*
X106527997Y-69322916D01*
X106515150Y-69329728D01*
X106509466Y-69330536D01*
X106501637Y-69328487D01*
X106482915Y-69322586D01*
X106454386Y-69313200D01*
X106417135Y-69300699D01*
X106372247Y-69285451D01*
X106320808Y-69267824D01*
X106263903Y-69248187D01*
X106202617Y-69226909D01*
X106144023Y-69206454D01*
X106075436Y-69182455D01*
X106006890Y-69158483D01*
X105939960Y-69135087D01*
X105876219Y-69112816D01*
X105817239Y-69092220D01*
X105764595Y-69073849D01*
X105719858Y-69058251D01*
X105684604Y-69045976D01*
X105668842Y-69040499D01*
X105628386Y-69026074D01*
X105588817Y-69011271D01*
X105552938Y-68997190D01*
X105523554Y-68984931D01*
X105503742Y-68975735D01*
X105458549Y-68946785D01*
X105415550Y-68908765D01*
X105378309Y-68865231D01*
X105353405Y-68825711D01*
X105343046Y-68805417D01*
X105334482Y-68786913D01*
X105327542Y-68768755D01*
X105322055Y-68749502D01*
X105317848Y-68727711D01*
X105314751Y-68701939D01*
X105312591Y-68670744D01*
X105311198Y-68632682D01*
X105310400Y-68586311D01*
X105310026Y-68530188D01*
X105309903Y-68462871D01*
X105309901Y-68459670D01*
X105309524Y-68362170D01*
X105308520Y-68276939D01*
X105306870Y-68203562D01*
X105304552Y-68141622D01*
X105301547Y-68090705D01*
X105297835Y-68050393D01*
X105293394Y-68020271D01*
X105288205Y-67999923D01*
X105287365Y-67997698D01*
X105270133Y-67969451D01*
X105243735Y-67944057D01*
X105211707Y-67924520D01*
X105192869Y-67917330D01*
X105145757Y-67905798D01*
X105087561Y-67895755D01*
X105019812Y-67887222D01*
X104944039Y-67880219D01*
X104861773Y-67874769D01*
X104774546Y-67870891D01*
X104683887Y-67868607D01*
X104591327Y-67867938D01*
X104498397Y-67868904D01*
X104406627Y-67871527D01*
X104317548Y-67875828D01*
X104232691Y-67881828D01*
X104153585Y-67889547D01*
X104081762Y-67899007D01*
X104063897Y-67901850D01*
X104013106Y-67911874D01*
X103973389Y-67924117D01*
X103943139Y-67940103D01*
X103920747Y-67961353D01*
X103904608Y-67989391D01*
X103893114Y-68025741D01*
X103884696Y-68071660D01*
X103877984Y-68126208D01*
X103871903Y-68192228D01*
X103866466Y-68268507D01*
X103861682Y-68353831D01*
X103857563Y-68446989D01*
X103854119Y-68546766D01*
X103851362Y-68651950D01*
X103849303Y-68761327D01*
X103847951Y-68873686D01*
X103847319Y-68987812D01*
X103847417Y-69102494D01*
X103848256Y-69216517D01*
X103849847Y-69328669D01*
X103852200Y-69437736D01*
X103855328Y-69542507D01*
X103859240Y-69641767D01*
X103863947Y-69734305D01*
X103869039Y-69813136D01*
X103874569Y-69882666D01*
X103880660Y-69940677D01*
X103888022Y-69988350D01*
X103897367Y-70026864D01*
X103909404Y-70057401D01*
X103924844Y-70081141D01*
X103944397Y-70099264D01*
X103968774Y-70112950D01*
X103998684Y-70123381D01*
X104034839Y-70131735D01*
X104063897Y-70136923D01*
X104133483Y-70146852D01*
X104210763Y-70155036D01*
X104294208Y-70161495D01*
X104382286Y-70166250D01*
X104473468Y-70169323D01*
X104566223Y-70170735D01*
X104659021Y-70170505D01*
X104750331Y-70168657D01*
X104838623Y-70165209D01*
X104922366Y-70160184D01*
X105000030Y-70153602D01*
X105070085Y-70145485D01*
X105131000Y-70135853D01*
X105181244Y-70124726D01*
X105192809Y-70121461D01*
X105228648Y-70104372D01*
X105258533Y-70077294D01*
X105279337Y-70043911D01*
X105285811Y-70022132D01*
X105291354Y-69988325D01*
X105295923Y-69943130D01*
X105299473Y-69887189D01*
X105301960Y-69821142D01*
X105303340Y-69745631D01*
X105303622Y-69691941D01*
X105303717Y-69548520D01*
X105260854Y-69507598D01*
X105247789Y-69495497D01*
X105226241Y-69475996D01*
X105197289Y-69450052D01*
X105162011Y-69418623D01*
X105121487Y-69382669D01*
X105076794Y-69343146D01*
X105029011Y-69301013D01*
X104979218Y-69257228D01*
X104961233Y-69241444D01*
X104907902Y-69194660D01*
X104853667Y-69147081D01*
X104800000Y-69100000D01*
X104748378Y-69054711D01*
X104700276Y-69012507D01*
X104657167Y-68974684D01*
X104620528Y-68942534D01*
X104591833Y-68917352D01*
X104589758Y-68915531D01*
X104557245Y-68886599D01*
X104527810Y-68859648D01*
X104502868Y-68836036D01*
X104483832Y-68817119D01*
X104472117Y-68804253D01*
X104469121Y-68799836D01*
X104466959Y-68785163D01*
X104474867Y-68771929D01*
X104485224Y-68762388D01*
X104491767Y-68759036D01*
X104498607Y-68761078D01*
X104516280Y-68766940D01*
X104543640Y-68776226D01*
X104579540Y-68788542D01*
X104622832Y-68803492D01*
X104672372Y-68820681D01*
X104727011Y-68839714D01*
X104785603Y-68860196D01*
X104803521Y-68866473D01*
X104871111Y-68890152D01*
X104941681Y-68914854D01*
X105013009Y-68939804D01*
X105082876Y-68964224D01*
X105149061Y-68987340D01*
X105209343Y-69008374D01*
X105261500Y-69026552D01*
X105293485Y-69037682D01*
X105341216Y-69054558D01*
X105386716Y-69071174D01*
X105428126Y-69086812D01*
X105463589Y-69100752D01*
X105491246Y-69112276D01*
X105509239Y-69120665D01*
X105512257Y-69122333D01*
X105561783Y-69158497D01*
X105606071Y-69204445D01*
X105643285Y-69257723D01*
X105671587Y-69315880D01*
X105683056Y-69350376D01*
X105685482Y-69360128D01*
X105687534Y-69371117D01*
X105689243Y-69384434D01*
X105690638Y-69401169D01*
X105691751Y-69422414D01*
X105692614Y-69449259D01*
X105693255Y-69482795D01*
X105693708Y-69524114D01*
X105694001Y-69574305D01*
X105694166Y-69634460D01*
X105694234Y-69705669D01*
X105694242Y-69746461D01*
X105694242Y-70102061D01*
X105672816Y-70163933D01*
X105639349Y-70242480D01*
X105596274Y-70312751D01*
X105543728Y-70374590D01*
X105481849Y-70427840D01*
X105410777Y-70472347D01*
X105389442Y-70483127D01*
X105349990Y-70500056D01*
X105305587Y-70515010D01*
X105254965Y-70528243D01*
X105196857Y-70540007D01*
X105129997Y-70550554D01*
X105053117Y-70560139D01*
X104964952Y-70569014D01*
X104954467Y-70569962D01*
X104919927Y-70572317D01*
X104874644Y-70574281D01*
X104820565Y-70575852D01*
X104759640Y-70577032D01*
X104693819Y-70577821D01*
X104625050Y-70578217D01*
X104555284Y-70578222D01*
X104486469Y-70577835D01*
X104420555Y-70577056D01*
X104359492Y-70575885D01*
X104305228Y-70574322D01*
X104259713Y-70572368D01*
X104224897Y-70570022D01*
X104224217Y-70569962D01*
X104131943Y-70560869D01*
X104051071Y-70550939D01*
X103980313Y-70539786D01*
X103918378Y-70527022D01*
X103863977Y-70512262D01*
X103815820Y-70495117D01*
X103772618Y-70475202D01*
X103733081Y-70452130D01*
X103695920Y-70425513D01*
X103669497Y-70403575D01*
X103610687Y-70344867D01*
X103563274Y-70281366D01*
X103526443Y-70211754D01*
X103499374Y-70134714D01*
X103496805Y-70125144D01*
X103488067Y-70084282D01*
X103479937Y-70031724D01*
X103472432Y-69968461D01*
X103465572Y-69895484D01*
X103459378Y-69813784D01*
X103453867Y-69724350D01*
X103449061Y-69628175D01*
X103444977Y-69526248D01*
X103441636Y-69419560D01*
X103439057Y-69309103D01*
X103437259Y-69195866D01*
X103436262Y-69080841D01*
X103436085Y-68965018D01*
X103436747Y-68849388D01*
G36*
G01*
X111720000Y-75295000D02*
X109280000Y-75295000D01*
G75*
G02*
X108785000Y-74800000I0J495000D01*
G01*
X108785000Y-73810000D01*
G75*
G02*
X109280000Y-73315000I495000J0D01*
G01*
X111720000Y-73315000D01*
G75*
G02*
X112215000Y-73810000I0J-495000D01*
G01*
X112215000Y-74800000D01*
G75*
G02*
X111720000Y-75295000I-495000J0D01*
G01*
G37*
G36*
G01*
X111720000Y-80685000D02*
X109280000Y-80685000D01*
G75*
G02*
X108785000Y-80190000I0J495000D01*
G01*
X108785000Y-79200000D01*
G75*
G02*
X109280000Y-78705000I495000J0D01*
G01*
X111720000Y-78705000D01*
G75*
G02*
X112215000Y-79200000I0J-495000D01*
G01*
X112215000Y-80190000D01*
G75*
G02*
X111720000Y-80685000I-495000J0D01*
G01*
G37*
G36*
G01*
X123256250Y-77650000D02*
X122743750Y-77650000D01*
G75*
G02*
X122525000Y-77431250I0J218750D01*
G01*
X122525000Y-76993750D01*
G75*
G02*
X122743750Y-76775000I218750J0D01*
G01*
X123256250Y-76775000D01*
G75*
G02*
X123475000Y-76993750I0J-218750D01*
G01*
X123475000Y-77431250D01*
G75*
G02*
X123256250Y-77650000I-218750J0D01*
G01*
G37*
G36*
G01*
X123256250Y-79225000D02*
X122743750Y-79225000D01*
G75*
G02*
X122525000Y-79006250I0J218750D01*
G01*
X122525000Y-78568750D01*
G75*
G02*
X122743750Y-78350000I218750J0D01*
G01*
X123256250Y-78350000D01*
G75*
G02*
X123475000Y-78568750I0J-218750D01*
G01*
X123475000Y-79006250D01*
G75*
G02*
X123256250Y-79225000I-218750J0D01*
G01*
G37*
D14*
X127000000Y-85150000D03*
D15*
X129280000Y-91450000D03*
X128140000Y-91450000D03*
X125860000Y-91450000D03*
X124720000Y-91450000D03*
D14*
X117750000Y-85150000D03*
D15*
X120030000Y-91450000D03*
X118890000Y-91450000D03*
X116610000Y-91450000D03*
X115470000Y-91450000D03*
G36*
G01*
X125025000Y-77575000D02*
X124475000Y-77575000D01*
G75*
G02*
X124275000Y-77375000I0J200000D01*
G01*
X124275000Y-76975000D01*
G75*
G02*
X124475000Y-76775000I200000J0D01*
G01*
X125025000Y-76775000D01*
G75*
G02*
X125225000Y-76975000I0J-200000D01*
G01*
X125225000Y-77375000D01*
G75*
G02*
X125025000Y-77575000I-200000J0D01*
G01*
G37*
G36*
G01*
X125025000Y-79225000D02*
X124475000Y-79225000D01*
G75*
G02*
X124275000Y-79025000I0J200000D01*
G01*
X124275000Y-78625000D01*
G75*
G02*
X124475000Y-78425000I200000J0D01*
G01*
X125025000Y-78425000D01*
G75*
G02*
X125225000Y-78625000I0J-200000D01*
G01*
X125225000Y-79025000D01*
G75*
G02*
X125025000Y-79225000I-200000J0D01*
G01*
G37*
D16*
X109250000Y-61750000D03*
X109250000Y-66750000D03*
X111000000Y-65500000D03*
X109250000Y-64250000D03*
G36*
G01*
X138049999Y-65200000D02*
X139350001Y-65200000D01*
G75*
G02*
X139600000Y-65449999I0J-249999D01*
G01*
X139600000Y-66150001D01*
G75*
G02*
X139350001Y-66400000I-249999J0D01*
G01*
X138049999Y-66400000D01*
G75*
G02*
X137800000Y-66150001I0J249999D01*
G01*
X137800000Y-65449999D01*
G75*
G02*
X138049999Y-65200000I249999J0D01*
G01*
G37*
G36*
G01*
X138049999Y-57600000D02*
X139350001Y-57600000D01*
G75*
G02*
X139600000Y-57849999I0J-249999D01*
G01*
X139600000Y-58550001D01*
G75*
G02*
X139350001Y-58800000I-249999J0D01*
G01*
X138049999Y-58800000D01*
G75*
G02*
X137800000Y-58550001I0J249999D01*
G01*
X137800000Y-57849999D01*
G75*
G02*
X138049999Y-57600000I249999J0D01*
G01*
G37*
G36*
G01*
X135550000Y-64200000D02*
X136800000Y-64200000D01*
G75*
G02*
X136950000Y-64350000I0J-150000D01*
G01*
X136950000Y-64650000D01*
G75*
G02*
X136800000Y-64800000I-150000J0D01*
G01*
X135550000Y-64800000D01*
G75*
G02*
X135400000Y-64650000I0J150000D01*
G01*
X135400000Y-64350000D01*
G75*
G02*
X135550000Y-64200000I150000J0D01*
G01*
G37*
G36*
G01*
X135550000Y-63200000D02*
X136800000Y-63200000D01*
G75*
G02*
X136950000Y-63350000I0J-150000D01*
G01*
X136950000Y-63650000D01*
G75*
G02*
X136800000Y-63800000I-150000J0D01*
G01*
X135550000Y-63800000D01*
G75*
G02*
X135400000Y-63650000I0J150000D01*
G01*
X135400000Y-63350000D01*
G75*
G02*
X135550000Y-63200000I150000J0D01*
G01*
G37*
G36*
G01*
X135550000Y-62200000D02*
X136800000Y-62200000D01*
G75*
G02*
X136950000Y-62350000I0J-150000D01*
G01*
X136950000Y-62650000D01*
G75*
G02*
X136800000Y-62800000I-150000J0D01*
G01*
X135550000Y-62800000D01*
G75*
G02*
X135400000Y-62650000I0J150000D01*
G01*
X135400000Y-62350000D01*
G75*
G02*
X135550000Y-62200000I150000J0D01*
G01*
G37*
G36*
G01*
X135550000Y-61200000D02*
X136800000Y-61200000D01*
G75*
G02*
X136950000Y-61350000I0J-150000D01*
G01*
X136950000Y-61650000D01*
G75*
G02*
X136800000Y-61800000I-150000J0D01*
G01*
X135550000Y-61800000D01*
G75*
G02*
X135400000Y-61650000I0J150000D01*
G01*
X135400000Y-61350000D01*
G75*
G02*
X135550000Y-61200000I150000J0D01*
G01*
G37*
G36*
G01*
X135550000Y-60200000D02*
X136800000Y-60200000D01*
G75*
G02*
X136950000Y-60350000I0J-150000D01*
G01*
X136950000Y-60650000D01*
G75*
G02*
X136800000Y-60800000I-150000J0D01*
G01*
X135550000Y-60800000D01*
G75*
G02*
X135400000Y-60650000I0J150000D01*
G01*
X135400000Y-60350000D01*
G75*
G02*
X135550000Y-60200000I150000J0D01*
G01*
G37*
G36*
G01*
X135550000Y-59200000D02*
X136800000Y-59200000D01*
G75*
G02*
X136950000Y-59350000I0J-150000D01*
G01*
X136950000Y-59650000D01*
G75*
G02*
X136800000Y-59800000I-150000J0D01*
G01*
X135550000Y-59800000D01*
G75*
G02*
X135400000Y-59650000I0J150000D01*
G01*
X135400000Y-59350000D01*
G75*
G02*
X135550000Y-59200000I150000J0D01*
G01*
G37*
D17*
X105000000Y-80350000D03*
X105950000Y-80350000D03*
X104050000Y-80350000D03*
X104050000Y-78150000D03*
X105000000Y-78150000D03*
X105950000Y-78150000D03*
D18*
X130500000Y-52745000D03*
X130500000Y-54015000D03*
X130500000Y-55285000D03*
X130500000Y-56555000D03*
X130500000Y-57825000D03*
X130500000Y-59095000D03*
X130500000Y-60365000D03*
X130500000Y-61635000D03*
X130500000Y-62905000D03*
X130500000Y-64175000D03*
X130500000Y-65445000D03*
X130500000Y-66715000D03*
X130500000Y-67985000D03*
X130500000Y-69255000D03*
D19*
X127715000Y-70255000D03*
X126445000Y-70255000D03*
X125175000Y-70255000D03*
X123905000Y-70255000D03*
X122635000Y-70255000D03*
X121365000Y-70255000D03*
X120095000Y-70255000D03*
X118825000Y-70255000D03*
X117555000Y-70255000D03*
X116285000Y-70255000D03*
D18*
X113500000Y-69255000D03*
X113500000Y-67985000D03*
X113500000Y-66715000D03*
X113500000Y-65445000D03*
X113500000Y-64175000D03*
X113500000Y-62905000D03*
X113500000Y-61635000D03*
X113500000Y-60365000D03*
X113500000Y-59095000D03*
X113500000Y-57825000D03*
X113500000Y-56555000D03*
X113500000Y-55285000D03*
X113500000Y-54015000D03*
X113500000Y-52745000D03*
D20*
X121000000Y-60245000D03*
G36*
G01*
X105675000Y-75275000D02*
X105675000Y-74725000D01*
G75*
G02*
X105875000Y-74525000I200000J0D01*
G01*
X106275000Y-74525000D01*
G75*
G02*
X106475000Y-74725000I0J-200000D01*
G01*
X106475000Y-75275000D01*
G75*
G02*
X106275000Y-75475000I-200000J0D01*
G01*
X105875000Y-75475000D01*
G75*
G02*
X105675000Y-75275000I0J200000D01*
G01*
G37*
G36*
G01*
X104025000Y-75275000D02*
X104025000Y-74725000D01*
G75*
G02*
X104225000Y-74525000I200000J0D01*
G01*
X104625000Y-74525000D01*
G75*
G02*
X104825000Y-74725000I0J-200000D01*
G01*
X104825000Y-75275000D01*
G75*
G02*
X104625000Y-75475000I-200000J0D01*
G01*
X104225000Y-75475000D01*
G75*
G02*
X104025000Y-75275000I0J200000D01*
G01*
G37*
D21*
X111600000Y-83000000D03*
X107600000Y-83000000D03*
G36*
G01*
X103949550Y-86900000D02*
X105250450Y-86900000D01*
G75*
G02*
X105500000Y-87149550I0J-249550D01*
G01*
X105500000Y-87800450D01*
G75*
G02*
X105250450Y-88050000I-249550J0D01*
G01*
X103949550Y-88050000D01*
G75*
G02*
X103700000Y-87800450I0J249550D01*
G01*
X103700000Y-87149550D01*
G75*
G02*
X103949550Y-86900000I249550J0D01*
G01*
G37*
G36*
G01*
X103949999Y-83950000D02*
X105250001Y-83950000D01*
G75*
G02*
X105500000Y-84199999I0J-249999D01*
G01*
X105500000Y-84850001D01*
G75*
G02*
X105250001Y-85100000I-249999J0D01*
G01*
X103949999Y-85100000D01*
G75*
G02*
X103700000Y-84850001I0J249999D01*
G01*
X103700000Y-84199999D01*
G75*
G02*
X103949999Y-83950000I249999J0D01*
G01*
G37*
G36*
G01*
X105575000Y-76750000D02*
X105575000Y-76250000D01*
G75*
G02*
X105800000Y-76025000I225000J0D01*
G01*
X106250000Y-76025000D01*
G75*
G02*
X106475000Y-76250000I0J-225000D01*
G01*
X106475000Y-76750000D01*
G75*
G02*
X106250000Y-76975000I-225000J0D01*
G01*
X105800000Y-76975000D01*
G75*
G02*
X105575000Y-76750000I0J225000D01*
G01*
G37*
G36*
G01*
X104025000Y-76750000D02*
X104025000Y-76250000D01*
G75*
G02*
X104250000Y-76025000I225000J0D01*
G01*
X104700000Y-76025000D01*
G75*
G02*
X104925000Y-76250000I0J-225000D01*
G01*
X104925000Y-76750000D01*
G75*
G02*
X104700000Y-76975000I-225000J0D01*
G01*
X104250000Y-76975000D01*
G75*
G02*
X104025000Y-76750000I0J225000D01*
G01*
G37*
D22*
X111760000Y-99568000D03*
D23*
X106680000Y-99568000D03*
D22*
X137030000Y-99568000D03*
D23*
X131950000Y-99568000D03*
D22*
X127000000Y-99568000D03*
X121920000Y-99568000D03*
D23*
X116840000Y-99568000D03*
G36*
G01*
X104900000Y-73243750D02*
X104900000Y-73756250D01*
G75*
G02*
X104681250Y-73975000I-218750J0D01*
G01*
X104243750Y-73975000D01*
G75*
G02*
X104025000Y-73756250I0J218750D01*
G01*
X104025000Y-73243750D01*
G75*
G02*
X104243750Y-73025000I218750J0D01*
G01*
X104681250Y-73025000D01*
G75*
G02*
X104900000Y-73243750I0J-218750D01*
G01*
G37*
G36*
G01*
X106475000Y-73243750D02*
X106475000Y-73756250D01*
G75*
G02*
X106256250Y-73975000I-218750J0D01*
G01*
X105818750Y-73975000D01*
G75*
G02*
X105600000Y-73756250I0J218750D01*
G01*
X105600000Y-73243750D01*
G75*
G02*
X105818750Y-73025000I218750J0D01*
G01*
X106256250Y-73025000D01*
G75*
G02*
X106475000Y-73243750I0J-218750D01*
G01*
G37*
G36*
G01*
X108225000Y-70875000D02*
X108225000Y-72125000D01*
G75*
G02*
X107975000Y-72375000I-250000J0D01*
G01*
X107225000Y-72375000D01*
G75*
G02*
X106975000Y-72125000I0J250000D01*
G01*
X106975000Y-70875000D01*
G75*
G02*
X107225000Y-70625000I250000J0D01*
G01*
X107975000Y-70625000D01*
G75*
G02*
X108225000Y-70875000I0J-250000D01*
G01*
G37*
G36*
G01*
X111025000Y-70875000D02*
X111025000Y-72125000D01*
G75*
G02*
X110775000Y-72375000I-250000J0D01*
G01*
X110025000Y-72375000D01*
G75*
G02*
X109775000Y-72125000I0J250000D01*
G01*
X109775000Y-70875000D01*
G75*
G02*
X110025000Y-70625000I250000J0D01*
G01*
X110775000Y-70625000D01*
G75*
G02*
X111025000Y-70875000I0J-250000D01*
G01*
G37*
G36*
G01*
X109625000Y-53975000D02*
X108375000Y-53975000D01*
G75*
G02*
X108125000Y-53725000I0J250000D01*
G01*
X108125000Y-52975000D01*
G75*
G02*
X108375000Y-52725000I250000J0D01*
G01*
X109625000Y-52725000D01*
G75*
G02*
X109875000Y-52975000I0J-250000D01*
G01*
X109875000Y-53725000D01*
G75*
G02*
X109625000Y-53975000I-250000J0D01*
G01*
G37*
G36*
G01*
X109625000Y-56775000D02*
X108375000Y-56775000D01*
G75*
G02*
X108125000Y-56525000I0J250000D01*
G01*
X108125000Y-55775000D01*
G75*
G02*
X108375000Y-55525000I250000J0D01*
G01*
X109625000Y-55525000D01*
G75*
G02*
X109875000Y-55775000I0J-250000D01*
G01*
X109875000Y-56525000D01*
G75*
G02*
X109625000Y-56775000I-250000J0D01*
G01*
G37*
D16*
X106400000Y-56200000D03*
X104700000Y-82400000D03*
X111000000Y-63000000D03*
G36*
G01*
X116006250Y-74400000D02*
X115493750Y-74400000D01*
G75*
G02*
X115275000Y-74181250I0J218750D01*
G01*
X115275000Y-73743750D01*
G75*
G02*
X115493750Y-73525000I218750J0D01*
G01*
X116006250Y-73525000D01*
G75*
G02*
X116225000Y-73743750I0J-218750D01*
G01*
X116225000Y-74181250D01*
G75*
G02*
X116006250Y-74400000I-218750J0D01*
G01*
G37*
G36*
G01*
X116006250Y-75975000D02*
X115493750Y-75975000D01*
G75*
G02*
X115275000Y-75756250I0J218750D01*
G01*
X115275000Y-75318750D01*
G75*
G02*
X115493750Y-75100000I218750J0D01*
G01*
X116006250Y-75100000D01*
G75*
G02*
X116225000Y-75318750I0J-218750D01*
G01*
X116225000Y-75756250D01*
G75*
G02*
X116006250Y-75975000I-218750J0D01*
G01*
G37*
G36*
G01*
X116006250Y-77650000D02*
X115493750Y-77650000D01*
G75*
G02*
X115275000Y-77431250I0J218750D01*
G01*
X115275000Y-76993750D01*
G75*
G02*
X115493750Y-76775000I218750J0D01*
G01*
X116006250Y-76775000D01*
G75*
G02*
X116225000Y-76993750I0J-218750D01*
G01*
X116225000Y-77431250D01*
G75*
G02*
X116006250Y-77650000I-218750J0D01*
G01*
G37*
G36*
G01*
X116006250Y-79225000D02*
X115493750Y-79225000D01*
G75*
G02*
X115275000Y-79006250I0J218750D01*
G01*
X115275000Y-78568750D01*
G75*
G02*
X115493750Y-78350000I218750J0D01*
G01*
X116006250Y-78350000D01*
G75*
G02*
X116225000Y-78568750I0J-218750D01*
G01*
X116225000Y-79006250D01*
G75*
G02*
X116006250Y-79225000I-218750J0D01*
G01*
G37*
D24*
X118500000Y-75750000D03*
X117550000Y-73750000D03*
X119450000Y-73750000D03*
G36*
G01*
X117243750Y-78350000D02*
X117756250Y-78350000D01*
G75*
G02*
X117975000Y-78568750I0J-218750D01*
G01*
X117975000Y-79006250D01*
G75*
G02*
X117756250Y-79225000I-218750J0D01*
G01*
X117243750Y-79225000D01*
G75*
G02*
X117025000Y-79006250I0J218750D01*
G01*
X117025000Y-78568750D01*
G75*
G02*
X117243750Y-78350000I218750J0D01*
G01*
G37*
G36*
G01*
X117243750Y-76775000D02*
X117756250Y-76775000D01*
G75*
G02*
X117975000Y-76993750I0J-218750D01*
G01*
X117975000Y-77431250D01*
G75*
G02*
X117756250Y-77650000I-218750J0D01*
G01*
X117243750Y-77650000D01*
G75*
G02*
X117025000Y-77431250I0J218750D01*
G01*
X117025000Y-76993750D01*
G75*
G02*
X117243750Y-76775000I218750J0D01*
G01*
G37*
G36*
G01*
X135355000Y-90100000D02*
X135655000Y-90100000D01*
G75*
G02*
X135805000Y-90250000I0J-150000D01*
G01*
X135805000Y-91900000D01*
G75*
G02*
X135655000Y-92050000I-150000J0D01*
G01*
X135355000Y-92050000D01*
G75*
G02*
X135205000Y-91900000I0J150000D01*
G01*
X135205000Y-90250000D01*
G75*
G02*
X135355000Y-90100000I150000J0D01*
G01*
G37*
G36*
G01*
X134085000Y-90100000D02*
X134385000Y-90100000D01*
G75*
G02*
X134535000Y-90250000I0J-150000D01*
G01*
X134535000Y-91900000D01*
G75*
G02*
X134385000Y-92050000I-150000J0D01*
G01*
X134085000Y-92050000D01*
G75*
G02*
X133935000Y-91900000I0J150000D01*
G01*
X133935000Y-90250000D01*
G75*
G02*
X134085000Y-90100000I150000J0D01*
G01*
G37*
G36*
G01*
X132815000Y-90100000D02*
X133115000Y-90100000D01*
G75*
G02*
X133265000Y-90250000I0J-150000D01*
G01*
X133265000Y-91900000D01*
G75*
G02*
X133115000Y-92050000I-150000J0D01*
G01*
X132815000Y-92050000D01*
G75*
G02*
X132665000Y-91900000I0J150000D01*
G01*
X132665000Y-90250000D01*
G75*
G02*
X132815000Y-90100000I150000J0D01*
G01*
G37*
G36*
G01*
X131545000Y-90100000D02*
X131845000Y-90100000D01*
G75*
G02*
X131995000Y-90250000I0J-150000D01*
G01*
X131995000Y-91900000D01*
G75*
G02*
X131845000Y-92050000I-150000J0D01*
G01*
X131545000Y-92050000D01*
G75*
G02*
X131395000Y-91900000I0J150000D01*
G01*
X131395000Y-90250000D01*
G75*
G02*
X131545000Y-90100000I150000J0D01*
G01*
G37*
G36*
G01*
X131545000Y-85150000D02*
X131845000Y-85150000D01*
G75*
G02*
X131995000Y-85300000I0J-150000D01*
G01*
X131995000Y-86950000D01*
G75*
G02*
X131845000Y-87100000I-150000J0D01*
G01*
X131545000Y-87100000D01*
G75*
G02*
X131395000Y-86950000I0J150000D01*
G01*
X131395000Y-85300000D01*
G75*
G02*
X131545000Y-85150000I150000J0D01*
G01*
G37*
G36*
G01*
X132815000Y-85150000D02*
X133115000Y-85150000D01*
G75*
G02*
X133265000Y-85300000I0J-150000D01*
G01*
X133265000Y-86950000D01*
G75*
G02*
X133115000Y-87100000I-150000J0D01*
G01*
X132815000Y-87100000D01*
G75*
G02*
X132665000Y-86950000I0J150000D01*
G01*
X132665000Y-85300000D01*
G75*
G02*
X132815000Y-85150000I150000J0D01*
G01*
G37*
G36*
G01*
X134085000Y-85150000D02*
X134385000Y-85150000D01*
G75*
G02*
X134535000Y-85300000I0J-150000D01*
G01*
X134535000Y-86950000D01*
G75*
G02*
X134385000Y-87100000I-150000J0D01*
G01*
X134085000Y-87100000D01*
G75*
G02*
X133935000Y-86950000I0J150000D01*
G01*
X133935000Y-85300000D01*
G75*
G02*
X134085000Y-85150000I150000J0D01*
G01*
G37*
G36*
G01*
X135355000Y-85150000D02*
X135655000Y-85150000D01*
G75*
G02*
X135805000Y-85300000I0J-150000D01*
G01*
X135805000Y-86950000D01*
G75*
G02*
X135655000Y-87100000I-150000J0D01*
G01*
X135355000Y-87100000D01*
G75*
G02*
X135205000Y-86950000I0J150000D01*
G01*
X135205000Y-85300000D01*
G75*
G02*
X135355000Y-85150000I150000J0D01*
G01*
G37*
G36*
G01*
X139475000Y-89225000D02*
X137325000Y-89225000D01*
G75*
G02*
X137075000Y-88975000I0J250000D01*
G01*
X137075000Y-88225000D01*
G75*
G02*
X137325000Y-87975000I250000J0D01*
G01*
X139475000Y-87975000D01*
G75*
G02*
X139725000Y-88225000I0J-250000D01*
G01*
X139725000Y-88975000D01*
G75*
G02*
X139475000Y-89225000I-250000J0D01*
G01*
G37*
G36*
G01*
X139475000Y-92025000D02*
X137325000Y-92025000D01*
G75*
G02*
X137075000Y-91775000I0J250000D01*
G01*
X137075000Y-91025000D01*
G75*
G02*
X137325000Y-90775000I250000J0D01*
G01*
X139475000Y-90775000D01*
G75*
G02*
X139725000Y-91025000I0J-250000D01*
G01*
X139725000Y-91775000D01*
G75*
G02*
X139475000Y-92025000I-250000J0D01*
G01*
G37*
G36*
G01*
X135756250Y-81850000D02*
X135243750Y-81850000D01*
G75*
G02*
X135025000Y-81631250I0J218750D01*
G01*
X135025000Y-81193750D01*
G75*
G02*
X135243750Y-80975000I218750J0D01*
G01*
X135756250Y-80975000D01*
G75*
G02*
X135975000Y-81193750I0J-218750D01*
G01*
X135975000Y-81631250D01*
G75*
G02*
X135756250Y-81850000I-218750J0D01*
G01*
G37*
G36*
G01*
X135756250Y-83425000D02*
X135243750Y-83425000D01*
G75*
G02*
X135025000Y-83206250I0J218750D01*
G01*
X135025000Y-82768750D01*
G75*
G02*
X135243750Y-82550000I218750J0D01*
G01*
X135756250Y-82550000D01*
G75*
G02*
X135975000Y-82768750I0J-218750D01*
G01*
X135975000Y-83206250D01*
G75*
G02*
X135756250Y-83425000I-218750J0D01*
G01*
G37*
G36*
G01*
X124493750Y-75100000D02*
X125006250Y-75100000D01*
G75*
G02*
X125225000Y-75318750I0J-218750D01*
G01*
X125225000Y-75756250D01*
G75*
G02*
X125006250Y-75975000I-218750J0D01*
G01*
X124493750Y-75975000D01*
G75*
G02*
X124275000Y-75756250I0J218750D01*
G01*
X124275000Y-75318750D01*
G75*
G02*
X124493750Y-75100000I218750J0D01*
G01*
G37*
G36*
G01*
X124493750Y-73525000D02*
X125006250Y-73525000D01*
G75*
G02*
X125225000Y-73743750I0J-218750D01*
G01*
X125225000Y-74181250D01*
G75*
G02*
X125006250Y-74400000I-218750J0D01*
G01*
X124493750Y-74400000D01*
G75*
G02*
X124275000Y-74181250I0J218750D01*
G01*
X124275000Y-73743750D01*
G75*
G02*
X124493750Y-73525000I218750J0D01*
G01*
G37*
G36*
G01*
X109506250Y-58650000D02*
X108993750Y-58650000D01*
G75*
G02*
X108775000Y-58431250I0J218750D01*
G01*
X108775000Y-57993750D01*
G75*
G02*
X108993750Y-57775000I218750J0D01*
G01*
X109506250Y-57775000D01*
G75*
G02*
X109725000Y-57993750I0J-218750D01*
G01*
X109725000Y-58431250D01*
G75*
G02*
X109506250Y-58650000I-218750J0D01*
G01*
G37*
G36*
G01*
X109506250Y-60225000D02*
X108993750Y-60225000D01*
G75*
G02*
X108775000Y-60006250I0J218750D01*
G01*
X108775000Y-59568750D01*
G75*
G02*
X108993750Y-59350000I218750J0D01*
G01*
X109506250Y-59350000D01*
G75*
G02*
X109725000Y-59568750I0J-218750D01*
G01*
X109725000Y-60006250D01*
G75*
G02*
X109506250Y-60225000I-218750J0D01*
G01*
G37*
D25*
G36*
X138400000Y-85625000D02*
G01*
X139150000Y-86125000D01*
X139150000Y-87125000D01*
X137650000Y-87125000D01*
X137650000Y-86125000D01*
X138400000Y-85625000D01*
G37*
G36*
X139150000Y-84675000D02*
G01*
X139150000Y-85825000D01*
X138400000Y-85325000D01*
X137650000Y-85825000D01*
X137650000Y-84675000D01*
X139150000Y-84675000D01*
G37*
G36*
G01*
X111375000Y-88250003D02*
X111375000Y-85349997D01*
G75*
G02*
X111624997Y-85100000I249997J0D01*
G01*
X112250003Y-85100000D01*
G75*
G02*
X112500000Y-85349997I0J-249997D01*
G01*
X112500000Y-88250003D01*
G75*
G02*
X112250003Y-88500000I-249997J0D01*
G01*
X111624997Y-88500000D01*
G75*
G02*
X111375000Y-88250003I0J249997D01*
G01*
G37*
G36*
G01*
X107100000Y-88250003D02*
X107100000Y-85349997D01*
G75*
G02*
X107349997Y-85100000I249997J0D01*
G01*
X107975003Y-85100000D01*
G75*
G02*
X108225000Y-85349997I0J-249997D01*
G01*
X108225000Y-88250003D01*
G75*
G02*
X107975003Y-88500000I-249997J0D01*
G01*
X107349997Y-88500000D01*
G75*
G02*
X107100000Y-88250003I0J249997D01*
G01*
G37*
D21*
X107600000Y-90500000D03*
X111600000Y-90500000D03*
G36*
G01*
X123256250Y-74400000D02*
X122743750Y-74400000D01*
G75*
G02*
X122525000Y-74181250I0J218750D01*
G01*
X122525000Y-73743750D01*
G75*
G02*
X122743750Y-73525000I218750J0D01*
G01*
X123256250Y-73525000D01*
G75*
G02*
X123475000Y-73743750I0J-218750D01*
G01*
X123475000Y-74181250D01*
G75*
G02*
X123256250Y-74400000I-218750J0D01*
G01*
G37*
G36*
G01*
X123256250Y-75975000D02*
X122743750Y-75975000D01*
G75*
G02*
X122525000Y-75756250I0J218750D01*
G01*
X122525000Y-75318750D01*
G75*
G02*
X122743750Y-75100000I218750J0D01*
G01*
X123256250Y-75100000D01*
G75*
G02*
X123475000Y-75318750I0J-218750D01*
G01*
X123475000Y-75756250D01*
G75*
G02*
X123256250Y-75975000I-218750J0D01*
G01*
G37*
G36*
G01*
X133256250Y-81850000D02*
X132743750Y-81850000D01*
G75*
G02*
X132525000Y-81631250I0J218750D01*
G01*
X132525000Y-81193750D01*
G75*
G02*
X132743750Y-80975000I218750J0D01*
G01*
X133256250Y-80975000D01*
G75*
G02*
X133475000Y-81193750I0J-218750D01*
G01*
X133475000Y-81631250D01*
G75*
G02*
X133256250Y-81850000I-218750J0D01*
G01*
G37*
G36*
G01*
X133256250Y-83425000D02*
X132743750Y-83425000D01*
G75*
G02*
X132525000Y-83206250I0J218750D01*
G01*
X132525000Y-82768750D01*
G75*
G02*
X132743750Y-82550000I218750J0D01*
G01*
X133256250Y-82550000D01*
G75*
G02*
X133475000Y-82768750I0J-218750D01*
G01*
X133475000Y-83206250D01*
G75*
G02*
X133256250Y-83425000I-218750J0D01*
G01*
G37*
G36*
G01*
X110743750Y-59350000D02*
X111256250Y-59350000D01*
G75*
G02*
X111475000Y-59568750I0J-218750D01*
G01*
X111475000Y-60006250D01*
G75*
G02*
X111256250Y-60225000I-218750J0D01*
G01*
X110743750Y-60225000D01*
G75*
G02*
X110525000Y-60006250I0J218750D01*
G01*
X110525000Y-59568750D01*
G75*
G02*
X110743750Y-59350000I218750J0D01*
G01*
G37*
G36*
G01*
X110743750Y-57775000D02*
X111256250Y-57775000D01*
G75*
G02*
X111475000Y-57993750I0J-218750D01*
G01*
X111475000Y-58431250D01*
G75*
G02*
X111256250Y-58650000I-218750J0D01*
G01*
X110743750Y-58650000D01*
G75*
G02*
X110525000Y-58431250I0J218750D01*
G01*
X110525000Y-57993750D01*
G75*
G02*
X110743750Y-57775000I218750J0D01*
G01*
G37*
G36*
G01*
X111256250Y-53650000D02*
X110743750Y-53650000D01*
G75*
G02*
X110525000Y-53431250I0J218750D01*
G01*
X110525000Y-52993750D01*
G75*
G02*
X110743750Y-52775000I218750J0D01*
G01*
X111256250Y-52775000D01*
G75*
G02*
X111475000Y-52993750I0J-218750D01*
G01*
X111475000Y-53431250D01*
G75*
G02*
X111256250Y-53650000I-218750J0D01*
G01*
G37*
G36*
G01*
X111256250Y-55225000D02*
X110743750Y-55225000D01*
G75*
G02*
X110525000Y-55006250I0J218750D01*
G01*
X110525000Y-54568750D01*
G75*
G02*
X110743750Y-54350000I218750J0D01*
G01*
X111256250Y-54350000D01*
G75*
G02*
X111475000Y-54568750I0J-218750D01*
G01*
X111475000Y-55006250D01*
G75*
G02*
X111256250Y-55225000I-218750J0D01*
G01*
G37*
M02*
