G04 #@! TF.GenerationSoftware,KiCad,Pcbnew,(5.1.8)-1*
G04 #@! TF.CreationDate,2021-06-30T11:31:09+03:00*
G04 #@! TF.ProjectId,CanLite,43616e4c-6974-4652-9e6b-696361645f70,rev?*
G04 #@! TF.SameCoordinates,Original*
G04 #@! TF.FileFunction,Legend,Top*
G04 #@! TF.FilePolarity,Positive*
%FSLAX46Y46*%
G04 Gerber Fmt 4.6, Leading zero omitted, Abs format (unit mm)*
G04 Created by KiCad (PCBNEW (5.1.8)-1) date 2021-06-30 11:31:09*
%MOMM*%
%LPD*%
G01*
G04 APERTURE LIST*
%ADD10C,0.150000*%
%ADD11C,0.120000*%
%ADD12C,0.200000*%
G04 APERTURE END LIST*
D10*
X119909523Y-94071428D02*
X120671428Y-94071428D01*
X120290476Y-94452380D02*
X120290476Y-93690476D01*
X121480952Y-93928571D02*
X121623809Y-93976190D01*
X121671428Y-94023809D01*
X121719047Y-94119047D01*
X121719047Y-94261904D01*
X121671428Y-94357142D01*
X121623809Y-94404761D01*
X121528571Y-94452380D01*
X121147619Y-94452380D01*
X121147619Y-93452380D01*
X121480952Y-93452380D01*
X121576190Y-93500000D01*
X121623809Y-93547619D01*
X121671428Y-93642857D01*
X121671428Y-93738095D01*
X121623809Y-93833333D01*
X121576190Y-93880952D01*
X121480952Y-93928571D01*
X121147619Y-93928571D01*
X122100000Y-94166666D02*
X122576190Y-94166666D01*
X122004761Y-94452380D02*
X122338095Y-93452380D01*
X122671428Y-94452380D01*
X122861904Y-93452380D02*
X123433333Y-93452380D01*
X123147619Y-94452380D02*
X123147619Y-93452380D01*
X125523809Y-93452380D02*
X125714285Y-93452380D01*
X125809523Y-93500000D01*
X125904761Y-93595238D01*
X125952380Y-93785714D01*
X125952380Y-94119047D01*
X125904761Y-94309523D01*
X125809523Y-94404761D01*
X125714285Y-94452380D01*
X125523809Y-94452380D01*
X125428571Y-94404761D01*
X125333333Y-94309523D01*
X125285714Y-94119047D01*
X125285714Y-93785714D01*
X125333333Y-93595238D01*
X125428571Y-93500000D01*
X125523809Y-93452380D01*
X126380952Y-93452380D02*
X126380952Y-94261904D01*
X126428571Y-94357142D01*
X126476190Y-94404761D01*
X126571428Y-94452380D01*
X126761904Y-94452380D01*
X126857142Y-94404761D01*
X126904761Y-94357142D01*
X126952380Y-94261904D01*
X126952380Y-93452380D01*
X127285714Y-93452380D02*
X127857142Y-93452380D01*
X127571428Y-94452380D02*
X127571428Y-93452380D01*
X128142857Y-93547619D02*
X128190476Y-93500000D01*
X128285714Y-93452380D01*
X128523809Y-93452380D01*
X128619047Y-93500000D01*
X128666666Y-93547619D01*
X128714285Y-93642857D01*
X128714285Y-93738095D01*
X128666666Y-93880952D01*
X128095238Y-94452380D01*
X128714285Y-94452380D01*
X115023809Y-93452380D02*
X115214285Y-93452380D01*
X115309523Y-93500000D01*
X115404761Y-93595238D01*
X115452380Y-93785714D01*
X115452380Y-94119047D01*
X115404761Y-94309523D01*
X115309523Y-94404761D01*
X115214285Y-94452380D01*
X115023809Y-94452380D01*
X114928571Y-94404761D01*
X114833333Y-94309523D01*
X114785714Y-94119047D01*
X114785714Y-93785714D01*
X114833333Y-93595238D01*
X114928571Y-93500000D01*
X115023809Y-93452380D01*
X115880952Y-93452380D02*
X115880952Y-94261904D01*
X115928571Y-94357142D01*
X115976190Y-94404761D01*
X116071428Y-94452380D01*
X116261904Y-94452380D01*
X116357142Y-94404761D01*
X116404761Y-94357142D01*
X116452380Y-94261904D01*
X116452380Y-93452380D01*
X116785714Y-93452380D02*
X117357142Y-93452380D01*
X117071428Y-94452380D02*
X117071428Y-93452380D01*
X118214285Y-94452380D02*
X117642857Y-94452380D01*
X117928571Y-94452380D02*
X117928571Y-93452380D01*
X117833333Y-93595238D01*
X117738095Y-93690476D01*
X117642857Y-93738095D01*
X108738095Y-94071428D02*
X109500000Y-94071428D01*
X109119047Y-94452380D02*
X109119047Y-93690476D01*
X110500000Y-94452380D02*
X109928571Y-94452380D01*
X110214285Y-94452380D02*
X110214285Y-93452380D01*
X110119047Y-93595238D01*
X110023809Y-93690476D01*
X109928571Y-93738095D01*
X110880952Y-93547619D02*
X110928571Y-93500000D01*
X111023809Y-93452380D01*
X111261904Y-93452380D01*
X111357142Y-93500000D01*
X111404761Y-93547619D01*
X111452380Y-93642857D01*
X111452380Y-93738095D01*
X111404761Y-93880952D01*
X110833333Y-94452380D01*
X111452380Y-94452380D01*
X111738095Y-93452380D02*
X112071428Y-94452380D01*
X112404761Y-93452380D01*
X104738095Y-93500000D02*
X104642857Y-93452380D01*
X104500000Y-93452380D01*
X104357142Y-93500000D01*
X104261904Y-93595238D01*
X104214285Y-93690476D01*
X104166666Y-93880952D01*
X104166666Y-94023809D01*
X104214285Y-94214285D01*
X104261904Y-94309523D01*
X104357142Y-94404761D01*
X104500000Y-94452380D01*
X104595238Y-94452380D01*
X104738095Y-94404761D01*
X104785714Y-94357142D01*
X104785714Y-94023809D01*
X104595238Y-94023809D01*
X105214285Y-94452380D02*
X105214285Y-93452380D01*
X105785714Y-94452380D01*
X105785714Y-93452380D01*
X106261904Y-94452380D02*
X106261904Y-93452380D01*
X106500000Y-93452380D01*
X106642857Y-93500000D01*
X106738095Y-93595238D01*
X106785714Y-93690476D01*
X106833333Y-93880952D01*
X106833333Y-94023809D01*
X106785714Y-94214285D01*
X106738095Y-94309523D01*
X106642857Y-94404761D01*
X106500000Y-94452380D01*
X106261904Y-94452380D01*
X131452380Y-94357142D02*
X131404761Y-94404761D01*
X131261904Y-94452380D01*
X131166666Y-94452380D01*
X131023809Y-94404761D01*
X130928571Y-94309523D01*
X130880952Y-94214285D01*
X130833333Y-94023809D01*
X130833333Y-93880952D01*
X130880952Y-93690476D01*
X130928571Y-93595238D01*
X131023809Y-93500000D01*
X131166666Y-93452380D01*
X131261904Y-93452380D01*
X131404761Y-93500000D01*
X131452380Y-93547619D01*
X131833333Y-94166666D02*
X132309523Y-94166666D01*
X131738095Y-94452380D02*
X132071428Y-93452380D01*
X132404761Y-94452380D01*
X132738095Y-94452380D02*
X132738095Y-93452380D01*
X133309523Y-94452380D01*
X133309523Y-93452380D01*
X134261904Y-94452380D02*
X133785714Y-94452380D01*
X133785714Y-93452380D01*
X137833333Y-94357142D02*
X137785714Y-94404761D01*
X137642857Y-94452380D01*
X137547619Y-94452380D01*
X137404761Y-94404761D01*
X137309523Y-94309523D01*
X137261904Y-94214285D01*
X137214285Y-94023809D01*
X137214285Y-93880952D01*
X137261904Y-93690476D01*
X137309523Y-93595238D01*
X137404761Y-93500000D01*
X137547619Y-93452380D01*
X137642857Y-93452380D01*
X137785714Y-93500000D01*
X137833333Y-93547619D01*
X138214285Y-94166666D02*
X138690476Y-94166666D01*
X138119047Y-94452380D02*
X138452380Y-93452380D01*
X138785714Y-94452380D01*
X139119047Y-94452380D02*
X139119047Y-93452380D01*
X139690476Y-94452380D01*
X139690476Y-93452380D01*
X140166666Y-94452380D02*
X140166666Y-93452380D01*
X140166666Y-93928571D02*
X140738095Y-93928571D01*
X140738095Y-94452380D02*
X140738095Y-93452380D01*
X133757142Y-59457142D02*
X133957142Y-59457142D01*
X134042857Y-59771428D02*
X133757142Y-59771428D01*
X133757142Y-59171428D01*
X134042857Y-59171428D01*
X134300000Y-59771428D02*
X134300000Y-59171428D01*
X134642857Y-59771428D01*
X134642857Y-59171428D01*
X133500000Y-60771428D02*
X133500000Y-60171428D01*
X133900000Y-60171428D02*
X134014285Y-60171428D01*
X134071428Y-60200000D01*
X134128571Y-60257142D01*
X134157142Y-60371428D01*
X134157142Y-60571428D01*
X134128571Y-60685714D01*
X134071428Y-60742857D01*
X134014285Y-60771428D01*
X133900000Y-60771428D01*
X133842857Y-60742857D01*
X133785714Y-60685714D01*
X133757142Y-60571428D01*
X133757142Y-60371428D01*
X133785714Y-60257142D01*
X133842857Y-60200000D01*
X133900000Y-60171428D01*
X134528571Y-60171428D02*
X134585714Y-60171428D01*
X134642857Y-60200000D01*
X134671428Y-60228571D01*
X134700000Y-60285714D01*
X134728571Y-60400000D01*
X134728571Y-60542857D01*
X134700000Y-60657142D01*
X134671428Y-60714285D01*
X134642857Y-60742857D01*
X134585714Y-60771428D01*
X134528571Y-60771428D01*
X134471428Y-60742857D01*
X134442857Y-60714285D01*
X134414285Y-60657142D01*
X134385714Y-60542857D01*
X134385714Y-60400000D01*
X134414285Y-60285714D01*
X134442857Y-60228571D01*
X134471428Y-60200000D01*
X134528571Y-60171428D01*
X133600000Y-61771428D02*
X133400000Y-61485714D01*
X133257142Y-61771428D02*
X133257142Y-61171428D01*
X133485714Y-61171428D01*
X133542857Y-61200000D01*
X133571428Y-61228571D01*
X133600000Y-61285714D01*
X133600000Y-61371428D01*
X133571428Y-61428571D01*
X133542857Y-61457142D01*
X133485714Y-61485714D01*
X133257142Y-61485714D01*
X133800000Y-61171428D02*
X134200000Y-61771428D01*
X134200000Y-61171428D02*
X133800000Y-61771428D01*
X134428571Y-61771428D02*
X134428571Y-61171428D01*
X134571428Y-61171428D01*
X134657142Y-61200000D01*
X134714285Y-61257142D01*
X134742857Y-61314285D01*
X134771428Y-61428571D01*
X134771428Y-61514285D01*
X134742857Y-61628571D01*
X134714285Y-61685714D01*
X134657142Y-61742857D01*
X134571428Y-61771428D01*
X134428571Y-61771428D01*
X133342857Y-62171428D02*
X133685714Y-62171428D01*
X133514285Y-62771428D02*
X133514285Y-62171428D01*
X133828571Y-62171428D02*
X134228571Y-62771428D01*
X134228571Y-62171428D02*
X133828571Y-62771428D01*
X134457142Y-62771428D02*
X134457142Y-62171428D01*
X134600000Y-62171428D01*
X134685714Y-62200000D01*
X134742857Y-62257142D01*
X134771428Y-62314285D01*
X134800000Y-62428571D01*
X134800000Y-62514285D01*
X134771428Y-62628571D01*
X134742857Y-62685714D01*
X134685714Y-62742857D01*
X134600000Y-62771428D01*
X134457142Y-62771428D01*
X133542857Y-63200000D02*
X133485714Y-63171428D01*
X133400000Y-63171428D01*
X133314285Y-63200000D01*
X133257142Y-63257142D01*
X133228571Y-63314285D01*
X133200000Y-63428571D01*
X133200000Y-63514285D01*
X133228571Y-63628571D01*
X133257142Y-63685714D01*
X133314285Y-63742857D01*
X133400000Y-63771428D01*
X133457142Y-63771428D01*
X133542857Y-63742857D01*
X133571428Y-63714285D01*
X133571428Y-63514285D01*
X133457142Y-63514285D01*
X133828571Y-63771428D02*
X133828571Y-63171428D01*
X134171428Y-63771428D01*
X134171428Y-63171428D01*
X134457142Y-63771428D02*
X134457142Y-63171428D01*
X134600000Y-63171428D01*
X134685714Y-63200000D01*
X134742857Y-63257142D01*
X134771428Y-63314285D01*
X134800000Y-63428571D01*
X134800000Y-63514285D01*
X134771428Y-63628571D01*
X134742857Y-63685714D01*
X134685714Y-63742857D01*
X134600000Y-63771428D01*
X134457142Y-63771428D01*
X133257142Y-64271428D02*
X133628571Y-64271428D01*
X133428571Y-64500000D01*
X133514285Y-64500000D01*
X133571428Y-64528571D01*
X133600000Y-64557142D01*
X133628571Y-64614285D01*
X133628571Y-64757142D01*
X133600000Y-64814285D01*
X133571428Y-64842857D01*
X133514285Y-64871428D01*
X133342857Y-64871428D01*
X133285714Y-64842857D01*
X133257142Y-64814285D01*
X133800000Y-64271428D02*
X134000000Y-64871428D01*
X134200000Y-64271428D01*
X134342857Y-64271428D02*
X134714285Y-64271428D01*
X134514285Y-64500000D01*
X134600000Y-64500000D01*
X134657142Y-64528571D01*
X134685714Y-64557142D01*
X134714285Y-64614285D01*
X134714285Y-64757142D01*
X134685714Y-64814285D01*
X134657142Y-64842857D01*
X134600000Y-64871428D01*
X134428571Y-64871428D01*
X134371428Y-64842857D01*
X134342857Y-64814285D01*
X103661904Y-82795238D02*
X103661904Y-83252380D01*
X103661904Y-83023809D02*
X102861904Y-83023809D01*
X102976190Y-83100000D01*
X103052380Y-83176190D01*
X103090476Y-83252380D01*
X102938095Y-82490476D02*
X102900000Y-82452380D01*
X102861904Y-82376190D01*
X102861904Y-82185714D01*
X102900000Y-82109523D01*
X102938095Y-82071428D01*
X103014285Y-82033333D01*
X103090476Y-82033333D01*
X103204761Y-82071428D01*
X103661904Y-82528571D01*
X103661904Y-82033333D01*
X102861904Y-81804761D02*
X103661904Y-81538095D01*
X102861904Y-81271428D01*
X111233333Y-65990476D02*
X111233333Y-65609523D01*
X111461904Y-66066666D02*
X110661904Y-65800000D01*
X111461904Y-65533333D01*
X111461904Y-65266666D02*
X110661904Y-65266666D01*
X110661904Y-65076190D01*
X110700000Y-64961904D01*
X110776190Y-64885714D01*
X110852380Y-64847619D01*
X111004761Y-64809523D01*
X111119047Y-64809523D01*
X111271428Y-64847619D01*
X111347619Y-64885714D01*
X111423809Y-64961904D01*
X111461904Y-65076190D01*
X111461904Y-65266666D01*
X111385714Y-64009523D02*
X111423809Y-64047619D01*
X111461904Y-64161904D01*
X111461904Y-64238095D01*
X111423809Y-64352380D01*
X111347619Y-64428571D01*
X111271428Y-64466666D01*
X111119047Y-64504761D01*
X111004761Y-64504761D01*
X110852380Y-64466666D01*
X110776190Y-64428571D01*
X110700000Y-64352380D01*
X110661904Y-64238095D01*
X110661904Y-64161904D01*
X110700000Y-64047619D01*
X110738095Y-64009523D01*
X105861904Y-59490476D02*
X105861904Y-58995238D01*
X106166666Y-59261904D01*
X106166666Y-59147619D01*
X106204761Y-59071428D01*
X106242857Y-59033333D01*
X106319047Y-58995238D01*
X106509523Y-58995238D01*
X106585714Y-59033333D01*
X106623809Y-59071428D01*
X106661904Y-59147619D01*
X106661904Y-59376190D01*
X106623809Y-59452380D01*
X106585714Y-59490476D01*
X105861904Y-58766666D02*
X106661904Y-58500000D01*
X105861904Y-58233333D01*
X105861904Y-58042857D02*
X105861904Y-57547619D01*
X106166666Y-57814285D01*
X106166666Y-57700000D01*
X106204761Y-57623809D01*
X106242857Y-57585714D01*
X106319047Y-57547619D01*
X106509523Y-57547619D01*
X106585714Y-57585714D01*
X106623809Y-57623809D01*
X106661904Y-57700000D01*
X106661904Y-57928571D01*
X106623809Y-58004761D01*
X106585714Y-58042857D01*
D11*
X137540000Y-57890000D02*
X136390000Y-57890000D01*
X136390000Y-57890000D02*
X136390000Y-58940000D01*
X136390000Y-58940000D02*
X135400000Y-58940000D01*
X137540000Y-66110000D02*
X136390000Y-66110000D01*
X136390000Y-66110000D02*
X136390000Y-65060000D01*
X139510000Y-59060000D02*
X139510000Y-64940000D01*
X106610000Y-80150000D02*
X106610000Y-77700000D01*
X103390000Y-78350000D02*
X103390000Y-80150000D01*
X112880000Y-51555000D02*
X112500000Y-51555000D01*
X112880000Y-45135000D02*
X112880000Y-51555000D01*
X131120000Y-45135000D02*
X131120000Y-51555000D01*
X112880000Y-45135000D02*
X131120000Y-45135000D01*
X131120000Y-70880000D02*
X130120000Y-70880000D01*
X131120000Y-70100000D02*
X131120000Y-70880000D01*
X112880000Y-70880000D02*
X113880000Y-70880000D01*
X112880000Y-70100000D02*
X112880000Y-70880000D01*
X105012742Y-75522500D02*
X105487258Y-75522500D01*
X105012742Y-74477500D02*
X105487258Y-74477500D01*
D12*
X113700000Y-81100000D02*
X107300000Y-81100000D01*
X113900000Y-73500000D02*
X113900000Y-80900000D01*
X107300000Y-73300000D02*
X113700000Y-73300000D01*
X107100000Y-80900000D02*
X107100000Y-73500000D01*
X113900000Y-80900000D02*
G75*
G02*
X113700000Y-81100000I-200000J0D01*
G01*
X113700000Y-73300000D02*
G75*
G02*
X113900000Y-73500000I0J-200000D01*
G01*
X107100000Y-73500000D02*
G75*
G02*
X107300000Y-73300000I200000J0D01*
G01*
X107300000Y-81100000D02*
G75*
G02*
X107100000Y-80900000I0J200000D01*
G01*
D11*
X106200000Y-81350000D02*
X111600000Y-81350000D01*
X106200000Y-84650000D02*
X111600000Y-84650000D01*
X106200000Y-81350000D02*
X106200000Y-84650000D01*
X103690000Y-85288748D02*
X103690000Y-86711252D01*
X105510000Y-85288748D02*
X105510000Y-86711252D01*
X105109420Y-77010000D02*
X105390580Y-77010000D01*
X105109420Y-75990000D02*
X105390580Y-75990000D01*
X102760000Y-103900000D02*
X103260000Y-103900000D01*
X102760000Y-103160000D02*
X102760000Y-103900000D01*
X111930000Y-95150000D02*
X111930000Y-96150000D01*
X109430000Y-95150000D02*
X109430000Y-96150000D01*
X109430000Y-96150000D02*
X111930000Y-96150000D01*
X109430000Y-95150000D02*
X111930000Y-95150000D01*
X109656000Y-100400000D02*
X109596000Y-100460000D01*
X111591000Y-98465000D02*
X111551000Y-98505000D01*
X109810000Y-100595000D02*
X109770000Y-100635000D01*
X111765000Y-98640000D02*
X111705000Y-98699000D01*
X106850000Y-95150000D02*
X106850000Y-96150000D01*
X104350000Y-95150000D02*
X104350000Y-96150000D01*
X104350000Y-96150000D02*
X106850000Y-96150000D01*
X104350000Y-95150000D02*
X106850000Y-95150000D01*
X113280000Y-95090000D02*
X113280000Y-103660000D01*
X103000000Y-95090000D02*
X103000000Y-103660000D01*
X103000000Y-103660000D02*
X113280000Y-103660000D01*
X103000000Y-95090000D02*
X113280000Y-95090000D01*
X103000000Y-97000000D02*
X113280000Y-97000000D01*
X103000000Y-102000000D02*
X113280000Y-102000000D01*
X103000000Y-103100000D02*
X113280000Y-103100000D01*
X112110000Y-99550000D02*
G75*
G03*
X112110000Y-99550000I-1430000J0D01*
G01*
X105624280Y-100980940D02*
G75*
G02*
X104972000Y-100836000I-24280J1430940D01*
G01*
X104313389Y-100176746D02*
G75*
G02*
X104314000Y-98922000I1286611J626746D01*
G01*
X104972638Y-98264176D02*
G75*
G02*
X106227000Y-98264000I627362J-1285824D01*
G01*
X106885824Y-98922638D02*
G75*
G02*
X106886000Y-100177000I-1285824J-627362D01*
G01*
X106226871Y-100835275D02*
G75*
G02*
X105600000Y-100980000I-626871J1285275D01*
G01*
X130310000Y-103900000D02*
X130810000Y-103900000D01*
X130310000Y-103160000D02*
X130310000Y-103900000D01*
X139480000Y-95150000D02*
X139480000Y-96150000D01*
X136980000Y-95150000D02*
X136980000Y-96150000D01*
X136980000Y-96150000D02*
X139480000Y-96150000D01*
X136980000Y-95150000D02*
X139480000Y-95150000D01*
X137206000Y-100400000D02*
X137146000Y-100460000D01*
X139141000Y-98465000D02*
X139101000Y-98505000D01*
X137360000Y-100595000D02*
X137320000Y-100635000D01*
X139315000Y-98640000D02*
X139255000Y-98699000D01*
X134400000Y-95150000D02*
X134400000Y-96150000D01*
X131900000Y-95150000D02*
X131900000Y-96150000D01*
X131900000Y-96150000D02*
X134400000Y-96150000D01*
X131900000Y-95150000D02*
X134400000Y-95150000D01*
X140830000Y-95090000D02*
X140830000Y-103660000D01*
X130550000Y-95090000D02*
X130550000Y-103660000D01*
X130550000Y-103660000D02*
X140830000Y-103660000D01*
X130550000Y-95090000D02*
X140830000Y-95090000D01*
X130550000Y-97000000D02*
X140830000Y-97000000D01*
X130550000Y-102000000D02*
X140830000Y-102000000D01*
X130550000Y-103100000D02*
X140830000Y-103100000D01*
X139660000Y-99550000D02*
G75*
G03*
X139660000Y-99550000I-1430000J0D01*
G01*
X133174280Y-100980940D02*
G75*
G02*
X132522000Y-100836000I-24280J1430940D01*
G01*
X131863389Y-100176746D02*
G75*
G02*
X131864000Y-98922000I1286611J626746D01*
G01*
X132522638Y-98264176D02*
G75*
G02*
X133777000Y-98264000I627362J-1285824D01*
G01*
X134435824Y-98922638D02*
G75*
G02*
X134436000Y-100177000I-1285824J-627362D01*
G01*
X133776871Y-100835275D02*
G75*
G02*
X133150000Y-100980000I-626871J1285275D01*
G01*
X114010000Y-103900000D02*
X114510000Y-103900000D01*
X114010000Y-103160000D02*
X114010000Y-103900000D01*
X128260000Y-95150000D02*
X128260000Y-96150000D01*
X125760000Y-95150000D02*
X125760000Y-96150000D01*
X125760000Y-96150000D02*
X128260000Y-96150000D01*
X125760000Y-95150000D02*
X128260000Y-95150000D01*
X125986000Y-100400000D02*
X125926000Y-100460000D01*
X127921000Y-98465000D02*
X127881000Y-98505000D01*
X126140000Y-100595000D02*
X126100000Y-100635000D01*
X128095000Y-98640000D02*
X128035000Y-98699000D01*
X123180000Y-95150000D02*
X123180000Y-96150000D01*
X120680000Y-95150000D02*
X120680000Y-96150000D01*
X120680000Y-96150000D02*
X123180000Y-96150000D01*
X120680000Y-95150000D02*
X123180000Y-95150000D01*
X120906000Y-100400000D02*
X120846000Y-100460000D01*
X122841000Y-98465000D02*
X122801000Y-98505000D01*
X121060000Y-100595000D02*
X121020000Y-100635000D01*
X123015000Y-98640000D02*
X122955000Y-98699000D01*
X118100000Y-95150000D02*
X118100000Y-96150000D01*
X115600000Y-95150000D02*
X115600000Y-96150000D01*
X115600000Y-96150000D02*
X118100000Y-96150000D01*
X115600000Y-95150000D02*
X118100000Y-95150000D01*
X129610000Y-95090000D02*
X129610000Y-103660000D01*
X114250000Y-95090000D02*
X114250000Y-103660000D01*
X114250000Y-103660000D02*
X129610000Y-103660000D01*
X114250000Y-95090000D02*
X129610000Y-95090000D01*
X114250000Y-97000000D02*
X129610000Y-97000000D01*
X114250000Y-102000000D02*
X129610000Y-102000000D01*
X114250000Y-103100000D02*
X129610000Y-103100000D01*
X128440000Y-99550000D02*
G75*
G03*
X128440000Y-99550000I-1430000J0D01*
G01*
X123360000Y-99550000D02*
G75*
G03*
X123360000Y-99550000I-1430000J0D01*
G01*
X116874280Y-100980940D02*
G75*
G02*
X116222000Y-100836000I-24280J1430940D01*
G01*
X115563389Y-100176746D02*
G75*
G02*
X115564000Y-98922000I1286611J626746D01*
G01*
X116222638Y-98264176D02*
G75*
G02*
X117477000Y-98264000I627362J-1285824D01*
G01*
X118135824Y-98922638D02*
G75*
G02*
X118136000Y-100177000I-1285824J-627362D01*
G01*
X117476871Y-100835275D02*
G75*
G02*
X116850000Y-100980000I-626871J1285275D01*
G01*
X105412779Y-72990000D02*
X105087221Y-72990000D01*
X105412779Y-74010000D02*
X105087221Y-74010000D01*
X109602064Y-70590000D02*
X108397936Y-70590000D01*
X109602064Y-72410000D02*
X108397936Y-72410000D01*
X109910000Y-55352064D02*
X109910000Y-54147936D01*
X108090000Y-55352064D02*
X108090000Y-54147936D01*
X107100000Y-56200000D02*
G75*
G03*
X107100000Y-56200000I-700000J0D01*
G01*
X105400000Y-82400000D02*
G75*
G03*
X105400000Y-82400000I-700000J0D01*
G01*
X111700000Y-63000000D02*
G75*
G03*
X111700000Y-63000000I-700000J0D01*
G01*
X116260000Y-74912779D02*
X116260000Y-74587221D01*
X115240000Y-74912779D02*
X115240000Y-74587221D01*
X116260000Y-78162779D02*
X116260000Y-77837221D01*
X115240000Y-78162779D02*
X115240000Y-77837221D01*
X116920000Y-75510000D02*
X116920000Y-74050000D01*
X120080000Y-75510000D02*
X120080000Y-73350000D01*
X120080000Y-75510000D02*
X119150000Y-75510000D01*
X116920000Y-75510000D02*
X117850000Y-75510000D01*
X116990000Y-77837221D02*
X116990000Y-78162779D01*
X118010000Y-77837221D02*
X118010000Y-78162779D01*
X126960000Y-88600000D02*
X126960000Y-85150000D01*
X126960000Y-88600000D02*
X126960000Y-90550000D01*
X121840000Y-88600000D02*
X121840000Y-86650000D01*
X121840000Y-88600000D02*
X121840000Y-90550000D01*
X119960000Y-88600000D02*
X119960000Y-85150000D01*
X119960000Y-88600000D02*
X119960000Y-90550000D01*
X114840000Y-88600000D02*
X114840000Y-86650000D01*
X114840000Y-88600000D02*
X114840000Y-90550000D01*
X136160000Y-88600000D02*
X136160000Y-85150000D01*
X136160000Y-88600000D02*
X136160000Y-90550000D01*
X131040000Y-88600000D02*
X131040000Y-86650000D01*
X131040000Y-88600000D02*
X131040000Y-90550000D01*
X123310000Y-82362779D02*
X123310000Y-82037221D01*
X122290000Y-82362779D02*
X122290000Y-82037221D01*
X139760000Y-90602064D02*
X139760000Y-89397936D01*
X137040000Y-90602064D02*
X137040000Y-89397936D01*
X124910000Y-82362779D02*
X124910000Y-82037221D01*
X123890000Y-82362779D02*
X123890000Y-82037221D01*
X126510000Y-82362779D02*
X126510000Y-82037221D01*
X125490000Y-82362779D02*
X125490000Y-82037221D01*
X136010000Y-82362779D02*
X136010000Y-82037221D01*
X134990000Y-82362779D02*
X134990000Y-82037221D01*
X116310000Y-82362779D02*
X116310000Y-82037221D01*
X115290000Y-82362779D02*
X115290000Y-82037221D01*
X117910000Y-82362779D02*
X117910000Y-82037221D01*
X116890000Y-82362779D02*
X116890000Y-82037221D01*
X119510000Y-82362779D02*
X119510000Y-82037221D01*
X118490000Y-82362779D02*
X118490000Y-82037221D01*
X123260000Y-74912779D02*
X123260000Y-74587221D01*
X122240000Y-74912779D02*
X122240000Y-74587221D01*
X110010000Y-59162779D02*
X110010000Y-58837221D01*
X108990000Y-59162779D02*
X108990000Y-58837221D01*
X130000000Y-89200000D02*
X130000000Y-92000000D01*
X130000000Y-92000000D02*
X128000000Y-92000000D01*
X128000000Y-92000000D02*
X128000000Y-89200000D01*
X128000000Y-89200000D02*
X130000000Y-89200000D01*
X108413748Y-88510000D02*
X111186252Y-88510000D01*
X108413748Y-85090000D02*
X111186252Y-85090000D01*
X113000000Y-92150000D02*
X107600000Y-92150000D01*
X113000000Y-88850000D02*
X107600000Y-88850000D01*
X113000000Y-92150000D02*
X113000000Y-88850000D01*
X123485000Y-79485000D02*
X123485000Y-77200000D01*
X122015000Y-79485000D02*
X123485000Y-79485000D01*
X122015000Y-77200000D02*
X122015000Y-79485000D01*
X133510000Y-82362779D02*
X133510000Y-82037221D01*
X132490000Y-82362779D02*
X132490000Y-82037221D01*
X110490000Y-58837221D02*
X110490000Y-59162779D01*
X111510000Y-58837221D02*
X111510000Y-59162779D01*
X111510000Y-54162779D02*
X111510000Y-53837221D01*
X110490000Y-54162779D02*
X110490000Y-53837221D01*
D10*
X140361904Y-62266666D02*
X140933333Y-62266666D01*
X141047619Y-62304761D01*
X141123809Y-62380952D01*
X141161904Y-62495238D01*
X141161904Y-62571428D01*
X141161904Y-61466666D02*
X141161904Y-61923809D01*
X141161904Y-61695238D02*
X140361904Y-61695238D01*
X140476190Y-61771428D01*
X140552380Y-61847619D01*
X140590476Y-61923809D01*
X102361904Y-79709523D02*
X103009523Y-79709523D01*
X103085714Y-79671428D01*
X103123809Y-79633333D01*
X103161904Y-79557142D01*
X103161904Y-79404761D01*
X103123809Y-79328571D01*
X103085714Y-79290476D01*
X103009523Y-79252380D01*
X102361904Y-79252380D01*
X102361904Y-78490476D02*
X102361904Y-78871428D01*
X102742857Y-78909523D01*
X102704761Y-78871428D01*
X102666666Y-78795238D01*
X102666666Y-78604761D01*
X102704761Y-78528571D01*
X102742857Y-78490476D01*
X102819047Y-78452380D01*
X103009523Y-78452380D01*
X103085714Y-78490476D01*
X103123809Y-78528571D01*
X103161904Y-78604761D01*
X103161904Y-78795238D01*
X103123809Y-78871428D01*
X103085714Y-78909523D01*
X132490476Y-52961904D02*
X132490476Y-53609523D01*
X132528571Y-53685714D01*
X132566666Y-53723809D01*
X132642857Y-53761904D01*
X132795238Y-53761904D01*
X132871428Y-53723809D01*
X132909523Y-53685714D01*
X132947619Y-53609523D01*
X132947619Y-52961904D01*
X133747619Y-53761904D02*
X133290476Y-53761904D01*
X133519047Y-53761904D02*
X133519047Y-52961904D01*
X133442857Y-53076190D01*
X133366666Y-53152380D01*
X133290476Y-53190476D01*
X103361904Y-74914285D02*
X102980952Y-75180952D01*
X103361904Y-75371428D02*
X102561904Y-75371428D01*
X102561904Y-75066666D01*
X102600000Y-74990476D01*
X102638095Y-74952380D01*
X102714285Y-74914285D01*
X102828571Y-74914285D01*
X102904761Y-74952380D01*
X102942857Y-74990476D01*
X102980952Y-75066666D01*
X102980952Y-75371428D01*
X103361904Y-74152380D02*
X103361904Y-74609523D01*
X103361904Y-74380952D02*
X102561904Y-74380952D01*
X102676190Y-74457142D01*
X102752380Y-74533333D01*
X102790476Y-74609523D01*
X102828571Y-73466666D02*
X103361904Y-73466666D01*
X102523809Y-73657142D02*
X103095238Y-73847619D01*
X103095238Y-73352380D01*
X113661904Y-72533333D02*
X113661904Y-72914285D01*
X112861904Y-72914285D01*
X113661904Y-71847619D02*
X113661904Y-72304761D01*
X113661904Y-72076190D02*
X112861904Y-72076190D01*
X112976190Y-72152380D01*
X113052380Y-72228571D01*
X113090476Y-72304761D01*
X114061904Y-84590476D02*
X113261904Y-84590476D01*
X113261904Y-84400000D01*
X113300000Y-84285714D01*
X113376190Y-84209523D01*
X113452380Y-84171428D01*
X113604761Y-84133333D01*
X113719047Y-84133333D01*
X113871428Y-84171428D01*
X113947619Y-84209523D01*
X114023809Y-84285714D01*
X114061904Y-84400000D01*
X114061904Y-84590476D01*
X113528571Y-83447619D02*
X114061904Y-83447619D01*
X113223809Y-83638095D02*
X113795238Y-83828571D01*
X113795238Y-83333333D01*
X103285714Y-86833333D02*
X103323809Y-86871428D01*
X103361904Y-86985714D01*
X103361904Y-87061904D01*
X103323809Y-87176190D01*
X103247619Y-87252380D01*
X103171428Y-87290476D01*
X103019047Y-87328571D01*
X102904761Y-87328571D01*
X102752380Y-87290476D01*
X102676190Y-87252380D01*
X102600000Y-87176190D01*
X102561904Y-87061904D01*
X102561904Y-86985714D01*
X102600000Y-86871428D01*
X102638095Y-86833333D01*
X102561904Y-86566666D02*
X102561904Y-86033333D01*
X103361904Y-86376190D01*
X103285714Y-76933333D02*
X103323809Y-76971428D01*
X103361904Y-77085714D01*
X103361904Y-77161904D01*
X103323809Y-77276190D01*
X103247619Y-77352380D01*
X103171428Y-77390476D01*
X103019047Y-77428571D01*
X102904761Y-77428571D01*
X102752380Y-77390476D01*
X102676190Y-77352380D01*
X102600000Y-77276190D01*
X102561904Y-77161904D01*
X102561904Y-77085714D01*
X102600000Y-76971428D01*
X102638095Y-76933333D01*
X102561904Y-76247619D02*
X102561904Y-76400000D01*
X102600000Y-76476190D01*
X102638095Y-76514285D01*
X102752380Y-76590476D01*
X102904761Y-76628571D01*
X103209523Y-76628571D01*
X103285714Y-76590476D01*
X103323809Y-76552380D01*
X103361904Y-76476190D01*
X103361904Y-76323809D01*
X103323809Y-76247619D01*
X103285714Y-76209523D01*
X103209523Y-76171428D01*
X103019047Y-76171428D01*
X102942857Y-76209523D01*
X102904761Y-76247619D01*
X102866666Y-76323809D01*
X102866666Y-76476190D01*
X102904761Y-76552380D01*
X102942857Y-76590476D01*
X103019047Y-76628571D01*
X107733333Y-103811904D02*
X107733333Y-104383333D01*
X107695238Y-104497619D01*
X107619047Y-104573809D01*
X107504761Y-104611904D01*
X107428571Y-104611904D01*
X108457142Y-104078571D02*
X108457142Y-104611904D01*
X108266666Y-103773809D02*
X108076190Y-104345238D01*
X108571428Y-104345238D01*
X135733333Y-103811904D02*
X135733333Y-104383333D01*
X135695238Y-104497619D01*
X135619047Y-104573809D01*
X135504761Y-104611904D01*
X135428571Y-104611904D01*
X136038095Y-103811904D02*
X136533333Y-103811904D01*
X136266666Y-104116666D01*
X136380952Y-104116666D01*
X136457142Y-104154761D01*
X136495238Y-104192857D01*
X136533333Y-104269047D01*
X136533333Y-104459523D01*
X136495238Y-104535714D01*
X136457142Y-104573809D01*
X136380952Y-104611904D01*
X136152380Y-104611904D01*
X136076190Y-104573809D01*
X136038095Y-104535714D01*
X121483333Y-103811904D02*
X121483333Y-104383333D01*
X121445238Y-104497619D01*
X121369047Y-104573809D01*
X121254761Y-104611904D01*
X121178571Y-104611904D01*
X121826190Y-103888095D02*
X121864285Y-103850000D01*
X121940476Y-103811904D01*
X122130952Y-103811904D01*
X122207142Y-103850000D01*
X122245238Y-103888095D01*
X122283333Y-103964285D01*
X122283333Y-104040476D01*
X122245238Y-104154761D01*
X121788095Y-104611904D01*
X122283333Y-104611904D01*
X104585714Y-72561904D02*
X104319047Y-72180952D01*
X104128571Y-72561904D02*
X104128571Y-71761904D01*
X104433333Y-71761904D01*
X104509523Y-71800000D01*
X104547619Y-71838095D01*
X104585714Y-71914285D01*
X104585714Y-72028571D01*
X104547619Y-72104761D01*
X104509523Y-72142857D01*
X104433333Y-72180952D01*
X104128571Y-72180952D01*
X105347619Y-72561904D02*
X104890476Y-72561904D01*
X105119047Y-72561904D02*
X105119047Y-71761904D01*
X105042857Y-71876190D01*
X104966666Y-71952380D01*
X104890476Y-71990476D01*
X106109523Y-72561904D02*
X105652380Y-72561904D01*
X105880952Y-72561904D02*
X105880952Y-71761904D01*
X105804761Y-71876190D01*
X105728571Y-71952380D01*
X105652380Y-71990476D01*
X110885714Y-69733333D02*
X110923809Y-69771428D01*
X110961904Y-69885714D01*
X110961904Y-69961904D01*
X110923809Y-70076190D01*
X110847619Y-70152380D01*
X110771428Y-70190476D01*
X110619047Y-70228571D01*
X110504761Y-70228571D01*
X110352380Y-70190476D01*
X110276190Y-70152380D01*
X110200000Y-70076190D01*
X110161904Y-69961904D01*
X110161904Y-69885714D01*
X110200000Y-69771428D01*
X110238095Y-69733333D01*
X110504761Y-69276190D02*
X110466666Y-69352380D01*
X110428571Y-69390476D01*
X110352380Y-69428571D01*
X110314285Y-69428571D01*
X110238095Y-69390476D01*
X110200000Y-69352380D01*
X110161904Y-69276190D01*
X110161904Y-69123809D01*
X110200000Y-69047619D01*
X110238095Y-69009523D01*
X110314285Y-68971428D01*
X110352380Y-68971428D01*
X110428571Y-69009523D01*
X110466666Y-69047619D01*
X110504761Y-69123809D01*
X110504761Y-69276190D01*
X110542857Y-69352380D01*
X110580952Y-69390476D01*
X110657142Y-69428571D01*
X110809523Y-69428571D01*
X110885714Y-69390476D01*
X110923809Y-69352380D01*
X110961904Y-69276190D01*
X110961904Y-69123809D01*
X110923809Y-69047619D01*
X110885714Y-69009523D01*
X110809523Y-68971428D01*
X110657142Y-68971428D01*
X110580952Y-69009523D01*
X110542857Y-69047619D01*
X110504761Y-69123809D01*
X107585714Y-53333333D02*
X107623809Y-53371428D01*
X107661904Y-53485714D01*
X107661904Y-53561904D01*
X107623809Y-53676190D01*
X107547619Y-53752380D01*
X107471428Y-53790476D01*
X107319047Y-53828571D01*
X107204761Y-53828571D01*
X107052380Y-53790476D01*
X106976190Y-53752380D01*
X106900000Y-53676190D01*
X106861904Y-53561904D01*
X106861904Y-53485714D01*
X106900000Y-53371428D01*
X106938095Y-53333333D01*
X107661904Y-52571428D02*
X107661904Y-53028571D01*
X107661904Y-52800000D02*
X106861904Y-52800000D01*
X106976190Y-52876190D01*
X107052380Y-52952380D01*
X107090476Y-53028571D01*
X116161904Y-72633333D02*
X115780952Y-72900000D01*
X116161904Y-73090476D02*
X115361904Y-73090476D01*
X115361904Y-72785714D01*
X115400000Y-72709523D01*
X115438095Y-72671428D01*
X115514285Y-72633333D01*
X115628571Y-72633333D01*
X115704761Y-72671428D01*
X115742857Y-72709523D01*
X115780952Y-72785714D01*
X115780952Y-73090476D01*
X115628571Y-71947619D02*
X116161904Y-71947619D01*
X115323809Y-72138095D02*
X115895238Y-72328571D01*
X115895238Y-71833333D01*
X114961904Y-79533333D02*
X114580952Y-79800000D01*
X114961904Y-79990476D02*
X114161904Y-79990476D01*
X114161904Y-79685714D01*
X114200000Y-79609523D01*
X114238095Y-79571428D01*
X114314285Y-79533333D01*
X114428571Y-79533333D01*
X114504761Y-79571428D01*
X114542857Y-79609523D01*
X114580952Y-79685714D01*
X114580952Y-79990476D01*
X114161904Y-79266666D02*
X114161904Y-78771428D01*
X114466666Y-79038095D01*
X114466666Y-78923809D01*
X114504761Y-78847619D01*
X114542857Y-78809523D01*
X114619047Y-78771428D01*
X114809523Y-78771428D01*
X114885714Y-78809523D01*
X114923809Y-78847619D01*
X114961904Y-78923809D01*
X114961904Y-79152380D01*
X114923809Y-79228571D01*
X114885714Y-79266666D01*
X121161904Y-74990476D02*
X120361904Y-74990476D01*
X120361904Y-74800000D01*
X120400000Y-74685714D01*
X120476190Y-74609523D01*
X120552380Y-74571428D01*
X120704761Y-74533333D01*
X120819047Y-74533333D01*
X120971428Y-74571428D01*
X121047619Y-74609523D01*
X121123809Y-74685714D01*
X121161904Y-74800000D01*
X121161904Y-74990476D01*
X120438095Y-74228571D02*
X120400000Y-74190476D01*
X120361904Y-74114285D01*
X120361904Y-73923809D01*
X120400000Y-73847619D01*
X120438095Y-73809523D01*
X120514285Y-73771428D01*
X120590476Y-73771428D01*
X120704761Y-73809523D01*
X121161904Y-74266666D01*
X121161904Y-73771428D01*
X119215714Y-78133333D02*
X119253809Y-78171428D01*
X119291904Y-78285714D01*
X119291904Y-78361904D01*
X119253809Y-78476190D01*
X119177619Y-78552380D01*
X119101428Y-78590476D01*
X118949047Y-78628571D01*
X118834761Y-78628571D01*
X118682380Y-78590476D01*
X118606190Y-78552380D01*
X118530000Y-78476190D01*
X118491904Y-78361904D01*
X118491904Y-78285714D01*
X118530000Y-78171428D01*
X118568095Y-78133333D01*
X118758571Y-77447619D02*
X119291904Y-77447619D01*
X118453809Y-77638095D02*
X119025238Y-77828571D01*
X119025238Y-77333333D01*
X127561904Y-86609523D02*
X128209523Y-86609523D01*
X128285714Y-86571428D01*
X128323809Y-86533333D01*
X128361904Y-86457142D01*
X128361904Y-86304761D01*
X128323809Y-86228571D01*
X128285714Y-86190476D01*
X128209523Y-86152380D01*
X127561904Y-86152380D01*
X127561904Y-85847619D02*
X127561904Y-85352380D01*
X127866666Y-85619047D01*
X127866666Y-85504761D01*
X127904761Y-85428571D01*
X127942857Y-85390476D01*
X128019047Y-85352380D01*
X128209523Y-85352380D01*
X128285714Y-85390476D01*
X128323809Y-85428571D01*
X128361904Y-85504761D01*
X128361904Y-85733333D01*
X128323809Y-85809523D01*
X128285714Y-85847619D01*
X120561904Y-86609523D02*
X121209523Y-86609523D01*
X121285714Y-86571428D01*
X121323809Y-86533333D01*
X121361904Y-86457142D01*
X121361904Y-86304761D01*
X121323809Y-86228571D01*
X121285714Y-86190476D01*
X121209523Y-86152380D01*
X120561904Y-86152380D01*
X120638095Y-85809523D02*
X120600000Y-85771428D01*
X120561904Y-85695238D01*
X120561904Y-85504761D01*
X120600000Y-85428571D01*
X120638095Y-85390476D01*
X120714285Y-85352380D01*
X120790476Y-85352380D01*
X120904761Y-85390476D01*
X121361904Y-85847619D01*
X121361904Y-85352380D01*
X136811904Y-86359523D02*
X137459523Y-86359523D01*
X137535714Y-86321428D01*
X137573809Y-86283333D01*
X137611904Y-86207142D01*
X137611904Y-86054761D01*
X137573809Y-85978571D01*
X137535714Y-85940476D01*
X137459523Y-85902380D01*
X136811904Y-85902380D01*
X137078571Y-85178571D02*
X137611904Y-85178571D01*
X136773809Y-85369047D02*
X137345238Y-85559523D01*
X137345238Y-85064285D01*
X121961904Y-83414285D02*
X121580952Y-83680952D01*
X121961904Y-83871428D02*
X121161904Y-83871428D01*
X121161904Y-83566666D01*
X121200000Y-83490476D01*
X121238095Y-83452380D01*
X121314285Y-83414285D01*
X121428571Y-83414285D01*
X121504761Y-83452380D01*
X121542857Y-83490476D01*
X121580952Y-83566666D01*
X121580952Y-83871428D01*
X121961904Y-82652380D02*
X121961904Y-83109523D01*
X121961904Y-82880952D02*
X121161904Y-82880952D01*
X121276190Y-82957142D01*
X121352380Y-83033333D01*
X121390476Y-83109523D01*
X121161904Y-82385714D02*
X121161904Y-81890476D01*
X121466666Y-82157142D01*
X121466666Y-82042857D01*
X121504761Y-81966666D01*
X121542857Y-81928571D01*
X121619047Y-81890476D01*
X121809523Y-81890476D01*
X121885714Y-81928571D01*
X121923809Y-81966666D01*
X121961904Y-82042857D01*
X121961904Y-82271428D01*
X121923809Y-82347619D01*
X121885714Y-82385714D01*
X141361904Y-91264285D02*
X140980952Y-91530952D01*
X141361904Y-91721428D02*
X140561904Y-91721428D01*
X140561904Y-91416666D01*
X140600000Y-91340476D01*
X140638095Y-91302380D01*
X140714285Y-91264285D01*
X140828571Y-91264285D01*
X140904761Y-91302380D01*
X140942857Y-91340476D01*
X140980952Y-91416666D01*
X140980952Y-91721428D01*
X141361904Y-90502380D02*
X141361904Y-90959523D01*
X141361904Y-90730952D02*
X140561904Y-90730952D01*
X140676190Y-90807142D01*
X140752380Y-90883333D01*
X140790476Y-90959523D01*
X140638095Y-90197619D02*
X140600000Y-90159523D01*
X140561904Y-90083333D01*
X140561904Y-89892857D01*
X140600000Y-89816666D01*
X140638095Y-89778571D01*
X140714285Y-89740476D01*
X140790476Y-89740476D01*
X140904761Y-89778571D01*
X141361904Y-90235714D01*
X141361904Y-89740476D01*
X124761904Y-79714285D02*
X124380952Y-79980952D01*
X124761904Y-80171428D02*
X123961904Y-80171428D01*
X123961904Y-79866666D01*
X124000000Y-79790476D01*
X124038095Y-79752380D01*
X124114285Y-79714285D01*
X124228571Y-79714285D01*
X124304761Y-79752380D01*
X124342857Y-79790476D01*
X124380952Y-79866666D01*
X124380952Y-80171428D01*
X124761904Y-78952380D02*
X124761904Y-79409523D01*
X124761904Y-79180952D02*
X123961904Y-79180952D01*
X124076190Y-79257142D01*
X124152380Y-79333333D01*
X124190476Y-79409523D01*
X123961904Y-78457142D02*
X123961904Y-78380952D01*
X124000000Y-78304761D01*
X124038095Y-78266666D01*
X124114285Y-78228571D01*
X124266666Y-78190476D01*
X124457142Y-78190476D01*
X124609523Y-78228571D01*
X124685714Y-78266666D01*
X124723809Y-78304761D01*
X124761904Y-78380952D01*
X124761904Y-78457142D01*
X124723809Y-78533333D01*
X124685714Y-78571428D01*
X124609523Y-78609523D01*
X124457142Y-78647619D01*
X124266666Y-78647619D01*
X124114285Y-78609523D01*
X124038095Y-78571428D01*
X124000000Y-78533333D01*
X123961904Y-78457142D01*
X126361904Y-79720833D02*
X125980952Y-79987500D01*
X126361904Y-80177976D02*
X125561904Y-80177976D01*
X125561904Y-79873214D01*
X125600000Y-79797023D01*
X125638095Y-79758928D01*
X125714285Y-79720833D01*
X125828571Y-79720833D01*
X125904761Y-79758928D01*
X125942857Y-79797023D01*
X125980952Y-79873214D01*
X125980952Y-80177976D01*
X126361904Y-79339880D02*
X126361904Y-79187500D01*
X126323809Y-79111309D01*
X126285714Y-79073214D01*
X126171428Y-78997023D01*
X126019047Y-78958928D01*
X125714285Y-78958928D01*
X125638095Y-78997023D01*
X125600000Y-79035119D01*
X125561904Y-79111309D01*
X125561904Y-79263690D01*
X125600000Y-79339880D01*
X125638095Y-79377976D01*
X125714285Y-79416071D01*
X125904761Y-79416071D01*
X125980952Y-79377976D01*
X126019047Y-79339880D01*
X126057142Y-79263690D01*
X126057142Y-79111309D01*
X126019047Y-79035119D01*
X125980952Y-78997023D01*
X125904761Y-78958928D01*
X136011904Y-79633333D02*
X135630952Y-79900000D01*
X136011904Y-80090476D02*
X135211904Y-80090476D01*
X135211904Y-79785714D01*
X135250000Y-79709523D01*
X135288095Y-79671428D01*
X135364285Y-79633333D01*
X135478571Y-79633333D01*
X135554761Y-79671428D01*
X135592857Y-79709523D01*
X135630952Y-79785714D01*
X135630952Y-80090476D01*
X135554761Y-79176190D02*
X135516666Y-79252380D01*
X135478571Y-79290476D01*
X135402380Y-79328571D01*
X135364285Y-79328571D01*
X135288095Y-79290476D01*
X135250000Y-79252380D01*
X135211904Y-79176190D01*
X135211904Y-79023809D01*
X135250000Y-78947619D01*
X135288095Y-78909523D01*
X135364285Y-78871428D01*
X135402380Y-78871428D01*
X135478571Y-78909523D01*
X135516666Y-78947619D01*
X135554761Y-79023809D01*
X135554761Y-79176190D01*
X135592857Y-79252380D01*
X135630952Y-79290476D01*
X135707142Y-79328571D01*
X135859523Y-79328571D01*
X135935714Y-79290476D01*
X135973809Y-79252380D01*
X136011904Y-79176190D01*
X136011904Y-79023809D01*
X135973809Y-78947619D01*
X135935714Y-78909523D01*
X135859523Y-78871428D01*
X135707142Y-78871428D01*
X135630952Y-78909523D01*
X135592857Y-78947619D01*
X135554761Y-79023809D01*
X114961904Y-82233333D02*
X114580952Y-82500000D01*
X114961904Y-82690476D02*
X114161904Y-82690476D01*
X114161904Y-82385714D01*
X114200000Y-82309523D01*
X114238095Y-82271428D01*
X114314285Y-82233333D01*
X114428571Y-82233333D01*
X114504761Y-82271428D01*
X114542857Y-82309523D01*
X114580952Y-82385714D01*
X114580952Y-82690476D01*
X114161904Y-81966666D02*
X114161904Y-81433333D01*
X114961904Y-81776190D01*
X117266666Y-80611904D02*
X117000000Y-80230952D01*
X116809523Y-80611904D02*
X116809523Y-79811904D01*
X117114285Y-79811904D01*
X117190476Y-79850000D01*
X117228571Y-79888095D01*
X117266666Y-79964285D01*
X117266666Y-80078571D01*
X117228571Y-80154761D01*
X117190476Y-80192857D01*
X117114285Y-80230952D01*
X116809523Y-80230952D01*
X117952380Y-79811904D02*
X117800000Y-79811904D01*
X117723809Y-79850000D01*
X117685714Y-79888095D01*
X117609523Y-80002380D01*
X117571428Y-80154761D01*
X117571428Y-80459523D01*
X117609523Y-80535714D01*
X117647619Y-80573809D01*
X117723809Y-80611904D01*
X117876190Y-80611904D01*
X117952380Y-80573809D01*
X117990476Y-80535714D01*
X118028571Y-80459523D01*
X118028571Y-80269047D01*
X117990476Y-80192857D01*
X117952380Y-80154761D01*
X117876190Y-80116666D01*
X117723809Y-80116666D01*
X117647619Y-80154761D01*
X117609523Y-80192857D01*
X117571428Y-80269047D01*
X120861904Y-83383333D02*
X120480952Y-83650000D01*
X120861904Y-83840476D02*
X120061904Y-83840476D01*
X120061904Y-83535714D01*
X120100000Y-83459523D01*
X120138095Y-83421428D01*
X120214285Y-83383333D01*
X120328571Y-83383333D01*
X120404761Y-83421428D01*
X120442857Y-83459523D01*
X120480952Y-83535714D01*
X120480952Y-83840476D01*
X120061904Y-82659523D02*
X120061904Y-83040476D01*
X120442857Y-83078571D01*
X120404761Y-83040476D01*
X120366666Y-82964285D01*
X120366666Y-82773809D01*
X120404761Y-82697619D01*
X120442857Y-82659523D01*
X120519047Y-82621428D01*
X120709523Y-82621428D01*
X120785714Y-82659523D01*
X120823809Y-82697619D01*
X120861904Y-82773809D01*
X120861904Y-82964285D01*
X120823809Y-83040476D01*
X120785714Y-83078571D01*
X123161904Y-72633333D02*
X122780952Y-72900000D01*
X123161904Y-73090476D02*
X122361904Y-73090476D01*
X122361904Y-72785714D01*
X122400000Y-72709523D01*
X122438095Y-72671428D01*
X122514285Y-72633333D01*
X122628571Y-72633333D01*
X122704761Y-72671428D01*
X122742857Y-72709523D01*
X122780952Y-72785714D01*
X122780952Y-73090476D01*
X122438095Y-72328571D02*
X122400000Y-72290476D01*
X122361904Y-72214285D01*
X122361904Y-72023809D01*
X122400000Y-71947619D01*
X122438095Y-71909523D01*
X122514285Y-71871428D01*
X122590476Y-71871428D01*
X122704761Y-71909523D01*
X123161904Y-72366666D01*
X123161904Y-71871428D01*
X109911904Y-61533333D02*
X109530952Y-61800000D01*
X109911904Y-61990476D02*
X109111904Y-61990476D01*
X109111904Y-61685714D01*
X109150000Y-61609523D01*
X109188095Y-61571428D01*
X109264285Y-61533333D01*
X109378571Y-61533333D01*
X109454761Y-61571428D01*
X109492857Y-61609523D01*
X109530952Y-61685714D01*
X109530952Y-61990476D01*
X109911904Y-60771428D02*
X109911904Y-61228571D01*
X109911904Y-61000000D02*
X109111904Y-61000000D01*
X109226190Y-61076190D01*
X109302380Y-61152380D01*
X109340476Y-61228571D01*
X129311904Y-88416666D02*
X129883333Y-88416666D01*
X129997619Y-88454761D01*
X130073809Y-88530952D01*
X130111904Y-88645238D01*
X130111904Y-88721428D01*
X130111904Y-88035714D02*
X129311904Y-88035714D01*
X129311904Y-87730952D01*
X129350000Y-87654761D01*
X129388095Y-87616666D01*
X129464285Y-87578571D01*
X129578571Y-87578571D01*
X129654761Y-87616666D01*
X129692857Y-87654761D01*
X129730952Y-87730952D01*
X129730952Y-88035714D01*
X130111904Y-86816666D02*
X130111904Y-87273809D01*
X130111904Y-87045238D02*
X129311904Y-87045238D01*
X129426190Y-87121428D01*
X129502380Y-87197619D01*
X129540476Y-87273809D01*
X113542857Y-87466666D02*
X113542857Y-87733333D01*
X113961904Y-87733333D02*
X113161904Y-87733333D01*
X113161904Y-87352380D01*
X113961904Y-86628571D02*
X113961904Y-87085714D01*
X113961904Y-86857142D02*
X113161904Y-86857142D01*
X113276190Y-86933333D01*
X113352380Y-87009523D01*
X113390476Y-87085714D01*
X114261904Y-91390476D02*
X113461904Y-91390476D01*
X113461904Y-91200000D01*
X113500000Y-91085714D01*
X113576190Y-91009523D01*
X113652380Y-90971428D01*
X113804761Y-90933333D01*
X113919047Y-90933333D01*
X114071428Y-90971428D01*
X114147619Y-91009523D01*
X114223809Y-91085714D01*
X114261904Y-91200000D01*
X114261904Y-91390476D01*
X113461904Y-90666666D02*
X113461904Y-90171428D01*
X113766666Y-90438095D01*
X113766666Y-90323809D01*
X113804761Y-90247619D01*
X113842857Y-90209523D01*
X113919047Y-90171428D01*
X114109523Y-90171428D01*
X114185714Y-90209523D01*
X114223809Y-90247619D01*
X114261904Y-90323809D01*
X114261904Y-90552380D01*
X114223809Y-90628571D01*
X114185714Y-90666666D01*
X124611904Y-77090476D02*
X123811904Y-77090476D01*
X123811904Y-76900000D01*
X123850000Y-76785714D01*
X123926190Y-76709523D01*
X124002380Y-76671428D01*
X124154761Y-76633333D01*
X124269047Y-76633333D01*
X124421428Y-76671428D01*
X124497619Y-76709523D01*
X124573809Y-76785714D01*
X124611904Y-76900000D01*
X124611904Y-77090476D01*
X124611904Y-75871428D02*
X124611904Y-76328571D01*
X124611904Y-76100000D02*
X123811904Y-76100000D01*
X123926190Y-76176190D01*
X124002380Y-76252380D01*
X124040476Y-76328571D01*
X133285714Y-79633333D02*
X133323809Y-79671428D01*
X133361904Y-79785714D01*
X133361904Y-79861904D01*
X133323809Y-79976190D01*
X133247619Y-80052380D01*
X133171428Y-80090476D01*
X133019047Y-80128571D01*
X132904761Y-80128571D01*
X132752380Y-80090476D01*
X132676190Y-80052380D01*
X132600000Y-79976190D01*
X132561904Y-79861904D01*
X132561904Y-79785714D01*
X132600000Y-79671428D01*
X132638095Y-79633333D01*
X132561904Y-78909523D02*
X132561904Y-79290476D01*
X132942857Y-79328571D01*
X132904761Y-79290476D01*
X132866666Y-79214285D01*
X132866666Y-79023809D01*
X132904761Y-78947619D01*
X132942857Y-78909523D01*
X133019047Y-78871428D01*
X133209523Y-78871428D01*
X133285714Y-78909523D01*
X133323809Y-78947619D01*
X133361904Y-79023809D01*
X133361904Y-79214285D01*
X133323809Y-79290476D01*
X133285714Y-79328571D01*
X111335714Y-61533333D02*
X111373809Y-61571428D01*
X111411904Y-61685714D01*
X111411904Y-61761904D01*
X111373809Y-61876190D01*
X111297619Y-61952380D01*
X111221428Y-61990476D01*
X111069047Y-62028571D01*
X110954761Y-62028571D01*
X110802380Y-61990476D01*
X110726190Y-61952380D01*
X110650000Y-61876190D01*
X110611904Y-61761904D01*
X110611904Y-61685714D01*
X110650000Y-61571428D01*
X110688095Y-61533333D01*
X110611904Y-61266666D02*
X110611904Y-60771428D01*
X110916666Y-61038095D01*
X110916666Y-60923809D01*
X110954761Y-60847619D01*
X110992857Y-60809523D01*
X111069047Y-60771428D01*
X111259523Y-60771428D01*
X111335714Y-60809523D01*
X111373809Y-60847619D01*
X111411904Y-60923809D01*
X111411904Y-61152380D01*
X111373809Y-61228571D01*
X111335714Y-61266666D01*
X111285714Y-56433333D02*
X111323809Y-56471428D01*
X111361904Y-56585714D01*
X111361904Y-56661904D01*
X111323809Y-56776190D01*
X111247619Y-56852380D01*
X111171428Y-56890476D01*
X111019047Y-56928571D01*
X110904761Y-56928571D01*
X110752380Y-56890476D01*
X110676190Y-56852380D01*
X110600000Y-56776190D01*
X110561904Y-56661904D01*
X110561904Y-56585714D01*
X110600000Y-56471428D01*
X110638095Y-56433333D01*
X110638095Y-56128571D02*
X110600000Y-56090476D01*
X110561904Y-56014285D01*
X110561904Y-55823809D01*
X110600000Y-55747619D01*
X110638095Y-55709523D01*
X110714285Y-55671428D01*
X110790476Y-55671428D01*
X110904761Y-55709523D01*
X111361904Y-56166666D01*
X111361904Y-55671428D01*
M02*
