G04 #@! TF.GenerationSoftware,KiCad,Pcbnew,(5.1.9)-1*
G04 #@! TF.CreationDate,2021-10-18T17:35:56+03:00*
G04 #@! TF.ProjectId,CanLite,43616e4c-6974-4652-9e6b-696361645f70,rev?*
G04 #@! TF.SameCoordinates,Original*
G04 #@! TF.FileFunction,Copper,L1,Top*
G04 #@! TF.FilePolarity,Positive*
%FSLAX46Y46*%
G04 Gerber Fmt 4.6, Leading zero omitted, Abs format (unit mm)*
G04 Created by KiCad (PCBNEW (5.1.9)-1) date 2021-10-18 17:35:56*
%MOMM*%
%LPD*%
G01*
G04 APERTURE LIST*
G04 #@! TA.AperFunction,SMDPad,CuDef*
%ADD10R,5.800000X6.400000*%
G04 #@! TD*
G04 #@! TA.AperFunction,SMDPad,CuDef*
%ADD11R,0.800000X2.200000*%
G04 #@! TD*
G04 #@! TA.AperFunction,SMDPad,CuDef*
%ADD12C,1.000000*%
G04 #@! TD*
G04 #@! TA.AperFunction,SMDPad,CuDef*
%ADD13R,0.650000X1.060000*%
G04 #@! TD*
G04 #@! TA.AperFunction,SMDPad,CuDef*
%ADD14R,2.000000X0.900000*%
G04 #@! TD*
G04 #@! TA.AperFunction,SMDPad,CuDef*
%ADD15R,0.900000X2.000000*%
G04 #@! TD*
G04 #@! TA.AperFunction,SMDPad,CuDef*
%ADD16R,5.000000X5.000000*%
G04 #@! TD*
G04 #@! TA.AperFunction,SMDPad,CuDef*
%ADD17R,2.500000X1.800000*%
G04 #@! TD*
G04 #@! TA.AperFunction,ComponentPad*
%ADD18C,2.100000*%
G04 #@! TD*
G04 #@! TA.AperFunction,ComponentPad*
%ADD19R,2.100000X2.100000*%
G04 #@! TD*
G04 #@! TA.AperFunction,SMDPad,CuDef*
%ADD20R,0.800000X0.900000*%
G04 #@! TD*
G04 #@! TA.AperFunction,SMDPad,CuDef*
%ADD21C,0.100000*%
G04 #@! TD*
G04 #@! TA.AperFunction,ViaPad*
%ADD22C,0.600000*%
G04 #@! TD*
G04 #@! TA.AperFunction,ViaPad*
%ADD23C,0.800000*%
G04 #@! TD*
G04 #@! TA.AperFunction,Conductor*
%ADD24C,0.300000*%
G04 #@! TD*
G04 #@! TA.AperFunction,Conductor*
%ADD25C,1.000000*%
G04 #@! TD*
G04 #@! TA.AperFunction,Conductor*
%ADD26C,0.400000*%
G04 #@! TD*
G04 #@! TA.AperFunction,Conductor*
%ADD27C,0.250000*%
G04 #@! TD*
G04 #@! TA.AperFunction,Conductor*
%ADD28C,0.800000*%
G04 #@! TD*
G04 #@! TA.AperFunction,Conductor*
%ADD29C,0.254000*%
G04 #@! TD*
G04 #@! TA.AperFunction,Conductor*
%ADD30C,0.100000*%
G04 #@! TD*
G04 APERTURE END LIST*
G04 #@! TA.AperFunction,SMDPad,CuDef*
G36*
G01*
X111720000Y-75295000D02*
X109280000Y-75295000D01*
G75*
G02*
X108785000Y-74800000I0J495000D01*
G01*
X108785000Y-73810000D01*
G75*
G02*
X109280000Y-73315000I495000J0D01*
G01*
X111720000Y-73315000D01*
G75*
G02*
X112215000Y-73810000I0J-495000D01*
G01*
X112215000Y-74800000D01*
G75*
G02*
X111720000Y-75295000I-495000J0D01*
G01*
G37*
G04 #@! TD.AperFunction*
G04 #@! TA.AperFunction,SMDPad,CuDef*
G36*
G01*
X111720000Y-80685000D02*
X109280000Y-80685000D01*
G75*
G02*
X108785000Y-80190000I0J495000D01*
G01*
X108785000Y-79200000D01*
G75*
G02*
X109280000Y-78705000I495000J0D01*
G01*
X111720000Y-78705000D01*
G75*
G02*
X112215000Y-79200000I0J-495000D01*
G01*
X112215000Y-80190000D01*
G75*
G02*
X111720000Y-80685000I-495000J0D01*
G01*
G37*
G04 #@! TD.AperFunction*
G04 #@! TA.AperFunction,SMDPad,CuDef*
G36*
G01*
X123256250Y-77650000D02*
X122743750Y-77650000D01*
G75*
G02*
X122525000Y-77431250I0J218750D01*
G01*
X122525000Y-76993750D01*
G75*
G02*
X122743750Y-76775000I218750J0D01*
G01*
X123256250Y-76775000D01*
G75*
G02*
X123475000Y-76993750I0J-218750D01*
G01*
X123475000Y-77431250D01*
G75*
G02*
X123256250Y-77650000I-218750J0D01*
G01*
G37*
G04 #@! TD.AperFunction*
G04 #@! TA.AperFunction,SMDPad,CuDef*
G36*
G01*
X123256250Y-79225000D02*
X122743750Y-79225000D01*
G75*
G02*
X122525000Y-79006250I0J218750D01*
G01*
X122525000Y-78568750D01*
G75*
G02*
X122743750Y-78350000I218750J0D01*
G01*
X123256250Y-78350000D01*
G75*
G02*
X123475000Y-78568750I0J-218750D01*
G01*
X123475000Y-79006250D01*
G75*
G02*
X123256250Y-79225000I-218750J0D01*
G01*
G37*
G04 #@! TD.AperFunction*
D10*
X127000000Y-85150000D03*
D11*
X129280000Y-91450000D03*
X128140000Y-91450000D03*
X125860000Y-91450000D03*
X124720000Y-91450000D03*
D10*
X117750000Y-85150000D03*
D11*
X120030000Y-91450000D03*
X118890000Y-91450000D03*
X116610000Y-91450000D03*
X115470000Y-91450000D03*
G04 #@! TA.AperFunction,SMDPad,CuDef*
G36*
G01*
X125025000Y-77575000D02*
X124475000Y-77575000D01*
G75*
G02*
X124275000Y-77375000I0J200000D01*
G01*
X124275000Y-76975000D01*
G75*
G02*
X124475000Y-76775000I200000J0D01*
G01*
X125025000Y-76775000D01*
G75*
G02*
X125225000Y-76975000I0J-200000D01*
G01*
X125225000Y-77375000D01*
G75*
G02*
X125025000Y-77575000I-200000J0D01*
G01*
G37*
G04 #@! TD.AperFunction*
G04 #@! TA.AperFunction,SMDPad,CuDef*
G36*
G01*
X125025000Y-79225000D02*
X124475000Y-79225000D01*
G75*
G02*
X124275000Y-79025000I0J200000D01*
G01*
X124275000Y-78625000D01*
G75*
G02*
X124475000Y-78425000I200000J0D01*
G01*
X125025000Y-78425000D01*
G75*
G02*
X125225000Y-78625000I0J-200000D01*
G01*
X125225000Y-79025000D01*
G75*
G02*
X125025000Y-79225000I-200000J0D01*
G01*
G37*
G04 #@! TD.AperFunction*
D12*
X109250000Y-61750000D03*
X109250000Y-66750000D03*
X111000000Y-65500000D03*
X109250000Y-64250000D03*
G04 #@! TA.AperFunction,SMDPad,CuDef*
G36*
G01*
X138049999Y-65200000D02*
X139350001Y-65200000D01*
G75*
G02*
X139600000Y-65449999I0J-249999D01*
G01*
X139600000Y-66150001D01*
G75*
G02*
X139350001Y-66400000I-249999J0D01*
G01*
X138049999Y-66400000D01*
G75*
G02*
X137800000Y-66150001I0J249999D01*
G01*
X137800000Y-65449999D01*
G75*
G02*
X138049999Y-65200000I249999J0D01*
G01*
G37*
G04 #@! TD.AperFunction*
G04 #@! TA.AperFunction,SMDPad,CuDef*
G36*
G01*
X138049999Y-57600000D02*
X139350001Y-57600000D01*
G75*
G02*
X139600000Y-57849999I0J-249999D01*
G01*
X139600000Y-58550001D01*
G75*
G02*
X139350001Y-58800000I-249999J0D01*
G01*
X138049999Y-58800000D01*
G75*
G02*
X137800000Y-58550001I0J249999D01*
G01*
X137800000Y-57849999D01*
G75*
G02*
X138049999Y-57600000I249999J0D01*
G01*
G37*
G04 #@! TD.AperFunction*
G04 #@! TA.AperFunction,SMDPad,CuDef*
G36*
G01*
X135550000Y-64200000D02*
X136800000Y-64200000D01*
G75*
G02*
X136950000Y-64350000I0J-150000D01*
G01*
X136950000Y-64650000D01*
G75*
G02*
X136800000Y-64800000I-150000J0D01*
G01*
X135550000Y-64800000D01*
G75*
G02*
X135400000Y-64650000I0J150000D01*
G01*
X135400000Y-64350000D01*
G75*
G02*
X135550000Y-64200000I150000J0D01*
G01*
G37*
G04 #@! TD.AperFunction*
G04 #@! TA.AperFunction,SMDPad,CuDef*
G36*
G01*
X135550000Y-63200000D02*
X136800000Y-63200000D01*
G75*
G02*
X136950000Y-63350000I0J-150000D01*
G01*
X136950000Y-63650000D01*
G75*
G02*
X136800000Y-63800000I-150000J0D01*
G01*
X135550000Y-63800000D01*
G75*
G02*
X135400000Y-63650000I0J150000D01*
G01*
X135400000Y-63350000D01*
G75*
G02*
X135550000Y-63200000I150000J0D01*
G01*
G37*
G04 #@! TD.AperFunction*
G04 #@! TA.AperFunction,SMDPad,CuDef*
G36*
G01*
X135550000Y-62200000D02*
X136800000Y-62200000D01*
G75*
G02*
X136950000Y-62350000I0J-150000D01*
G01*
X136950000Y-62650000D01*
G75*
G02*
X136800000Y-62800000I-150000J0D01*
G01*
X135550000Y-62800000D01*
G75*
G02*
X135400000Y-62650000I0J150000D01*
G01*
X135400000Y-62350000D01*
G75*
G02*
X135550000Y-62200000I150000J0D01*
G01*
G37*
G04 #@! TD.AperFunction*
G04 #@! TA.AperFunction,SMDPad,CuDef*
G36*
G01*
X135550000Y-61200000D02*
X136800000Y-61200000D01*
G75*
G02*
X136950000Y-61350000I0J-150000D01*
G01*
X136950000Y-61650000D01*
G75*
G02*
X136800000Y-61800000I-150000J0D01*
G01*
X135550000Y-61800000D01*
G75*
G02*
X135400000Y-61650000I0J150000D01*
G01*
X135400000Y-61350000D01*
G75*
G02*
X135550000Y-61200000I150000J0D01*
G01*
G37*
G04 #@! TD.AperFunction*
G04 #@! TA.AperFunction,SMDPad,CuDef*
G36*
G01*
X135550000Y-60200000D02*
X136800000Y-60200000D01*
G75*
G02*
X136950000Y-60350000I0J-150000D01*
G01*
X136950000Y-60650000D01*
G75*
G02*
X136800000Y-60800000I-150000J0D01*
G01*
X135550000Y-60800000D01*
G75*
G02*
X135400000Y-60650000I0J150000D01*
G01*
X135400000Y-60350000D01*
G75*
G02*
X135550000Y-60200000I150000J0D01*
G01*
G37*
G04 #@! TD.AperFunction*
G04 #@! TA.AperFunction,SMDPad,CuDef*
G36*
G01*
X135550000Y-59200000D02*
X136800000Y-59200000D01*
G75*
G02*
X136950000Y-59350000I0J-150000D01*
G01*
X136950000Y-59650000D01*
G75*
G02*
X136800000Y-59800000I-150000J0D01*
G01*
X135550000Y-59800000D01*
G75*
G02*
X135400000Y-59650000I0J150000D01*
G01*
X135400000Y-59350000D01*
G75*
G02*
X135550000Y-59200000I150000J0D01*
G01*
G37*
G04 #@! TD.AperFunction*
D13*
X105000000Y-80350000D03*
X105950000Y-80350000D03*
X104050000Y-80350000D03*
X104050000Y-78150000D03*
X105000000Y-78150000D03*
X105950000Y-78150000D03*
D14*
X130500000Y-52745000D03*
X130500000Y-54015000D03*
X130500000Y-55285000D03*
X130500000Y-56555000D03*
X130500000Y-57825000D03*
X130500000Y-59095000D03*
X130500000Y-60365000D03*
X130500000Y-61635000D03*
X130500000Y-62905000D03*
X130500000Y-64175000D03*
X130500000Y-65445000D03*
X130500000Y-66715000D03*
X130500000Y-67985000D03*
X130500000Y-69255000D03*
D15*
X127715000Y-70255000D03*
X126445000Y-70255000D03*
X125175000Y-70255000D03*
X123905000Y-70255000D03*
X122635000Y-70255000D03*
X121365000Y-70255000D03*
X120095000Y-70255000D03*
X118825000Y-70255000D03*
X117555000Y-70255000D03*
X116285000Y-70255000D03*
D14*
X113500000Y-69255000D03*
X113500000Y-67985000D03*
X113500000Y-66715000D03*
X113500000Y-65445000D03*
X113500000Y-64175000D03*
X113500000Y-62905000D03*
X113500000Y-61635000D03*
X113500000Y-60365000D03*
X113500000Y-59095000D03*
X113500000Y-57825000D03*
X113500000Y-56555000D03*
X113500000Y-55285000D03*
X113500000Y-54015000D03*
X113500000Y-52745000D03*
D16*
X121000000Y-60245000D03*
G04 #@! TA.AperFunction,SMDPad,CuDef*
G36*
G01*
X105675000Y-75275000D02*
X105675000Y-74725000D01*
G75*
G02*
X105875000Y-74525000I200000J0D01*
G01*
X106275000Y-74525000D01*
G75*
G02*
X106475000Y-74725000I0J-200000D01*
G01*
X106475000Y-75275000D01*
G75*
G02*
X106275000Y-75475000I-200000J0D01*
G01*
X105875000Y-75475000D01*
G75*
G02*
X105675000Y-75275000I0J200000D01*
G01*
G37*
G04 #@! TD.AperFunction*
G04 #@! TA.AperFunction,SMDPad,CuDef*
G36*
G01*
X104025000Y-75275000D02*
X104025000Y-74725000D01*
G75*
G02*
X104225000Y-74525000I200000J0D01*
G01*
X104625000Y-74525000D01*
G75*
G02*
X104825000Y-74725000I0J-200000D01*
G01*
X104825000Y-75275000D01*
G75*
G02*
X104625000Y-75475000I-200000J0D01*
G01*
X104225000Y-75475000D01*
G75*
G02*
X104025000Y-75275000I0J200000D01*
G01*
G37*
G04 #@! TD.AperFunction*
D17*
X111600000Y-83000000D03*
X107600000Y-83000000D03*
G04 #@! TA.AperFunction,SMDPad,CuDef*
G36*
G01*
X103949550Y-86900000D02*
X105250450Y-86900000D01*
G75*
G02*
X105500000Y-87149550I0J-249550D01*
G01*
X105500000Y-87800450D01*
G75*
G02*
X105250450Y-88050000I-249550J0D01*
G01*
X103949550Y-88050000D01*
G75*
G02*
X103700000Y-87800450I0J249550D01*
G01*
X103700000Y-87149550D01*
G75*
G02*
X103949550Y-86900000I249550J0D01*
G01*
G37*
G04 #@! TD.AperFunction*
G04 #@! TA.AperFunction,SMDPad,CuDef*
G36*
G01*
X103949999Y-83950000D02*
X105250001Y-83950000D01*
G75*
G02*
X105500000Y-84199999I0J-249999D01*
G01*
X105500000Y-84850001D01*
G75*
G02*
X105250001Y-85100000I-249999J0D01*
G01*
X103949999Y-85100000D01*
G75*
G02*
X103700000Y-84850001I0J249999D01*
G01*
X103700000Y-84199999D01*
G75*
G02*
X103949999Y-83950000I249999J0D01*
G01*
G37*
G04 #@! TD.AperFunction*
G04 #@! TA.AperFunction,SMDPad,CuDef*
G36*
G01*
X105575000Y-76750000D02*
X105575000Y-76250000D01*
G75*
G02*
X105800000Y-76025000I225000J0D01*
G01*
X106250000Y-76025000D01*
G75*
G02*
X106475000Y-76250000I0J-225000D01*
G01*
X106475000Y-76750000D01*
G75*
G02*
X106250000Y-76975000I-225000J0D01*
G01*
X105800000Y-76975000D01*
G75*
G02*
X105575000Y-76750000I0J225000D01*
G01*
G37*
G04 #@! TD.AperFunction*
G04 #@! TA.AperFunction,SMDPad,CuDef*
G36*
G01*
X104025000Y-76750000D02*
X104025000Y-76250000D01*
G75*
G02*
X104250000Y-76025000I225000J0D01*
G01*
X104700000Y-76025000D01*
G75*
G02*
X104925000Y-76250000I0J-225000D01*
G01*
X104925000Y-76750000D01*
G75*
G02*
X104700000Y-76975000I-225000J0D01*
G01*
X104250000Y-76975000D01*
G75*
G02*
X104025000Y-76750000I0J225000D01*
G01*
G37*
G04 #@! TD.AperFunction*
D18*
X111760000Y-99568000D03*
D19*
X106680000Y-99568000D03*
D18*
X137030000Y-99568000D03*
D19*
X131950000Y-99568000D03*
D18*
X127000000Y-99568000D03*
X121920000Y-99568000D03*
D19*
X116840000Y-99568000D03*
G04 #@! TA.AperFunction,SMDPad,CuDef*
G36*
G01*
X104900000Y-73243750D02*
X104900000Y-73756250D01*
G75*
G02*
X104681250Y-73975000I-218750J0D01*
G01*
X104243750Y-73975000D01*
G75*
G02*
X104025000Y-73756250I0J218750D01*
G01*
X104025000Y-73243750D01*
G75*
G02*
X104243750Y-73025000I218750J0D01*
G01*
X104681250Y-73025000D01*
G75*
G02*
X104900000Y-73243750I0J-218750D01*
G01*
G37*
G04 #@! TD.AperFunction*
G04 #@! TA.AperFunction,SMDPad,CuDef*
G36*
G01*
X106475000Y-73243750D02*
X106475000Y-73756250D01*
G75*
G02*
X106256250Y-73975000I-218750J0D01*
G01*
X105818750Y-73975000D01*
G75*
G02*
X105600000Y-73756250I0J218750D01*
G01*
X105600000Y-73243750D01*
G75*
G02*
X105818750Y-73025000I218750J0D01*
G01*
X106256250Y-73025000D01*
G75*
G02*
X106475000Y-73243750I0J-218750D01*
G01*
G37*
G04 #@! TD.AperFunction*
G04 #@! TA.AperFunction,SMDPad,CuDef*
G36*
G01*
X108225000Y-70875000D02*
X108225000Y-72125000D01*
G75*
G02*
X107975000Y-72375000I-250000J0D01*
G01*
X107225000Y-72375000D01*
G75*
G02*
X106975000Y-72125000I0J250000D01*
G01*
X106975000Y-70875000D01*
G75*
G02*
X107225000Y-70625000I250000J0D01*
G01*
X107975000Y-70625000D01*
G75*
G02*
X108225000Y-70875000I0J-250000D01*
G01*
G37*
G04 #@! TD.AperFunction*
G04 #@! TA.AperFunction,SMDPad,CuDef*
G36*
G01*
X111025000Y-70875000D02*
X111025000Y-72125000D01*
G75*
G02*
X110775000Y-72375000I-250000J0D01*
G01*
X110025000Y-72375000D01*
G75*
G02*
X109775000Y-72125000I0J250000D01*
G01*
X109775000Y-70875000D01*
G75*
G02*
X110025000Y-70625000I250000J0D01*
G01*
X110775000Y-70625000D01*
G75*
G02*
X111025000Y-70875000I0J-250000D01*
G01*
G37*
G04 #@! TD.AperFunction*
G04 #@! TA.AperFunction,SMDPad,CuDef*
G36*
G01*
X109625000Y-53975000D02*
X108375000Y-53975000D01*
G75*
G02*
X108125000Y-53725000I0J250000D01*
G01*
X108125000Y-52975000D01*
G75*
G02*
X108375000Y-52725000I250000J0D01*
G01*
X109625000Y-52725000D01*
G75*
G02*
X109875000Y-52975000I0J-250000D01*
G01*
X109875000Y-53725000D01*
G75*
G02*
X109625000Y-53975000I-250000J0D01*
G01*
G37*
G04 #@! TD.AperFunction*
G04 #@! TA.AperFunction,SMDPad,CuDef*
G36*
G01*
X109625000Y-56775000D02*
X108375000Y-56775000D01*
G75*
G02*
X108125000Y-56525000I0J250000D01*
G01*
X108125000Y-55775000D01*
G75*
G02*
X108375000Y-55525000I250000J0D01*
G01*
X109625000Y-55525000D01*
G75*
G02*
X109875000Y-55775000I0J-250000D01*
G01*
X109875000Y-56525000D01*
G75*
G02*
X109625000Y-56775000I-250000J0D01*
G01*
G37*
G04 #@! TD.AperFunction*
D12*
X106400000Y-56200000D03*
X104700000Y-82400000D03*
X111000000Y-63000000D03*
G04 #@! TA.AperFunction,SMDPad,CuDef*
G36*
G01*
X116006250Y-74400000D02*
X115493750Y-74400000D01*
G75*
G02*
X115275000Y-74181250I0J218750D01*
G01*
X115275000Y-73743750D01*
G75*
G02*
X115493750Y-73525000I218750J0D01*
G01*
X116006250Y-73525000D01*
G75*
G02*
X116225000Y-73743750I0J-218750D01*
G01*
X116225000Y-74181250D01*
G75*
G02*
X116006250Y-74400000I-218750J0D01*
G01*
G37*
G04 #@! TD.AperFunction*
G04 #@! TA.AperFunction,SMDPad,CuDef*
G36*
G01*
X116006250Y-75975000D02*
X115493750Y-75975000D01*
G75*
G02*
X115275000Y-75756250I0J218750D01*
G01*
X115275000Y-75318750D01*
G75*
G02*
X115493750Y-75100000I218750J0D01*
G01*
X116006250Y-75100000D01*
G75*
G02*
X116225000Y-75318750I0J-218750D01*
G01*
X116225000Y-75756250D01*
G75*
G02*
X116006250Y-75975000I-218750J0D01*
G01*
G37*
G04 #@! TD.AperFunction*
G04 #@! TA.AperFunction,SMDPad,CuDef*
G36*
G01*
X116006250Y-77650000D02*
X115493750Y-77650000D01*
G75*
G02*
X115275000Y-77431250I0J218750D01*
G01*
X115275000Y-76993750D01*
G75*
G02*
X115493750Y-76775000I218750J0D01*
G01*
X116006250Y-76775000D01*
G75*
G02*
X116225000Y-76993750I0J-218750D01*
G01*
X116225000Y-77431250D01*
G75*
G02*
X116006250Y-77650000I-218750J0D01*
G01*
G37*
G04 #@! TD.AperFunction*
G04 #@! TA.AperFunction,SMDPad,CuDef*
G36*
G01*
X116006250Y-79225000D02*
X115493750Y-79225000D01*
G75*
G02*
X115275000Y-79006250I0J218750D01*
G01*
X115275000Y-78568750D01*
G75*
G02*
X115493750Y-78350000I218750J0D01*
G01*
X116006250Y-78350000D01*
G75*
G02*
X116225000Y-78568750I0J-218750D01*
G01*
X116225000Y-79006250D01*
G75*
G02*
X116006250Y-79225000I-218750J0D01*
G01*
G37*
G04 #@! TD.AperFunction*
D20*
X118500000Y-75750000D03*
X117550000Y-73750000D03*
X119450000Y-73750000D03*
G04 #@! TA.AperFunction,SMDPad,CuDef*
G36*
G01*
X117243750Y-78350000D02*
X117756250Y-78350000D01*
G75*
G02*
X117975000Y-78568750I0J-218750D01*
G01*
X117975000Y-79006250D01*
G75*
G02*
X117756250Y-79225000I-218750J0D01*
G01*
X117243750Y-79225000D01*
G75*
G02*
X117025000Y-79006250I0J218750D01*
G01*
X117025000Y-78568750D01*
G75*
G02*
X117243750Y-78350000I218750J0D01*
G01*
G37*
G04 #@! TD.AperFunction*
G04 #@! TA.AperFunction,SMDPad,CuDef*
G36*
G01*
X117243750Y-76775000D02*
X117756250Y-76775000D01*
G75*
G02*
X117975000Y-76993750I0J-218750D01*
G01*
X117975000Y-77431250D01*
G75*
G02*
X117756250Y-77650000I-218750J0D01*
G01*
X117243750Y-77650000D01*
G75*
G02*
X117025000Y-77431250I0J218750D01*
G01*
X117025000Y-76993750D01*
G75*
G02*
X117243750Y-76775000I218750J0D01*
G01*
G37*
G04 #@! TD.AperFunction*
G04 #@! TA.AperFunction,SMDPad,CuDef*
G36*
G01*
X135355000Y-90100000D02*
X135655000Y-90100000D01*
G75*
G02*
X135805000Y-90250000I0J-150000D01*
G01*
X135805000Y-91900000D01*
G75*
G02*
X135655000Y-92050000I-150000J0D01*
G01*
X135355000Y-92050000D01*
G75*
G02*
X135205000Y-91900000I0J150000D01*
G01*
X135205000Y-90250000D01*
G75*
G02*
X135355000Y-90100000I150000J0D01*
G01*
G37*
G04 #@! TD.AperFunction*
G04 #@! TA.AperFunction,SMDPad,CuDef*
G36*
G01*
X134085000Y-90100000D02*
X134385000Y-90100000D01*
G75*
G02*
X134535000Y-90250000I0J-150000D01*
G01*
X134535000Y-91900000D01*
G75*
G02*
X134385000Y-92050000I-150000J0D01*
G01*
X134085000Y-92050000D01*
G75*
G02*
X133935000Y-91900000I0J150000D01*
G01*
X133935000Y-90250000D01*
G75*
G02*
X134085000Y-90100000I150000J0D01*
G01*
G37*
G04 #@! TD.AperFunction*
G04 #@! TA.AperFunction,SMDPad,CuDef*
G36*
G01*
X132815000Y-90100000D02*
X133115000Y-90100000D01*
G75*
G02*
X133265000Y-90250000I0J-150000D01*
G01*
X133265000Y-91900000D01*
G75*
G02*
X133115000Y-92050000I-150000J0D01*
G01*
X132815000Y-92050000D01*
G75*
G02*
X132665000Y-91900000I0J150000D01*
G01*
X132665000Y-90250000D01*
G75*
G02*
X132815000Y-90100000I150000J0D01*
G01*
G37*
G04 #@! TD.AperFunction*
G04 #@! TA.AperFunction,SMDPad,CuDef*
G36*
G01*
X131545000Y-90100000D02*
X131845000Y-90100000D01*
G75*
G02*
X131995000Y-90250000I0J-150000D01*
G01*
X131995000Y-91900000D01*
G75*
G02*
X131845000Y-92050000I-150000J0D01*
G01*
X131545000Y-92050000D01*
G75*
G02*
X131395000Y-91900000I0J150000D01*
G01*
X131395000Y-90250000D01*
G75*
G02*
X131545000Y-90100000I150000J0D01*
G01*
G37*
G04 #@! TD.AperFunction*
G04 #@! TA.AperFunction,SMDPad,CuDef*
G36*
G01*
X131545000Y-85150000D02*
X131845000Y-85150000D01*
G75*
G02*
X131995000Y-85300000I0J-150000D01*
G01*
X131995000Y-86950000D01*
G75*
G02*
X131845000Y-87100000I-150000J0D01*
G01*
X131545000Y-87100000D01*
G75*
G02*
X131395000Y-86950000I0J150000D01*
G01*
X131395000Y-85300000D01*
G75*
G02*
X131545000Y-85150000I150000J0D01*
G01*
G37*
G04 #@! TD.AperFunction*
G04 #@! TA.AperFunction,SMDPad,CuDef*
G36*
G01*
X132815000Y-85150000D02*
X133115000Y-85150000D01*
G75*
G02*
X133265000Y-85300000I0J-150000D01*
G01*
X133265000Y-86950000D01*
G75*
G02*
X133115000Y-87100000I-150000J0D01*
G01*
X132815000Y-87100000D01*
G75*
G02*
X132665000Y-86950000I0J150000D01*
G01*
X132665000Y-85300000D01*
G75*
G02*
X132815000Y-85150000I150000J0D01*
G01*
G37*
G04 #@! TD.AperFunction*
G04 #@! TA.AperFunction,SMDPad,CuDef*
G36*
G01*
X134085000Y-85150000D02*
X134385000Y-85150000D01*
G75*
G02*
X134535000Y-85300000I0J-150000D01*
G01*
X134535000Y-86950000D01*
G75*
G02*
X134385000Y-87100000I-150000J0D01*
G01*
X134085000Y-87100000D01*
G75*
G02*
X133935000Y-86950000I0J150000D01*
G01*
X133935000Y-85300000D01*
G75*
G02*
X134085000Y-85150000I150000J0D01*
G01*
G37*
G04 #@! TD.AperFunction*
G04 #@! TA.AperFunction,SMDPad,CuDef*
G36*
G01*
X135355000Y-85150000D02*
X135655000Y-85150000D01*
G75*
G02*
X135805000Y-85300000I0J-150000D01*
G01*
X135805000Y-86950000D01*
G75*
G02*
X135655000Y-87100000I-150000J0D01*
G01*
X135355000Y-87100000D01*
G75*
G02*
X135205000Y-86950000I0J150000D01*
G01*
X135205000Y-85300000D01*
G75*
G02*
X135355000Y-85150000I150000J0D01*
G01*
G37*
G04 #@! TD.AperFunction*
G04 #@! TA.AperFunction,SMDPad,CuDef*
G36*
G01*
X139475000Y-89225000D02*
X137325000Y-89225000D01*
G75*
G02*
X137075000Y-88975000I0J250000D01*
G01*
X137075000Y-88225000D01*
G75*
G02*
X137325000Y-87975000I250000J0D01*
G01*
X139475000Y-87975000D01*
G75*
G02*
X139725000Y-88225000I0J-250000D01*
G01*
X139725000Y-88975000D01*
G75*
G02*
X139475000Y-89225000I-250000J0D01*
G01*
G37*
G04 #@! TD.AperFunction*
G04 #@! TA.AperFunction,SMDPad,CuDef*
G36*
G01*
X139475000Y-92025000D02*
X137325000Y-92025000D01*
G75*
G02*
X137075000Y-91775000I0J250000D01*
G01*
X137075000Y-91025000D01*
G75*
G02*
X137325000Y-90775000I250000J0D01*
G01*
X139475000Y-90775000D01*
G75*
G02*
X139725000Y-91025000I0J-250000D01*
G01*
X139725000Y-91775000D01*
G75*
G02*
X139475000Y-92025000I-250000J0D01*
G01*
G37*
G04 #@! TD.AperFunction*
G04 #@! TA.AperFunction,SMDPad,CuDef*
G36*
G01*
X135756250Y-81850000D02*
X135243750Y-81850000D01*
G75*
G02*
X135025000Y-81631250I0J218750D01*
G01*
X135025000Y-81193750D01*
G75*
G02*
X135243750Y-80975000I218750J0D01*
G01*
X135756250Y-80975000D01*
G75*
G02*
X135975000Y-81193750I0J-218750D01*
G01*
X135975000Y-81631250D01*
G75*
G02*
X135756250Y-81850000I-218750J0D01*
G01*
G37*
G04 #@! TD.AperFunction*
G04 #@! TA.AperFunction,SMDPad,CuDef*
G36*
G01*
X135756250Y-83425000D02*
X135243750Y-83425000D01*
G75*
G02*
X135025000Y-83206250I0J218750D01*
G01*
X135025000Y-82768750D01*
G75*
G02*
X135243750Y-82550000I218750J0D01*
G01*
X135756250Y-82550000D01*
G75*
G02*
X135975000Y-82768750I0J-218750D01*
G01*
X135975000Y-83206250D01*
G75*
G02*
X135756250Y-83425000I-218750J0D01*
G01*
G37*
G04 #@! TD.AperFunction*
G04 #@! TA.AperFunction,SMDPad,CuDef*
G36*
G01*
X124493750Y-75100000D02*
X125006250Y-75100000D01*
G75*
G02*
X125225000Y-75318750I0J-218750D01*
G01*
X125225000Y-75756250D01*
G75*
G02*
X125006250Y-75975000I-218750J0D01*
G01*
X124493750Y-75975000D01*
G75*
G02*
X124275000Y-75756250I0J218750D01*
G01*
X124275000Y-75318750D01*
G75*
G02*
X124493750Y-75100000I218750J0D01*
G01*
G37*
G04 #@! TD.AperFunction*
G04 #@! TA.AperFunction,SMDPad,CuDef*
G36*
G01*
X124493750Y-73525000D02*
X125006250Y-73525000D01*
G75*
G02*
X125225000Y-73743750I0J-218750D01*
G01*
X125225000Y-74181250D01*
G75*
G02*
X125006250Y-74400000I-218750J0D01*
G01*
X124493750Y-74400000D01*
G75*
G02*
X124275000Y-74181250I0J218750D01*
G01*
X124275000Y-73743750D01*
G75*
G02*
X124493750Y-73525000I218750J0D01*
G01*
G37*
G04 #@! TD.AperFunction*
G04 #@! TA.AperFunction,SMDPad,CuDef*
G36*
G01*
X109506250Y-58650000D02*
X108993750Y-58650000D01*
G75*
G02*
X108775000Y-58431250I0J218750D01*
G01*
X108775000Y-57993750D01*
G75*
G02*
X108993750Y-57775000I218750J0D01*
G01*
X109506250Y-57775000D01*
G75*
G02*
X109725000Y-57993750I0J-218750D01*
G01*
X109725000Y-58431250D01*
G75*
G02*
X109506250Y-58650000I-218750J0D01*
G01*
G37*
G04 #@! TD.AperFunction*
G04 #@! TA.AperFunction,SMDPad,CuDef*
G36*
G01*
X109506250Y-60225000D02*
X108993750Y-60225000D01*
G75*
G02*
X108775000Y-60006250I0J218750D01*
G01*
X108775000Y-59568750D01*
G75*
G02*
X108993750Y-59350000I218750J0D01*
G01*
X109506250Y-59350000D01*
G75*
G02*
X109725000Y-59568750I0J-218750D01*
G01*
X109725000Y-60006250D01*
G75*
G02*
X109506250Y-60225000I-218750J0D01*
G01*
G37*
G04 #@! TD.AperFunction*
G04 #@! TA.AperFunction,SMDPad,CuDef*
D21*
G36*
X138400000Y-85625000D02*
G01*
X139150000Y-86125000D01*
X139150000Y-87125000D01*
X137650000Y-87125000D01*
X137650000Y-86125000D01*
X138400000Y-85625000D01*
G37*
G04 #@! TD.AperFunction*
G04 #@! TA.AperFunction,SMDPad,CuDef*
G36*
X139150000Y-84675000D02*
G01*
X139150000Y-85825000D01*
X138400000Y-85325000D01*
X137650000Y-85825000D01*
X137650000Y-84675000D01*
X139150000Y-84675000D01*
G37*
G04 #@! TD.AperFunction*
G04 #@! TA.AperFunction,SMDPad,CuDef*
G36*
G01*
X111375000Y-88250003D02*
X111375000Y-85349997D01*
G75*
G02*
X111624997Y-85100000I249997J0D01*
G01*
X112250003Y-85100000D01*
G75*
G02*
X112500000Y-85349997I0J-249997D01*
G01*
X112500000Y-88250003D01*
G75*
G02*
X112250003Y-88500000I-249997J0D01*
G01*
X111624997Y-88500000D01*
G75*
G02*
X111375000Y-88250003I0J249997D01*
G01*
G37*
G04 #@! TD.AperFunction*
G04 #@! TA.AperFunction,SMDPad,CuDef*
G36*
G01*
X107100000Y-88250003D02*
X107100000Y-85349997D01*
G75*
G02*
X107349997Y-85100000I249997J0D01*
G01*
X107975003Y-85100000D01*
G75*
G02*
X108225000Y-85349997I0J-249997D01*
G01*
X108225000Y-88250003D01*
G75*
G02*
X107975003Y-88500000I-249997J0D01*
G01*
X107349997Y-88500000D01*
G75*
G02*
X107100000Y-88250003I0J249997D01*
G01*
G37*
G04 #@! TD.AperFunction*
D17*
X107600000Y-90500000D03*
X111600000Y-90500000D03*
G04 #@! TA.AperFunction,SMDPad,CuDef*
G36*
G01*
X123256250Y-74400000D02*
X122743750Y-74400000D01*
G75*
G02*
X122525000Y-74181250I0J218750D01*
G01*
X122525000Y-73743750D01*
G75*
G02*
X122743750Y-73525000I218750J0D01*
G01*
X123256250Y-73525000D01*
G75*
G02*
X123475000Y-73743750I0J-218750D01*
G01*
X123475000Y-74181250D01*
G75*
G02*
X123256250Y-74400000I-218750J0D01*
G01*
G37*
G04 #@! TD.AperFunction*
G04 #@! TA.AperFunction,SMDPad,CuDef*
G36*
G01*
X123256250Y-75975000D02*
X122743750Y-75975000D01*
G75*
G02*
X122525000Y-75756250I0J218750D01*
G01*
X122525000Y-75318750D01*
G75*
G02*
X122743750Y-75100000I218750J0D01*
G01*
X123256250Y-75100000D01*
G75*
G02*
X123475000Y-75318750I0J-218750D01*
G01*
X123475000Y-75756250D01*
G75*
G02*
X123256250Y-75975000I-218750J0D01*
G01*
G37*
G04 #@! TD.AperFunction*
G04 #@! TA.AperFunction,SMDPad,CuDef*
G36*
G01*
X133256250Y-81850000D02*
X132743750Y-81850000D01*
G75*
G02*
X132525000Y-81631250I0J218750D01*
G01*
X132525000Y-81193750D01*
G75*
G02*
X132743750Y-80975000I218750J0D01*
G01*
X133256250Y-80975000D01*
G75*
G02*
X133475000Y-81193750I0J-218750D01*
G01*
X133475000Y-81631250D01*
G75*
G02*
X133256250Y-81850000I-218750J0D01*
G01*
G37*
G04 #@! TD.AperFunction*
G04 #@! TA.AperFunction,SMDPad,CuDef*
G36*
G01*
X133256250Y-83425000D02*
X132743750Y-83425000D01*
G75*
G02*
X132525000Y-83206250I0J218750D01*
G01*
X132525000Y-82768750D01*
G75*
G02*
X132743750Y-82550000I218750J0D01*
G01*
X133256250Y-82550000D01*
G75*
G02*
X133475000Y-82768750I0J-218750D01*
G01*
X133475000Y-83206250D01*
G75*
G02*
X133256250Y-83425000I-218750J0D01*
G01*
G37*
G04 #@! TD.AperFunction*
G04 #@! TA.AperFunction,SMDPad,CuDef*
G36*
G01*
X110743750Y-59350000D02*
X111256250Y-59350000D01*
G75*
G02*
X111475000Y-59568750I0J-218750D01*
G01*
X111475000Y-60006250D01*
G75*
G02*
X111256250Y-60225000I-218750J0D01*
G01*
X110743750Y-60225000D01*
G75*
G02*
X110525000Y-60006250I0J218750D01*
G01*
X110525000Y-59568750D01*
G75*
G02*
X110743750Y-59350000I218750J0D01*
G01*
G37*
G04 #@! TD.AperFunction*
G04 #@! TA.AperFunction,SMDPad,CuDef*
G36*
G01*
X110743750Y-57775000D02*
X111256250Y-57775000D01*
G75*
G02*
X111475000Y-57993750I0J-218750D01*
G01*
X111475000Y-58431250D01*
G75*
G02*
X111256250Y-58650000I-218750J0D01*
G01*
X110743750Y-58650000D01*
G75*
G02*
X110525000Y-58431250I0J218750D01*
G01*
X110525000Y-57993750D01*
G75*
G02*
X110743750Y-57775000I218750J0D01*
G01*
G37*
G04 #@! TD.AperFunction*
G04 #@! TA.AperFunction,SMDPad,CuDef*
G36*
G01*
X111256250Y-53650000D02*
X110743750Y-53650000D01*
G75*
G02*
X110525000Y-53431250I0J218750D01*
G01*
X110525000Y-52993750D01*
G75*
G02*
X110743750Y-52775000I218750J0D01*
G01*
X111256250Y-52775000D01*
G75*
G02*
X111475000Y-52993750I0J-218750D01*
G01*
X111475000Y-53431250D01*
G75*
G02*
X111256250Y-53650000I-218750J0D01*
G01*
G37*
G04 #@! TD.AperFunction*
G04 #@! TA.AperFunction,SMDPad,CuDef*
G36*
G01*
X111256250Y-55225000D02*
X110743750Y-55225000D01*
G75*
G02*
X110525000Y-55006250I0J218750D01*
G01*
X110525000Y-54568750D01*
G75*
G02*
X110743750Y-54350000I218750J0D01*
G01*
X111256250Y-54350000D01*
G75*
G02*
X111475000Y-54568750I0J-218750D01*
G01*
X111475000Y-55006250D01*
G75*
G02*
X111256250Y-55225000I-218750J0D01*
G01*
G37*
G04 #@! TD.AperFunction*
D22*
X133000000Y-80300000D03*
X135500000Y-80300000D03*
X117500000Y-79800000D03*
X114600000Y-74000000D03*
X103300000Y-103400000D03*
X103000000Y-101750000D03*
X103000000Y-99750000D03*
X103000000Y-97750000D03*
X103000000Y-95750000D03*
X103000000Y-93750000D03*
X103000000Y-91750000D03*
X103000000Y-89750000D03*
X103000000Y-87750000D03*
X103000000Y-85750000D03*
X103000000Y-83750000D03*
X103000000Y-81750000D03*
X103000000Y-79750000D03*
X103000000Y-77750000D03*
X103000000Y-75750000D03*
X103000000Y-73750000D03*
X103000000Y-71750000D03*
X103000000Y-69750000D03*
X103000000Y-67750000D03*
X103000000Y-65750000D03*
X103000000Y-63750000D03*
X103000000Y-61750000D03*
X104500000Y-52250000D03*
X108200000Y-52200000D03*
X109400000Y-52200000D03*
X110600000Y-52200000D03*
X141000000Y-69750000D03*
X141000000Y-91750000D03*
X141000000Y-79750000D03*
X141000000Y-85750000D03*
X141000000Y-63750000D03*
X141000000Y-61750000D03*
X141000000Y-83750000D03*
X141000000Y-89750000D03*
X141000000Y-77750000D03*
X141000000Y-101750000D03*
X141000000Y-97750000D03*
X141000000Y-67750000D03*
X141000000Y-95750000D03*
X141000000Y-99750000D03*
X141000000Y-73750000D03*
X141000000Y-65750000D03*
X141000000Y-87750000D03*
X141000000Y-93750000D03*
X141000000Y-81750000D03*
X141000000Y-71750000D03*
X127000000Y-103750000D03*
X121000000Y-103750000D03*
X117000000Y-103750000D03*
X111000000Y-103750000D03*
X137000000Y-103750000D03*
X125000000Y-103750000D03*
X131000000Y-103750000D03*
X135000000Y-103750000D03*
X123000000Y-103750000D03*
X105000000Y-103750000D03*
X119000000Y-103750000D03*
X133000000Y-103750000D03*
X140800000Y-103500000D03*
X113000000Y-103750000D03*
X139000000Y-103750000D03*
X129000000Y-103750000D03*
X107000000Y-103750000D03*
X115000000Y-103750000D03*
X109000000Y-103750000D03*
X135750000Y-52250000D03*
X137750000Y-52250000D03*
X139750000Y-52250000D03*
X133750000Y-52250000D03*
X114250000Y-102000000D03*
X114250000Y-99750000D03*
X114250000Y-97500000D03*
X114250000Y-95250000D03*
X129600000Y-102000000D03*
X129600000Y-99500000D03*
X103000000Y-59750000D03*
X103000000Y-57750000D03*
X103000000Y-55750000D03*
X103000000Y-53750000D03*
X141000000Y-59750000D03*
X141000000Y-55750000D03*
X141000000Y-53750000D03*
X141000000Y-57750000D03*
X105200000Y-79200000D03*
X104600000Y-79200000D03*
X104000000Y-79200000D03*
X103800000Y-88700000D03*
X104400000Y-88700000D03*
X105000000Y-88700000D03*
X109900000Y-84100000D03*
X109900000Y-83500000D03*
X109900000Y-82900000D03*
X109900000Y-82300000D03*
X106300000Y-87800000D03*
X109800000Y-86800000D03*
X110900000Y-92800000D03*
X107100000Y-75000000D03*
X110500000Y-77000000D03*
X116300000Y-68600000D03*
X115100000Y-52700000D03*
X128900000Y-52700000D03*
X132200000Y-52700000D03*
X111600000Y-52200000D03*
X106300000Y-52200000D03*
X111000000Y-60800000D03*
X137600000Y-63500000D03*
X121000000Y-57000000D03*
X124200000Y-60300000D03*
X117800000Y-60200000D03*
X121000000Y-63500000D03*
X111750000Y-60800000D03*
X113750000Y-70750000D03*
X111250000Y-67750000D03*
X108000000Y-60750000D03*
X115400000Y-93300000D03*
X124700000Y-93400000D03*
X124700000Y-95800000D03*
X124700000Y-98300000D03*
X124700000Y-101100000D03*
X129600000Y-97300000D03*
X141000000Y-75700000D03*
X129500000Y-76600000D03*
X119500000Y-72500000D03*
X134200000Y-88600000D03*
D23*
X122000000Y-75500000D03*
X130900000Y-80600000D03*
X132000000Y-83000000D03*
D22*
X128500000Y-56500000D03*
X133499994Y-56500000D03*
X133100000Y-60500000D03*
X134900000Y-60500000D03*
X130800000Y-70900000D03*
X132149990Y-65500000D03*
X132000000Y-61800000D03*
X132500000Y-70500000D03*
X135400000Y-54800000D03*
X133300000Y-69000000D03*
X135300000Y-65900000D03*
X136100000Y-54200000D03*
D23*
X125900000Y-93300000D03*
X124700000Y-79850000D03*
D22*
X118250000Y-68000000D03*
X117400000Y-75700000D03*
X132200000Y-64300000D03*
X131700000Y-70500000D03*
D23*
X116600000Y-93200000D03*
X123000000Y-79850000D03*
D24*
X133000000Y-81412500D02*
X133000000Y-80300000D01*
X135500000Y-81412500D02*
X135500000Y-80300000D01*
X117500000Y-78787500D02*
X117500000Y-79800000D01*
X115750000Y-73962500D02*
X114637500Y-73962500D01*
X114637500Y-73962500D02*
X114600000Y-74000000D01*
X134235000Y-88565000D02*
X134200000Y-88600000D01*
X134235000Y-86125000D02*
X134235000Y-88565000D01*
X122037500Y-75537500D02*
X122000000Y-75500000D01*
X123000000Y-75537500D02*
X122037500Y-75537500D01*
X132965000Y-83022500D02*
X133000000Y-82987500D01*
X132965000Y-86125000D02*
X132965000Y-83022500D01*
X109495000Y-73500000D02*
X110500000Y-74505000D01*
X106037500Y-73500000D02*
X109495000Y-73500000D01*
D25*
X110500000Y-71600000D02*
X110400000Y-71500000D01*
X109637500Y-56150000D02*
X111000000Y-54787500D01*
X109000000Y-56150000D02*
X109637500Y-56150000D01*
X111475000Y-54787500D02*
X111000000Y-54787500D01*
X112247500Y-54015000D02*
X111475000Y-54787500D01*
X113500000Y-54015000D02*
X112247500Y-54015000D01*
D24*
X108950000Y-56200000D02*
X109000000Y-56150000D01*
X106400000Y-56200000D02*
X108950000Y-56200000D01*
X109287500Y-60000000D02*
X109500000Y-59787500D01*
X117550000Y-73750000D02*
X117550000Y-73850000D01*
D25*
X110500000Y-72500000D02*
X110500000Y-71600000D01*
X110500000Y-74505000D02*
X110500000Y-72500000D01*
X107500000Y-57650000D02*
X109000000Y-56150000D01*
X106750000Y-58400000D02*
X107500000Y-57650000D01*
X110400000Y-70900000D02*
X106750000Y-67250000D01*
X110400000Y-71500000D02*
X110400000Y-70900000D01*
X106750000Y-59750000D02*
X106750000Y-58400000D01*
X106750000Y-67250000D02*
X106750000Y-59750000D01*
D24*
X106787500Y-59787500D02*
X106750000Y-59750000D01*
X109250000Y-59787500D02*
X106787500Y-59787500D01*
D26*
X132012500Y-82987500D02*
X132000000Y-83000000D01*
X133000000Y-82987500D02*
X132012500Y-82987500D01*
D24*
X135200000Y-64500000D02*
X136175000Y-64500000D01*
X133999990Y-65700010D02*
X135200000Y-64500000D01*
X133999990Y-82500010D02*
X133999990Y-65700010D01*
X133512500Y-82987500D02*
X133999990Y-82500010D01*
X133000000Y-82987500D02*
X133512500Y-82987500D01*
D26*
X130500000Y-80600000D02*
X130900000Y-80600000D01*
X122250000Y-80750000D02*
X130350000Y-80750000D01*
X121700000Y-80200000D02*
X122250000Y-80750000D01*
X121700000Y-77400000D02*
X121700000Y-80200000D01*
X130350000Y-80750000D02*
X130500000Y-80600000D01*
X119000000Y-74700000D02*
X121700000Y-77400000D01*
X118100000Y-74700000D02*
X119000000Y-74700000D01*
X117550000Y-74150000D02*
X118100000Y-74700000D01*
X117550000Y-73750000D02*
X117550000Y-74150000D01*
X117550000Y-73150000D02*
X117550000Y-73750000D01*
X116900000Y-72500000D02*
X117550000Y-73150000D01*
X113000000Y-72500000D02*
X116900000Y-72500000D01*
X112250000Y-73250000D02*
X113000000Y-72500000D01*
D24*
X109500000Y-58212500D02*
X111000000Y-58212500D01*
X112689998Y-55285000D02*
X113500000Y-55285000D01*
X111000000Y-56974998D02*
X112689998Y-55285000D01*
X111000000Y-58212500D02*
X111000000Y-56974998D01*
X113500000Y-55285000D02*
X127285000Y-55285000D01*
X127285000Y-55285000D02*
X128500000Y-56500000D01*
X133499994Y-58199994D02*
X133499994Y-56500000D01*
X134800000Y-59500000D02*
X133499994Y-58199994D01*
X136175000Y-59500000D02*
X134800000Y-59500000D01*
X114493750Y-78787500D02*
X115750000Y-78787500D01*
X114000000Y-92500000D02*
X114000000Y-79281250D01*
X114000000Y-79281250D02*
X114493750Y-78787500D01*
X110680000Y-99550000D02*
X110680000Y-95820000D01*
X110680000Y-95820000D02*
X114000000Y-92500000D01*
X137300000Y-62500000D02*
X136175000Y-62500000D01*
X137800000Y-62000000D02*
X137300000Y-62500000D01*
X136757124Y-58600000D02*
X137657124Y-59500000D01*
X135100000Y-58600000D02*
X136757124Y-58600000D01*
X134500000Y-58000000D02*
X135100000Y-58600000D01*
X134500000Y-55900000D02*
X134500000Y-58000000D01*
X134300000Y-55700000D02*
X134500000Y-55900000D01*
X137657124Y-59500000D02*
X137800000Y-59500000D01*
X132900000Y-55700000D02*
X134300000Y-55700000D01*
X132045000Y-56555000D02*
X132900000Y-55700000D01*
X137800000Y-59500000D02*
X137800000Y-62000000D01*
X130500000Y-56555000D02*
X132045000Y-56555000D01*
X130500000Y-57825000D02*
X132025000Y-57825000D01*
X132025000Y-57825000D02*
X133800000Y-59600000D01*
X133800000Y-59600000D02*
X133800000Y-61000000D01*
X134300000Y-61500000D02*
X136175000Y-61500000D01*
X133800000Y-61000000D02*
X134300000Y-61500000D01*
X136175000Y-60500000D02*
X134900000Y-60500000D01*
X133100000Y-68000000D02*
X133100000Y-60500000D01*
X131845000Y-69255000D02*
X133100000Y-68000000D01*
X130500000Y-69255000D02*
X131845000Y-69255000D01*
D26*
X138400000Y-88600000D02*
X138400000Y-86625000D01*
X132965000Y-91075000D02*
X132965000Y-93465000D01*
X132965000Y-93465000D02*
X132965000Y-97335000D01*
X132080000Y-98220000D02*
X132080000Y-99568000D01*
X132965000Y-97335000D02*
X132080000Y-98220000D01*
D24*
X137650000Y-85175000D02*
X138400000Y-85175000D01*
X136450010Y-89449990D02*
X136450010Y-87949990D01*
X137100000Y-85725000D02*
X137650000Y-85175000D01*
X137100000Y-87300000D02*
X137100000Y-85725000D01*
X133350010Y-89449990D02*
X136450010Y-89449990D01*
X132965000Y-89835000D02*
X133350010Y-89449990D01*
X136450010Y-87949990D02*
X137100000Y-87300000D01*
X132965000Y-91075000D02*
X132965000Y-89835000D01*
X104050000Y-78150000D02*
X104050000Y-77650000D01*
X103674990Y-77274990D02*
X103674990Y-74325010D01*
X104050000Y-77650000D02*
X103674990Y-77274990D01*
X104462500Y-73537500D02*
X104462500Y-73500000D01*
X103674990Y-74325010D02*
X104462500Y-73537500D01*
X104349980Y-75000000D02*
X103674990Y-74325010D01*
X104425000Y-75000000D02*
X104349980Y-75000000D01*
X130500000Y-65445000D02*
X132094990Y-65445000D01*
X132094990Y-65445000D02*
X132149990Y-65500000D01*
X128700000Y-73000000D02*
X130800000Y-70900000D01*
X122200000Y-73000000D02*
X128700000Y-73000000D01*
X121250000Y-73950000D02*
X122200000Y-73000000D01*
X121250000Y-76000000D02*
X121250000Y-73950000D01*
X122462500Y-77212500D02*
X121250000Y-76000000D01*
X123000000Y-77212500D02*
X122462500Y-77212500D01*
D26*
X139800000Y-90000000D02*
X136580000Y-90000000D01*
X140300000Y-89500000D02*
X139800000Y-90000000D01*
X140300000Y-84100000D02*
X140300000Y-89500000D01*
X136580000Y-90000000D02*
X135505000Y-91075000D01*
X139700000Y-83500000D02*
X140300000Y-84100000D01*
X136900000Y-83500000D02*
X139700000Y-83500000D01*
X136387500Y-82987500D02*
X136900000Y-83500000D01*
X135500000Y-82987500D02*
X136387500Y-82987500D01*
D24*
X130665000Y-61800000D02*
X130500000Y-61635000D01*
X132000000Y-61800000D02*
X130665000Y-61800000D01*
X129374264Y-74250000D02*
X132500000Y-71124264D01*
X127250000Y-74250000D02*
X129374264Y-74250000D01*
X126000000Y-75500000D02*
X127250000Y-74250000D01*
X126000000Y-76750000D02*
X126000000Y-75500000D01*
X132500000Y-71124264D02*
X132500000Y-70500000D01*
X125575000Y-77175000D02*
X126000000Y-76750000D01*
X124750000Y-77175000D02*
X125575000Y-77175000D01*
D26*
X134235000Y-93465000D02*
X137635000Y-93465000D01*
X134235000Y-91075000D02*
X134235000Y-93465000D01*
X138400000Y-92700000D02*
X138400000Y-91400000D01*
X137635000Y-93465000D02*
X138400000Y-92700000D01*
X134235000Y-96643000D02*
X137160000Y-99568000D01*
X134235000Y-93465000D02*
X134235000Y-96643000D01*
D24*
X130500000Y-55285000D02*
X131815000Y-55285000D01*
X132300000Y-54800000D02*
X135400000Y-54800000D01*
X131815000Y-55285000D02*
X132300000Y-54800000D01*
X131695000Y-79495000D02*
X133300000Y-77890000D01*
X131695000Y-81295000D02*
X131695000Y-79495000D01*
X131100000Y-85530000D02*
X131100000Y-81890000D01*
X131695000Y-86125000D02*
X131100000Y-85530000D01*
X131100000Y-81890000D02*
X131695000Y-81295000D01*
X133300000Y-77890000D02*
X133300000Y-69000000D01*
X136100000Y-54200000D02*
X135900000Y-54200000D01*
X135715000Y-54015000D02*
X130500000Y-54015000D01*
X135900000Y-54200000D02*
X135715000Y-54015000D01*
X135505000Y-84805000D02*
X135505000Y-86125000D01*
X134500000Y-83800000D02*
X135505000Y-84805000D01*
X134500000Y-66700000D02*
X134500000Y-83800000D01*
X135300000Y-65900000D02*
X134500000Y-66700000D01*
D27*
X116840000Y-99568000D02*
X116840000Y-96860000D01*
X120030000Y-93670000D02*
X120030000Y-91450000D01*
X116840000Y-96860000D02*
X120030000Y-93670000D01*
X127000000Y-99568000D02*
X127000000Y-95900000D01*
X129280000Y-93620000D02*
X129280000Y-91450000D01*
X127000000Y-95900000D02*
X129280000Y-93620000D01*
D24*
X125860000Y-93260000D02*
X125900000Y-93300000D01*
X125860000Y-91450000D02*
X125860000Y-93260000D01*
X124750000Y-79550000D02*
X124700000Y-79600000D01*
X124750000Y-78825000D02*
X124750000Y-79800000D01*
X115750000Y-77212500D02*
X117500000Y-77212500D01*
X115750000Y-75537500D02*
X115750000Y-77212500D01*
X118500000Y-76212500D02*
X117500000Y-77212500D01*
X118500000Y-75750000D02*
X118500000Y-76212500D01*
X113500000Y-62905000D02*
X115905000Y-62905000D01*
X118250000Y-65250000D02*
X118250000Y-68000000D01*
X115905000Y-62905000D02*
X118250000Y-65250000D01*
X111095000Y-62905000D02*
X111000000Y-63000000D01*
X113500000Y-62905000D02*
X111095000Y-62905000D01*
X117450000Y-75750000D02*
X117400000Y-75700000D01*
X118500000Y-75750000D02*
X117450000Y-75750000D01*
X109325000Y-64175000D02*
X109250000Y-64250000D01*
X113500000Y-64175000D02*
X109325000Y-64175000D01*
X111055000Y-65445000D02*
X111000000Y-65500000D01*
X113500000Y-65445000D02*
X111055000Y-65445000D01*
X109285000Y-66715000D02*
X109250000Y-66750000D01*
X113500000Y-66715000D02*
X109285000Y-66715000D01*
X109365000Y-61635000D02*
X109250000Y-61750000D01*
X113500000Y-61635000D02*
X109365000Y-61635000D01*
X106025000Y-76500000D02*
X106200000Y-76500000D01*
X106200000Y-76500000D02*
X106800000Y-77100000D01*
X106800000Y-77100000D02*
X106800000Y-79900000D01*
X106350000Y-80350000D02*
X105950000Y-80350000D01*
X106800000Y-79900000D02*
X106350000Y-80350000D01*
X105950000Y-77713190D02*
X105950000Y-78150000D01*
X104736810Y-76500000D02*
X105950000Y-77713190D01*
X104475000Y-76500000D02*
X104736810Y-76500000D01*
D28*
X107662500Y-86800000D02*
X107662500Y-85562500D01*
X107662500Y-85562500D02*
X107200000Y-85100000D01*
X105175000Y-85100000D02*
X104600000Y-84525000D01*
X107200000Y-85100000D02*
X105175000Y-85100000D01*
X105000000Y-84125000D02*
X104600000Y-84525000D01*
X105000000Y-80350000D02*
X105000000Y-84125000D01*
X111937500Y-89862500D02*
X111300000Y-90500000D01*
X111937500Y-86500000D02*
X111937500Y-89862500D01*
D24*
X123000000Y-73962500D02*
X124750000Y-73962500D01*
X130625000Y-64300000D02*
X130500000Y-64175000D01*
X132200000Y-64300000D02*
X130625000Y-64300000D01*
X131700000Y-71000000D02*
X131700000Y-70500000D01*
X127150000Y-73600000D02*
X129100000Y-73600000D01*
X129100000Y-73600000D02*
X131700000Y-71000000D01*
X125212500Y-75537500D02*
X127150000Y-73600000D01*
X124750000Y-75537500D02*
X125212500Y-75537500D01*
X116610000Y-93190000D02*
X116600000Y-93200000D01*
X116610000Y-91450000D02*
X116610000Y-93190000D01*
X123000000Y-79850000D02*
X123000000Y-78787500D01*
X118810000Y-70900000D02*
X118810000Y-69810000D01*
X118810000Y-69810000D02*
X118800000Y-69800000D01*
D29*
X112873000Y-91573000D02*
X110327000Y-91573000D01*
X110327000Y-89274727D01*
X111161677Y-88811018D01*
X111182150Y-88796852D01*
X111199467Y-88778965D01*
X111212961Y-88758042D01*
X111222114Y-88734890D01*
X111227000Y-88700000D01*
X111227000Y-85027000D01*
X112873000Y-85027000D01*
X112873000Y-91573000D01*
G04 #@! TA.AperFunction,Conductor*
D30*
G36*
X112873000Y-91573000D02*
G01*
X110327000Y-91573000D01*
X110327000Y-89274727D01*
X111161677Y-88811018D01*
X111182150Y-88796852D01*
X111199467Y-88778965D01*
X111212961Y-88758042D01*
X111222114Y-88734890D01*
X111227000Y-88700000D01*
X111227000Y-85027000D01*
X112873000Y-85027000D01*
X112873000Y-91573000D01*
G37*
G04 #@! TD.AperFunction*
D29*
X108773000Y-92500000D02*
X108775440Y-92524776D01*
X108782667Y-92548601D01*
X108795397Y-92572022D01*
X112973000Y-98639493D01*
X112973000Y-100973000D01*
X110627000Y-100973000D01*
X110627000Y-99400000D01*
X110624560Y-99375224D01*
X110617333Y-99351399D01*
X110602634Y-99325199D01*
X106327000Y-93458631D01*
X106327000Y-89527000D01*
X108773000Y-89527000D01*
X108773000Y-92500000D01*
G04 #@! TA.AperFunction,Conductor*
D30*
G36*
X108773000Y-92500000D02*
G01*
X108775440Y-92524776D01*
X108782667Y-92548601D01*
X108795397Y-92572022D01*
X112973000Y-98639493D01*
X112973000Y-100973000D01*
X110627000Y-100973000D01*
X110627000Y-99400000D01*
X110624560Y-99375224D01*
X110617333Y-99351399D01*
X110602634Y-99325199D01*
X106327000Y-93458631D01*
X106327000Y-89527000D01*
X108773000Y-89527000D01*
X108773000Y-92500000D01*
G37*
G04 #@! TD.AperFunction*
D29*
X112048815Y-51843815D02*
X111969463Y-51940506D01*
X111910498Y-52050820D01*
X111874188Y-52170518D01*
X111861928Y-52295000D01*
X111865000Y-52459250D01*
X112023750Y-52618000D01*
X113373000Y-52618000D01*
X113373000Y-52598000D01*
X113627000Y-52598000D01*
X113627000Y-52618000D01*
X114976250Y-52618000D01*
X115135000Y-52459250D01*
X115138072Y-52295000D01*
X115125812Y-52170518D01*
X115089502Y-52050820D01*
X115030537Y-51940506D01*
X114951185Y-51843815D01*
X114900233Y-51802000D01*
X129099767Y-51802000D01*
X129048815Y-51843815D01*
X128969463Y-51940506D01*
X128910498Y-52050820D01*
X128874188Y-52170518D01*
X128861928Y-52295000D01*
X128865000Y-52459250D01*
X129023750Y-52618000D01*
X130373000Y-52618000D01*
X130373000Y-52598000D01*
X130627000Y-52598000D01*
X130627000Y-52618000D01*
X131976250Y-52618000D01*
X132135000Y-52459250D01*
X132138072Y-52295000D01*
X132125812Y-52170518D01*
X132089502Y-52050820D01*
X132030537Y-51940506D01*
X131951185Y-51843815D01*
X131900233Y-51802000D01*
X139380342Y-51802000D01*
X139826549Y-51845751D01*
X140236858Y-51969630D01*
X140615287Y-52170845D01*
X140947429Y-52441733D01*
X141220626Y-52771971D01*
X141424478Y-53148988D01*
X141551218Y-53558418D01*
X141598001Y-54003528D01*
X141598000Y-102380342D01*
X141554249Y-102826549D01*
X141430370Y-103236858D01*
X141229155Y-103615287D01*
X140958267Y-103947429D01*
X140628027Y-104220627D01*
X140251012Y-104424478D01*
X139841582Y-104551218D01*
X139396482Y-104598000D01*
X104619658Y-104598000D01*
X104173451Y-104554249D01*
X103763142Y-104430370D01*
X103384713Y-104229155D01*
X103052571Y-103958267D01*
X102779373Y-103628027D01*
X102575522Y-103251012D01*
X102448782Y-102841582D01*
X102402000Y-102396482D01*
X102402000Y-100618000D01*
X104991928Y-100618000D01*
X105004188Y-100742482D01*
X105040498Y-100862180D01*
X105099463Y-100972494D01*
X105178815Y-101069185D01*
X105275506Y-101148537D01*
X105385820Y-101207502D01*
X105505518Y-101243812D01*
X105630000Y-101256072D01*
X106248250Y-101253000D01*
X106407000Y-101094250D01*
X106407000Y-99841000D01*
X106953000Y-99841000D01*
X106953000Y-101094250D01*
X107111750Y-101253000D01*
X107730000Y-101256072D01*
X107854482Y-101243812D01*
X107974180Y-101207502D01*
X108084494Y-101148537D01*
X108181185Y-101069185D01*
X108260537Y-100972494D01*
X108319502Y-100862180D01*
X108355812Y-100742482D01*
X108368072Y-100618000D01*
X108365000Y-99999750D01*
X108206250Y-99841000D01*
X106953000Y-99841000D01*
X106407000Y-99841000D01*
X105153750Y-99841000D01*
X104995000Y-99999750D01*
X104991928Y-100618000D01*
X102402000Y-100618000D01*
X102402000Y-98518000D01*
X104991928Y-98518000D01*
X104995000Y-99136250D01*
X105153750Y-99295000D01*
X106407000Y-99295000D01*
X106407000Y-98041750D01*
X106953000Y-98041750D01*
X106953000Y-99295000D01*
X108206250Y-99295000D01*
X108365000Y-99136250D01*
X108368072Y-98518000D01*
X108355812Y-98393518D01*
X108319502Y-98273820D01*
X108260537Y-98163506D01*
X108181185Y-98066815D01*
X108084494Y-97987463D01*
X107974180Y-97928498D01*
X107854482Y-97892188D01*
X107730000Y-97879928D01*
X107111750Y-97883000D01*
X106953000Y-98041750D01*
X106407000Y-98041750D01*
X106248250Y-97883000D01*
X105630000Y-97879928D01*
X105505518Y-97892188D01*
X105385820Y-97928498D01*
X105275506Y-97987463D01*
X105178815Y-98066815D01*
X105099463Y-98163506D01*
X105040498Y-98273820D01*
X105004188Y-98393518D01*
X104991928Y-98518000D01*
X102402000Y-98518000D01*
X102402000Y-74325010D01*
X103145441Y-74325010D01*
X103147991Y-74350901D01*
X103147990Y-77249109D01*
X103145441Y-77274990D01*
X103149461Y-77315809D01*
X103155616Y-77378299D01*
X103185751Y-77477639D01*
X103234686Y-77569192D01*
X103300542Y-77649438D01*
X103320656Y-77665945D01*
X103346176Y-77691465D01*
X103346176Y-78680000D01*
X103353455Y-78753905D01*
X103375012Y-78824970D01*
X103410019Y-78890463D01*
X103457131Y-78947869D01*
X103514537Y-78994981D01*
X103580030Y-79029988D01*
X103651095Y-79051545D01*
X103725000Y-79058824D01*
X104375000Y-79058824D01*
X104448905Y-79051545D01*
X104519970Y-79029988D01*
X104585463Y-78994981D01*
X104642869Y-78947869D01*
X104689981Y-78890463D01*
X104724988Y-78824970D01*
X104746545Y-78753905D01*
X104753824Y-78680000D01*
X104753824Y-77620000D01*
X104746545Y-77546095D01*
X104724988Y-77475030D01*
X104689981Y-77409537D01*
X104644258Y-77353824D01*
X104700000Y-77353824D01*
X104817800Y-77342222D01*
X104830032Y-77338512D01*
X105246176Y-77754656D01*
X105246176Y-78680000D01*
X105253455Y-78753905D01*
X105275012Y-78824970D01*
X105310019Y-78890463D01*
X105357131Y-78947869D01*
X105414537Y-78994981D01*
X105480030Y-79029988D01*
X105551095Y-79051545D01*
X105625000Y-79058824D01*
X106223000Y-79058824D01*
X106223000Y-79323000D01*
X105500000Y-79323000D01*
X105426451Y-79330244D01*
X105355728Y-79351697D01*
X105290550Y-79386536D01*
X105233421Y-79433421D01*
X105227057Y-79441176D01*
X104675000Y-79441176D01*
X104601095Y-79448455D01*
X104530030Y-79470012D01*
X104525000Y-79472701D01*
X104519970Y-79470012D01*
X104448905Y-79448455D01*
X104375000Y-79441176D01*
X103725000Y-79441176D01*
X103651095Y-79448455D01*
X103580030Y-79470012D01*
X103514537Y-79505019D01*
X103457131Y-79552131D01*
X103410019Y-79609537D01*
X103375012Y-79675030D01*
X103353455Y-79746095D01*
X103346176Y-79820000D01*
X103346176Y-80880000D01*
X103353455Y-80953905D01*
X103375012Y-81024970D01*
X103410019Y-81090463D01*
X103457131Y-81147869D01*
X103514537Y-81194981D01*
X103580030Y-81229988D01*
X103651095Y-81251545D01*
X103725000Y-81258824D01*
X104223000Y-81258824D01*
X104223000Y-81663962D01*
X104140945Y-81718790D01*
X104018790Y-81840945D01*
X103922813Y-81984585D01*
X103856703Y-82144189D01*
X103823000Y-82313623D01*
X103823000Y-82486377D01*
X103856703Y-82655811D01*
X103922813Y-82815415D01*
X104018790Y-82959055D01*
X104140945Y-83081210D01*
X104223001Y-83136038D01*
X104223001Y-83571176D01*
X103949999Y-83571176D01*
X103827322Y-83583259D01*
X103709359Y-83619042D01*
X103600644Y-83677152D01*
X103505354Y-83755354D01*
X103427152Y-83850644D01*
X103369042Y-83959359D01*
X103333259Y-84077322D01*
X103321176Y-84199999D01*
X103321176Y-84850001D01*
X103333259Y-84972678D01*
X103369042Y-85090641D01*
X103427152Y-85199356D01*
X103505354Y-85294646D01*
X103600644Y-85372848D01*
X103709359Y-85430958D01*
X103827322Y-85466741D01*
X103949999Y-85478824D01*
X104454980Y-85478824D01*
X104598590Y-85622434D01*
X104622920Y-85652080D01*
X104652564Y-85676408D01*
X104652565Y-85676409D01*
X104741233Y-85749177D01*
X104799442Y-85780290D01*
X104876216Y-85821327D01*
X105022681Y-85865757D01*
X105136834Y-85877000D01*
X105136836Y-85877000D01*
X105175000Y-85880759D01*
X105213163Y-85877000D01*
X106721176Y-85877000D01*
X106721176Y-88250003D01*
X106733259Y-88372680D01*
X106769042Y-88490642D01*
X106827151Y-88599357D01*
X106905353Y-88694647D01*
X107000643Y-88772849D01*
X107109358Y-88830958D01*
X107227320Y-88866741D01*
X107349997Y-88878824D01*
X107975003Y-88878824D01*
X108097680Y-88866741D01*
X108215642Y-88830958D01*
X108324357Y-88772849D01*
X108419647Y-88694647D01*
X108497849Y-88599357D01*
X108555958Y-88490642D01*
X108591741Y-88372680D01*
X108603824Y-88250003D01*
X108603824Y-85349997D01*
X108591741Y-85227320D01*
X108555958Y-85109358D01*
X108497849Y-85000643D01*
X108419647Y-84905353D01*
X108324357Y-84827151D01*
X108215642Y-84769042D01*
X108097680Y-84733259D01*
X107975003Y-84721176D01*
X107920019Y-84721176D01*
X107875843Y-84677000D01*
X109200000Y-84677000D01*
X109273549Y-84669756D01*
X109344272Y-84648303D01*
X109409450Y-84613464D01*
X109466579Y-84566579D01*
X109513464Y-84509450D01*
X109548303Y-84444272D01*
X109569756Y-84373549D01*
X109577000Y-84300000D01*
X109577000Y-82097690D01*
X109921828Y-81477000D01*
X113473001Y-81477000D01*
X113473000Y-92281710D01*
X110946784Y-94807927D01*
X109277000Y-92382765D01*
X109277000Y-89400000D01*
X109269756Y-89326451D01*
X109248303Y-89255728D01*
X109218516Y-89200000D01*
X109823000Y-89200000D01*
X109823000Y-91700000D01*
X109830244Y-91773549D01*
X109851697Y-91844272D01*
X109886536Y-91909450D01*
X109933421Y-91966579D01*
X109990550Y-92013464D01*
X110055728Y-92048303D01*
X110126451Y-92069756D01*
X110200000Y-92077000D01*
X113000000Y-92077000D01*
X113073549Y-92069756D01*
X113144272Y-92048303D01*
X113209450Y-92013464D01*
X113266579Y-91966579D01*
X113313464Y-91909450D01*
X113348303Y-91844272D01*
X113369756Y-91773549D01*
X113377000Y-91700000D01*
X113377000Y-84900000D01*
X113369756Y-84826451D01*
X113348303Y-84755728D01*
X113313464Y-84690550D01*
X113266579Y-84633421D01*
X113209450Y-84586536D01*
X113144272Y-84551697D01*
X113073549Y-84530244D01*
X113000000Y-84523000D01*
X111100000Y-84523000D01*
X111026451Y-84530244D01*
X110955728Y-84551697D01*
X110890550Y-84586536D01*
X110833421Y-84633421D01*
X110786536Y-84690550D01*
X110751697Y-84755728D01*
X110730244Y-84826451D01*
X110723000Y-84900000D01*
X110723000Y-88478172D01*
X110016913Y-88870443D01*
X109933421Y-88933421D01*
X109886536Y-88990550D01*
X109851697Y-89055728D01*
X109830244Y-89126451D01*
X109823000Y-89200000D01*
X109218516Y-89200000D01*
X109213464Y-89190550D01*
X109166579Y-89133421D01*
X109109450Y-89086536D01*
X109044272Y-89051697D01*
X108973549Y-89030244D01*
X108900000Y-89023000D01*
X106200000Y-89023000D01*
X106126451Y-89030244D01*
X106055728Y-89051697D01*
X105990550Y-89086536D01*
X105933421Y-89133421D01*
X105886536Y-89190550D01*
X105851697Y-89255728D01*
X105830244Y-89326451D01*
X105823000Y-89400000D01*
X105823000Y-93500000D01*
X105833548Y-93588553D01*
X105857865Y-93658343D01*
X105895330Y-93722048D01*
X110123000Y-99522805D01*
X110123000Y-101100000D01*
X110130244Y-101173549D01*
X110151697Y-101244272D01*
X110186536Y-101309450D01*
X110233421Y-101366579D01*
X110290550Y-101413464D01*
X110355728Y-101448303D01*
X110426451Y-101469756D01*
X110500000Y-101477000D01*
X113100000Y-101477000D01*
X113173549Y-101469756D01*
X113244272Y-101448303D01*
X113309450Y-101413464D01*
X113366579Y-101366579D01*
X113413464Y-101309450D01*
X113448303Y-101244272D01*
X113469756Y-101173549D01*
X113477000Y-101100000D01*
X113477000Y-98600000D01*
X113468695Y-98521306D01*
X113446259Y-98450889D01*
X113410515Y-98386203D01*
X111554592Y-95690697D01*
X114354339Y-92890951D01*
X114374448Y-92874448D01*
X114440304Y-92794202D01*
X114489239Y-92702650D01*
X114519374Y-92603310D01*
X114527000Y-92525881D01*
X114527000Y-92525880D01*
X114529549Y-92500001D01*
X114527000Y-92474120D01*
X114527000Y-90077000D01*
X115948383Y-90077000D01*
X115942131Y-90082131D01*
X115895019Y-90139537D01*
X115860012Y-90205030D01*
X115838455Y-90276095D01*
X115831176Y-90350000D01*
X115831176Y-92550000D01*
X115838455Y-92623905D01*
X115860012Y-92694970D01*
X115895019Y-92760463D01*
X115930396Y-92803569D01*
X115911431Y-92831952D01*
X115852859Y-92973357D01*
X115823000Y-93123472D01*
X115823000Y-93276528D01*
X115852859Y-93426643D01*
X115911431Y-93568048D01*
X115996464Y-93695309D01*
X116104691Y-93803536D01*
X116231952Y-93888569D01*
X116373357Y-93947141D01*
X116523472Y-93977000D01*
X116676528Y-93977000D01*
X116826643Y-93947141D01*
X116968048Y-93888569D01*
X117095309Y-93803536D01*
X117203536Y-93695309D01*
X117288569Y-93568048D01*
X117347141Y-93426643D01*
X117377000Y-93276528D01*
X117377000Y-93123472D01*
X117347141Y-92973357D01*
X117288569Y-92831952D01*
X117278580Y-92817003D01*
X117324981Y-92760463D01*
X117359988Y-92694970D01*
X117381545Y-92623905D01*
X117388824Y-92550000D01*
X117388824Y-90350000D01*
X117381545Y-90276095D01*
X117359988Y-90205030D01*
X117324981Y-90139537D01*
X117277869Y-90082131D01*
X117271617Y-90077000D01*
X118228383Y-90077000D01*
X118222131Y-90082131D01*
X118175019Y-90139537D01*
X118140012Y-90205030D01*
X118118455Y-90276095D01*
X118111176Y-90350000D01*
X118111176Y-92550000D01*
X118118455Y-92623905D01*
X118140012Y-92694970D01*
X118175019Y-92760463D01*
X118222131Y-92817869D01*
X118279537Y-92864981D01*
X118345030Y-92899988D01*
X118416095Y-92921545D01*
X118490000Y-92928824D01*
X119223000Y-92928824D01*
X119223000Y-93035771D01*
X119222018Y-93040625D01*
X119219228Y-93044716D01*
X115427386Y-96741762D01*
X115379108Y-96799278D01*
X115312106Y-96897522D01*
X115275724Y-96964565D01*
X115254046Y-97035220D01*
X115230478Y-97151776D01*
X115223000Y-97226494D01*
X115223000Y-100500000D01*
X115230244Y-100573549D01*
X115253080Y-100688354D01*
X115274534Y-100759077D01*
X115309372Y-100824255D01*
X115374404Y-100921582D01*
X115421288Y-100978711D01*
X115478418Y-101025596D01*
X115575745Y-101090628D01*
X115640924Y-101125467D01*
X115711646Y-101146920D01*
X115826451Y-101169756D01*
X115900000Y-101177000D01*
X117700000Y-101177000D01*
X117773549Y-101169756D01*
X117888354Y-101146920D01*
X117959077Y-101125466D01*
X118024255Y-101090628D01*
X118121582Y-101025596D01*
X118178711Y-100978712D01*
X118225596Y-100921582D01*
X118290628Y-100824255D01*
X118325467Y-100759076D01*
X118346920Y-100688354D01*
X118369756Y-100573549D01*
X118377000Y-100500000D01*
X118377000Y-97161395D01*
X118377962Y-97156557D01*
X118380704Y-97152454D01*
X120170265Y-95362893D01*
X120125645Y-100494113D01*
X120132326Y-100568124D01*
X120154408Y-100683728D01*
X120175632Y-100755373D01*
X120210116Y-100820739D01*
X120274971Y-100918952D01*
X120322121Y-100976916D01*
X120379097Y-101023987D01*
X120476742Y-101089693D01*
X120542564Y-101125060D01*
X120613263Y-101146590D01*
X120728670Y-101169676D01*
X120802620Y-101177000D01*
X123400000Y-101177000D01*
X123473549Y-101169756D01*
X123588354Y-101146920D01*
X123659077Y-101125466D01*
X123724255Y-101090628D01*
X123821582Y-101025596D01*
X123878711Y-100978712D01*
X123925596Y-100921582D01*
X123990628Y-100824255D01*
X124025467Y-100759076D01*
X124046920Y-100688354D01*
X124069756Y-100573549D01*
X124077000Y-100500000D01*
X124077000Y-90077000D01*
X125198383Y-90077000D01*
X125192131Y-90082131D01*
X125145019Y-90139537D01*
X125110012Y-90205030D01*
X125088455Y-90276095D01*
X125081176Y-90350000D01*
X125081176Y-92550000D01*
X125088455Y-92623905D01*
X125110012Y-92694970D01*
X125145019Y-92760463D01*
X125192131Y-92817869D01*
X125249537Y-92864981D01*
X125254431Y-92867597D01*
X125211431Y-92931952D01*
X125152859Y-93073357D01*
X125123000Y-93223472D01*
X125123000Y-93376528D01*
X125152859Y-93526643D01*
X125211431Y-93668048D01*
X125296464Y-93795309D01*
X125404691Y-93903536D01*
X125531952Y-93988569D01*
X125673357Y-94047141D01*
X125823472Y-94077000D01*
X125976528Y-94077000D01*
X126126643Y-94047141D01*
X126268048Y-93988569D01*
X126395309Y-93903536D01*
X126503536Y-93795309D01*
X126588569Y-93668048D01*
X126647141Y-93526643D01*
X126677000Y-93376528D01*
X126677000Y-93223472D01*
X126647141Y-93073357D01*
X126588569Y-92931952D01*
X126517840Y-92826099D01*
X126527869Y-92817869D01*
X126574981Y-92760463D01*
X126609988Y-92694970D01*
X126631545Y-92623905D01*
X126638824Y-92550000D01*
X126638824Y-90350000D01*
X126631545Y-90276095D01*
X126609988Y-90205030D01*
X126574981Y-90139537D01*
X126527869Y-90082131D01*
X126521617Y-90077000D01*
X127478383Y-90077000D01*
X127472131Y-90082131D01*
X127425019Y-90139537D01*
X127390012Y-90205030D01*
X127368455Y-90276095D01*
X127361176Y-90350000D01*
X127361176Y-92550000D01*
X127368455Y-92623905D01*
X127390012Y-92694970D01*
X127425019Y-92760463D01*
X127472131Y-92817869D01*
X127529537Y-92864981D01*
X127595030Y-92899988D01*
X127666095Y-92921545D01*
X127740000Y-92928824D01*
X128423000Y-92928824D01*
X128423000Y-92938605D01*
X128422038Y-92943443D01*
X128419296Y-92947546D01*
X125521289Y-95845553D01*
X125474404Y-95902682D01*
X125409372Y-96000009D01*
X125374533Y-96065188D01*
X125353080Y-96135910D01*
X125330244Y-96250715D01*
X125323000Y-96324264D01*
X125323000Y-100600000D01*
X125330244Y-100673549D01*
X125353080Y-100788354D01*
X125374534Y-100859077D01*
X125409372Y-100924255D01*
X125474404Y-101021582D01*
X125521288Y-101078711D01*
X125578418Y-101125596D01*
X125675745Y-101190628D01*
X125740924Y-101225467D01*
X125811646Y-101246920D01*
X125926451Y-101269756D01*
X126000000Y-101277000D01*
X128000000Y-101277000D01*
X128073549Y-101269756D01*
X128188354Y-101246920D01*
X128259077Y-101225466D01*
X128324255Y-101190628D01*
X128421582Y-101125596D01*
X128478711Y-101078712D01*
X128525596Y-101021582D01*
X128590628Y-100924255D01*
X128625467Y-100859076D01*
X128646920Y-100788354D01*
X128669756Y-100673549D01*
X128677000Y-100600000D01*
X128677000Y-95961395D01*
X128677962Y-95956557D01*
X128680704Y-95952454D01*
X129978711Y-94654447D01*
X130025596Y-94597318D01*
X130090628Y-94499991D01*
X130125467Y-94434812D01*
X130146920Y-94364090D01*
X130169756Y-94249285D01*
X130177000Y-94175736D01*
X130177000Y-90600000D01*
X130169756Y-90526451D01*
X130146920Y-90411646D01*
X130125466Y-90340923D01*
X130090628Y-90275745D01*
X130025596Y-90178418D01*
X129997397Y-90144057D01*
X129994981Y-90139537D01*
X129947869Y-90082131D01*
X129941617Y-90077000D01*
X130200000Y-90077000D01*
X130273549Y-90069756D01*
X130388354Y-90046920D01*
X130459077Y-90025466D01*
X130524255Y-89990628D01*
X130621582Y-89925596D01*
X130678711Y-89878712D01*
X130725596Y-89821582D01*
X130790628Y-89724255D01*
X130825467Y-89659076D01*
X130846920Y-89588354D01*
X130869756Y-89473549D01*
X130877000Y-89400000D01*
X130877000Y-87327000D01*
X131174800Y-87327000D01*
X131251201Y-87389701D01*
X131342628Y-87438570D01*
X131441832Y-87468663D01*
X131545000Y-87478824D01*
X131845000Y-87478824D01*
X131948168Y-87468663D01*
X132047372Y-87438570D01*
X132138799Y-87389701D01*
X132218935Y-87323935D01*
X132284701Y-87243799D01*
X132330000Y-87159051D01*
X132375299Y-87243799D01*
X132441065Y-87323935D01*
X132521201Y-87389701D01*
X132612628Y-87438570D01*
X132711832Y-87468663D01*
X132815000Y-87478824D01*
X133115000Y-87478824D01*
X133218168Y-87468663D01*
X133317372Y-87438570D01*
X133378490Y-87405902D01*
X133404463Y-87454494D01*
X133483815Y-87551185D01*
X133580506Y-87630537D01*
X133690820Y-87689502D01*
X133810518Y-87725812D01*
X133935000Y-87738072D01*
X133949250Y-87735000D01*
X134108000Y-87576250D01*
X134108000Y-86252000D01*
X134088000Y-86252000D01*
X134088000Y-85998000D01*
X134108000Y-85998000D01*
X134108000Y-85978000D01*
X134362000Y-85978000D01*
X134362000Y-85998000D01*
X134382000Y-85998000D01*
X134382000Y-86252000D01*
X134362000Y-86252000D01*
X134362000Y-87576250D01*
X134520750Y-87735000D01*
X134535000Y-87738072D01*
X134659482Y-87725812D01*
X134779180Y-87689502D01*
X134889494Y-87630537D01*
X134986185Y-87551185D01*
X135065537Y-87454494D01*
X135091510Y-87405902D01*
X135152628Y-87438570D01*
X135251832Y-87468663D01*
X135355000Y-87478824D01*
X135655000Y-87478824D01*
X135758168Y-87468663D01*
X135857372Y-87438570D01*
X135948799Y-87389701D01*
X136028935Y-87323935D01*
X136094701Y-87243799D01*
X136103680Y-87227000D01*
X136427710Y-87227000D01*
X136095671Y-87559040D01*
X136075563Y-87575542D01*
X136030430Y-87630537D01*
X136009706Y-87655789D01*
X135960771Y-87747341D01*
X135930636Y-87846681D01*
X135920461Y-87949990D01*
X135923011Y-87975880D01*
X135923010Y-88922990D01*
X133375887Y-88922990D01*
X133350009Y-88920441D01*
X133324131Y-88922990D01*
X133324129Y-88922990D01*
X133246700Y-88930616D01*
X133147360Y-88960751D01*
X133055808Y-89009686D01*
X132975562Y-89075542D01*
X132959059Y-89095651D01*
X132610661Y-89444049D01*
X132590553Y-89460552D01*
X132558179Y-89500000D01*
X132524696Y-89540799D01*
X132475761Y-89632351D01*
X132445626Y-89731691D01*
X132435451Y-89835000D01*
X132438001Y-89860890D01*
X132438001Y-89879799D01*
X132375299Y-89956201D01*
X132330000Y-90040949D01*
X132284701Y-89956201D01*
X132218935Y-89876065D01*
X132138799Y-89810299D01*
X132047372Y-89761430D01*
X131948168Y-89731337D01*
X131845000Y-89721176D01*
X131545000Y-89721176D01*
X131441832Y-89731337D01*
X131342628Y-89761430D01*
X131251201Y-89810299D01*
X131171065Y-89876065D01*
X131105299Y-89956201D01*
X131056430Y-90047628D01*
X131026337Y-90146832D01*
X131016176Y-90250000D01*
X131016176Y-91900000D01*
X131026337Y-92003168D01*
X131056430Y-92102372D01*
X131105299Y-92193799D01*
X131171065Y-92273935D01*
X131251201Y-92339701D01*
X131342628Y-92388570D01*
X131441832Y-92418663D01*
X131545000Y-92428824D01*
X131845000Y-92428824D01*
X131948168Y-92418663D01*
X132047372Y-92388570D01*
X132138799Y-92339701D01*
X132218935Y-92273935D01*
X132284701Y-92193799D01*
X132330000Y-92109051D01*
X132375299Y-92193799D01*
X132388000Y-92209276D01*
X132388001Y-93436655D01*
X132388000Y-93436665D01*
X132388001Y-97095997D01*
X131692038Y-97791961D01*
X131670026Y-97810026D01*
X131597921Y-97897886D01*
X131544343Y-97998125D01*
X131531110Y-98041750D01*
X131511349Y-98106889D01*
X131508169Y-98139176D01*
X130900000Y-98139176D01*
X130826095Y-98146455D01*
X130755030Y-98168012D01*
X130689537Y-98203019D01*
X130632131Y-98250131D01*
X130585019Y-98307537D01*
X130550012Y-98373030D01*
X130528455Y-98444095D01*
X130521176Y-98518000D01*
X130521176Y-100618000D01*
X130528455Y-100691905D01*
X130550012Y-100762970D01*
X130585019Y-100828463D01*
X130632131Y-100885869D01*
X130689537Y-100932981D01*
X130755030Y-100967988D01*
X130826095Y-100989545D01*
X130900000Y-100996824D01*
X133000000Y-100996824D01*
X133073905Y-100989545D01*
X133144970Y-100967988D01*
X133210463Y-100932981D01*
X133267869Y-100885869D01*
X133314981Y-100828463D01*
X133349988Y-100762970D01*
X133371545Y-100691905D01*
X133378824Y-100618000D01*
X133378824Y-98627000D01*
X135402999Y-98627000D01*
X135736896Y-98960897D01*
X135657838Y-99151759D01*
X135603000Y-99427453D01*
X135603000Y-99708547D01*
X135657838Y-99984241D01*
X135765409Y-100243938D01*
X135921576Y-100477660D01*
X136120340Y-100676424D01*
X136354062Y-100832591D01*
X136613759Y-100940162D01*
X136889453Y-100995000D01*
X137170547Y-100995000D01*
X137446241Y-100940162D01*
X137705938Y-100832591D01*
X137939660Y-100676424D01*
X138138424Y-100477660D01*
X138294591Y-100243938D01*
X138402162Y-99984241D01*
X138457000Y-99708547D01*
X138457000Y-99427453D01*
X138402162Y-99151759D01*
X138294591Y-98892062D01*
X138138424Y-98658340D01*
X137939660Y-98459576D01*
X137705938Y-98303409D01*
X137446241Y-98195838D01*
X137170547Y-98141000D01*
X136889453Y-98141000D01*
X136850334Y-98148781D01*
X134812000Y-95925144D01*
X134812000Y-94042000D01*
X137606669Y-94042000D01*
X137635000Y-94044790D01*
X137663331Y-94042000D01*
X137663336Y-94042000D01*
X137693045Y-94039074D01*
X137748111Y-94033651D01*
X137792770Y-94020103D01*
X137856876Y-94000657D01*
X137957115Y-93947079D01*
X138044974Y-93874974D01*
X138063039Y-93852962D01*
X138787963Y-93128038D01*
X138809974Y-93109974D01*
X138882079Y-93022115D01*
X138935657Y-92921876D01*
X138968650Y-92813112D01*
X138977000Y-92728336D01*
X138977000Y-92728330D01*
X138979790Y-92700001D01*
X138977000Y-92671672D01*
X138977000Y-92403824D01*
X139475000Y-92403824D01*
X139597677Y-92391741D01*
X139715641Y-92355958D01*
X139824356Y-92297848D01*
X139919646Y-92219646D01*
X139997848Y-92124356D01*
X140055958Y-92015641D01*
X140091741Y-91897677D01*
X140103824Y-91775000D01*
X140103824Y-91025000D01*
X140091741Y-90902323D01*
X140055958Y-90784359D01*
X139997848Y-90675644D01*
X139919646Y-90580354D01*
X139906213Y-90569330D01*
X139913111Y-90568651D01*
X139957770Y-90555103D01*
X140021876Y-90535657D01*
X140122115Y-90482079D01*
X140209974Y-90409974D01*
X140228039Y-90387962D01*
X140687962Y-89928039D01*
X140709974Y-89909974D01*
X140782079Y-89822115D01*
X140835657Y-89721876D01*
X140854707Y-89659076D01*
X140868651Y-89613112D01*
X140875772Y-89540799D01*
X140877000Y-89528336D01*
X140877000Y-89528331D01*
X140879790Y-89500000D01*
X140877000Y-89471669D01*
X140877000Y-84128328D01*
X140879790Y-84099999D01*
X140877000Y-84071670D01*
X140877000Y-84071664D01*
X140868650Y-83986888D01*
X140835657Y-83878124D01*
X140782079Y-83777885D01*
X140709974Y-83690026D01*
X140687968Y-83671966D01*
X140128039Y-83112038D01*
X140109974Y-83090026D01*
X140022115Y-83017921D01*
X139921876Y-82964343D01*
X139842663Y-82940314D01*
X139813111Y-82931349D01*
X139758045Y-82925926D01*
X139728336Y-82923000D01*
X139728331Y-82923000D01*
X139700000Y-82920210D01*
X139671669Y-82923000D01*
X137139001Y-82923000D01*
X136815539Y-82599538D01*
X136797474Y-82577526D01*
X136709615Y-82505421D01*
X136609376Y-82451843D01*
X136545270Y-82432397D01*
X136500611Y-82418849D01*
X136445545Y-82413426D01*
X136415836Y-82410500D01*
X136415831Y-82410500D01*
X136387500Y-82407710D01*
X136359169Y-82410500D01*
X136273438Y-82410500D01*
X136329494Y-82380537D01*
X136426185Y-82301185D01*
X136505537Y-82204494D01*
X136564502Y-82094180D01*
X136600812Y-81974482D01*
X136613072Y-81850000D01*
X136610000Y-81698250D01*
X136451250Y-81539500D01*
X135627000Y-81539500D01*
X135627000Y-81559500D01*
X135373000Y-81559500D01*
X135373000Y-81539500D01*
X135353000Y-81539500D01*
X135353000Y-81285500D01*
X135373000Y-81285500D01*
X135373000Y-80498750D01*
X135627000Y-80498750D01*
X135627000Y-81285500D01*
X136451250Y-81285500D01*
X136610000Y-81126750D01*
X136613072Y-80975000D01*
X136600812Y-80850518D01*
X136564502Y-80730820D01*
X136505537Y-80620506D01*
X136426185Y-80523815D01*
X136329494Y-80444463D01*
X136219180Y-80385498D01*
X136099482Y-80349188D01*
X135975000Y-80336928D01*
X135785750Y-80340000D01*
X135627000Y-80498750D01*
X135373000Y-80498750D01*
X135214250Y-80340000D01*
X135027000Y-80336960D01*
X135027000Y-66918289D01*
X135368690Y-66576600D01*
X135497474Y-66550984D01*
X135620680Y-66499950D01*
X135731563Y-66425860D01*
X135825860Y-66331563D01*
X135899950Y-66220680D01*
X135950984Y-66097474D01*
X135977000Y-65966679D01*
X135977000Y-65833321D01*
X135950984Y-65702526D01*
X135899950Y-65579320D01*
X135825860Y-65468437D01*
X135807422Y-65449999D01*
X137421176Y-65449999D01*
X137421176Y-66150001D01*
X137433259Y-66272678D01*
X137469042Y-66390641D01*
X137527152Y-66499356D01*
X137605354Y-66594646D01*
X137700644Y-66672848D01*
X137809359Y-66730958D01*
X137927322Y-66766741D01*
X138049999Y-66778824D01*
X139350001Y-66778824D01*
X139472678Y-66766741D01*
X139590641Y-66730958D01*
X139699356Y-66672848D01*
X139794646Y-66594646D01*
X139872848Y-66499356D01*
X139930958Y-66390641D01*
X139966741Y-66272678D01*
X139978824Y-66150001D01*
X139978824Y-65449999D01*
X139966741Y-65327322D01*
X139930958Y-65209359D01*
X139872848Y-65100644D01*
X139794646Y-65005354D01*
X139699356Y-64927152D01*
X139590641Y-64869042D01*
X139472678Y-64833259D01*
X139350001Y-64821176D01*
X138049999Y-64821176D01*
X137927322Y-64833259D01*
X137809359Y-64869042D01*
X137700644Y-64927152D01*
X137605354Y-65005354D01*
X137527152Y-65100644D01*
X137469042Y-65209359D01*
X137433259Y-65327322D01*
X137421176Y-65449999D01*
X135807422Y-65449999D01*
X135731563Y-65374140D01*
X135620680Y-65300050D01*
X135497474Y-65249016D01*
X135366679Y-65223000D01*
X135233321Y-65223000D01*
X135219551Y-65225739D01*
X135320969Y-65124321D01*
X135347628Y-65138570D01*
X135446832Y-65168663D01*
X135550000Y-65178824D01*
X136800000Y-65178824D01*
X136903168Y-65168663D01*
X137002372Y-65138570D01*
X137093799Y-65089701D01*
X137173935Y-65023935D01*
X137239701Y-64943799D01*
X137288570Y-64852372D01*
X137318663Y-64753168D01*
X137328824Y-64650000D01*
X137328824Y-64350000D01*
X137325231Y-64313519D01*
X137401185Y-64251185D01*
X137480537Y-64154494D01*
X137539502Y-64044180D01*
X137575812Y-63924482D01*
X137588072Y-63800000D01*
X137585000Y-63785750D01*
X137426250Y-63627000D01*
X136302000Y-63627000D01*
X136302000Y-63647000D01*
X136048000Y-63647000D01*
X136048000Y-63627000D01*
X134923750Y-63627000D01*
X134765000Y-63785750D01*
X134761928Y-63800000D01*
X134774188Y-63924482D01*
X134810498Y-64044180D01*
X134845321Y-64109328D01*
X134825552Y-64125552D01*
X134809049Y-64145661D01*
X133645652Y-65309059D01*
X133627000Y-65324366D01*
X133627000Y-61572290D01*
X133909053Y-61854344D01*
X133925552Y-61874448D01*
X134005798Y-61940304D01*
X134097350Y-61989239D01*
X134196690Y-62019374D01*
X134262758Y-62025881D01*
X134300000Y-62029549D01*
X134325881Y-62027000D01*
X135134264Y-62027000D01*
X135110299Y-62056201D01*
X135061430Y-62147628D01*
X135031337Y-62246832D01*
X135021176Y-62350000D01*
X135021176Y-62650000D01*
X135024769Y-62686481D01*
X134948815Y-62748815D01*
X134869463Y-62845506D01*
X134810498Y-62955820D01*
X134774188Y-63075518D01*
X134761928Y-63200000D01*
X134765000Y-63214250D01*
X134923750Y-63373000D01*
X136048000Y-63373000D01*
X136048000Y-63353000D01*
X136302000Y-63353000D01*
X136302000Y-63373000D01*
X137426250Y-63373000D01*
X137585000Y-63214250D01*
X137588072Y-63200000D01*
X137575812Y-63075518D01*
X137543084Y-62967627D01*
X137594202Y-62940304D01*
X137674448Y-62874448D01*
X137690955Y-62854334D01*
X138154344Y-62390947D01*
X138174448Y-62374448D01*
X138240304Y-62294202D01*
X138289239Y-62202650D01*
X138319374Y-62103310D01*
X138327000Y-62025881D01*
X138329549Y-62000000D01*
X138327000Y-61974119D01*
X138327000Y-59525881D01*
X138329549Y-59500000D01*
X138319374Y-59396690D01*
X138289239Y-59297350D01*
X138240304Y-59205798D01*
X138218167Y-59178824D01*
X139350001Y-59178824D01*
X139472678Y-59166741D01*
X139590641Y-59130958D01*
X139699356Y-59072848D01*
X139794646Y-58994646D01*
X139872848Y-58899356D01*
X139930958Y-58790641D01*
X139966741Y-58672678D01*
X139978824Y-58550001D01*
X139978824Y-57849999D01*
X139966741Y-57727322D01*
X139930958Y-57609359D01*
X139872848Y-57500644D01*
X139794646Y-57405354D01*
X139699356Y-57327152D01*
X139590641Y-57269042D01*
X139472678Y-57233259D01*
X139350001Y-57221176D01*
X138049999Y-57221176D01*
X137927322Y-57233259D01*
X137809359Y-57269042D01*
X137700644Y-57327152D01*
X137605354Y-57405354D01*
X137527152Y-57500644D01*
X137469042Y-57609359D01*
X137433259Y-57727322D01*
X137421176Y-57849999D01*
X137421176Y-58518763D01*
X137148079Y-58245666D01*
X137131572Y-58225552D01*
X137051326Y-58159696D01*
X136959774Y-58110761D01*
X136860434Y-58080626D01*
X136783005Y-58073000D01*
X136757124Y-58070451D01*
X136731243Y-58073000D01*
X135318290Y-58073000D01*
X135027000Y-57781711D01*
X135027000Y-55925881D01*
X135029549Y-55900000D01*
X135019374Y-55796690D01*
X135000660Y-55735000D01*
X134989239Y-55697350D01*
X134940304Y-55605798D01*
X134874448Y-55525552D01*
X134854338Y-55509048D01*
X134690955Y-55345666D01*
X134675636Y-55327000D01*
X134970143Y-55327000D01*
X135079320Y-55399950D01*
X135202526Y-55450984D01*
X135333321Y-55477000D01*
X135466679Y-55477000D01*
X135597474Y-55450984D01*
X135720680Y-55399950D01*
X135831563Y-55325860D01*
X135925860Y-55231563D01*
X135999950Y-55120680D01*
X136050984Y-54997474D01*
X136074947Y-54877000D01*
X136166679Y-54877000D01*
X136297474Y-54850984D01*
X136420680Y-54799950D01*
X136531563Y-54725860D01*
X136625860Y-54631563D01*
X136699950Y-54520680D01*
X136750984Y-54397474D01*
X136777000Y-54266679D01*
X136777000Y-54133321D01*
X136750984Y-54002526D01*
X136699950Y-53879320D01*
X136625860Y-53768437D01*
X136531563Y-53674140D01*
X136420680Y-53600050D01*
X136297474Y-53549016D01*
X136166679Y-53523000D01*
X136033321Y-53523000D01*
X135945256Y-53540517D01*
X135917650Y-53525761D01*
X135818310Y-53495626D01*
X135740881Y-53488000D01*
X135715000Y-53485451D01*
X135689119Y-53488000D01*
X132063407Y-53488000D01*
X132089502Y-53439180D01*
X132125812Y-53319482D01*
X132138072Y-53195000D01*
X132135000Y-53030750D01*
X131976250Y-52872000D01*
X130627000Y-52872000D01*
X130627000Y-52892000D01*
X130373000Y-52892000D01*
X130373000Y-52872000D01*
X129023750Y-52872000D01*
X128865000Y-53030750D01*
X128861928Y-53195000D01*
X128874188Y-53319482D01*
X128910498Y-53439180D01*
X128969463Y-53549494D01*
X129048815Y-53646185D01*
X129121176Y-53705570D01*
X129121176Y-54465000D01*
X129128455Y-54538905D01*
X129150012Y-54609970D01*
X129171409Y-54650000D01*
X129150012Y-54690030D01*
X129128455Y-54761095D01*
X129121176Y-54835000D01*
X129121176Y-55735000D01*
X129128455Y-55808905D01*
X129150012Y-55879970D01*
X129171409Y-55920000D01*
X129150012Y-55960030D01*
X129128455Y-56031095D01*
X129121176Y-56105000D01*
X129121176Y-56230564D01*
X129099950Y-56179320D01*
X129025860Y-56068437D01*
X128931563Y-55974140D01*
X128820680Y-55900050D01*
X128697474Y-55849016D01*
X128568690Y-55823400D01*
X127675955Y-54930666D01*
X127659448Y-54910552D01*
X127579202Y-54844696D01*
X127487650Y-54795761D01*
X127388310Y-54765626D01*
X127310881Y-54758000D01*
X127285000Y-54755451D01*
X127259119Y-54758000D01*
X114870606Y-54758000D01*
X114849988Y-54690030D01*
X114828591Y-54650000D01*
X114849988Y-54609970D01*
X114871545Y-54538905D01*
X114878824Y-54465000D01*
X114878824Y-53705570D01*
X114951185Y-53646185D01*
X115030537Y-53549494D01*
X115089502Y-53439180D01*
X115125812Y-53319482D01*
X115138072Y-53195000D01*
X115135000Y-53030750D01*
X114976250Y-52872000D01*
X113627000Y-52872000D01*
X113627000Y-52892000D01*
X113373000Y-52892000D01*
X113373000Y-52872000D01*
X112023750Y-52872000D01*
X111865000Y-53030750D01*
X111861928Y-53195000D01*
X111864891Y-53225089D01*
X111757908Y-53282273D01*
X111734693Y-53301325D01*
X111658695Y-53363695D01*
X111624367Y-53391867D01*
X111596908Y-53425327D01*
X111111735Y-53910500D01*
X111043079Y-53910500D01*
X111000000Y-53906257D01*
X110828077Y-53923190D01*
X110669890Y-53971176D01*
X110662763Y-53973338D01*
X110649428Y-53980466D01*
X110627169Y-53982658D01*
X110515068Y-54016664D01*
X110411756Y-54071885D01*
X110321201Y-54146201D01*
X110246885Y-54236756D01*
X110191664Y-54340068D01*
X110184914Y-54362320D01*
X109401059Y-55146176D01*
X108375000Y-55146176D01*
X108252323Y-55158259D01*
X108134359Y-55194042D01*
X108025644Y-55252152D01*
X107930354Y-55330354D01*
X107852152Y-55425644D01*
X107794042Y-55534359D01*
X107758259Y-55652323D01*
X107756222Y-55673000D01*
X107102628Y-55673000D01*
X107081210Y-55640945D01*
X106959055Y-55518790D01*
X106815415Y-55422813D01*
X106655811Y-55356703D01*
X106486377Y-55323000D01*
X106313623Y-55323000D01*
X106144189Y-55356703D01*
X105984585Y-55422813D01*
X105840945Y-55518790D01*
X105718790Y-55640945D01*
X105622813Y-55784585D01*
X105556703Y-55944189D01*
X105523000Y-56113623D01*
X105523000Y-56286377D01*
X105556703Y-56455811D01*
X105622813Y-56615415D01*
X105718790Y-56759055D01*
X105840945Y-56881210D01*
X105984585Y-56977187D01*
X106144189Y-57043297D01*
X106313623Y-57077000D01*
X106486377Y-57077000D01*
X106655811Y-57043297D01*
X106815415Y-56977187D01*
X106959055Y-56881210D01*
X107081210Y-56759055D01*
X107102628Y-56727000D01*
X107182735Y-56727000D01*
X106160327Y-57749408D01*
X106126868Y-57776867D01*
X106099409Y-57810326D01*
X106099406Y-57810329D01*
X106017274Y-57910408D01*
X105935838Y-58062764D01*
X105885690Y-58228078D01*
X105868757Y-58400000D01*
X105873001Y-58443089D01*
X105873000Y-59793078D01*
X105873001Y-59793088D01*
X105873000Y-67206920D01*
X105868757Y-67250000D01*
X105885690Y-67421922D01*
X105903302Y-67479981D01*
X105935838Y-67587236D01*
X106017273Y-67739591D01*
X106126867Y-67873133D01*
X106160332Y-67900597D01*
X109396176Y-71136441D01*
X109396176Y-72125000D01*
X109408259Y-72247677D01*
X109444042Y-72365641D01*
X109447976Y-72373000D01*
X108300000Y-72373000D01*
X108226451Y-72380244D01*
X108111646Y-72403080D01*
X108040923Y-72424534D01*
X107975745Y-72459372D01*
X107878418Y-72524404D01*
X107821289Y-72571288D01*
X107774404Y-72628418D01*
X107709372Y-72725745D01*
X107674533Y-72790924D01*
X107653080Y-72861646D01*
X107630930Y-72973000D01*
X106785850Y-72973000D01*
X106753115Y-72911756D01*
X106678799Y-72821201D01*
X106588244Y-72746885D01*
X106484932Y-72691664D01*
X106372831Y-72657658D01*
X106256250Y-72646176D01*
X105818750Y-72646176D01*
X105702169Y-72657658D01*
X105590068Y-72691664D01*
X105486756Y-72746885D01*
X105396201Y-72821201D01*
X105321885Y-72911756D01*
X105266664Y-73015068D01*
X105250000Y-73070001D01*
X105233336Y-73015068D01*
X105178115Y-72911756D01*
X105103799Y-72821201D01*
X105013244Y-72746885D01*
X104909932Y-72691664D01*
X104797831Y-72657658D01*
X104681250Y-72646176D01*
X104243750Y-72646176D01*
X104127169Y-72657658D01*
X104015068Y-72691664D01*
X103911756Y-72746885D01*
X103821201Y-72821201D01*
X103746885Y-72911756D01*
X103691664Y-73015068D01*
X103657658Y-73127169D01*
X103646176Y-73243750D01*
X103646176Y-73608535D01*
X103320652Y-73934059D01*
X103300543Y-73950562D01*
X103244071Y-74019374D01*
X103234686Y-74030809D01*
X103185751Y-74122361D01*
X103155616Y-74221701D01*
X103145441Y-74325010D01*
X102402000Y-74325010D01*
X102402000Y-54019658D01*
X102445751Y-53573451D01*
X102569630Y-53163142D01*
X102770845Y-52784713D01*
X103041733Y-52452571D01*
X103371971Y-52179374D01*
X103748988Y-51975522D01*
X104158418Y-51848782D01*
X104603519Y-51802000D01*
X112099767Y-51802000D01*
X112048815Y-51843815D01*
G04 #@! TA.AperFunction,Conductor*
D30*
G36*
X112048815Y-51843815D02*
G01*
X111969463Y-51940506D01*
X111910498Y-52050820D01*
X111874188Y-52170518D01*
X111861928Y-52295000D01*
X111865000Y-52459250D01*
X112023750Y-52618000D01*
X113373000Y-52618000D01*
X113373000Y-52598000D01*
X113627000Y-52598000D01*
X113627000Y-52618000D01*
X114976250Y-52618000D01*
X115135000Y-52459250D01*
X115138072Y-52295000D01*
X115125812Y-52170518D01*
X115089502Y-52050820D01*
X115030537Y-51940506D01*
X114951185Y-51843815D01*
X114900233Y-51802000D01*
X129099767Y-51802000D01*
X129048815Y-51843815D01*
X128969463Y-51940506D01*
X128910498Y-52050820D01*
X128874188Y-52170518D01*
X128861928Y-52295000D01*
X128865000Y-52459250D01*
X129023750Y-52618000D01*
X130373000Y-52618000D01*
X130373000Y-52598000D01*
X130627000Y-52598000D01*
X130627000Y-52618000D01*
X131976250Y-52618000D01*
X132135000Y-52459250D01*
X132138072Y-52295000D01*
X132125812Y-52170518D01*
X132089502Y-52050820D01*
X132030537Y-51940506D01*
X131951185Y-51843815D01*
X131900233Y-51802000D01*
X139380342Y-51802000D01*
X139826549Y-51845751D01*
X140236858Y-51969630D01*
X140615287Y-52170845D01*
X140947429Y-52441733D01*
X141220626Y-52771971D01*
X141424478Y-53148988D01*
X141551218Y-53558418D01*
X141598001Y-54003528D01*
X141598000Y-102380342D01*
X141554249Y-102826549D01*
X141430370Y-103236858D01*
X141229155Y-103615287D01*
X140958267Y-103947429D01*
X140628027Y-104220627D01*
X140251012Y-104424478D01*
X139841582Y-104551218D01*
X139396482Y-104598000D01*
X104619658Y-104598000D01*
X104173451Y-104554249D01*
X103763142Y-104430370D01*
X103384713Y-104229155D01*
X103052571Y-103958267D01*
X102779373Y-103628027D01*
X102575522Y-103251012D01*
X102448782Y-102841582D01*
X102402000Y-102396482D01*
X102402000Y-100618000D01*
X104991928Y-100618000D01*
X105004188Y-100742482D01*
X105040498Y-100862180D01*
X105099463Y-100972494D01*
X105178815Y-101069185D01*
X105275506Y-101148537D01*
X105385820Y-101207502D01*
X105505518Y-101243812D01*
X105630000Y-101256072D01*
X106248250Y-101253000D01*
X106407000Y-101094250D01*
X106407000Y-99841000D01*
X106953000Y-99841000D01*
X106953000Y-101094250D01*
X107111750Y-101253000D01*
X107730000Y-101256072D01*
X107854482Y-101243812D01*
X107974180Y-101207502D01*
X108084494Y-101148537D01*
X108181185Y-101069185D01*
X108260537Y-100972494D01*
X108319502Y-100862180D01*
X108355812Y-100742482D01*
X108368072Y-100618000D01*
X108365000Y-99999750D01*
X108206250Y-99841000D01*
X106953000Y-99841000D01*
X106407000Y-99841000D01*
X105153750Y-99841000D01*
X104995000Y-99999750D01*
X104991928Y-100618000D01*
X102402000Y-100618000D01*
X102402000Y-98518000D01*
X104991928Y-98518000D01*
X104995000Y-99136250D01*
X105153750Y-99295000D01*
X106407000Y-99295000D01*
X106407000Y-98041750D01*
X106953000Y-98041750D01*
X106953000Y-99295000D01*
X108206250Y-99295000D01*
X108365000Y-99136250D01*
X108368072Y-98518000D01*
X108355812Y-98393518D01*
X108319502Y-98273820D01*
X108260537Y-98163506D01*
X108181185Y-98066815D01*
X108084494Y-97987463D01*
X107974180Y-97928498D01*
X107854482Y-97892188D01*
X107730000Y-97879928D01*
X107111750Y-97883000D01*
X106953000Y-98041750D01*
X106407000Y-98041750D01*
X106248250Y-97883000D01*
X105630000Y-97879928D01*
X105505518Y-97892188D01*
X105385820Y-97928498D01*
X105275506Y-97987463D01*
X105178815Y-98066815D01*
X105099463Y-98163506D01*
X105040498Y-98273820D01*
X105004188Y-98393518D01*
X104991928Y-98518000D01*
X102402000Y-98518000D01*
X102402000Y-74325010D01*
X103145441Y-74325010D01*
X103147991Y-74350901D01*
X103147990Y-77249109D01*
X103145441Y-77274990D01*
X103149461Y-77315809D01*
X103155616Y-77378299D01*
X103185751Y-77477639D01*
X103234686Y-77569192D01*
X103300542Y-77649438D01*
X103320656Y-77665945D01*
X103346176Y-77691465D01*
X103346176Y-78680000D01*
X103353455Y-78753905D01*
X103375012Y-78824970D01*
X103410019Y-78890463D01*
X103457131Y-78947869D01*
X103514537Y-78994981D01*
X103580030Y-79029988D01*
X103651095Y-79051545D01*
X103725000Y-79058824D01*
X104375000Y-79058824D01*
X104448905Y-79051545D01*
X104519970Y-79029988D01*
X104585463Y-78994981D01*
X104642869Y-78947869D01*
X104689981Y-78890463D01*
X104724988Y-78824970D01*
X104746545Y-78753905D01*
X104753824Y-78680000D01*
X104753824Y-77620000D01*
X104746545Y-77546095D01*
X104724988Y-77475030D01*
X104689981Y-77409537D01*
X104644258Y-77353824D01*
X104700000Y-77353824D01*
X104817800Y-77342222D01*
X104830032Y-77338512D01*
X105246176Y-77754656D01*
X105246176Y-78680000D01*
X105253455Y-78753905D01*
X105275012Y-78824970D01*
X105310019Y-78890463D01*
X105357131Y-78947869D01*
X105414537Y-78994981D01*
X105480030Y-79029988D01*
X105551095Y-79051545D01*
X105625000Y-79058824D01*
X106223000Y-79058824D01*
X106223000Y-79323000D01*
X105500000Y-79323000D01*
X105426451Y-79330244D01*
X105355728Y-79351697D01*
X105290550Y-79386536D01*
X105233421Y-79433421D01*
X105227057Y-79441176D01*
X104675000Y-79441176D01*
X104601095Y-79448455D01*
X104530030Y-79470012D01*
X104525000Y-79472701D01*
X104519970Y-79470012D01*
X104448905Y-79448455D01*
X104375000Y-79441176D01*
X103725000Y-79441176D01*
X103651095Y-79448455D01*
X103580030Y-79470012D01*
X103514537Y-79505019D01*
X103457131Y-79552131D01*
X103410019Y-79609537D01*
X103375012Y-79675030D01*
X103353455Y-79746095D01*
X103346176Y-79820000D01*
X103346176Y-80880000D01*
X103353455Y-80953905D01*
X103375012Y-81024970D01*
X103410019Y-81090463D01*
X103457131Y-81147869D01*
X103514537Y-81194981D01*
X103580030Y-81229988D01*
X103651095Y-81251545D01*
X103725000Y-81258824D01*
X104223000Y-81258824D01*
X104223000Y-81663962D01*
X104140945Y-81718790D01*
X104018790Y-81840945D01*
X103922813Y-81984585D01*
X103856703Y-82144189D01*
X103823000Y-82313623D01*
X103823000Y-82486377D01*
X103856703Y-82655811D01*
X103922813Y-82815415D01*
X104018790Y-82959055D01*
X104140945Y-83081210D01*
X104223001Y-83136038D01*
X104223001Y-83571176D01*
X103949999Y-83571176D01*
X103827322Y-83583259D01*
X103709359Y-83619042D01*
X103600644Y-83677152D01*
X103505354Y-83755354D01*
X103427152Y-83850644D01*
X103369042Y-83959359D01*
X103333259Y-84077322D01*
X103321176Y-84199999D01*
X103321176Y-84850001D01*
X103333259Y-84972678D01*
X103369042Y-85090641D01*
X103427152Y-85199356D01*
X103505354Y-85294646D01*
X103600644Y-85372848D01*
X103709359Y-85430958D01*
X103827322Y-85466741D01*
X103949999Y-85478824D01*
X104454980Y-85478824D01*
X104598590Y-85622434D01*
X104622920Y-85652080D01*
X104652564Y-85676408D01*
X104652565Y-85676409D01*
X104741233Y-85749177D01*
X104799442Y-85780290D01*
X104876216Y-85821327D01*
X105022681Y-85865757D01*
X105136834Y-85877000D01*
X105136836Y-85877000D01*
X105175000Y-85880759D01*
X105213163Y-85877000D01*
X106721176Y-85877000D01*
X106721176Y-88250003D01*
X106733259Y-88372680D01*
X106769042Y-88490642D01*
X106827151Y-88599357D01*
X106905353Y-88694647D01*
X107000643Y-88772849D01*
X107109358Y-88830958D01*
X107227320Y-88866741D01*
X107349997Y-88878824D01*
X107975003Y-88878824D01*
X108097680Y-88866741D01*
X108215642Y-88830958D01*
X108324357Y-88772849D01*
X108419647Y-88694647D01*
X108497849Y-88599357D01*
X108555958Y-88490642D01*
X108591741Y-88372680D01*
X108603824Y-88250003D01*
X108603824Y-85349997D01*
X108591741Y-85227320D01*
X108555958Y-85109358D01*
X108497849Y-85000643D01*
X108419647Y-84905353D01*
X108324357Y-84827151D01*
X108215642Y-84769042D01*
X108097680Y-84733259D01*
X107975003Y-84721176D01*
X107920019Y-84721176D01*
X107875843Y-84677000D01*
X109200000Y-84677000D01*
X109273549Y-84669756D01*
X109344272Y-84648303D01*
X109409450Y-84613464D01*
X109466579Y-84566579D01*
X109513464Y-84509450D01*
X109548303Y-84444272D01*
X109569756Y-84373549D01*
X109577000Y-84300000D01*
X109577000Y-82097690D01*
X109921828Y-81477000D01*
X113473001Y-81477000D01*
X113473000Y-92281710D01*
X110946784Y-94807927D01*
X109277000Y-92382765D01*
X109277000Y-89400000D01*
X109269756Y-89326451D01*
X109248303Y-89255728D01*
X109218516Y-89200000D01*
X109823000Y-89200000D01*
X109823000Y-91700000D01*
X109830244Y-91773549D01*
X109851697Y-91844272D01*
X109886536Y-91909450D01*
X109933421Y-91966579D01*
X109990550Y-92013464D01*
X110055728Y-92048303D01*
X110126451Y-92069756D01*
X110200000Y-92077000D01*
X113000000Y-92077000D01*
X113073549Y-92069756D01*
X113144272Y-92048303D01*
X113209450Y-92013464D01*
X113266579Y-91966579D01*
X113313464Y-91909450D01*
X113348303Y-91844272D01*
X113369756Y-91773549D01*
X113377000Y-91700000D01*
X113377000Y-84900000D01*
X113369756Y-84826451D01*
X113348303Y-84755728D01*
X113313464Y-84690550D01*
X113266579Y-84633421D01*
X113209450Y-84586536D01*
X113144272Y-84551697D01*
X113073549Y-84530244D01*
X113000000Y-84523000D01*
X111100000Y-84523000D01*
X111026451Y-84530244D01*
X110955728Y-84551697D01*
X110890550Y-84586536D01*
X110833421Y-84633421D01*
X110786536Y-84690550D01*
X110751697Y-84755728D01*
X110730244Y-84826451D01*
X110723000Y-84900000D01*
X110723000Y-88478172D01*
X110016913Y-88870443D01*
X109933421Y-88933421D01*
X109886536Y-88990550D01*
X109851697Y-89055728D01*
X109830244Y-89126451D01*
X109823000Y-89200000D01*
X109218516Y-89200000D01*
X109213464Y-89190550D01*
X109166579Y-89133421D01*
X109109450Y-89086536D01*
X109044272Y-89051697D01*
X108973549Y-89030244D01*
X108900000Y-89023000D01*
X106200000Y-89023000D01*
X106126451Y-89030244D01*
X106055728Y-89051697D01*
X105990550Y-89086536D01*
X105933421Y-89133421D01*
X105886536Y-89190550D01*
X105851697Y-89255728D01*
X105830244Y-89326451D01*
X105823000Y-89400000D01*
X105823000Y-93500000D01*
X105833548Y-93588553D01*
X105857865Y-93658343D01*
X105895330Y-93722048D01*
X110123000Y-99522805D01*
X110123000Y-101100000D01*
X110130244Y-101173549D01*
X110151697Y-101244272D01*
X110186536Y-101309450D01*
X110233421Y-101366579D01*
X110290550Y-101413464D01*
X110355728Y-101448303D01*
X110426451Y-101469756D01*
X110500000Y-101477000D01*
X113100000Y-101477000D01*
X113173549Y-101469756D01*
X113244272Y-101448303D01*
X113309450Y-101413464D01*
X113366579Y-101366579D01*
X113413464Y-101309450D01*
X113448303Y-101244272D01*
X113469756Y-101173549D01*
X113477000Y-101100000D01*
X113477000Y-98600000D01*
X113468695Y-98521306D01*
X113446259Y-98450889D01*
X113410515Y-98386203D01*
X111554592Y-95690697D01*
X114354339Y-92890951D01*
X114374448Y-92874448D01*
X114440304Y-92794202D01*
X114489239Y-92702650D01*
X114519374Y-92603310D01*
X114527000Y-92525881D01*
X114527000Y-92525880D01*
X114529549Y-92500001D01*
X114527000Y-92474120D01*
X114527000Y-90077000D01*
X115948383Y-90077000D01*
X115942131Y-90082131D01*
X115895019Y-90139537D01*
X115860012Y-90205030D01*
X115838455Y-90276095D01*
X115831176Y-90350000D01*
X115831176Y-92550000D01*
X115838455Y-92623905D01*
X115860012Y-92694970D01*
X115895019Y-92760463D01*
X115930396Y-92803569D01*
X115911431Y-92831952D01*
X115852859Y-92973357D01*
X115823000Y-93123472D01*
X115823000Y-93276528D01*
X115852859Y-93426643D01*
X115911431Y-93568048D01*
X115996464Y-93695309D01*
X116104691Y-93803536D01*
X116231952Y-93888569D01*
X116373357Y-93947141D01*
X116523472Y-93977000D01*
X116676528Y-93977000D01*
X116826643Y-93947141D01*
X116968048Y-93888569D01*
X117095309Y-93803536D01*
X117203536Y-93695309D01*
X117288569Y-93568048D01*
X117347141Y-93426643D01*
X117377000Y-93276528D01*
X117377000Y-93123472D01*
X117347141Y-92973357D01*
X117288569Y-92831952D01*
X117278580Y-92817003D01*
X117324981Y-92760463D01*
X117359988Y-92694970D01*
X117381545Y-92623905D01*
X117388824Y-92550000D01*
X117388824Y-90350000D01*
X117381545Y-90276095D01*
X117359988Y-90205030D01*
X117324981Y-90139537D01*
X117277869Y-90082131D01*
X117271617Y-90077000D01*
X118228383Y-90077000D01*
X118222131Y-90082131D01*
X118175019Y-90139537D01*
X118140012Y-90205030D01*
X118118455Y-90276095D01*
X118111176Y-90350000D01*
X118111176Y-92550000D01*
X118118455Y-92623905D01*
X118140012Y-92694970D01*
X118175019Y-92760463D01*
X118222131Y-92817869D01*
X118279537Y-92864981D01*
X118345030Y-92899988D01*
X118416095Y-92921545D01*
X118490000Y-92928824D01*
X119223000Y-92928824D01*
X119223000Y-93035771D01*
X119222018Y-93040625D01*
X119219228Y-93044716D01*
X115427386Y-96741762D01*
X115379108Y-96799278D01*
X115312106Y-96897522D01*
X115275724Y-96964565D01*
X115254046Y-97035220D01*
X115230478Y-97151776D01*
X115223000Y-97226494D01*
X115223000Y-100500000D01*
X115230244Y-100573549D01*
X115253080Y-100688354D01*
X115274534Y-100759077D01*
X115309372Y-100824255D01*
X115374404Y-100921582D01*
X115421288Y-100978711D01*
X115478418Y-101025596D01*
X115575745Y-101090628D01*
X115640924Y-101125467D01*
X115711646Y-101146920D01*
X115826451Y-101169756D01*
X115900000Y-101177000D01*
X117700000Y-101177000D01*
X117773549Y-101169756D01*
X117888354Y-101146920D01*
X117959077Y-101125466D01*
X118024255Y-101090628D01*
X118121582Y-101025596D01*
X118178711Y-100978712D01*
X118225596Y-100921582D01*
X118290628Y-100824255D01*
X118325467Y-100759076D01*
X118346920Y-100688354D01*
X118369756Y-100573549D01*
X118377000Y-100500000D01*
X118377000Y-97161395D01*
X118377962Y-97156557D01*
X118380704Y-97152454D01*
X120170265Y-95362893D01*
X120125645Y-100494113D01*
X120132326Y-100568124D01*
X120154408Y-100683728D01*
X120175632Y-100755373D01*
X120210116Y-100820739D01*
X120274971Y-100918952D01*
X120322121Y-100976916D01*
X120379097Y-101023987D01*
X120476742Y-101089693D01*
X120542564Y-101125060D01*
X120613263Y-101146590D01*
X120728670Y-101169676D01*
X120802620Y-101177000D01*
X123400000Y-101177000D01*
X123473549Y-101169756D01*
X123588354Y-101146920D01*
X123659077Y-101125466D01*
X123724255Y-101090628D01*
X123821582Y-101025596D01*
X123878711Y-100978712D01*
X123925596Y-100921582D01*
X123990628Y-100824255D01*
X124025467Y-100759076D01*
X124046920Y-100688354D01*
X124069756Y-100573549D01*
X124077000Y-100500000D01*
X124077000Y-90077000D01*
X125198383Y-90077000D01*
X125192131Y-90082131D01*
X125145019Y-90139537D01*
X125110012Y-90205030D01*
X125088455Y-90276095D01*
X125081176Y-90350000D01*
X125081176Y-92550000D01*
X125088455Y-92623905D01*
X125110012Y-92694970D01*
X125145019Y-92760463D01*
X125192131Y-92817869D01*
X125249537Y-92864981D01*
X125254431Y-92867597D01*
X125211431Y-92931952D01*
X125152859Y-93073357D01*
X125123000Y-93223472D01*
X125123000Y-93376528D01*
X125152859Y-93526643D01*
X125211431Y-93668048D01*
X125296464Y-93795309D01*
X125404691Y-93903536D01*
X125531952Y-93988569D01*
X125673357Y-94047141D01*
X125823472Y-94077000D01*
X125976528Y-94077000D01*
X126126643Y-94047141D01*
X126268048Y-93988569D01*
X126395309Y-93903536D01*
X126503536Y-93795309D01*
X126588569Y-93668048D01*
X126647141Y-93526643D01*
X126677000Y-93376528D01*
X126677000Y-93223472D01*
X126647141Y-93073357D01*
X126588569Y-92931952D01*
X126517840Y-92826099D01*
X126527869Y-92817869D01*
X126574981Y-92760463D01*
X126609988Y-92694970D01*
X126631545Y-92623905D01*
X126638824Y-92550000D01*
X126638824Y-90350000D01*
X126631545Y-90276095D01*
X126609988Y-90205030D01*
X126574981Y-90139537D01*
X126527869Y-90082131D01*
X126521617Y-90077000D01*
X127478383Y-90077000D01*
X127472131Y-90082131D01*
X127425019Y-90139537D01*
X127390012Y-90205030D01*
X127368455Y-90276095D01*
X127361176Y-90350000D01*
X127361176Y-92550000D01*
X127368455Y-92623905D01*
X127390012Y-92694970D01*
X127425019Y-92760463D01*
X127472131Y-92817869D01*
X127529537Y-92864981D01*
X127595030Y-92899988D01*
X127666095Y-92921545D01*
X127740000Y-92928824D01*
X128423000Y-92928824D01*
X128423000Y-92938605D01*
X128422038Y-92943443D01*
X128419296Y-92947546D01*
X125521289Y-95845553D01*
X125474404Y-95902682D01*
X125409372Y-96000009D01*
X125374533Y-96065188D01*
X125353080Y-96135910D01*
X125330244Y-96250715D01*
X125323000Y-96324264D01*
X125323000Y-100600000D01*
X125330244Y-100673549D01*
X125353080Y-100788354D01*
X125374534Y-100859077D01*
X125409372Y-100924255D01*
X125474404Y-101021582D01*
X125521288Y-101078711D01*
X125578418Y-101125596D01*
X125675745Y-101190628D01*
X125740924Y-101225467D01*
X125811646Y-101246920D01*
X125926451Y-101269756D01*
X126000000Y-101277000D01*
X128000000Y-101277000D01*
X128073549Y-101269756D01*
X128188354Y-101246920D01*
X128259077Y-101225466D01*
X128324255Y-101190628D01*
X128421582Y-101125596D01*
X128478711Y-101078712D01*
X128525596Y-101021582D01*
X128590628Y-100924255D01*
X128625467Y-100859076D01*
X128646920Y-100788354D01*
X128669756Y-100673549D01*
X128677000Y-100600000D01*
X128677000Y-95961395D01*
X128677962Y-95956557D01*
X128680704Y-95952454D01*
X129978711Y-94654447D01*
X130025596Y-94597318D01*
X130090628Y-94499991D01*
X130125467Y-94434812D01*
X130146920Y-94364090D01*
X130169756Y-94249285D01*
X130177000Y-94175736D01*
X130177000Y-90600000D01*
X130169756Y-90526451D01*
X130146920Y-90411646D01*
X130125466Y-90340923D01*
X130090628Y-90275745D01*
X130025596Y-90178418D01*
X129997397Y-90144057D01*
X129994981Y-90139537D01*
X129947869Y-90082131D01*
X129941617Y-90077000D01*
X130200000Y-90077000D01*
X130273549Y-90069756D01*
X130388354Y-90046920D01*
X130459077Y-90025466D01*
X130524255Y-89990628D01*
X130621582Y-89925596D01*
X130678711Y-89878712D01*
X130725596Y-89821582D01*
X130790628Y-89724255D01*
X130825467Y-89659076D01*
X130846920Y-89588354D01*
X130869756Y-89473549D01*
X130877000Y-89400000D01*
X130877000Y-87327000D01*
X131174800Y-87327000D01*
X131251201Y-87389701D01*
X131342628Y-87438570D01*
X131441832Y-87468663D01*
X131545000Y-87478824D01*
X131845000Y-87478824D01*
X131948168Y-87468663D01*
X132047372Y-87438570D01*
X132138799Y-87389701D01*
X132218935Y-87323935D01*
X132284701Y-87243799D01*
X132330000Y-87159051D01*
X132375299Y-87243799D01*
X132441065Y-87323935D01*
X132521201Y-87389701D01*
X132612628Y-87438570D01*
X132711832Y-87468663D01*
X132815000Y-87478824D01*
X133115000Y-87478824D01*
X133218168Y-87468663D01*
X133317372Y-87438570D01*
X133378490Y-87405902D01*
X133404463Y-87454494D01*
X133483815Y-87551185D01*
X133580506Y-87630537D01*
X133690820Y-87689502D01*
X133810518Y-87725812D01*
X133935000Y-87738072D01*
X133949250Y-87735000D01*
X134108000Y-87576250D01*
X134108000Y-86252000D01*
X134088000Y-86252000D01*
X134088000Y-85998000D01*
X134108000Y-85998000D01*
X134108000Y-85978000D01*
X134362000Y-85978000D01*
X134362000Y-85998000D01*
X134382000Y-85998000D01*
X134382000Y-86252000D01*
X134362000Y-86252000D01*
X134362000Y-87576250D01*
X134520750Y-87735000D01*
X134535000Y-87738072D01*
X134659482Y-87725812D01*
X134779180Y-87689502D01*
X134889494Y-87630537D01*
X134986185Y-87551185D01*
X135065537Y-87454494D01*
X135091510Y-87405902D01*
X135152628Y-87438570D01*
X135251832Y-87468663D01*
X135355000Y-87478824D01*
X135655000Y-87478824D01*
X135758168Y-87468663D01*
X135857372Y-87438570D01*
X135948799Y-87389701D01*
X136028935Y-87323935D01*
X136094701Y-87243799D01*
X136103680Y-87227000D01*
X136427710Y-87227000D01*
X136095671Y-87559040D01*
X136075563Y-87575542D01*
X136030430Y-87630537D01*
X136009706Y-87655789D01*
X135960771Y-87747341D01*
X135930636Y-87846681D01*
X135920461Y-87949990D01*
X135923011Y-87975880D01*
X135923010Y-88922990D01*
X133375887Y-88922990D01*
X133350009Y-88920441D01*
X133324131Y-88922990D01*
X133324129Y-88922990D01*
X133246700Y-88930616D01*
X133147360Y-88960751D01*
X133055808Y-89009686D01*
X132975562Y-89075542D01*
X132959059Y-89095651D01*
X132610661Y-89444049D01*
X132590553Y-89460552D01*
X132558179Y-89500000D01*
X132524696Y-89540799D01*
X132475761Y-89632351D01*
X132445626Y-89731691D01*
X132435451Y-89835000D01*
X132438001Y-89860890D01*
X132438001Y-89879799D01*
X132375299Y-89956201D01*
X132330000Y-90040949D01*
X132284701Y-89956201D01*
X132218935Y-89876065D01*
X132138799Y-89810299D01*
X132047372Y-89761430D01*
X131948168Y-89731337D01*
X131845000Y-89721176D01*
X131545000Y-89721176D01*
X131441832Y-89731337D01*
X131342628Y-89761430D01*
X131251201Y-89810299D01*
X131171065Y-89876065D01*
X131105299Y-89956201D01*
X131056430Y-90047628D01*
X131026337Y-90146832D01*
X131016176Y-90250000D01*
X131016176Y-91900000D01*
X131026337Y-92003168D01*
X131056430Y-92102372D01*
X131105299Y-92193799D01*
X131171065Y-92273935D01*
X131251201Y-92339701D01*
X131342628Y-92388570D01*
X131441832Y-92418663D01*
X131545000Y-92428824D01*
X131845000Y-92428824D01*
X131948168Y-92418663D01*
X132047372Y-92388570D01*
X132138799Y-92339701D01*
X132218935Y-92273935D01*
X132284701Y-92193799D01*
X132330000Y-92109051D01*
X132375299Y-92193799D01*
X132388000Y-92209276D01*
X132388001Y-93436655D01*
X132388000Y-93436665D01*
X132388001Y-97095997D01*
X131692038Y-97791961D01*
X131670026Y-97810026D01*
X131597921Y-97897886D01*
X131544343Y-97998125D01*
X131531110Y-98041750D01*
X131511349Y-98106889D01*
X131508169Y-98139176D01*
X130900000Y-98139176D01*
X130826095Y-98146455D01*
X130755030Y-98168012D01*
X130689537Y-98203019D01*
X130632131Y-98250131D01*
X130585019Y-98307537D01*
X130550012Y-98373030D01*
X130528455Y-98444095D01*
X130521176Y-98518000D01*
X130521176Y-100618000D01*
X130528455Y-100691905D01*
X130550012Y-100762970D01*
X130585019Y-100828463D01*
X130632131Y-100885869D01*
X130689537Y-100932981D01*
X130755030Y-100967988D01*
X130826095Y-100989545D01*
X130900000Y-100996824D01*
X133000000Y-100996824D01*
X133073905Y-100989545D01*
X133144970Y-100967988D01*
X133210463Y-100932981D01*
X133267869Y-100885869D01*
X133314981Y-100828463D01*
X133349988Y-100762970D01*
X133371545Y-100691905D01*
X133378824Y-100618000D01*
X133378824Y-98627000D01*
X135402999Y-98627000D01*
X135736896Y-98960897D01*
X135657838Y-99151759D01*
X135603000Y-99427453D01*
X135603000Y-99708547D01*
X135657838Y-99984241D01*
X135765409Y-100243938D01*
X135921576Y-100477660D01*
X136120340Y-100676424D01*
X136354062Y-100832591D01*
X136613759Y-100940162D01*
X136889453Y-100995000D01*
X137170547Y-100995000D01*
X137446241Y-100940162D01*
X137705938Y-100832591D01*
X137939660Y-100676424D01*
X138138424Y-100477660D01*
X138294591Y-100243938D01*
X138402162Y-99984241D01*
X138457000Y-99708547D01*
X138457000Y-99427453D01*
X138402162Y-99151759D01*
X138294591Y-98892062D01*
X138138424Y-98658340D01*
X137939660Y-98459576D01*
X137705938Y-98303409D01*
X137446241Y-98195838D01*
X137170547Y-98141000D01*
X136889453Y-98141000D01*
X136850334Y-98148781D01*
X134812000Y-95925144D01*
X134812000Y-94042000D01*
X137606669Y-94042000D01*
X137635000Y-94044790D01*
X137663331Y-94042000D01*
X137663336Y-94042000D01*
X137693045Y-94039074D01*
X137748111Y-94033651D01*
X137792770Y-94020103D01*
X137856876Y-94000657D01*
X137957115Y-93947079D01*
X138044974Y-93874974D01*
X138063039Y-93852962D01*
X138787963Y-93128038D01*
X138809974Y-93109974D01*
X138882079Y-93022115D01*
X138935657Y-92921876D01*
X138968650Y-92813112D01*
X138977000Y-92728336D01*
X138977000Y-92728330D01*
X138979790Y-92700001D01*
X138977000Y-92671672D01*
X138977000Y-92403824D01*
X139475000Y-92403824D01*
X139597677Y-92391741D01*
X139715641Y-92355958D01*
X139824356Y-92297848D01*
X139919646Y-92219646D01*
X139997848Y-92124356D01*
X140055958Y-92015641D01*
X140091741Y-91897677D01*
X140103824Y-91775000D01*
X140103824Y-91025000D01*
X140091741Y-90902323D01*
X140055958Y-90784359D01*
X139997848Y-90675644D01*
X139919646Y-90580354D01*
X139906213Y-90569330D01*
X139913111Y-90568651D01*
X139957770Y-90555103D01*
X140021876Y-90535657D01*
X140122115Y-90482079D01*
X140209974Y-90409974D01*
X140228039Y-90387962D01*
X140687962Y-89928039D01*
X140709974Y-89909974D01*
X140782079Y-89822115D01*
X140835657Y-89721876D01*
X140854707Y-89659076D01*
X140868651Y-89613112D01*
X140875772Y-89540799D01*
X140877000Y-89528336D01*
X140877000Y-89528331D01*
X140879790Y-89500000D01*
X140877000Y-89471669D01*
X140877000Y-84128328D01*
X140879790Y-84099999D01*
X140877000Y-84071670D01*
X140877000Y-84071664D01*
X140868650Y-83986888D01*
X140835657Y-83878124D01*
X140782079Y-83777885D01*
X140709974Y-83690026D01*
X140687968Y-83671966D01*
X140128039Y-83112038D01*
X140109974Y-83090026D01*
X140022115Y-83017921D01*
X139921876Y-82964343D01*
X139842663Y-82940314D01*
X139813111Y-82931349D01*
X139758045Y-82925926D01*
X139728336Y-82923000D01*
X139728331Y-82923000D01*
X139700000Y-82920210D01*
X139671669Y-82923000D01*
X137139001Y-82923000D01*
X136815539Y-82599538D01*
X136797474Y-82577526D01*
X136709615Y-82505421D01*
X136609376Y-82451843D01*
X136545270Y-82432397D01*
X136500611Y-82418849D01*
X136445545Y-82413426D01*
X136415836Y-82410500D01*
X136415831Y-82410500D01*
X136387500Y-82407710D01*
X136359169Y-82410500D01*
X136273438Y-82410500D01*
X136329494Y-82380537D01*
X136426185Y-82301185D01*
X136505537Y-82204494D01*
X136564502Y-82094180D01*
X136600812Y-81974482D01*
X136613072Y-81850000D01*
X136610000Y-81698250D01*
X136451250Y-81539500D01*
X135627000Y-81539500D01*
X135627000Y-81559500D01*
X135373000Y-81559500D01*
X135373000Y-81539500D01*
X135353000Y-81539500D01*
X135353000Y-81285500D01*
X135373000Y-81285500D01*
X135373000Y-80498750D01*
X135627000Y-80498750D01*
X135627000Y-81285500D01*
X136451250Y-81285500D01*
X136610000Y-81126750D01*
X136613072Y-80975000D01*
X136600812Y-80850518D01*
X136564502Y-80730820D01*
X136505537Y-80620506D01*
X136426185Y-80523815D01*
X136329494Y-80444463D01*
X136219180Y-80385498D01*
X136099482Y-80349188D01*
X135975000Y-80336928D01*
X135785750Y-80340000D01*
X135627000Y-80498750D01*
X135373000Y-80498750D01*
X135214250Y-80340000D01*
X135027000Y-80336960D01*
X135027000Y-66918289D01*
X135368690Y-66576600D01*
X135497474Y-66550984D01*
X135620680Y-66499950D01*
X135731563Y-66425860D01*
X135825860Y-66331563D01*
X135899950Y-66220680D01*
X135950984Y-66097474D01*
X135977000Y-65966679D01*
X135977000Y-65833321D01*
X135950984Y-65702526D01*
X135899950Y-65579320D01*
X135825860Y-65468437D01*
X135807422Y-65449999D01*
X137421176Y-65449999D01*
X137421176Y-66150001D01*
X137433259Y-66272678D01*
X137469042Y-66390641D01*
X137527152Y-66499356D01*
X137605354Y-66594646D01*
X137700644Y-66672848D01*
X137809359Y-66730958D01*
X137927322Y-66766741D01*
X138049999Y-66778824D01*
X139350001Y-66778824D01*
X139472678Y-66766741D01*
X139590641Y-66730958D01*
X139699356Y-66672848D01*
X139794646Y-66594646D01*
X139872848Y-66499356D01*
X139930958Y-66390641D01*
X139966741Y-66272678D01*
X139978824Y-66150001D01*
X139978824Y-65449999D01*
X139966741Y-65327322D01*
X139930958Y-65209359D01*
X139872848Y-65100644D01*
X139794646Y-65005354D01*
X139699356Y-64927152D01*
X139590641Y-64869042D01*
X139472678Y-64833259D01*
X139350001Y-64821176D01*
X138049999Y-64821176D01*
X137927322Y-64833259D01*
X137809359Y-64869042D01*
X137700644Y-64927152D01*
X137605354Y-65005354D01*
X137527152Y-65100644D01*
X137469042Y-65209359D01*
X137433259Y-65327322D01*
X137421176Y-65449999D01*
X135807422Y-65449999D01*
X135731563Y-65374140D01*
X135620680Y-65300050D01*
X135497474Y-65249016D01*
X135366679Y-65223000D01*
X135233321Y-65223000D01*
X135219551Y-65225739D01*
X135320969Y-65124321D01*
X135347628Y-65138570D01*
X135446832Y-65168663D01*
X135550000Y-65178824D01*
X136800000Y-65178824D01*
X136903168Y-65168663D01*
X137002372Y-65138570D01*
X137093799Y-65089701D01*
X137173935Y-65023935D01*
X137239701Y-64943799D01*
X137288570Y-64852372D01*
X137318663Y-64753168D01*
X137328824Y-64650000D01*
X137328824Y-64350000D01*
X137325231Y-64313519D01*
X137401185Y-64251185D01*
X137480537Y-64154494D01*
X137539502Y-64044180D01*
X137575812Y-63924482D01*
X137588072Y-63800000D01*
X137585000Y-63785750D01*
X137426250Y-63627000D01*
X136302000Y-63627000D01*
X136302000Y-63647000D01*
X136048000Y-63647000D01*
X136048000Y-63627000D01*
X134923750Y-63627000D01*
X134765000Y-63785750D01*
X134761928Y-63800000D01*
X134774188Y-63924482D01*
X134810498Y-64044180D01*
X134845321Y-64109328D01*
X134825552Y-64125552D01*
X134809049Y-64145661D01*
X133645652Y-65309059D01*
X133627000Y-65324366D01*
X133627000Y-61572290D01*
X133909053Y-61854344D01*
X133925552Y-61874448D01*
X134005798Y-61940304D01*
X134097350Y-61989239D01*
X134196690Y-62019374D01*
X134262758Y-62025881D01*
X134300000Y-62029549D01*
X134325881Y-62027000D01*
X135134264Y-62027000D01*
X135110299Y-62056201D01*
X135061430Y-62147628D01*
X135031337Y-62246832D01*
X135021176Y-62350000D01*
X135021176Y-62650000D01*
X135024769Y-62686481D01*
X134948815Y-62748815D01*
X134869463Y-62845506D01*
X134810498Y-62955820D01*
X134774188Y-63075518D01*
X134761928Y-63200000D01*
X134765000Y-63214250D01*
X134923750Y-63373000D01*
X136048000Y-63373000D01*
X136048000Y-63353000D01*
X136302000Y-63353000D01*
X136302000Y-63373000D01*
X137426250Y-63373000D01*
X137585000Y-63214250D01*
X137588072Y-63200000D01*
X137575812Y-63075518D01*
X137543084Y-62967627D01*
X137594202Y-62940304D01*
X137674448Y-62874448D01*
X137690955Y-62854334D01*
X138154344Y-62390947D01*
X138174448Y-62374448D01*
X138240304Y-62294202D01*
X138289239Y-62202650D01*
X138319374Y-62103310D01*
X138327000Y-62025881D01*
X138329549Y-62000000D01*
X138327000Y-61974119D01*
X138327000Y-59525881D01*
X138329549Y-59500000D01*
X138319374Y-59396690D01*
X138289239Y-59297350D01*
X138240304Y-59205798D01*
X138218167Y-59178824D01*
X139350001Y-59178824D01*
X139472678Y-59166741D01*
X139590641Y-59130958D01*
X139699356Y-59072848D01*
X139794646Y-58994646D01*
X139872848Y-58899356D01*
X139930958Y-58790641D01*
X139966741Y-58672678D01*
X139978824Y-58550001D01*
X139978824Y-57849999D01*
X139966741Y-57727322D01*
X139930958Y-57609359D01*
X139872848Y-57500644D01*
X139794646Y-57405354D01*
X139699356Y-57327152D01*
X139590641Y-57269042D01*
X139472678Y-57233259D01*
X139350001Y-57221176D01*
X138049999Y-57221176D01*
X137927322Y-57233259D01*
X137809359Y-57269042D01*
X137700644Y-57327152D01*
X137605354Y-57405354D01*
X137527152Y-57500644D01*
X137469042Y-57609359D01*
X137433259Y-57727322D01*
X137421176Y-57849999D01*
X137421176Y-58518763D01*
X137148079Y-58245666D01*
X137131572Y-58225552D01*
X137051326Y-58159696D01*
X136959774Y-58110761D01*
X136860434Y-58080626D01*
X136783005Y-58073000D01*
X136757124Y-58070451D01*
X136731243Y-58073000D01*
X135318290Y-58073000D01*
X135027000Y-57781711D01*
X135027000Y-55925881D01*
X135029549Y-55900000D01*
X135019374Y-55796690D01*
X135000660Y-55735000D01*
X134989239Y-55697350D01*
X134940304Y-55605798D01*
X134874448Y-55525552D01*
X134854338Y-55509048D01*
X134690955Y-55345666D01*
X134675636Y-55327000D01*
X134970143Y-55327000D01*
X135079320Y-55399950D01*
X135202526Y-55450984D01*
X135333321Y-55477000D01*
X135466679Y-55477000D01*
X135597474Y-55450984D01*
X135720680Y-55399950D01*
X135831563Y-55325860D01*
X135925860Y-55231563D01*
X135999950Y-55120680D01*
X136050984Y-54997474D01*
X136074947Y-54877000D01*
X136166679Y-54877000D01*
X136297474Y-54850984D01*
X136420680Y-54799950D01*
X136531563Y-54725860D01*
X136625860Y-54631563D01*
X136699950Y-54520680D01*
X136750984Y-54397474D01*
X136777000Y-54266679D01*
X136777000Y-54133321D01*
X136750984Y-54002526D01*
X136699950Y-53879320D01*
X136625860Y-53768437D01*
X136531563Y-53674140D01*
X136420680Y-53600050D01*
X136297474Y-53549016D01*
X136166679Y-53523000D01*
X136033321Y-53523000D01*
X135945256Y-53540517D01*
X135917650Y-53525761D01*
X135818310Y-53495626D01*
X135740881Y-53488000D01*
X135715000Y-53485451D01*
X135689119Y-53488000D01*
X132063407Y-53488000D01*
X132089502Y-53439180D01*
X132125812Y-53319482D01*
X132138072Y-53195000D01*
X132135000Y-53030750D01*
X131976250Y-52872000D01*
X130627000Y-52872000D01*
X130627000Y-52892000D01*
X130373000Y-52892000D01*
X130373000Y-52872000D01*
X129023750Y-52872000D01*
X128865000Y-53030750D01*
X128861928Y-53195000D01*
X128874188Y-53319482D01*
X128910498Y-53439180D01*
X128969463Y-53549494D01*
X129048815Y-53646185D01*
X129121176Y-53705570D01*
X129121176Y-54465000D01*
X129128455Y-54538905D01*
X129150012Y-54609970D01*
X129171409Y-54650000D01*
X129150012Y-54690030D01*
X129128455Y-54761095D01*
X129121176Y-54835000D01*
X129121176Y-55735000D01*
X129128455Y-55808905D01*
X129150012Y-55879970D01*
X129171409Y-55920000D01*
X129150012Y-55960030D01*
X129128455Y-56031095D01*
X129121176Y-56105000D01*
X129121176Y-56230564D01*
X129099950Y-56179320D01*
X129025860Y-56068437D01*
X128931563Y-55974140D01*
X128820680Y-55900050D01*
X128697474Y-55849016D01*
X128568690Y-55823400D01*
X127675955Y-54930666D01*
X127659448Y-54910552D01*
X127579202Y-54844696D01*
X127487650Y-54795761D01*
X127388310Y-54765626D01*
X127310881Y-54758000D01*
X127285000Y-54755451D01*
X127259119Y-54758000D01*
X114870606Y-54758000D01*
X114849988Y-54690030D01*
X114828591Y-54650000D01*
X114849988Y-54609970D01*
X114871545Y-54538905D01*
X114878824Y-54465000D01*
X114878824Y-53705570D01*
X114951185Y-53646185D01*
X115030537Y-53549494D01*
X115089502Y-53439180D01*
X115125812Y-53319482D01*
X115138072Y-53195000D01*
X115135000Y-53030750D01*
X114976250Y-52872000D01*
X113627000Y-52872000D01*
X113627000Y-52892000D01*
X113373000Y-52892000D01*
X113373000Y-52872000D01*
X112023750Y-52872000D01*
X111865000Y-53030750D01*
X111861928Y-53195000D01*
X111864891Y-53225089D01*
X111757908Y-53282273D01*
X111734693Y-53301325D01*
X111658695Y-53363695D01*
X111624367Y-53391867D01*
X111596908Y-53425327D01*
X111111735Y-53910500D01*
X111043079Y-53910500D01*
X111000000Y-53906257D01*
X110828077Y-53923190D01*
X110669890Y-53971176D01*
X110662763Y-53973338D01*
X110649428Y-53980466D01*
X110627169Y-53982658D01*
X110515068Y-54016664D01*
X110411756Y-54071885D01*
X110321201Y-54146201D01*
X110246885Y-54236756D01*
X110191664Y-54340068D01*
X110184914Y-54362320D01*
X109401059Y-55146176D01*
X108375000Y-55146176D01*
X108252323Y-55158259D01*
X108134359Y-55194042D01*
X108025644Y-55252152D01*
X107930354Y-55330354D01*
X107852152Y-55425644D01*
X107794042Y-55534359D01*
X107758259Y-55652323D01*
X107756222Y-55673000D01*
X107102628Y-55673000D01*
X107081210Y-55640945D01*
X106959055Y-55518790D01*
X106815415Y-55422813D01*
X106655811Y-55356703D01*
X106486377Y-55323000D01*
X106313623Y-55323000D01*
X106144189Y-55356703D01*
X105984585Y-55422813D01*
X105840945Y-55518790D01*
X105718790Y-55640945D01*
X105622813Y-55784585D01*
X105556703Y-55944189D01*
X105523000Y-56113623D01*
X105523000Y-56286377D01*
X105556703Y-56455811D01*
X105622813Y-56615415D01*
X105718790Y-56759055D01*
X105840945Y-56881210D01*
X105984585Y-56977187D01*
X106144189Y-57043297D01*
X106313623Y-57077000D01*
X106486377Y-57077000D01*
X106655811Y-57043297D01*
X106815415Y-56977187D01*
X106959055Y-56881210D01*
X107081210Y-56759055D01*
X107102628Y-56727000D01*
X107182735Y-56727000D01*
X106160327Y-57749408D01*
X106126868Y-57776867D01*
X106099409Y-57810326D01*
X106099406Y-57810329D01*
X106017274Y-57910408D01*
X105935838Y-58062764D01*
X105885690Y-58228078D01*
X105868757Y-58400000D01*
X105873001Y-58443089D01*
X105873000Y-59793078D01*
X105873001Y-59793088D01*
X105873000Y-67206920D01*
X105868757Y-67250000D01*
X105885690Y-67421922D01*
X105903302Y-67479981D01*
X105935838Y-67587236D01*
X106017273Y-67739591D01*
X106126867Y-67873133D01*
X106160332Y-67900597D01*
X109396176Y-71136441D01*
X109396176Y-72125000D01*
X109408259Y-72247677D01*
X109444042Y-72365641D01*
X109447976Y-72373000D01*
X108300000Y-72373000D01*
X108226451Y-72380244D01*
X108111646Y-72403080D01*
X108040923Y-72424534D01*
X107975745Y-72459372D01*
X107878418Y-72524404D01*
X107821289Y-72571288D01*
X107774404Y-72628418D01*
X107709372Y-72725745D01*
X107674533Y-72790924D01*
X107653080Y-72861646D01*
X107630930Y-72973000D01*
X106785850Y-72973000D01*
X106753115Y-72911756D01*
X106678799Y-72821201D01*
X106588244Y-72746885D01*
X106484932Y-72691664D01*
X106372831Y-72657658D01*
X106256250Y-72646176D01*
X105818750Y-72646176D01*
X105702169Y-72657658D01*
X105590068Y-72691664D01*
X105486756Y-72746885D01*
X105396201Y-72821201D01*
X105321885Y-72911756D01*
X105266664Y-73015068D01*
X105250000Y-73070001D01*
X105233336Y-73015068D01*
X105178115Y-72911756D01*
X105103799Y-72821201D01*
X105013244Y-72746885D01*
X104909932Y-72691664D01*
X104797831Y-72657658D01*
X104681250Y-72646176D01*
X104243750Y-72646176D01*
X104127169Y-72657658D01*
X104015068Y-72691664D01*
X103911756Y-72746885D01*
X103821201Y-72821201D01*
X103746885Y-72911756D01*
X103691664Y-73015068D01*
X103657658Y-73127169D01*
X103646176Y-73243750D01*
X103646176Y-73608535D01*
X103320652Y-73934059D01*
X103300543Y-73950562D01*
X103244071Y-74019374D01*
X103234686Y-74030809D01*
X103185751Y-74122361D01*
X103155616Y-74221701D01*
X103145441Y-74325010D01*
X102402000Y-74325010D01*
X102402000Y-54019658D01*
X102445751Y-53573451D01*
X102569630Y-53163142D01*
X102770845Y-52784713D01*
X103041733Y-52452571D01*
X103371971Y-52179374D01*
X103748988Y-51975522D01*
X104158418Y-51848782D01*
X104603519Y-51802000D01*
X112099767Y-51802000D01*
X112048815Y-51843815D01*
G37*
G04 #@! TD.AperFunction*
D29*
X133472990Y-80336961D02*
X133285750Y-80340000D01*
X133127000Y-80498750D01*
X133127000Y-81285500D01*
X133147000Y-81285500D01*
X133147000Y-81539500D01*
X133127000Y-81539500D01*
X133127000Y-81559500D01*
X132873000Y-81559500D01*
X132873000Y-81539500D01*
X132853000Y-81539500D01*
X132853000Y-81285500D01*
X132873000Y-81285500D01*
X132873000Y-80498750D01*
X132714250Y-80340000D01*
X132525000Y-80336928D01*
X132400518Y-80349188D01*
X132280820Y-80385498D01*
X132222000Y-80416938D01*
X132222000Y-79713289D01*
X133472990Y-78462300D01*
X133472990Y-80336961D01*
G04 #@! TA.AperFunction,Conductor*
D30*
G36*
X133472990Y-80336961D02*
G01*
X133285750Y-80340000D01*
X133127000Y-80498750D01*
X133127000Y-81285500D01*
X133147000Y-81285500D01*
X133147000Y-81539500D01*
X133127000Y-81539500D01*
X133127000Y-81559500D01*
X132873000Y-81559500D01*
X132873000Y-81539500D01*
X132853000Y-81539500D01*
X132853000Y-81285500D01*
X132873000Y-81285500D01*
X132873000Y-80498750D01*
X132714250Y-80340000D01*
X132525000Y-80336928D01*
X132400518Y-80349188D01*
X132280820Y-80385498D01*
X132222000Y-80416938D01*
X132222000Y-79713289D01*
X133472990Y-78462300D01*
X133472990Y-80336961D01*
G37*
G04 #@! TD.AperFunction*
D29*
X121123000Y-77639001D02*
X121123001Y-80171659D01*
X121120210Y-80200000D01*
X121131349Y-80313111D01*
X121163585Y-80419374D01*
X121164344Y-80421876D01*
X121217922Y-80522115D01*
X121219796Y-80524398D01*
X121271963Y-80587964D01*
X121271966Y-80587967D01*
X121290027Y-80609974D01*
X121312034Y-80628035D01*
X121806999Y-81123000D01*
X114527000Y-81123000D01*
X114527000Y-79499539D01*
X114712040Y-79314500D01*
X114984194Y-79314500D01*
X114996885Y-79338244D01*
X115071201Y-79428799D01*
X115161756Y-79503115D01*
X115265068Y-79558336D01*
X115377169Y-79592342D01*
X115493750Y-79603824D01*
X116006250Y-79603824D01*
X116122831Y-79592342D01*
X116234932Y-79558336D01*
X116338244Y-79503115D01*
X116424355Y-79432446D01*
X116435498Y-79469180D01*
X116494463Y-79579494D01*
X116573815Y-79676185D01*
X116670506Y-79755537D01*
X116780820Y-79814502D01*
X116900518Y-79850812D01*
X117025000Y-79863072D01*
X117214250Y-79860000D01*
X117373000Y-79701250D01*
X117373000Y-78914500D01*
X117627000Y-78914500D01*
X117627000Y-79701250D01*
X117785750Y-79860000D01*
X117975000Y-79863072D01*
X118099482Y-79850812D01*
X118219180Y-79814502D01*
X118329494Y-79755537D01*
X118426185Y-79676185D01*
X118505537Y-79579494D01*
X118564502Y-79469180D01*
X118600812Y-79349482D01*
X118613072Y-79225000D01*
X118610000Y-79073250D01*
X118451250Y-78914500D01*
X117627000Y-78914500D01*
X117373000Y-78914500D01*
X117353000Y-78914500D01*
X117353000Y-78660500D01*
X117373000Y-78660500D01*
X117373000Y-78640500D01*
X117627000Y-78640500D01*
X117627000Y-78660500D01*
X118451250Y-78660500D01*
X118610000Y-78501750D01*
X118612525Y-78377000D01*
X120250000Y-78377000D01*
X120274776Y-78374560D01*
X120298601Y-78367333D01*
X120320557Y-78355597D01*
X120339803Y-78339803D01*
X120355597Y-78320557D01*
X120367333Y-78298601D01*
X120374560Y-78274776D01*
X120377000Y-78250000D01*
X120377000Y-76893001D01*
X121123000Y-77639001D01*
G04 #@! TA.AperFunction,Conductor*
D30*
G36*
X121123000Y-77639001D02*
G01*
X121123001Y-80171659D01*
X121120210Y-80200000D01*
X121131349Y-80313111D01*
X121163585Y-80419374D01*
X121164344Y-80421876D01*
X121217922Y-80522115D01*
X121219796Y-80524398D01*
X121271963Y-80587964D01*
X121271966Y-80587967D01*
X121290027Y-80609974D01*
X121312034Y-80628035D01*
X121806999Y-81123000D01*
X114527000Y-81123000D01*
X114527000Y-79499539D01*
X114712040Y-79314500D01*
X114984194Y-79314500D01*
X114996885Y-79338244D01*
X115071201Y-79428799D01*
X115161756Y-79503115D01*
X115265068Y-79558336D01*
X115377169Y-79592342D01*
X115493750Y-79603824D01*
X116006250Y-79603824D01*
X116122831Y-79592342D01*
X116234932Y-79558336D01*
X116338244Y-79503115D01*
X116424355Y-79432446D01*
X116435498Y-79469180D01*
X116494463Y-79579494D01*
X116573815Y-79676185D01*
X116670506Y-79755537D01*
X116780820Y-79814502D01*
X116900518Y-79850812D01*
X117025000Y-79863072D01*
X117214250Y-79860000D01*
X117373000Y-79701250D01*
X117373000Y-78914500D01*
X117627000Y-78914500D01*
X117627000Y-79701250D01*
X117785750Y-79860000D01*
X117975000Y-79863072D01*
X118099482Y-79850812D01*
X118219180Y-79814502D01*
X118329494Y-79755537D01*
X118426185Y-79676185D01*
X118505537Y-79579494D01*
X118564502Y-79469180D01*
X118600812Y-79349482D01*
X118613072Y-79225000D01*
X118610000Y-79073250D01*
X118451250Y-78914500D01*
X117627000Y-78914500D01*
X117373000Y-78914500D01*
X117353000Y-78914500D01*
X117353000Y-78660500D01*
X117373000Y-78660500D01*
X117373000Y-78640500D01*
X117627000Y-78640500D01*
X117627000Y-78660500D01*
X118451250Y-78660500D01*
X118610000Y-78501750D01*
X118612525Y-78377000D01*
X120250000Y-78377000D01*
X120274776Y-78374560D01*
X120298601Y-78367333D01*
X120320557Y-78355597D01*
X120339803Y-78339803D01*
X120355597Y-78320557D01*
X120367333Y-78298601D01*
X120374560Y-78274776D01*
X120377000Y-78250000D01*
X120377000Y-76893001D01*
X121123000Y-77639001D01*
G37*
G04 #@! TD.AperFunction*
D29*
X132773000Y-77671709D02*
X131340662Y-79104049D01*
X131320553Y-79120552D01*
X131275415Y-79175553D01*
X131254696Y-79200799D01*
X131205761Y-79292351D01*
X131175626Y-79391691D01*
X131165451Y-79495000D01*
X131168001Y-79520890D01*
X131168001Y-79869990D01*
X131126643Y-79852859D01*
X130976528Y-79823000D01*
X130823472Y-79823000D01*
X130673357Y-79852859D01*
X130531952Y-79911431D01*
X130404691Y-79996464D01*
X130362367Y-80038788D01*
X130332506Y-80047847D01*
X130278124Y-80064343D01*
X130177885Y-80117921D01*
X130110772Y-80173000D01*
X125627000Y-80173000D01*
X125627000Y-77699428D01*
X125678310Y-77694374D01*
X125777650Y-77664239D01*
X125869202Y-77615304D01*
X125949448Y-77549448D01*
X125965955Y-77529334D01*
X126354344Y-77140947D01*
X126374448Y-77124448D01*
X126440304Y-77044202D01*
X126489239Y-76952650D01*
X126519374Y-76853310D01*
X126527000Y-76775881D01*
X126527000Y-76775880D01*
X126529549Y-76750000D01*
X126527000Y-76724119D01*
X126527000Y-75718289D01*
X127468290Y-74777000D01*
X129348383Y-74777000D01*
X129374264Y-74779549D01*
X129400145Y-74777000D01*
X129477574Y-74769374D01*
X129576914Y-74739239D01*
X129668466Y-74690304D01*
X129748712Y-74624448D01*
X129765219Y-74604334D01*
X132773001Y-71596553D01*
X132773000Y-77671709D01*
G04 #@! TA.AperFunction,Conductor*
D30*
G36*
X132773000Y-77671709D02*
G01*
X131340662Y-79104049D01*
X131320553Y-79120552D01*
X131275415Y-79175553D01*
X131254696Y-79200799D01*
X131205761Y-79292351D01*
X131175626Y-79391691D01*
X131165451Y-79495000D01*
X131168001Y-79520890D01*
X131168001Y-79869990D01*
X131126643Y-79852859D01*
X130976528Y-79823000D01*
X130823472Y-79823000D01*
X130673357Y-79852859D01*
X130531952Y-79911431D01*
X130404691Y-79996464D01*
X130362367Y-80038788D01*
X130332506Y-80047847D01*
X130278124Y-80064343D01*
X130177885Y-80117921D01*
X130110772Y-80173000D01*
X125627000Y-80173000D01*
X125627000Y-77699428D01*
X125678310Y-77694374D01*
X125777650Y-77664239D01*
X125869202Y-77615304D01*
X125949448Y-77549448D01*
X125965955Y-77529334D01*
X126354344Y-77140947D01*
X126374448Y-77124448D01*
X126440304Y-77044202D01*
X126489239Y-76952650D01*
X126519374Y-76853310D01*
X126527000Y-76775881D01*
X126527000Y-76775880D01*
X126529549Y-76750000D01*
X126527000Y-76724119D01*
X126527000Y-75718289D01*
X127468290Y-74777000D01*
X129348383Y-74777000D01*
X129374264Y-74779549D01*
X129400145Y-74777000D01*
X129477574Y-74769374D01*
X129576914Y-74739239D01*
X129668466Y-74690304D01*
X129748712Y-74624448D01*
X129765219Y-74604334D01*
X132773001Y-71596553D01*
X132773000Y-77671709D01*
G37*
G04 #@! TD.AperFunction*
D29*
X114744463Y-73170506D02*
X114685498Y-73280820D01*
X114649188Y-73400518D01*
X114636928Y-73525000D01*
X114640000Y-73676750D01*
X114798750Y-73835500D01*
X115623000Y-73835500D01*
X115623000Y-73815500D01*
X115877000Y-73815500D01*
X115877000Y-73835500D01*
X115897000Y-73835500D01*
X115897000Y-74089500D01*
X115877000Y-74089500D01*
X115877000Y-74109500D01*
X115623000Y-74109500D01*
X115623000Y-74089500D01*
X114798750Y-74089500D01*
X114640000Y-74248250D01*
X114636928Y-74400000D01*
X114649188Y-74524482D01*
X114685498Y-74644180D01*
X114744463Y-74754494D01*
X114823815Y-74851185D01*
X114920506Y-74930537D01*
X115005666Y-74976057D01*
X114996885Y-74986756D01*
X114941664Y-75090068D01*
X114907658Y-75202169D01*
X114896176Y-75318750D01*
X114896176Y-75756250D01*
X114907658Y-75872831D01*
X114941664Y-75984932D01*
X114996885Y-76088244D01*
X115071201Y-76178799D01*
X115161756Y-76253115D01*
X115223000Y-76285851D01*
X115223001Y-76464149D01*
X115161756Y-76496885D01*
X115071201Y-76571201D01*
X114996885Y-76661756D01*
X114941664Y-76765068D01*
X114907658Y-76877169D01*
X114896176Y-76993750D01*
X114896176Y-77431250D01*
X114907658Y-77547831D01*
X114941664Y-77659932D01*
X114996885Y-77763244D01*
X115071201Y-77853799D01*
X115161756Y-77928115D01*
X115265068Y-77983336D01*
X115320001Y-78000000D01*
X115265068Y-78016664D01*
X115161756Y-78071885D01*
X115071201Y-78146201D01*
X114996885Y-78236756D01*
X114984194Y-78260500D01*
X114519631Y-78260500D01*
X114493750Y-78257951D01*
X114467869Y-78260500D01*
X114390440Y-78268126D01*
X114291100Y-78298261D01*
X114199548Y-78347196D01*
X114119302Y-78413052D01*
X114102799Y-78433161D01*
X113977000Y-78558960D01*
X113977000Y-78250000D01*
X113969756Y-78176451D01*
X113948303Y-78105728D01*
X113913464Y-78040550D01*
X113866579Y-77983421D01*
X113809450Y-77936536D01*
X113744272Y-77901697D01*
X113673549Y-77880244D01*
X113600000Y-77873000D01*
X107327000Y-77873000D01*
X107327000Y-77125880D01*
X107329549Y-77099999D01*
X107319374Y-76996690D01*
X107289239Y-76897350D01*
X107278362Y-76877000D01*
X107240304Y-76805798D01*
X107174448Y-76725552D01*
X107154339Y-76709049D01*
X106853824Y-76408535D01*
X106853824Y-76250000D01*
X106842222Y-76132200D01*
X106807861Y-76018927D01*
X106807102Y-76017506D01*
X106829494Y-76005537D01*
X106926185Y-75926185D01*
X107005537Y-75829494D01*
X107064502Y-75719180D01*
X107100812Y-75599482D01*
X107113072Y-75475000D01*
X107110000Y-75285750D01*
X106951250Y-75127000D01*
X106202000Y-75127000D01*
X106202000Y-75147000D01*
X105948000Y-75147000D01*
X105948000Y-75127000D01*
X105928000Y-75127000D01*
X105928000Y-74873000D01*
X105948000Y-74873000D01*
X105948000Y-74853000D01*
X106202000Y-74853000D01*
X106202000Y-74873000D01*
X106951250Y-74873000D01*
X107110000Y-74714250D01*
X107113072Y-74525000D01*
X107100812Y-74400518D01*
X107064502Y-74280820D01*
X107005537Y-74170506D01*
X106926185Y-74073815D01*
X106869141Y-74027000D01*
X107623000Y-74027000D01*
X107623000Y-75450000D01*
X107630244Y-75523549D01*
X107653080Y-75638354D01*
X107674534Y-75709077D01*
X107709372Y-75774255D01*
X107774404Y-75871582D01*
X107821288Y-75928711D01*
X107878418Y-75975596D01*
X107975745Y-76040628D01*
X108040924Y-76075467D01*
X108111646Y-76096920D01*
X108226451Y-76119756D01*
X108300000Y-76127000D01*
X112700000Y-76127000D01*
X112773549Y-76119756D01*
X112888354Y-76096920D01*
X112959077Y-76075466D01*
X113024255Y-76040628D01*
X113121582Y-75975596D01*
X113178711Y-75928712D01*
X113225596Y-75871582D01*
X113290628Y-75774255D01*
X113325467Y-75709076D01*
X113346920Y-75638354D01*
X113369756Y-75523549D01*
X113377000Y-75450000D01*
X113377000Y-73077000D01*
X114821201Y-73077000D01*
X114744463Y-73170506D01*
G04 #@! TA.AperFunction,Conductor*
D30*
G36*
X114744463Y-73170506D02*
G01*
X114685498Y-73280820D01*
X114649188Y-73400518D01*
X114636928Y-73525000D01*
X114640000Y-73676750D01*
X114798750Y-73835500D01*
X115623000Y-73835500D01*
X115623000Y-73815500D01*
X115877000Y-73815500D01*
X115877000Y-73835500D01*
X115897000Y-73835500D01*
X115897000Y-74089500D01*
X115877000Y-74089500D01*
X115877000Y-74109500D01*
X115623000Y-74109500D01*
X115623000Y-74089500D01*
X114798750Y-74089500D01*
X114640000Y-74248250D01*
X114636928Y-74400000D01*
X114649188Y-74524482D01*
X114685498Y-74644180D01*
X114744463Y-74754494D01*
X114823815Y-74851185D01*
X114920506Y-74930537D01*
X115005666Y-74976057D01*
X114996885Y-74986756D01*
X114941664Y-75090068D01*
X114907658Y-75202169D01*
X114896176Y-75318750D01*
X114896176Y-75756250D01*
X114907658Y-75872831D01*
X114941664Y-75984932D01*
X114996885Y-76088244D01*
X115071201Y-76178799D01*
X115161756Y-76253115D01*
X115223000Y-76285851D01*
X115223001Y-76464149D01*
X115161756Y-76496885D01*
X115071201Y-76571201D01*
X114996885Y-76661756D01*
X114941664Y-76765068D01*
X114907658Y-76877169D01*
X114896176Y-76993750D01*
X114896176Y-77431250D01*
X114907658Y-77547831D01*
X114941664Y-77659932D01*
X114996885Y-77763244D01*
X115071201Y-77853799D01*
X115161756Y-77928115D01*
X115265068Y-77983336D01*
X115320001Y-78000000D01*
X115265068Y-78016664D01*
X115161756Y-78071885D01*
X115071201Y-78146201D01*
X114996885Y-78236756D01*
X114984194Y-78260500D01*
X114519631Y-78260500D01*
X114493750Y-78257951D01*
X114467869Y-78260500D01*
X114390440Y-78268126D01*
X114291100Y-78298261D01*
X114199548Y-78347196D01*
X114119302Y-78413052D01*
X114102799Y-78433161D01*
X113977000Y-78558960D01*
X113977000Y-78250000D01*
X113969756Y-78176451D01*
X113948303Y-78105728D01*
X113913464Y-78040550D01*
X113866579Y-77983421D01*
X113809450Y-77936536D01*
X113744272Y-77901697D01*
X113673549Y-77880244D01*
X113600000Y-77873000D01*
X107327000Y-77873000D01*
X107327000Y-77125880D01*
X107329549Y-77099999D01*
X107319374Y-76996690D01*
X107289239Y-76897350D01*
X107278362Y-76877000D01*
X107240304Y-76805798D01*
X107174448Y-76725552D01*
X107154339Y-76709049D01*
X106853824Y-76408535D01*
X106853824Y-76250000D01*
X106842222Y-76132200D01*
X106807861Y-76018927D01*
X106807102Y-76017506D01*
X106829494Y-76005537D01*
X106926185Y-75926185D01*
X107005537Y-75829494D01*
X107064502Y-75719180D01*
X107100812Y-75599482D01*
X107113072Y-75475000D01*
X107110000Y-75285750D01*
X106951250Y-75127000D01*
X106202000Y-75127000D01*
X106202000Y-75147000D01*
X105948000Y-75147000D01*
X105948000Y-75127000D01*
X105928000Y-75127000D01*
X105928000Y-74873000D01*
X105948000Y-74873000D01*
X105948000Y-74853000D01*
X106202000Y-74853000D01*
X106202000Y-74873000D01*
X106951250Y-74873000D01*
X107110000Y-74714250D01*
X107113072Y-74525000D01*
X107100812Y-74400518D01*
X107064502Y-74280820D01*
X107005537Y-74170506D01*
X106926185Y-74073815D01*
X106869141Y-74027000D01*
X107623000Y-74027000D01*
X107623000Y-75450000D01*
X107630244Y-75523549D01*
X107653080Y-75638354D01*
X107674534Y-75709077D01*
X107709372Y-75774255D01*
X107774404Y-75871582D01*
X107821288Y-75928711D01*
X107878418Y-75975596D01*
X107975745Y-76040628D01*
X108040924Y-76075467D01*
X108111646Y-76096920D01*
X108226451Y-76119756D01*
X108300000Y-76127000D01*
X112700000Y-76127000D01*
X112773549Y-76119756D01*
X112888354Y-76096920D01*
X112959077Y-76075466D01*
X113024255Y-76040628D01*
X113121582Y-75975596D01*
X113178711Y-75928712D01*
X113225596Y-75871582D01*
X113290628Y-75774255D01*
X113325467Y-75709076D01*
X113346920Y-75638354D01*
X113369756Y-75523549D01*
X113377000Y-75450000D01*
X113377000Y-73077000D01*
X114821201Y-73077000D01*
X114744463Y-73170506D01*
G37*
G04 #@! TD.AperFunction*
D29*
X123127000Y-75410500D02*
X123147000Y-75410500D01*
X123147000Y-75664500D01*
X123127000Y-75664500D01*
X123127000Y-75684500D01*
X122873000Y-75684500D01*
X122873000Y-75664500D01*
X122853000Y-75664500D01*
X122853000Y-75410500D01*
X122873000Y-75410500D01*
X122873000Y-75390500D01*
X123127000Y-75390500D01*
X123127000Y-75410500D01*
G04 #@! TA.AperFunction,Conductor*
D30*
G36*
X123127000Y-75410500D02*
G01*
X123147000Y-75410500D01*
X123147000Y-75664500D01*
X123127000Y-75664500D01*
X123127000Y-75684500D01*
X122873000Y-75684500D01*
X122873000Y-75664500D01*
X122853000Y-75664500D01*
X122853000Y-75410500D01*
X122873000Y-75410500D01*
X122873000Y-75390500D01*
X123127000Y-75390500D01*
X123127000Y-75410500D01*
G37*
G04 #@! TD.AperFunction*
D29*
X127823400Y-56568690D02*
X127849016Y-56697474D01*
X127900050Y-56820680D01*
X127974140Y-56931563D01*
X128068437Y-57025860D01*
X128179320Y-57099950D01*
X128302526Y-57150984D01*
X128433321Y-57177000D01*
X128566679Y-57177000D01*
X128697474Y-57150984D01*
X128820680Y-57099950D01*
X128931563Y-57025860D01*
X129025860Y-56931563D01*
X129099950Y-56820680D01*
X129121176Y-56769436D01*
X129121176Y-57005000D01*
X129128455Y-57078905D01*
X129150012Y-57149970D01*
X129171409Y-57190000D01*
X129150012Y-57230030D01*
X129128455Y-57301095D01*
X129121176Y-57375000D01*
X129121176Y-58275000D01*
X129128455Y-58348905D01*
X129150012Y-58419970D01*
X129171409Y-58460000D01*
X129150012Y-58500030D01*
X129128455Y-58571095D01*
X129121176Y-58645000D01*
X129121176Y-59545000D01*
X129128455Y-59618905D01*
X129150012Y-59689970D01*
X129171409Y-59730000D01*
X129150012Y-59770030D01*
X129128455Y-59841095D01*
X129121176Y-59915000D01*
X129121176Y-60815000D01*
X129128455Y-60888905D01*
X129150012Y-60959970D01*
X129171409Y-61000000D01*
X129150012Y-61040030D01*
X129128455Y-61111095D01*
X129121176Y-61185000D01*
X129121176Y-62085000D01*
X129128455Y-62158905D01*
X129150012Y-62229970D01*
X129171409Y-62270000D01*
X129150012Y-62310030D01*
X129128455Y-62381095D01*
X129121176Y-62455000D01*
X129121176Y-63355000D01*
X129128455Y-63428905D01*
X129150012Y-63499970D01*
X129171409Y-63540000D01*
X129150012Y-63580030D01*
X129128455Y-63651095D01*
X129121176Y-63725000D01*
X129121176Y-64625000D01*
X129128455Y-64698905D01*
X129150012Y-64769970D01*
X129171409Y-64810000D01*
X129150012Y-64850030D01*
X129128455Y-64921095D01*
X129121176Y-64995000D01*
X129121176Y-65895000D01*
X129128455Y-65968905D01*
X129150012Y-66039970D01*
X129171409Y-66080000D01*
X129150012Y-66120030D01*
X129128455Y-66191095D01*
X129121176Y-66265000D01*
X129121176Y-67165000D01*
X129128455Y-67238905D01*
X129150012Y-67309970D01*
X129171409Y-67350000D01*
X129150012Y-67390030D01*
X129128455Y-67461095D01*
X129121176Y-67535000D01*
X129121176Y-68435000D01*
X129128455Y-68508905D01*
X129150012Y-68579970D01*
X129171409Y-68620000D01*
X129150012Y-68660030D01*
X129128455Y-68731095D01*
X129121176Y-68805000D01*
X129121176Y-69705000D01*
X129128455Y-69778905D01*
X129150012Y-69849970D01*
X129185019Y-69915463D01*
X129232131Y-69972869D01*
X129289537Y-70019981D01*
X129355030Y-70054988D01*
X129426095Y-70076545D01*
X129500000Y-70083824D01*
X131163859Y-70083824D01*
X131100050Y-70179320D01*
X131060386Y-70275075D01*
X130997474Y-70249016D01*
X130866679Y-70223000D01*
X130733321Y-70223000D01*
X130602526Y-70249016D01*
X130479320Y-70300050D01*
X130368437Y-70374140D01*
X130274140Y-70468437D01*
X130200050Y-70579320D01*
X130149016Y-70702526D01*
X130123400Y-70831310D01*
X128481711Y-72473000D01*
X122225881Y-72473000D01*
X122200000Y-72470451D01*
X122174119Y-72473000D01*
X122096690Y-72480626D01*
X121997350Y-72510761D01*
X121905798Y-72559696D01*
X121825552Y-72625552D01*
X121809049Y-72645661D01*
X120895662Y-73559049D01*
X120875553Y-73575552D01*
X120825216Y-73636888D01*
X120809696Y-73655799D01*
X120760761Y-73747351D01*
X120730626Y-73846691D01*
X120720451Y-73950000D01*
X120723001Y-73975890D01*
X120723000Y-75606999D01*
X119944742Y-74828741D01*
X119974482Y-74825812D01*
X120094180Y-74789502D01*
X120204494Y-74730537D01*
X120301185Y-74651185D01*
X120380537Y-74554494D01*
X120439502Y-74444180D01*
X120475812Y-74324482D01*
X120488072Y-74200000D01*
X120485000Y-74035750D01*
X120326250Y-73877000D01*
X119577000Y-73877000D01*
X119577000Y-73897000D01*
X119323000Y-73897000D01*
X119323000Y-73877000D01*
X118573750Y-73877000D01*
X118415000Y-74035750D01*
X118413368Y-74123000D01*
X118339001Y-74123000D01*
X118328824Y-74112823D01*
X118328824Y-73300000D01*
X118411928Y-73300000D01*
X118415000Y-73464250D01*
X118573750Y-73623000D01*
X119323000Y-73623000D01*
X119323000Y-72823750D01*
X119577000Y-72823750D01*
X119577000Y-73623000D01*
X120326250Y-73623000D01*
X120485000Y-73464250D01*
X120488072Y-73300000D01*
X120475812Y-73175518D01*
X120439502Y-73055820D01*
X120380537Y-72945506D01*
X120301185Y-72848815D01*
X120204494Y-72769463D01*
X120094180Y-72710498D01*
X119974482Y-72674188D01*
X119850000Y-72661928D01*
X119735750Y-72665000D01*
X119577000Y-72823750D01*
X119323000Y-72823750D01*
X119164250Y-72665000D01*
X119050000Y-72661928D01*
X118925518Y-72674188D01*
X118805820Y-72710498D01*
X118695506Y-72769463D01*
X118598815Y-72848815D01*
X118519463Y-72945506D01*
X118460498Y-73055820D01*
X118424188Y-73175518D01*
X118411928Y-73300000D01*
X118328824Y-73300000D01*
X118321545Y-73226095D01*
X118299988Y-73155030D01*
X118264981Y-73089537D01*
X118217869Y-73032131D01*
X118160463Y-72985019D01*
X118094970Y-72950012D01*
X118092026Y-72949119D01*
X118085657Y-72928124D01*
X118032079Y-72827885D01*
X117959974Y-72740026D01*
X117937963Y-72721962D01*
X117328039Y-72112038D01*
X117309974Y-72090026D01*
X117222115Y-72017921D01*
X117121876Y-71964343D01*
X117057770Y-71944897D01*
X117013111Y-71931349D01*
X116958045Y-71925926D01*
X116928336Y-71923000D01*
X116928331Y-71923000D01*
X116900000Y-71920210D01*
X116871669Y-71923000D01*
X113028328Y-71923000D01*
X112999999Y-71920210D01*
X112971670Y-71923000D01*
X112971664Y-71923000D01*
X112886888Y-71931350D01*
X112778124Y-71964343D01*
X112677885Y-72017921D01*
X112631980Y-72055595D01*
X112612035Y-72071963D01*
X112612033Y-72071965D01*
X112590026Y-72090026D01*
X112571965Y-72112033D01*
X112310998Y-72373000D01*
X111377000Y-72373000D01*
X111377000Y-72296273D01*
X111391741Y-72247677D01*
X111403824Y-72125000D01*
X111403824Y-71255000D01*
X115196928Y-71255000D01*
X115209188Y-71379482D01*
X115245498Y-71499180D01*
X115304463Y-71609494D01*
X115383815Y-71706185D01*
X115480506Y-71785537D01*
X115590820Y-71844502D01*
X115710518Y-71880812D01*
X115835000Y-71893072D01*
X115999250Y-71890000D01*
X116158000Y-71731250D01*
X116158000Y-70382000D01*
X115358750Y-70382000D01*
X115200000Y-70540750D01*
X115196928Y-71255000D01*
X111403824Y-71255000D01*
X111403824Y-70875000D01*
X111391741Y-70752323D01*
X111355958Y-70634359D01*
X111297848Y-70525644D01*
X111219646Y-70430354D01*
X111124356Y-70352152D01*
X111054098Y-70314598D01*
X111023133Y-70276867D01*
X110989668Y-70249403D01*
X107627000Y-66886735D01*
X107627000Y-60314500D01*
X108484194Y-60314500D01*
X108496885Y-60338244D01*
X108571201Y-60428799D01*
X108661756Y-60503115D01*
X108765068Y-60558336D01*
X108877169Y-60592342D01*
X108993750Y-60603824D01*
X109506250Y-60603824D01*
X109622831Y-60592342D01*
X109734932Y-60558336D01*
X109838244Y-60503115D01*
X109924355Y-60432446D01*
X109935498Y-60469180D01*
X109994463Y-60579494D01*
X110073815Y-60676185D01*
X110170506Y-60755537D01*
X110280820Y-60814502D01*
X110400518Y-60850812D01*
X110525000Y-60863072D01*
X110714250Y-60860000D01*
X110873000Y-60701250D01*
X110873000Y-59914500D01*
X111127000Y-59914500D01*
X111127000Y-60701250D01*
X111285750Y-60860000D01*
X111475000Y-60863072D01*
X111599482Y-60850812D01*
X111719180Y-60814502D01*
X111829494Y-60755537D01*
X111926185Y-60676185D01*
X112005537Y-60579494D01*
X112064502Y-60469180D01*
X112100812Y-60349482D01*
X112113072Y-60225000D01*
X112110000Y-60073250D01*
X111951250Y-59914500D01*
X111127000Y-59914500D01*
X110873000Y-59914500D01*
X110853000Y-59914500D01*
X110853000Y-59660500D01*
X110873000Y-59660500D01*
X110873000Y-59640500D01*
X111127000Y-59640500D01*
X111127000Y-59660500D01*
X111951250Y-59660500D01*
X112110000Y-59501750D01*
X112113072Y-59350000D01*
X112100812Y-59225518D01*
X112064502Y-59105820D01*
X112005537Y-58995506D01*
X111926185Y-58898815D01*
X111829494Y-58819463D01*
X111744334Y-58773943D01*
X111753115Y-58763244D01*
X111808336Y-58659932D01*
X111842342Y-58547831D01*
X111853824Y-58431250D01*
X111853824Y-57993750D01*
X111842342Y-57877169D01*
X111808336Y-57765068D01*
X111753115Y-57661756D01*
X111678799Y-57571201D01*
X111588244Y-57496885D01*
X111527000Y-57464150D01*
X111527000Y-57193287D01*
X112121176Y-56599111D01*
X112121176Y-57005000D01*
X112128455Y-57078905D01*
X112150012Y-57149970D01*
X112171409Y-57190000D01*
X112150012Y-57230030D01*
X112128455Y-57301095D01*
X112121176Y-57375000D01*
X112121176Y-58275000D01*
X112128455Y-58348905D01*
X112150012Y-58419970D01*
X112171409Y-58460000D01*
X112150012Y-58500030D01*
X112128455Y-58571095D01*
X112121176Y-58645000D01*
X112121176Y-59545000D01*
X112128455Y-59618905D01*
X112150012Y-59689970D01*
X112171409Y-59730000D01*
X112150012Y-59770030D01*
X112128455Y-59841095D01*
X112121176Y-59915000D01*
X112121176Y-60815000D01*
X112128455Y-60888905D01*
X112150012Y-60959970D01*
X112171409Y-61000000D01*
X112150012Y-61040030D01*
X112129394Y-61108000D01*
X109848265Y-61108000D01*
X109809055Y-61068790D01*
X109665415Y-60972813D01*
X109505811Y-60906703D01*
X109336377Y-60873000D01*
X109163623Y-60873000D01*
X108994189Y-60906703D01*
X108834585Y-60972813D01*
X108690945Y-61068790D01*
X108568790Y-61190945D01*
X108472813Y-61334585D01*
X108406703Y-61494189D01*
X108373000Y-61663623D01*
X108373000Y-61836377D01*
X108406703Y-62005811D01*
X108472813Y-62165415D01*
X108568790Y-62309055D01*
X108690945Y-62431210D01*
X108834585Y-62527187D01*
X108994189Y-62593297D01*
X109163623Y-62627000D01*
X109336377Y-62627000D01*
X109505811Y-62593297D01*
X109665415Y-62527187D01*
X109809055Y-62431210D01*
X109931210Y-62309055D01*
X110027187Y-62165415D01*
X110028602Y-62162000D01*
X110731401Y-62162000D01*
X110584585Y-62222813D01*
X110440945Y-62318790D01*
X110318790Y-62440945D01*
X110222813Y-62584585D01*
X110156703Y-62744189D01*
X110123000Y-62913623D01*
X110123000Y-63086377D01*
X110156703Y-63255811D01*
X110222813Y-63415415D01*
X110318790Y-63559055D01*
X110407735Y-63648000D01*
X109888265Y-63648000D01*
X109809055Y-63568790D01*
X109665415Y-63472813D01*
X109505811Y-63406703D01*
X109336377Y-63373000D01*
X109163623Y-63373000D01*
X108994189Y-63406703D01*
X108834585Y-63472813D01*
X108690945Y-63568790D01*
X108568790Y-63690945D01*
X108472813Y-63834585D01*
X108406703Y-63994189D01*
X108373000Y-64163623D01*
X108373000Y-64336377D01*
X108406703Y-64505811D01*
X108472813Y-64665415D01*
X108568790Y-64809055D01*
X108690945Y-64931210D01*
X108834585Y-65027187D01*
X108994189Y-65093297D01*
X109163623Y-65127000D01*
X109336377Y-65127000D01*
X109505811Y-65093297D01*
X109665415Y-65027187D01*
X109809055Y-64931210D01*
X109931210Y-64809055D01*
X110002742Y-64702000D01*
X110634832Y-64702000D01*
X110584585Y-64722813D01*
X110440945Y-64818790D01*
X110318790Y-64940945D01*
X110222813Y-65084585D01*
X110156703Y-65244189D01*
X110123000Y-65413623D01*
X110123000Y-65586377D01*
X110156703Y-65755811D01*
X110222813Y-65915415D01*
X110318790Y-66059055D01*
X110440945Y-66181210D01*
X110451107Y-66188000D01*
X109928265Y-66188000D01*
X109809055Y-66068790D01*
X109665415Y-65972813D01*
X109505811Y-65906703D01*
X109336377Y-65873000D01*
X109163623Y-65873000D01*
X108994189Y-65906703D01*
X108834585Y-65972813D01*
X108690945Y-66068790D01*
X108568790Y-66190945D01*
X108472813Y-66334585D01*
X108406703Y-66494189D01*
X108373000Y-66663623D01*
X108373000Y-66836377D01*
X108406703Y-67005811D01*
X108472813Y-67165415D01*
X108568790Y-67309055D01*
X108690945Y-67431210D01*
X108834585Y-67527187D01*
X108994189Y-67593297D01*
X109163623Y-67627000D01*
X109336377Y-67627000D01*
X109505811Y-67593297D01*
X109665415Y-67527187D01*
X109809055Y-67431210D01*
X109931210Y-67309055D01*
X109976015Y-67242000D01*
X112129394Y-67242000D01*
X112150012Y-67309970D01*
X112171409Y-67350000D01*
X112150012Y-67390030D01*
X112128455Y-67461095D01*
X112121176Y-67535000D01*
X112121176Y-68435000D01*
X112128455Y-68508905D01*
X112150012Y-68579970D01*
X112171409Y-68620000D01*
X112150012Y-68660030D01*
X112128455Y-68731095D01*
X112121176Y-68805000D01*
X112121176Y-69705000D01*
X112128455Y-69778905D01*
X112150012Y-69849970D01*
X112185019Y-69915463D01*
X112232131Y-69972869D01*
X112289537Y-70019981D01*
X112355030Y-70054988D01*
X112426095Y-70076545D01*
X112500000Y-70083824D01*
X114500000Y-70083824D01*
X114573905Y-70076545D01*
X114644970Y-70054988D01*
X114710463Y-70019981D01*
X114767869Y-69972869D01*
X114814981Y-69915463D01*
X114849988Y-69849970D01*
X114871545Y-69778905D01*
X114878824Y-69705000D01*
X114878824Y-69255000D01*
X115196928Y-69255000D01*
X115200000Y-69969250D01*
X115358750Y-70128000D01*
X116158000Y-70128000D01*
X116158000Y-68778750D01*
X116412000Y-68778750D01*
X116412000Y-70128000D01*
X116432000Y-70128000D01*
X116432000Y-70382000D01*
X116412000Y-70382000D01*
X116412000Y-71731250D01*
X116570750Y-71890000D01*
X116735000Y-71893072D01*
X116859482Y-71880812D01*
X116979180Y-71844502D01*
X117089494Y-71785537D01*
X117186185Y-71706185D01*
X117245570Y-71633824D01*
X118005000Y-71633824D01*
X118078905Y-71626545D01*
X118149970Y-71604988D01*
X118190000Y-71583591D01*
X118230030Y-71604988D01*
X118301095Y-71626545D01*
X118375000Y-71633824D01*
X119275000Y-71633824D01*
X119348905Y-71626545D01*
X119419970Y-71604988D01*
X119460000Y-71583591D01*
X119500030Y-71604988D01*
X119571095Y-71626545D01*
X119645000Y-71633824D01*
X120545000Y-71633824D01*
X120618905Y-71626545D01*
X120689970Y-71604988D01*
X120730000Y-71583591D01*
X120770030Y-71604988D01*
X120841095Y-71626545D01*
X120915000Y-71633824D01*
X121815000Y-71633824D01*
X121888905Y-71626545D01*
X121959970Y-71604988D01*
X122000000Y-71583591D01*
X122040030Y-71604988D01*
X122111095Y-71626545D01*
X122185000Y-71633824D01*
X123085000Y-71633824D01*
X123158905Y-71626545D01*
X123229970Y-71604988D01*
X123270000Y-71583591D01*
X123310030Y-71604988D01*
X123381095Y-71626545D01*
X123455000Y-71633824D01*
X124355000Y-71633824D01*
X124428905Y-71626545D01*
X124499970Y-71604988D01*
X124540000Y-71583591D01*
X124580030Y-71604988D01*
X124651095Y-71626545D01*
X124725000Y-71633824D01*
X125625000Y-71633824D01*
X125698905Y-71626545D01*
X125769970Y-71604988D01*
X125810000Y-71583591D01*
X125850030Y-71604988D01*
X125921095Y-71626545D01*
X125995000Y-71633824D01*
X126895000Y-71633824D01*
X126968905Y-71626545D01*
X127039970Y-71604988D01*
X127080000Y-71583591D01*
X127120030Y-71604988D01*
X127191095Y-71626545D01*
X127265000Y-71633824D01*
X128165000Y-71633824D01*
X128238905Y-71626545D01*
X128309970Y-71604988D01*
X128375463Y-71569981D01*
X128432869Y-71522869D01*
X128479981Y-71465463D01*
X128514988Y-71399970D01*
X128536545Y-71328905D01*
X128543824Y-71255000D01*
X128543824Y-69255000D01*
X128536545Y-69181095D01*
X128514988Y-69110030D01*
X128479981Y-69044537D01*
X128432869Y-68987131D01*
X128375463Y-68940019D01*
X128309970Y-68905012D01*
X128238905Y-68883455D01*
X128165000Y-68876176D01*
X127265000Y-68876176D01*
X127191095Y-68883455D01*
X127120030Y-68905012D01*
X127080000Y-68926409D01*
X127039970Y-68905012D01*
X126968905Y-68883455D01*
X126895000Y-68876176D01*
X125995000Y-68876176D01*
X125921095Y-68883455D01*
X125850030Y-68905012D01*
X125810000Y-68926409D01*
X125769970Y-68905012D01*
X125698905Y-68883455D01*
X125625000Y-68876176D01*
X124725000Y-68876176D01*
X124651095Y-68883455D01*
X124580030Y-68905012D01*
X124540000Y-68926409D01*
X124499970Y-68905012D01*
X124428905Y-68883455D01*
X124355000Y-68876176D01*
X123455000Y-68876176D01*
X123381095Y-68883455D01*
X123310030Y-68905012D01*
X123270000Y-68926409D01*
X123229970Y-68905012D01*
X123158905Y-68883455D01*
X123085000Y-68876176D01*
X122185000Y-68876176D01*
X122111095Y-68883455D01*
X122040030Y-68905012D01*
X122000000Y-68926409D01*
X121959970Y-68905012D01*
X121888905Y-68883455D01*
X121815000Y-68876176D01*
X120915000Y-68876176D01*
X120841095Y-68883455D01*
X120770030Y-68905012D01*
X120730000Y-68926409D01*
X120689970Y-68905012D01*
X120618905Y-68883455D01*
X120545000Y-68876176D01*
X119645000Y-68876176D01*
X119571095Y-68883455D01*
X119500030Y-68905012D01*
X119460000Y-68926409D01*
X119419970Y-68905012D01*
X119348905Y-68883455D01*
X119275000Y-68876176D01*
X118375000Y-68876176D01*
X118301095Y-68883455D01*
X118230030Y-68905012D01*
X118190000Y-68926409D01*
X118149970Y-68905012D01*
X118078905Y-68883455D01*
X118005000Y-68876176D01*
X117245570Y-68876176D01*
X117186185Y-68803815D01*
X117089494Y-68724463D01*
X116979180Y-68665498D01*
X116859482Y-68629188D01*
X116735000Y-68616928D01*
X116570750Y-68620000D01*
X116412000Y-68778750D01*
X116158000Y-68778750D01*
X115999250Y-68620000D01*
X115835000Y-68616928D01*
X115710518Y-68629188D01*
X115590820Y-68665498D01*
X115480506Y-68724463D01*
X115383815Y-68803815D01*
X115304463Y-68900506D01*
X115245498Y-69010820D01*
X115209188Y-69130518D01*
X115196928Y-69255000D01*
X114878824Y-69255000D01*
X114878824Y-68805000D01*
X114871545Y-68731095D01*
X114849988Y-68660030D01*
X114828591Y-68620000D01*
X114849988Y-68579970D01*
X114871545Y-68508905D01*
X114878824Y-68435000D01*
X114878824Y-67535000D01*
X114871545Y-67461095D01*
X114849988Y-67390030D01*
X114828591Y-67350000D01*
X114849988Y-67309970D01*
X114871545Y-67238905D01*
X114878824Y-67165000D01*
X114878824Y-66265000D01*
X114871545Y-66191095D01*
X114849988Y-66120030D01*
X114828591Y-66080000D01*
X114849988Y-66039970D01*
X114871545Y-65968905D01*
X114878824Y-65895000D01*
X114878824Y-64995000D01*
X114871545Y-64921095D01*
X114849988Y-64850030D01*
X114828591Y-64810000D01*
X114849988Y-64769970D01*
X114871545Y-64698905D01*
X114878824Y-64625000D01*
X114878824Y-63725000D01*
X114871545Y-63651095D01*
X114849988Y-63580030D01*
X114828591Y-63540000D01*
X114849988Y-63499970D01*
X114870606Y-63432000D01*
X115686711Y-63432000D01*
X117723000Y-65468291D01*
X117723001Y-67570142D01*
X117650050Y-67679320D01*
X117599016Y-67802526D01*
X117573000Y-67933321D01*
X117573000Y-68066679D01*
X117599016Y-68197474D01*
X117650050Y-68320680D01*
X117724140Y-68431563D01*
X117818437Y-68525860D01*
X117929320Y-68599950D01*
X118052526Y-68650984D01*
X118183321Y-68677000D01*
X118316679Y-68677000D01*
X118447474Y-68650984D01*
X118570680Y-68599950D01*
X118681563Y-68525860D01*
X118775860Y-68431563D01*
X118849950Y-68320680D01*
X118900984Y-68197474D01*
X118927000Y-68066679D01*
X118927000Y-67933321D01*
X118900984Y-67802526D01*
X118849950Y-67679320D01*
X118777000Y-67570143D01*
X118777000Y-65275881D01*
X118779549Y-65250000D01*
X118769374Y-65146690D01*
X118750534Y-65084585D01*
X118739239Y-65047350D01*
X118690304Y-64955798D01*
X118624448Y-64875552D01*
X118604345Y-64859054D01*
X116490290Y-62745000D01*
X117861928Y-62745000D01*
X117874188Y-62869482D01*
X117910498Y-62989180D01*
X117969463Y-63099494D01*
X118048815Y-63196185D01*
X118145506Y-63275537D01*
X118255820Y-63334502D01*
X118375518Y-63370812D01*
X118500000Y-63383072D01*
X120714250Y-63380000D01*
X120873000Y-63221250D01*
X120873000Y-60372000D01*
X121127000Y-60372000D01*
X121127000Y-63221250D01*
X121285750Y-63380000D01*
X123500000Y-63383072D01*
X123624482Y-63370812D01*
X123744180Y-63334502D01*
X123854494Y-63275537D01*
X123951185Y-63196185D01*
X124030537Y-63099494D01*
X124089502Y-62989180D01*
X124125812Y-62869482D01*
X124138072Y-62745000D01*
X124135000Y-60530750D01*
X123976250Y-60372000D01*
X121127000Y-60372000D01*
X120873000Y-60372000D01*
X118023750Y-60372000D01*
X117865000Y-60530750D01*
X117861928Y-62745000D01*
X116490290Y-62745000D01*
X116295955Y-62550666D01*
X116279448Y-62530552D01*
X116199202Y-62464696D01*
X116107650Y-62415761D01*
X116008310Y-62385626D01*
X115930881Y-62378000D01*
X115905000Y-62375451D01*
X115879119Y-62378000D01*
X114870606Y-62378000D01*
X114849988Y-62310030D01*
X114828591Y-62270000D01*
X114849988Y-62229970D01*
X114871545Y-62158905D01*
X114878824Y-62085000D01*
X114878824Y-61185000D01*
X114871545Y-61111095D01*
X114849988Y-61040030D01*
X114828591Y-61000000D01*
X114849988Y-60959970D01*
X114871545Y-60888905D01*
X114878824Y-60815000D01*
X114878824Y-59915000D01*
X114871545Y-59841095D01*
X114849988Y-59770030D01*
X114828591Y-59730000D01*
X114849988Y-59689970D01*
X114871545Y-59618905D01*
X114878824Y-59545000D01*
X114878824Y-58645000D01*
X114871545Y-58571095D01*
X114849988Y-58500030D01*
X114828591Y-58460000D01*
X114849988Y-58419970D01*
X114871545Y-58348905D01*
X114878824Y-58275000D01*
X114878824Y-57745000D01*
X117861928Y-57745000D01*
X117865000Y-59959250D01*
X118023750Y-60118000D01*
X120873000Y-60118000D01*
X120873000Y-57268750D01*
X121127000Y-57268750D01*
X121127000Y-60118000D01*
X123976250Y-60118000D01*
X124135000Y-59959250D01*
X124138072Y-57745000D01*
X124125812Y-57620518D01*
X124089502Y-57500820D01*
X124030537Y-57390506D01*
X123951185Y-57293815D01*
X123854494Y-57214463D01*
X123744180Y-57155498D01*
X123624482Y-57119188D01*
X123500000Y-57106928D01*
X121285750Y-57110000D01*
X121127000Y-57268750D01*
X120873000Y-57268750D01*
X120714250Y-57110000D01*
X118500000Y-57106928D01*
X118375518Y-57119188D01*
X118255820Y-57155498D01*
X118145506Y-57214463D01*
X118048815Y-57293815D01*
X117969463Y-57390506D01*
X117910498Y-57500820D01*
X117874188Y-57620518D01*
X117861928Y-57745000D01*
X114878824Y-57745000D01*
X114878824Y-57375000D01*
X114871545Y-57301095D01*
X114849988Y-57230030D01*
X114828591Y-57190000D01*
X114849988Y-57149970D01*
X114871545Y-57078905D01*
X114878824Y-57005000D01*
X114878824Y-56105000D01*
X114871545Y-56031095D01*
X114849988Y-55960030D01*
X114828591Y-55920000D01*
X114849988Y-55879970D01*
X114870606Y-55812000D01*
X127066711Y-55812000D01*
X127823400Y-56568690D01*
G04 #@! TA.AperFunction,Conductor*
D30*
G36*
X127823400Y-56568690D02*
G01*
X127849016Y-56697474D01*
X127900050Y-56820680D01*
X127974140Y-56931563D01*
X128068437Y-57025860D01*
X128179320Y-57099950D01*
X128302526Y-57150984D01*
X128433321Y-57177000D01*
X128566679Y-57177000D01*
X128697474Y-57150984D01*
X128820680Y-57099950D01*
X128931563Y-57025860D01*
X129025860Y-56931563D01*
X129099950Y-56820680D01*
X129121176Y-56769436D01*
X129121176Y-57005000D01*
X129128455Y-57078905D01*
X129150012Y-57149970D01*
X129171409Y-57190000D01*
X129150012Y-57230030D01*
X129128455Y-57301095D01*
X129121176Y-57375000D01*
X129121176Y-58275000D01*
X129128455Y-58348905D01*
X129150012Y-58419970D01*
X129171409Y-58460000D01*
X129150012Y-58500030D01*
X129128455Y-58571095D01*
X129121176Y-58645000D01*
X129121176Y-59545000D01*
X129128455Y-59618905D01*
X129150012Y-59689970D01*
X129171409Y-59730000D01*
X129150012Y-59770030D01*
X129128455Y-59841095D01*
X129121176Y-59915000D01*
X129121176Y-60815000D01*
X129128455Y-60888905D01*
X129150012Y-60959970D01*
X129171409Y-61000000D01*
X129150012Y-61040030D01*
X129128455Y-61111095D01*
X129121176Y-61185000D01*
X129121176Y-62085000D01*
X129128455Y-62158905D01*
X129150012Y-62229970D01*
X129171409Y-62270000D01*
X129150012Y-62310030D01*
X129128455Y-62381095D01*
X129121176Y-62455000D01*
X129121176Y-63355000D01*
X129128455Y-63428905D01*
X129150012Y-63499970D01*
X129171409Y-63540000D01*
X129150012Y-63580030D01*
X129128455Y-63651095D01*
X129121176Y-63725000D01*
X129121176Y-64625000D01*
X129128455Y-64698905D01*
X129150012Y-64769970D01*
X129171409Y-64810000D01*
X129150012Y-64850030D01*
X129128455Y-64921095D01*
X129121176Y-64995000D01*
X129121176Y-65895000D01*
X129128455Y-65968905D01*
X129150012Y-66039970D01*
X129171409Y-66080000D01*
X129150012Y-66120030D01*
X129128455Y-66191095D01*
X129121176Y-66265000D01*
X129121176Y-67165000D01*
X129128455Y-67238905D01*
X129150012Y-67309970D01*
X129171409Y-67350000D01*
X129150012Y-67390030D01*
X129128455Y-67461095D01*
X129121176Y-67535000D01*
X129121176Y-68435000D01*
X129128455Y-68508905D01*
X129150012Y-68579970D01*
X129171409Y-68620000D01*
X129150012Y-68660030D01*
X129128455Y-68731095D01*
X129121176Y-68805000D01*
X129121176Y-69705000D01*
X129128455Y-69778905D01*
X129150012Y-69849970D01*
X129185019Y-69915463D01*
X129232131Y-69972869D01*
X129289537Y-70019981D01*
X129355030Y-70054988D01*
X129426095Y-70076545D01*
X129500000Y-70083824D01*
X131163859Y-70083824D01*
X131100050Y-70179320D01*
X131060386Y-70275075D01*
X130997474Y-70249016D01*
X130866679Y-70223000D01*
X130733321Y-70223000D01*
X130602526Y-70249016D01*
X130479320Y-70300050D01*
X130368437Y-70374140D01*
X130274140Y-70468437D01*
X130200050Y-70579320D01*
X130149016Y-70702526D01*
X130123400Y-70831310D01*
X128481711Y-72473000D01*
X122225881Y-72473000D01*
X122200000Y-72470451D01*
X122174119Y-72473000D01*
X122096690Y-72480626D01*
X121997350Y-72510761D01*
X121905798Y-72559696D01*
X121825552Y-72625552D01*
X121809049Y-72645661D01*
X120895662Y-73559049D01*
X120875553Y-73575552D01*
X120825216Y-73636888D01*
X120809696Y-73655799D01*
X120760761Y-73747351D01*
X120730626Y-73846691D01*
X120720451Y-73950000D01*
X120723001Y-73975890D01*
X120723000Y-75606999D01*
X119944742Y-74828741D01*
X119974482Y-74825812D01*
X120094180Y-74789502D01*
X120204494Y-74730537D01*
X120301185Y-74651185D01*
X120380537Y-74554494D01*
X120439502Y-74444180D01*
X120475812Y-74324482D01*
X120488072Y-74200000D01*
X120485000Y-74035750D01*
X120326250Y-73877000D01*
X119577000Y-73877000D01*
X119577000Y-73897000D01*
X119323000Y-73897000D01*
X119323000Y-73877000D01*
X118573750Y-73877000D01*
X118415000Y-74035750D01*
X118413368Y-74123000D01*
X118339001Y-74123000D01*
X118328824Y-74112823D01*
X118328824Y-73300000D01*
X118411928Y-73300000D01*
X118415000Y-73464250D01*
X118573750Y-73623000D01*
X119323000Y-73623000D01*
X119323000Y-72823750D01*
X119577000Y-72823750D01*
X119577000Y-73623000D01*
X120326250Y-73623000D01*
X120485000Y-73464250D01*
X120488072Y-73300000D01*
X120475812Y-73175518D01*
X120439502Y-73055820D01*
X120380537Y-72945506D01*
X120301185Y-72848815D01*
X120204494Y-72769463D01*
X120094180Y-72710498D01*
X119974482Y-72674188D01*
X119850000Y-72661928D01*
X119735750Y-72665000D01*
X119577000Y-72823750D01*
X119323000Y-72823750D01*
X119164250Y-72665000D01*
X119050000Y-72661928D01*
X118925518Y-72674188D01*
X118805820Y-72710498D01*
X118695506Y-72769463D01*
X118598815Y-72848815D01*
X118519463Y-72945506D01*
X118460498Y-73055820D01*
X118424188Y-73175518D01*
X118411928Y-73300000D01*
X118328824Y-73300000D01*
X118321545Y-73226095D01*
X118299988Y-73155030D01*
X118264981Y-73089537D01*
X118217869Y-73032131D01*
X118160463Y-72985019D01*
X118094970Y-72950012D01*
X118092026Y-72949119D01*
X118085657Y-72928124D01*
X118032079Y-72827885D01*
X117959974Y-72740026D01*
X117937963Y-72721962D01*
X117328039Y-72112038D01*
X117309974Y-72090026D01*
X117222115Y-72017921D01*
X117121876Y-71964343D01*
X117057770Y-71944897D01*
X117013111Y-71931349D01*
X116958045Y-71925926D01*
X116928336Y-71923000D01*
X116928331Y-71923000D01*
X116900000Y-71920210D01*
X116871669Y-71923000D01*
X113028328Y-71923000D01*
X112999999Y-71920210D01*
X112971670Y-71923000D01*
X112971664Y-71923000D01*
X112886888Y-71931350D01*
X112778124Y-71964343D01*
X112677885Y-72017921D01*
X112631980Y-72055595D01*
X112612035Y-72071963D01*
X112612033Y-72071965D01*
X112590026Y-72090026D01*
X112571965Y-72112033D01*
X112310998Y-72373000D01*
X111377000Y-72373000D01*
X111377000Y-72296273D01*
X111391741Y-72247677D01*
X111403824Y-72125000D01*
X111403824Y-71255000D01*
X115196928Y-71255000D01*
X115209188Y-71379482D01*
X115245498Y-71499180D01*
X115304463Y-71609494D01*
X115383815Y-71706185D01*
X115480506Y-71785537D01*
X115590820Y-71844502D01*
X115710518Y-71880812D01*
X115835000Y-71893072D01*
X115999250Y-71890000D01*
X116158000Y-71731250D01*
X116158000Y-70382000D01*
X115358750Y-70382000D01*
X115200000Y-70540750D01*
X115196928Y-71255000D01*
X111403824Y-71255000D01*
X111403824Y-70875000D01*
X111391741Y-70752323D01*
X111355958Y-70634359D01*
X111297848Y-70525644D01*
X111219646Y-70430354D01*
X111124356Y-70352152D01*
X111054098Y-70314598D01*
X111023133Y-70276867D01*
X110989668Y-70249403D01*
X107627000Y-66886735D01*
X107627000Y-60314500D01*
X108484194Y-60314500D01*
X108496885Y-60338244D01*
X108571201Y-60428799D01*
X108661756Y-60503115D01*
X108765068Y-60558336D01*
X108877169Y-60592342D01*
X108993750Y-60603824D01*
X109506250Y-60603824D01*
X109622831Y-60592342D01*
X109734932Y-60558336D01*
X109838244Y-60503115D01*
X109924355Y-60432446D01*
X109935498Y-60469180D01*
X109994463Y-60579494D01*
X110073815Y-60676185D01*
X110170506Y-60755537D01*
X110280820Y-60814502D01*
X110400518Y-60850812D01*
X110525000Y-60863072D01*
X110714250Y-60860000D01*
X110873000Y-60701250D01*
X110873000Y-59914500D01*
X111127000Y-59914500D01*
X111127000Y-60701250D01*
X111285750Y-60860000D01*
X111475000Y-60863072D01*
X111599482Y-60850812D01*
X111719180Y-60814502D01*
X111829494Y-60755537D01*
X111926185Y-60676185D01*
X112005537Y-60579494D01*
X112064502Y-60469180D01*
X112100812Y-60349482D01*
X112113072Y-60225000D01*
X112110000Y-60073250D01*
X111951250Y-59914500D01*
X111127000Y-59914500D01*
X110873000Y-59914500D01*
X110853000Y-59914500D01*
X110853000Y-59660500D01*
X110873000Y-59660500D01*
X110873000Y-59640500D01*
X111127000Y-59640500D01*
X111127000Y-59660500D01*
X111951250Y-59660500D01*
X112110000Y-59501750D01*
X112113072Y-59350000D01*
X112100812Y-59225518D01*
X112064502Y-59105820D01*
X112005537Y-58995506D01*
X111926185Y-58898815D01*
X111829494Y-58819463D01*
X111744334Y-58773943D01*
X111753115Y-58763244D01*
X111808336Y-58659932D01*
X111842342Y-58547831D01*
X111853824Y-58431250D01*
X111853824Y-57993750D01*
X111842342Y-57877169D01*
X111808336Y-57765068D01*
X111753115Y-57661756D01*
X111678799Y-57571201D01*
X111588244Y-57496885D01*
X111527000Y-57464150D01*
X111527000Y-57193287D01*
X112121176Y-56599111D01*
X112121176Y-57005000D01*
X112128455Y-57078905D01*
X112150012Y-57149970D01*
X112171409Y-57190000D01*
X112150012Y-57230030D01*
X112128455Y-57301095D01*
X112121176Y-57375000D01*
X112121176Y-58275000D01*
X112128455Y-58348905D01*
X112150012Y-58419970D01*
X112171409Y-58460000D01*
X112150012Y-58500030D01*
X112128455Y-58571095D01*
X112121176Y-58645000D01*
X112121176Y-59545000D01*
X112128455Y-59618905D01*
X112150012Y-59689970D01*
X112171409Y-59730000D01*
X112150012Y-59770030D01*
X112128455Y-59841095D01*
X112121176Y-59915000D01*
X112121176Y-60815000D01*
X112128455Y-60888905D01*
X112150012Y-60959970D01*
X112171409Y-61000000D01*
X112150012Y-61040030D01*
X112129394Y-61108000D01*
X109848265Y-61108000D01*
X109809055Y-61068790D01*
X109665415Y-60972813D01*
X109505811Y-60906703D01*
X109336377Y-60873000D01*
X109163623Y-60873000D01*
X108994189Y-60906703D01*
X108834585Y-60972813D01*
X108690945Y-61068790D01*
X108568790Y-61190945D01*
X108472813Y-61334585D01*
X108406703Y-61494189D01*
X108373000Y-61663623D01*
X108373000Y-61836377D01*
X108406703Y-62005811D01*
X108472813Y-62165415D01*
X108568790Y-62309055D01*
X108690945Y-62431210D01*
X108834585Y-62527187D01*
X108994189Y-62593297D01*
X109163623Y-62627000D01*
X109336377Y-62627000D01*
X109505811Y-62593297D01*
X109665415Y-62527187D01*
X109809055Y-62431210D01*
X109931210Y-62309055D01*
X110027187Y-62165415D01*
X110028602Y-62162000D01*
X110731401Y-62162000D01*
X110584585Y-62222813D01*
X110440945Y-62318790D01*
X110318790Y-62440945D01*
X110222813Y-62584585D01*
X110156703Y-62744189D01*
X110123000Y-62913623D01*
X110123000Y-63086377D01*
X110156703Y-63255811D01*
X110222813Y-63415415D01*
X110318790Y-63559055D01*
X110407735Y-63648000D01*
X109888265Y-63648000D01*
X109809055Y-63568790D01*
X109665415Y-63472813D01*
X109505811Y-63406703D01*
X109336377Y-63373000D01*
X109163623Y-63373000D01*
X108994189Y-63406703D01*
X108834585Y-63472813D01*
X108690945Y-63568790D01*
X108568790Y-63690945D01*
X108472813Y-63834585D01*
X108406703Y-63994189D01*
X108373000Y-64163623D01*
X108373000Y-64336377D01*
X108406703Y-64505811D01*
X108472813Y-64665415D01*
X108568790Y-64809055D01*
X108690945Y-64931210D01*
X108834585Y-65027187D01*
X108994189Y-65093297D01*
X109163623Y-65127000D01*
X109336377Y-65127000D01*
X109505811Y-65093297D01*
X109665415Y-65027187D01*
X109809055Y-64931210D01*
X109931210Y-64809055D01*
X110002742Y-64702000D01*
X110634832Y-64702000D01*
X110584585Y-64722813D01*
X110440945Y-64818790D01*
X110318790Y-64940945D01*
X110222813Y-65084585D01*
X110156703Y-65244189D01*
X110123000Y-65413623D01*
X110123000Y-65586377D01*
X110156703Y-65755811D01*
X110222813Y-65915415D01*
X110318790Y-66059055D01*
X110440945Y-66181210D01*
X110451107Y-66188000D01*
X109928265Y-66188000D01*
X109809055Y-66068790D01*
X109665415Y-65972813D01*
X109505811Y-65906703D01*
X109336377Y-65873000D01*
X109163623Y-65873000D01*
X108994189Y-65906703D01*
X108834585Y-65972813D01*
X108690945Y-66068790D01*
X108568790Y-66190945D01*
X108472813Y-66334585D01*
X108406703Y-66494189D01*
X108373000Y-66663623D01*
X108373000Y-66836377D01*
X108406703Y-67005811D01*
X108472813Y-67165415D01*
X108568790Y-67309055D01*
X108690945Y-67431210D01*
X108834585Y-67527187D01*
X108994189Y-67593297D01*
X109163623Y-67627000D01*
X109336377Y-67627000D01*
X109505811Y-67593297D01*
X109665415Y-67527187D01*
X109809055Y-67431210D01*
X109931210Y-67309055D01*
X109976015Y-67242000D01*
X112129394Y-67242000D01*
X112150012Y-67309970D01*
X112171409Y-67350000D01*
X112150012Y-67390030D01*
X112128455Y-67461095D01*
X112121176Y-67535000D01*
X112121176Y-68435000D01*
X112128455Y-68508905D01*
X112150012Y-68579970D01*
X112171409Y-68620000D01*
X112150012Y-68660030D01*
X112128455Y-68731095D01*
X112121176Y-68805000D01*
X112121176Y-69705000D01*
X112128455Y-69778905D01*
X112150012Y-69849970D01*
X112185019Y-69915463D01*
X112232131Y-69972869D01*
X112289537Y-70019981D01*
X112355030Y-70054988D01*
X112426095Y-70076545D01*
X112500000Y-70083824D01*
X114500000Y-70083824D01*
X114573905Y-70076545D01*
X114644970Y-70054988D01*
X114710463Y-70019981D01*
X114767869Y-69972869D01*
X114814981Y-69915463D01*
X114849988Y-69849970D01*
X114871545Y-69778905D01*
X114878824Y-69705000D01*
X114878824Y-69255000D01*
X115196928Y-69255000D01*
X115200000Y-69969250D01*
X115358750Y-70128000D01*
X116158000Y-70128000D01*
X116158000Y-68778750D01*
X116412000Y-68778750D01*
X116412000Y-70128000D01*
X116432000Y-70128000D01*
X116432000Y-70382000D01*
X116412000Y-70382000D01*
X116412000Y-71731250D01*
X116570750Y-71890000D01*
X116735000Y-71893072D01*
X116859482Y-71880812D01*
X116979180Y-71844502D01*
X117089494Y-71785537D01*
X117186185Y-71706185D01*
X117245570Y-71633824D01*
X118005000Y-71633824D01*
X118078905Y-71626545D01*
X118149970Y-71604988D01*
X118190000Y-71583591D01*
X118230030Y-71604988D01*
X118301095Y-71626545D01*
X118375000Y-71633824D01*
X119275000Y-71633824D01*
X119348905Y-71626545D01*
X119419970Y-71604988D01*
X119460000Y-71583591D01*
X119500030Y-71604988D01*
X119571095Y-71626545D01*
X119645000Y-71633824D01*
X120545000Y-71633824D01*
X120618905Y-71626545D01*
X120689970Y-71604988D01*
X120730000Y-71583591D01*
X120770030Y-71604988D01*
X120841095Y-71626545D01*
X120915000Y-71633824D01*
X121815000Y-71633824D01*
X121888905Y-71626545D01*
X121959970Y-71604988D01*
X122000000Y-71583591D01*
X122040030Y-71604988D01*
X122111095Y-71626545D01*
X122185000Y-71633824D01*
X123085000Y-71633824D01*
X123158905Y-71626545D01*
X123229970Y-71604988D01*
X123270000Y-71583591D01*
X123310030Y-71604988D01*
X123381095Y-71626545D01*
X123455000Y-71633824D01*
X124355000Y-71633824D01*
X124428905Y-71626545D01*
X124499970Y-71604988D01*
X124540000Y-71583591D01*
X124580030Y-71604988D01*
X124651095Y-71626545D01*
X124725000Y-71633824D01*
X125625000Y-71633824D01*
X125698905Y-71626545D01*
X125769970Y-71604988D01*
X125810000Y-71583591D01*
X125850030Y-71604988D01*
X125921095Y-71626545D01*
X125995000Y-71633824D01*
X126895000Y-71633824D01*
X126968905Y-71626545D01*
X127039970Y-71604988D01*
X127080000Y-71583591D01*
X127120030Y-71604988D01*
X127191095Y-71626545D01*
X127265000Y-71633824D01*
X128165000Y-71633824D01*
X128238905Y-71626545D01*
X128309970Y-71604988D01*
X128375463Y-71569981D01*
X128432869Y-71522869D01*
X128479981Y-71465463D01*
X128514988Y-71399970D01*
X128536545Y-71328905D01*
X128543824Y-71255000D01*
X128543824Y-69255000D01*
X128536545Y-69181095D01*
X128514988Y-69110030D01*
X128479981Y-69044537D01*
X128432869Y-68987131D01*
X128375463Y-68940019D01*
X128309970Y-68905012D01*
X128238905Y-68883455D01*
X128165000Y-68876176D01*
X127265000Y-68876176D01*
X127191095Y-68883455D01*
X127120030Y-68905012D01*
X127080000Y-68926409D01*
X127039970Y-68905012D01*
X126968905Y-68883455D01*
X126895000Y-68876176D01*
X125995000Y-68876176D01*
X125921095Y-68883455D01*
X125850030Y-68905012D01*
X125810000Y-68926409D01*
X125769970Y-68905012D01*
X125698905Y-68883455D01*
X125625000Y-68876176D01*
X124725000Y-68876176D01*
X124651095Y-68883455D01*
X124580030Y-68905012D01*
X124540000Y-68926409D01*
X124499970Y-68905012D01*
X124428905Y-68883455D01*
X124355000Y-68876176D01*
X123455000Y-68876176D01*
X123381095Y-68883455D01*
X123310030Y-68905012D01*
X123270000Y-68926409D01*
X123229970Y-68905012D01*
X123158905Y-68883455D01*
X123085000Y-68876176D01*
X122185000Y-68876176D01*
X122111095Y-68883455D01*
X122040030Y-68905012D01*
X122000000Y-68926409D01*
X121959970Y-68905012D01*
X121888905Y-68883455D01*
X121815000Y-68876176D01*
X120915000Y-68876176D01*
X120841095Y-68883455D01*
X120770030Y-68905012D01*
X120730000Y-68926409D01*
X120689970Y-68905012D01*
X120618905Y-68883455D01*
X120545000Y-68876176D01*
X119645000Y-68876176D01*
X119571095Y-68883455D01*
X119500030Y-68905012D01*
X119460000Y-68926409D01*
X119419970Y-68905012D01*
X119348905Y-68883455D01*
X119275000Y-68876176D01*
X118375000Y-68876176D01*
X118301095Y-68883455D01*
X118230030Y-68905012D01*
X118190000Y-68926409D01*
X118149970Y-68905012D01*
X118078905Y-68883455D01*
X118005000Y-68876176D01*
X117245570Y-68876176D01*
X117186185Y-68803815D01*
X117089494Y-68724463D01*
X116979180Y-68665498D01*
X116859482Y-68629188D01*
X116735000Y-68616928D01*
X116570750Y-68620000D01*
X116412000Y-68778750D01*
X116158000Y-68778750D01*
X115999250Y-68620000D01*
X115835000Y-68616928D01*
X115710518Y-68629188D01*
X115590820Y-68665498D01*
X115480506Y-68724463D01*
X115383815Y-68803815D01*
X115304463Y-68900506D01*
X115245498Y-69010820D01*
X115209188Y-69130518D01*
X115196928Y-69255000D01*
X114878824Y-69255000D01*
X114878824Y-68805000D01*
X114871545Y-68731095D01*
X114849988Y-68660030D01*
X114828591Y-68620000D01*
X114849988Y-68579970D01*
X114871545Y-68508905D01*
X114878824Y-68435000D01*
X114878824Y-67535000D01*
X114871545Y-67461095D01*
X114849988Y-67390030D01*
X114828591Y-67350000D01*
X114849988Y-67309970D01*
X114871545Y-67238905D01*
X114878824Y-67165000D01*
X114878824Y-66265000D01*
X114871545Y-66191095D01*
X114849988Y-66120030D01*
X114828591Y-66080000D01*
X114849988Y-66039970D01*
X114871545Y-65968905D01*
X114878824Y-65895000D01*
X114878824Y-64995000D01*
X114871545Y-64921095D01*
X114849988Y-64850030D01*
X114828591Y-64810000D01*
X114849988Y-64769970D01*
X114871545Y-64698905D01*
X114878824Y-64625000D01*
X114878824Y-63725000D01*
X114871545Y-63651095D01*
X114849988Y-63580030D01*
X114828591Y-63540000D01*
X114849988Y-63499970D01*
X114870606Y-63432000D01*
X115686711Y-63432000D01*
X117723000Y-65468291D01*
X117723001Y-67570142D01*
X117650050Y-67679320D01*
X117599016Y-67802526D01*
X117573000Y-67933321D01*
X117573000Y-68066679D01*
X117599016Y-68197474D01*
X117650050Y-68320680D01*
X117724140Y-68431563D01*
X117818437Y-68525860D01*
X117929320Y-68599950D01*
X118052526Y-68650984D01*
X118183321Y-68677000D01*
X118316679Y-68677000D01*
X118447474Y-68650984D01*
X118570680Y-68599950D01*
X118681563Y-68525860D01*
X118775860Y-68431563D01*
X118849950Y-68320680D01*
X118900984Y-68197474D01*
X118927000Y-68066679D01*
X118927000Y-67933321D01*
X118900984Y-67802526D01*
X118849950Y-67679320D01*
X118777000Y-67570143D01*
X118777000Y-65275881D01*
X118779549Y-65250000D01*
X118769374Y-65146690D01*
X118750534Y-65084585D01*
X118739239Y-65047350D01*
X118690304Y-64955798D01*
X118624448Y-64875552D01*
X118604345Y-64859054D01*
X116490290Y-62745000D01*
X117861928Y-62745000D01*
X117874188Y-62869482D01*
X117910498Y-62989180D01*
X117969463Y-63099494D01*
X118048815Y-63196185D01*
X118145506Y-63275537D01*
X118255820Y-63334502D01*
X118375518Y-63370812D01*
X118500000Y-63383072D01*
X120714250Y-63380000D01*
X120873000Y-63221250D01*
X120873000Y-60372000D01*
X121127000Y-60372000D01*
X121127000Y-63221250D01*
X121285750Y-63380000D01*
X123500000Y-63383072D01*
X123624482Y-63370812D01*
X123744180Y-63334502D01*
X123854494Y-63275537D01*
X123951185Y-63196185D01*
X124030537Y-63099494D01*
X124089502Y-62989180D01*
X124125812Y-62869482D01*
X124138072Y-62745000D01*
X124135000Y-60530750D01*
X123976250Y-60372000D01*
X121127000Y-60372000D01*
X120873000Y-60372000D01*
X118023750Y-60372000D01*
X117865000Y-60530750D01*
X117861928Y-62745000D01*
X116490290Y-62745000D01*
X116295955Y-62550666D01*
X116279448Y-62530552D01*
X116199202Y-62464696D01*
X116107650Y-62415761D01*
X116008310Y-62385626D01*
X115930881Y-62378000D01*
X115905000Y-62375451D01*
X115879119Y-62378000D01*
X114870606Y-62378000D01*
X114849988Y-62310030D01*
X114828591Y-62270000D01*
X114849988Y-62229970D01*
X114871545Y-62158905D01*
X114878824Y-62085000D01*
X114878824Y-61185000D01*
X114871545Y-61111095D01*
X114849988Y-61040030D01*
X114828591Y-61000000D01*
X114849988Y-60959970D01*
X114871545Y-60888905D01*
X114878824Y-60815000D01*
X114878824Y-59915000D01*
X114871545Y-59841095D01*
X114849988Y-59770030D01*
X114828591Y-59730000D01*
X114849988Y-59689970D01*
X114871545Y-59618905D01*
X114878824Y-59545000D01*
X114878824Y-58645000D01*
X114871545Y-58571095D01*
X114849988Y-58500030D01*
X114828591Y-58460000D01*
X114849988Y-58419970D01*
X114871545Y-58348905D01*
X114878824Y-58275000D01*
X114878824Y-57745000D01*
X117861928Y-57745000D01*
X117865000Y-59959250D01*
X118023750Y-60118000D01*
X120873000Y-60118000D01*
X120873000Y-57268750D01*
X121127000Y-57268750D01*
X121127000Y-60118000D01*
X123976250Y-60118000D01*
X124135000Y-59959250D01*
X124138072Y-57745000D01*
X124125812Y-57620518D01*
X124089502Y-57500820D01*
X124030537Y-57390506D01*
X123951185Y-57293815D01*
X123854494Y-57214463D01*
X123744180Y-57155498D01*
X123624482Y-57119188D01*
X123500000Y-57106928D01*
X121285750Y-57110000D01*
X121127000Y-57268750D01*
X120873000Y-57268750D01*
X120714250Y-57110000D01*
X118500000Y-57106928D01*
X118375518Y-57119188D01*
X118255820Y-57155498D01*
X118145506Y-57214463D01*
X118048815Y-57293815D01*
X117969463Y-57390506D01*
X117910498Y-57500820D01*
X117874188Y-57620518D01*
X117861928Y-57745000D01*
X114878824Y-57745000D01*
X114878824Y-57375000D01*
X114871545Y-57301095D01*
X114849988Y-57230030D01*
X114828591Y-57190000D01*
X114849988Y-57149970D01*
X114871545Y-57078905D01*
X114878824Y-57005000D01*
X114878824Y-56105000D01*
X114871545Y-56031095D01*
X114849988Y-55960030D01*
X114828591Y-55920000D01*
X114849988Y-55879970D01*
X114870606Y-55812000D01*
X127066711Y-55812000D01*
X127823400Y-56568690D01*
G37*
G04 #@! TD.AperFunction*
D29*
X113473000Y-79255369D02*
X113470451Y-79281250D01*
X113473000Y-79307131D01*
X113473000Y-80973000D01*
X109700000Y-80973000D01*
X109675224Y-80975440D01*
X109651399Y-80982667D01*
X109629443Y-80994403D01*
X109610197Y-81010197D01*
X109588982Y-81038323D01*
X109088982Y-81938323D01*
X109079083Y-81961167D01*
X109073830Y-81985503D01*
X109073000Y-82000000D01*
X109073000Y-84173000D01*
X105876165Y-84173000D01*
X105866741Y-84077322D01*
X105830958Y-83959359D01*
X105777000Y-83858412D01*
X105777000Y-80311834D01*
X105765757Y-80197681D01*
X105721327Y-80051216D01*
X105703824Y-80018470D01*
X105703824Y-79827000D01*
X106600000Y-79827000D01*
X106624776Y-79824560D01*
X106648601Y-79817333D01*
X106670557Y-79805597D01*
X106689803Y-79789803D01*
X106705597Y-79770557D01*
X106717333Y-79748601D01*
X106724560Y-79724776D01*
X106727000Y-79700000D01*
X106727000Y-78377000D01*
X113473000Y-78377000D01*
X113473000Y-79255369D01*
G04 #@! TA.AperFunction,Conductor*
D30*
G36*
X113473000Y-79255369D02*
G01*
X113470451Y-79281250D01*
X113473000Y-79307131D01*
X113473000Y-80973000D01*
X109700000Y-80973000D01*
X109675224Y-80975440D01*
X109651399Y-80982667D01*
X109629443Y-80994403D01*
X109610197Y-81010197D01*
X109588982Y-81038323D01*
X109088982Y-81938323D01*
X109079083Y-81961167D01*
X109073830Y-81985503D01*
X109073000Y-82000000D01*
X109073000Y-84173000D01*
X105876165Y-84173000D01*
X105866741Y-84077322D01*
X105830958Y-83959359D01*
X105777000Y-83858412D01*
X105777000Y-80311834D01*
X105765757Y-80197681D01*
X105721327Y-80051216D01*
X105703824Y-80018470D01*
X105703824Y-79827000D01*
X106600000Y-79827000D01*
X106624776Y-79824560D01*
X106648601Y-79817333D01*
X106670557Y-79805597D01*
X106689803Y-79789803D01*
X106705597Y-79770557D01*
X106717333Y-79748601D01*
X106724560Y-79724776D01*
X106727000Y-79700000D01*
X106727000Y-78377000D01*
X113473000Y-78377000D01*
X113473000Y-79255369D01*
G37*
G04 #@! TD.AperFunction*
D29*
X120265251Y-90342467D02*
X120320570Y-90379430D01*
X120357533Y-90434749D01*
X120373000Y-90512509D01*
X120373000Y-94363227D01*
X120357533Y-94440987D01*
X120313484Y-94506910D01*
X117998065Y-96822329D01*
X117982271Y-96841574D01*
X117917239Y-96938901D01*
X117905503Y-96960858D01*
X117898276Y-96984683D01*
X117875440Y-97099488D01*
X117873000Y-97124264D01*
X117873000Y-100487491D01*
X117857533Y-100565251D01*
X117820570Y-100620570D01*
X117765251Y-100657533D01*
X117687491Y-100673000D01*
X115912509Y-100673000D01*
X115834749Y-100657533D01*
X115779430Y-100620570D01*
X115742467Y-100565251D01*
X115727000Y-100487491D01*
X115727000Y-97239206D01*
X115742959Y-97160279D01*
X115788330Y-97093753D01*
X119598089Y-93379238D01*
X119614352Y-93359863D01*
X119681354Y-93261619D01*
X119693298Y-93239774D01*
X119700913Y-93215232D01*
X119724481Y-93098676D01*
X119727000Y-93073506D01*
X119727000Y-90512509D01*
X119742467Y-90434749D01*
X119779430Y-90379430D01*
X119834749Y-90342467D01*
X119912509Y-90327000D01*
X120187491Y-90327000D01*
X120265251Y-90342467D01*
G04 #@! TA.AperFunction,Conductor*
D30*
G36*
X120265251Y-90342467D02*
G01*
X120320570Y-90379430D01*
X120357533Y-90434749D01*
X120373000Y-90512509D01*
X120373000Y-94363227D01*
X120357533Y-94440987D01*
X120313484Y-94506910D01*
X117998065Y-96822329D01*
X117982271Y-96841574D01*
X117917239Y-96938901D01*
X117905503Y-96960858D01*
X117898276Y-96984683D01*
X117875440Y-97099488D01*
X117873000Y-97124264D01*
X117873000Y-100487491D01*
X117857533Y-100565251D01*
X117820570Y-100620570D01*
X117765251Y-100657533D01*
X117687491Y-100673000D01*
X115912509Y-100673000D01*
X115834749Y-100657533D01*
X115779430Y-100620570D01*
X115742467Y-100565251D01*
X115727000Y-100487491D01*
X115727000Y-97239206D01*
X115742959Y-97160279D01*
X115788330Y-97093753D01*
X119598089Y-93379238D01*
X119614352Y-93359863D01*
X119681354Y-93261619D01*
X119693298Y-93239774D01*
X119700913Y-93215232D01*
X119724481Y-93098676D01*
X119727000Y-93073506D01*
X119727000Y-90512509D01*
X119742467Y-90434749D01*
X119779430Y-90379430D01*
X119834749Y-90342467D01*
X119912509Y-90327000D01*
X120187491Y-90327000D01*
X120265251Y-90342467D01*
G37*
G04 #@! TD.AperFunction*
D29*
X129565251Y-90442467D02*
X129620570Y-90479430D01*
X129657533Y-90534749D01*
X129673000Y-90612509D01*
X129673000Y-94163227D01*
X129657533Y-94240987D01*
X129613484Y-94306910D01*
X128298065Y-95622329D01*
X128282271Y-95641574D01*
X128217239Y-95738901D01*
X128205503Y-95760858D01*
X128198276Y-95784683D01*
X128175440Y-95899488D01*
X128173000Y-95924264D01*
X128173000Y-100587491D01*
X128157533Y-100665251D01*
X128120570Y-100720570D01*
X128065251Y-100757533D01*
X127987491Y-100773000D01*
X126012509Y-100773000D01*
X125934749Y-100757533D01*
X125879430Y-100720570D01*
X125842467Y-100665251D01*
X125827000Y-100587491D01*
X125827000Y-96336773D01*
X125842467Y-96259013D01*
X125886516Y-96193090D01*
X128801935Y-93277671D01*
X128817729Y-93258426D01*
X128882761Y-93161099D01*
X128894497Y-93139142D01*
X128901724Y-93115317D01*
X128924560Y-93000512D01*
X128927000Y-92975736D01*
X128927000Y-90612509D01*
X128942467Y-90534749D01*
X128979430Y-90479430D01*
X129034749Y-90442467D01*
X129112509Y-90427000D01*
X129487491Y-90427000D01*
X129565251Y-90442467D01*
G04 #@! TA.AperFunction,Conductor*
D30*
G36*
X129565251Y-90442467D02*
G01*
X129620570Y-90479430D01*
X129657533Y-90534749D01*
X129673000Y-90612509D01*
X129673000Y-94163227D01*
X129657533Y-94240987D01*
X129613484Y-94306910D01*
X128298065Y-95622329D01*
X128282271Y-95641574D01*
X128217239Y-95738901D01*
X128205503Y-95760858D01*
X128198276Y-95784683D01*
X128175440Y-95899488D01*
X128173000Y-95924264D01*
X128173000Y-100587491D01*
X128157533Y-100665251D01*
X128120570Y-100720570D01*
X128065251Y-100757533D01*
X127987491Y-100773000D01*
X126012509Y-100773000D01*
X125934749Y-100757533D01*
X125879430Y-100720570D01*
X125842467Y-100665251D01*
X125827000Y-100587491D01*
X125827000Y-96336773D01*
X125842467Y-96259013D01*
X125886516Y-96193090D01*
X128801935Y-93277671D01*
X128817729Y-93258426D01*
X128882761Y-93161099D01*
X128894497Y-93139142D01*
X128901724Y-93115317D01*
X128924560Y-93000512D01*
X128927000Y-92975736D01*
X128927000Y-90612509D01*
X128942467Y-90534749D01*
X128979430Y-90479430D01*
X129034749Y-90442467D01*
X129112509Y-90427000D01*
X129487491Y-90427000D01*
X129565251Y-90442467D01*
G37*
G04 #@! TD.AperFunction*
D29*
X130265251Y-81642467D02*
X130320570Y-81679430D01*
X130357533Y-81734749D01*
X130373000Y-81812509D01*
X130373000Y-89387491D01*
X130357533Y-89465251D01*
X130320570Y-89520570D01*
X130265251Y-89557533D01*
X130187491Y-89573000D01*
X124000000Y-89573000D01*
X123975224Y-89575440D01*
X123860419Y-89598276D01*
X123836594Y-89605503D01*
X123814637Y-89617239D01*
X123717310Y-89682271D01*
X123698065Y-89698066D01*
X123682271Y-89717310D01*
X123617239Y-89814637D01*
X123605503Y-89836594D01*
X123598276Y-89860419D01*
X123575440Y-89975224D01*
X123573000Y-90000000D01*
X123573000Y-100487491D01*
X123557533Y-100565251D01*
X123520570Y-100620570D01*
X123465251Y-100657533D01*
X123387491Y-100673000D01*
X120815199Y-100673000D01*
X120737035Y-100657364D01*
X120681547Y-100620025D01*
X120644692Y-100564214D01*
X120629735Y-100485915D01*
X120678705Y-94854453D01*
X120678711Y-94854447D01*
X120725596Y-94797318D01*
X120790628Y-94699991D01*
X120825467Y-94634812D01*
X120846920Y-94564090D01*
X120869756Y-94449285D01*
X120877000Y-94375736D01*
X120877000Y-90500000D01*
X120869756Y-90426451D01*
X120846920Y-90311646D01*
X120825466Y-90240923D01*
X120790628Y-90175745D01*
X120725596Y-90078418D01*
X120720293Y-90071956D01*
X120720886Y-90003713D01*
X120718636Y-89978781D01*
X120696554Y-89863177D01*
X120689508Y-89839298D01*
X120677787Y-89817022D01*
X120612932Y-89718809D01*
X120597243Y-89699479D01*
X120577855Y-89683426D01*
X120480210Y-89617720D01*
X120458292Y-89605912D01*
X120434221Y-89598553D01*
X120318814Y-89575467D01*
X120293902Y-89573000D01*
X114527000Y-89573000D01*
X114527000Y-81627000D01*
X130187491Y-81627000D01*
X130265251Y-81642467D01*
G04 #@! TA.AperFunction,Conductor*
D30*
G36*
X130265251Y-81642467D02*
G01*
X130320570Y-81679430D01*
X130357533Y-81734749D01*
X130373000Y-81812509D01*
X130373000Y-89387491D01*
X130357533Y-89465251D01*
X130320570Y-89520570D01*
X130265251Y-89557533D01*
X130187491Y-89573000D01*
X124000000Y-89573000D01*
X123975224Y-89575440D01*
X123860419Y-89598276D01*
X123836594Y-89605503D01*
X123814637Y-89617239D01*
X123717310Y-89682271D01*
X123698065Y-89698066D01*
X123682271Y-89717310D01*
X123617239Y-89814637D01*
X123605503Y-89836594D01*
X123598276Y-89860419D01*
X123575440Y-89975224D01*
X123573000Y-90000000D01*
X123573000Y-100487491D01*
X123557533Y-100565251D01*
X123520570Y-100620570D01*
X123465251Y-100657533D01*
X123387491Y-100673000D01*
X120815199Y-100673000D01*
X120737035Y-100657364D01*
X120681547Y-100620025D01*
X120644692Y-100564214D01*
X120629735Y-100485915D01*
X120678705Y-94854453D01*
X120678711Y-94854447D01*
X120725596Y-94797318D01*
X120790628Y-94699991D01*
X120825467Y-94634812D01*
X120846920Y-94564090D01*
X120869756Y-94449285D01*
X120877000Y-94375736D01*
X120877000Y-90500000D01*
X120869756Y-90426451D01*
X120846920Y-90311646D01*
X120825466Y-90240923D01*
X120790628Y-90175745D01*
X120725596Y-90078418D01*
X120720293Y-90071956D01*
X120720886Y-90003713D01*
X120718636Y-89978781D01*
X120696554Y-89863177D01*
X120689508Y-89839298D01*
X120677787Y-89817022D01*
X120612932Y-89718809D01*
X120597243Y-89699479D01*
X120577855Y-89683426D01*
X120480210Y-89617720D01*
X120458292Y-89605912D01*
X120434221Y-89598553D01*
X120318814Y-89575467D01*
X120293902Y-89573000D01*
X114527000Y-89573000D01*
X114527000Y-81627000D01*
X130187491Y-81627000D01*
X130265251Y-81642467D01*
G37*
G04 #@! TD.AperFunction*
D29*
X112765251Y-72892467D02*
X112820570Y-72929430D01*
X112857533Y-72984749D01*
X112873000Y-73062509D01*
X112873000Y-75437491D01*
X112857533Y-75515251D01*
X112820570Y-75570570D01*
X112765251Y-75607533D01*
X112687491Y-75623000D01*
X108312509Y-75623000D01*
X108234749Y-75607533D01*
X108179430Y-75570570D01*
X108142467Y-75515251D01*
X108127000Y-75437491D01*
X108127000Y-73062509D01*
X108142467Y-72984749D01*
X108179430Y-72929430D01*
X108234749Y-72892467D01*
X108312509Y-72877000D01*
X112687491Y-72877000D01*
X112765251Y-72892467D01*
G04 #@! TA.AperFunction,Conductor*
D30*
G36*
X112765251Y-72892467D02*
G01*
X112820570Y-72929430D01*
X112857533Y-72984749D01*
X112873000Y-73062509D01*
X112873000Y-75437491D01*
X112857533Y-75515251D01*
X112820570Y-75570570D01*
X112765251Y-75607533D01*
X112687491Y-75623000D01*
X108312509Y-75623000D01*
X108234749Y-75607533D01*
X108179430Y-75570570D01*
X108142467Y-75515251D01*
X108127000Y-75437491D01*
X108127000Y-73062509D01*
X108142467Y-72984749D01*
X108179430Y-72929430D01*
X108234749Y-72892467D01*
X108312509Y-72877000D01*
X112687491Y-72877000D01*
X112765251Y-72892467D01*
G37*
G04 #@! TD.AperFunction*
M02*
